<svg width="19" height="20" viewBox="0 0 19 20" fill="none" xmlns="http://www.w3.org/2000/svg">
<path d="M8.54396 2.42993H10.4529C12.5473 2.42993 14.5559 3.26193 16.0368 4.74288C17.5178 6.22384 18.3498 8.23245 18.3498 10.3268V10.3268C18.3498 10.4843 18.2872 10.6353 18.1759 10.7467C18.0645 10.858 17.9135 10.9206 17.756 10.9206H1.23487C1.07739 10.9206 0.926369 10.858 0.815019 10.7467C0.703669 10.6353 0.641113 10.4843 0.641113 10.3268C0.641113 9.28931 0.845569 8.26194 1.2428 7.30345C1.64003 6.34497 2.22224 5.47416 2.95616 4.74078C3.69009 4.00741 4.56134 3.42585 5.52012 3.02935C6.4789 2.63284 7.50642 2.42915 8.54396 2.42993V2.42993Z" stroke="white" stroke-width="1.17083" stroke-linecap="round" stroke-linejoin="round"/>
<path d="M17.4951 10.9116H1.50537V13.0283H17.4951V10.9116Z" fill="black" stroke="white" stroke-width="1.17083" stroke-linecap="round" stroke-linejoin="round"/>
<path d="M1.2199 13.0286H17.7797C17.8545 13.0286 17.9286 13.0433 17.9978 13.072C18.067 13.1006 18.1298 13.1426 18.1827 13.1955C18.2356 13.2484 18.2776 13.3113 18.3063 13.3804C18.3349 13.4496 18.3497 13.5237 18.3497 13.5986V13.5986C18.3497 14.6547 17.9303 15.6676 17.1838 16.4147C16.4373 17.1618 15.4247 17.5819 14.3686 17.5826H4.63398C3.57734 17.5826 2.56397 17.1629 1.81681 16.4157C1.06965 15.6686 0.649902 14.6552 0.649902 13.5986V13.5986C0.649902 13.5237 0.664646 13.4496 0.693291 13.3804C0.721937 13.3113 0.763923 13.2484 0.816852 13.1955C0.869782 13.1426 0.932618 13.1006 1.00177 13.072C1.07093 13.0433 1.14505 13.0286 1.2199 13.0286V13.0286Z" stroke="white" stroke-width="1.17083" stroke-linecap="round" stroke-linejoin="round"/>
<path d="M10.8864 14.9345L8.24121 13.0286H15.96L13.3178 14.9345C12.9638 15.1898 12.5385 15.3272 12.1021 15.3272C11.6657 15.3272 11.2403 15.1898 10.8864 14.9345Z" fill="black" stroke="white" stroke-width="1.17083" stroke-linecap="round" stroke-linejoin="round"/>
</svg>
