<svg width="32" height="48" viewBox="0 0 32 48" fill="none" xmlns="http://www.w3.org/2000/svg">
<path d="M14.4432 2.12622H16.553C18.8679 2.12622 21.0879 3.04579 22.7247 4.68263C24.3616 6.31947 25.2812 8.53951 25.2812 10.8543V10.8543C25.2812 11.0284 25.212 11.1953 25.0889 11.3184C24.9659 11.4415 24.799 11.5106 24.6249 11.5106H6.36475C6.1907 11.5106 6.02378 11.4415 5.90071 11.3184C5.77764 11.1953 5.7085 11.0284 5.7085 10.8543C5.7085 9.7076 5.93447 8.5721 6.37351 7.51272C6.81255 6.45335 7.45605 5.49088 8.26722 4.68031C9.0784 3.86974 10.0414 3.22697 11.1011 2.78873C12.1608 2.35048 13.2964 2.12536 14.4432 2.12622V2.12622Z" stroke="white" stroke-width="1.29407" stroke-linecap="round" stroke-linejoin="round"/>
<path d="M14.4427 2.77122C14.4429 2.77122 14.443 2.77122 14.4432 2.77122H16.553C18.6968 2.77122 20.7528 3.62284 22.2687 5.13872C23.7845 6.6546 24.6362 8.71057 24.6362 10.8543C24.6362 10.8573 24.635 10.8602 24.6329 10.8623C24.6307 10.8644 24.6279 10.8656 24.6249 10.8656H6.36475C6.36176 10.8656 6.3589 10.8644 6.35679 10.8623C6.35468 10.8602 6.3535 10.8573 6.3535 10.8543C6.3535 9.79235 6.56277 8.74075 6.96937 7.75967C7.37596 6.77858 7.97191 5.88723 8.72314 5.13657C9.47437 4.3859 10.3662 3.79063 11.3476 3.38477C12.3289 2.97891 13.3807 2.77042 14.4427 2.77122Z" stroke="white" stroke-width="1.29" stroke-linecap="round" stroke-linejoin="round"/>
<path d="M24.3369 11.5005H6.66406V13.84H24.3369V11.5005Z" fill="black" stroke="white" stroke-width="1.29407" stroke-linecap="round" stroke-linejoin="round"/>
<path d="M6.34826 13.8403H24.6511C24.7338 13.8403 24.8157 13.8566 24.8922 13.8883C24.9686 13.9199 25.0381 13.9664 25.0966 14.0249C25.1551 14.0834 25.2015 14.1528 25.2331 14.2292C25.2648 14.3057 25.2811 14.3876 25.2811 14.4703V14.4703C25.2811 15.6376 24.8176 16.7572 23.9925 17.5829C23.1674 18.4086 22.0482 18.8729 20.8809 18.8738H10.1217C8.95384 18.8738 7.8338 18.4098 7.008 17.584C6.18219 16.7582 5.71826 15.6382 5.71826 14.4703V14.4703C5.71826 14.3876 5.73456 14.3057 5.76622 14.2292C5.79788 14.1528 5.84428 14.0834 5.90278 14.0249C5.96129 13.9664 6.03074 13.9199 6.10717 13.8883C6.18361 13.8566 6.26553 13.8403 6.34826 13.8403V13.8403Z" stroke="white" stroke-width="1.29407" stroke-linecap="round" stroke-linejoin="round"/>
<path d="M6.36329 14.4853H24.636C24.6321 15.4762 24.2369 16.4257 23.5362 17.127C22.832 17.8317 21.8768 18.228 20.8804 18.2288H10.1217C9.1249 18.2288 8.16893 17.8328 7.46408 17.1279C6.76278 16.4266 6.36724 15.4767 6.36329 14.4853Z" stroke="white" stroke-width="1.29" stroke-linecap="round" stroke-linejoin="round"/>
<path d="M17.0325 15.9469L14.1089 13.8403H22.6401L19.7198 15.9469C19.3286 16.2291 18.8585 16.3809 18.3762 16.3809C17.8938 16.3809 17.4237 16.2291 17.0325 15.9469V15.9469Z" fill="white" stroke="white" stroke-width="1.29407" stroke-linecap="round" stroke-linejoin="round"/>
<g filter="url(#filter0_d_1923_23928)">
<path d="M8.98828 37.125C8.98828 37.5482 8.88086 37.9079 8.66602 38.2041C8.45443 38.4971 8.16146 38.7201 7.78711 38.873C7.41602 39.0228 6.98307 39.0977 6.48828 39.0977C6.21159 39.0977 5.9528 39.0846 5.71191 39.0586C5.47428 39.0326 5.25618 38.9951 5.05762 38.9463C4.8623 38.8975 4.68652 38.8405 4.53027 38.7754V38.0918C4.78092 38.1927 5.07715 38.2839 5.41895 38.3652C5.764 38.4466 6.13021 38.4873 6.51758 38.4873C6.88216 38.4873 7.19629 38.4368 7.45996 38.3359C7.72363 38.235 7.92708 38.0869 8.07031 37.8916C8.21354 37.6963 8.28516 37.457 8.28516 37.1738C8.28516 36.9102 8.22493 36.6921 8.10449 36.5195C7.98405 36.3438 7.79362 36.1891 7.5332 36.0557C7.27604 35.9189 6.93424 35.7773 6.50781 35.6309C6.20833 35.5267 5.94141 35.4144 5.70703 35.2939C5.47266 35.1702 5.27409 35.0303 5.11133 34.874C4.95182 34.7145 4.82975 34.529 4.74512 34.3174C4.66374 34.1025 4.62305 33.8551 4.62305 33.5752C4.62305 33.1911 4.7207 32.8639 4.91602 32.5938C5.11133 32.3203 5.37988 32.1136 5.72168 31.9736C6.06673 31.8304 6.45898 31.7588 6.89844 31.7588C7.26302 31.7588 7.60482 31.793 7.92383 31.8613C8.24284 31.9297 8.54069 32.0257 8.81738 32.1494L8.58789 32.7549C8.32096 32.641 8.04264 32.5514 7.75293 32.4863C7.46647 32.418 7.17513 32.3838 6.87891 32.3838C6.56315 32.3838 6.28971 32.431 6.05859 32.5254C5.82747 32.6165 5.64844 32.7516 5.52148 32.9307C5.39453 33.1064 5.33105 33.3213 5.33105 33.5752C5.33105 33.8486 5.39128 34.0749 5.51172 34.2539C5.63216 34.4297 5.81445 34.5811 6.05859 34.708C6.30273 34.835 6.61198 34.9652 6.98633 35.0986C7.40625 35.2484 7.76432 35.4062 8.06055 35.5723C8.36003 35.7383 8.58952 35.9434 8.74902 36.1875C8.90853 36.4316 8.98828 36.7441 8.98828 37.125ZM11.9668 38.5264C12.1068 38.5264 12.2451 38.515 12.3818 38.4922C12.5186 38.4694 12.6341 38.4417 12.7285 38.4092V38.9512C12.6276 38.9902 12.499 39.0244 12.3428 39.0537C12.1865 39.083 12.027 39.0977 11.8643 39.0977C11.5745 39.0977 11.3206 39.0456 11.1025 38.9414C10.8844 38.8372 10.7135 38.668 10.5898 38.4336C10.4661 38.1992 10.4043 37.8851 10.4043 37.4912V34.2148H9.62793V33.8584L10.4043 33.6045L10.668 32.4082H11.0928V33.668H12.6943V34.2148H11.0928V37.4619C11.0928 37.8167 11.1676 38.0837 11.3174 38.2627C11.4671 38.4385 11.6836 38.5264 11.9668 38.5264ZM15.7705 33.5752C16.389 33.5752 16.848 33.7201 17.1475 34.0098C17.4502 34.2995 17.6016 34.7601 17.6016 35.3916V39H17.0938L16.9619 38.1553H16.9277C16.791 38.3506 16.6413 38.5199 16.4785 38.6631C16.3158 38.8031 16.1237 38.9105 15.9023 38.9854C15.681 39.0602 15.4092 39.0977 15.0869 39.0977C14.7549 39.0977 14.4652 39.0407 14.2178 38.9268C13.9704 38.8128 13.7767 38.6436 13.6367 38.4189C13.4967 38.1911 13.4268 37.9079 13.4268 37.5693C13.4268 37.0387 13.64 36.6335 14.0664 36.3535C14.4961 36.0703 15.1341 35.9141 15.9805 35.8848L16.9277 35.8408V35.4893C16.9277 34.9945 16.8252 34.6462 16.6201 34.4443C16.415 34.2393 16.1204 34.1367 15.7363 34.1367C15.4596 34.1367 15.1943 34.1758 14.9404 34.2539C14.6865 34.332 14.4391 34.4297 14.1982 34.5469L13.9883 34.0098C14.2324 33.8893 14.5059 33.7868 14.8086 33.7021C15.1146 33.6175 15.4352 33.5752 15.7705 33.5752ZM16.9229 36.3389L16.0635 36.373C15.3929 36.4023 14.9046 36.5163 14.5986 36.7148C14.2959 36.9134 14.1445 37.2015 14.1445 37.5791C14.1445 37.8949 14.2422 38.1325 14.4375 38.292C14.6328 38.4515 14.8965 38.5312 15.2285 38.5312C15.7461 38.5312 16.1562 38.3864 16.459 38.0967C16.765 37.807 16.9196 37.3887 16.9229 36.8418V36.3389ZM19.9795 39H19.2861V31.4023H19.9795V39ZM22.4014 39H21.708V31.4023H22.4014V39ZM27.5381 37.5645C27.5381 37.8965 27.4551 38.1764 27.2891 38.4043C27.123 38.6322 26.8838 38.8047 26.5713 38.9219C26.2588 39.0391 25.8828 39.0977 25.4434 39.0977C25.0723 39.0977 24.7467 39.0667 24.4668 39.0049C24.1868 38.943 23.946 38.8617 23.7441 38.7607V38.1162C23.972 38.2269 24.2357 38.3245 24.5352 38.4092C24.8346 38.4906 25.1423 38.5312 25.458 38.5312C25.9528 38.5312 26.3109 38.4499 26.5322 38.2871C26.7536 38.1243 26.8643 37.9014 26.8643 37.6182C26.8643 37.4456 26.8154 37.2992 26.7178 37.1787C26.6201 37.055 26.4688 36.9411 26.2637 36.8369C26.0586 36.7327 25.79 36.6221 25.458 36.5049C25.1227 36.3812 24.8298 36.2591 24.5791 36.1387C24.3285 36.0182 24.1331 35.8669 23.9932 35.6846C23.8564 35.499 23.7881 35.2549 23.7881 34.9521C23.7881 34.5094 23.9655 34.1676 24.3203 33.9268C24.6784 33.6859 25.152 33.5654 25.7412 33.5654C26.0635 33.5654 26.363 33.5964 26.6396 33.6582C26.9196 33.7201 27.1784 33.8031 27.416 33.9072L27.1816 34.4639C26.9668 34.3695 26.7308 34.2913 26.4736 34.2295C26.2197 34.1676 25.9609 34.1367 25.6973 34.1367C25.3001 34.1367 24.9925 34.2051 24.7744 34.3418C24.5596 34.4753 24.4521 34.6657 24.4521 34.9131C24.4521 35.1019 24.5026 35.2549 24.6035 35.3721C24.7077 35.486 24.8639 35.5885 25.0723 35.6797C25.2839 35.7708 25.5508 35.8766 25.873 35.9971C26.1986 36.1143 26.4867 36.2363 26.7373 36.3633C26.988 36.487 27.1833 36.6432 27.3232 36.832C27.4665 37.0176 27.5381 37.2617 27.5381 37.5645Z" fill="#FAFAFA"/>
</g>
<defs>
<filter id="filter0_d_1923_23928" x="0.530273" y="31.4023" width="31.0078" height="15.6953" filterUnits="userSpaceOnUse" color-interpolation-filters="sRGB">
<feFlood flood-opacity="0" result="BackgroundImageFix"/>
<feColorMatrix in="SourceAlpha" type="matrix" values="0 0 0 0 0 0 0 0 0 0 0 0 0 0 0 0 0 0 127 0" result="hardAlpha"/>
<feOffset dy="4"/>
<feGaussianBlur stdDeviation="2"/>
<feComposite in2="hardAlpha" operator="out"/>
<feColorMatrix type="matrix" values="0 0 0 0 0 0 0 0 0 0 0 0 0 0 0 0 0 0 0.25 0"/>
<feBlend mode="normal" in2="BackgroundImageFix" result="effect1_dropShadow_1923_23928"/>
<feBlend mode="normal" in="SourceGraphic" in2="effect1_dropShadow_1923_23928" result="shape"/>
</filter>
</defs>
</svg>
