<svg width="31" height="46" viewBox="0 0 31 46" fill="none" xmlns="http://www.w3.org/2000/svg">
<path d="M4.93164 42H0.986328V34.8613H4.93164V35.4863H1.68945V37.9473H4.75098V38.5674H1.68945V41.375H4.93164V42ZM7.57812 42L5.54688 36.668H6.2793L7.5293 40.0518C7.61393 40.2731 7.69368 40.5042 7.76855 40.7451C7.84668 40.986 7.90527 41.1878 7.94434 41.3506H7.97363C8.01921 41.1878 8.08268 40.986 8.16406 40.7451C8.24544 40.501 8.3252 40.2699 8.40332 40.0518L9.64844 36.668H10.3857L8.34961 42H7.57812ZM13.2959 36.5654C13.7516 36.5654 14.1374 36.668 14.4531 36.873C14.7689 37.0781 15.0081 37.3646 15.1709 37.7324C15.3337 38.097 15.415 38.5186 15.415 38.9971V39.4463H11.665C11.6715 40.1136 11.8327 40.6247 12.1484 40.9795C12.4642 41.3311 12.9118 41.5068 13.4912 41.5068C13.8265 41.5068 14.1211 41.4775 14.375 41.4189C14.6289 41.3604 14.8991 41.2676 15.1855 41.1406V41.7559C14.9186 41.873 14.6533 41.9593 14.3896 42.0146C14.126 42.07 13.8184 42.0977 13.4668 42.0977C12.9427 42.0977 12.4935 41.9902 12.1191 41.7754C11.7448 41.5605 11.4567 41.2497 11.2549 40.8428C11.0563 40.4359 10.957 39.946 10.957 39.373C10.957 38.8164 11.0498 38.3265 11.2354 37.9033C11.4242 37.4801 11.6927 37.1514 12.041 36.917C12.3893 36.6826 12.8076 36.5654 13.2959 36.5654ZM13.2861 37.1367C12.8239 37.1367 12.4528 37.2897 12.1729 37.5957C11.8962 37.8984 11.7318 38.3281 11.6797 38.8848H14.6973C14.694 38.5397 14.6419 38.2354 14.541 37.9717C14.4401 37.708 14.2855 37.5029 14.0771 37.3564C13.8721 37.21 13.6084 37.1367 13.2861 37.1367ZM19.2773 36.5654C19.8991 36.5654 20.3711 36.7217 20.6934 37.0342C21.0156 37.3467 21.1768 37.8415 21.1768 38.5186V42H20.498V38.5625C20.498 38.084 20.389 37.7292 20.1709 37.498C19.9528 37.2669 19.6257 37.1514 19.1895 37.1514C18.6035 37.1514 18.1771 37.3206 17.9102 37.6592C17.6432 37.9945 17.5098 38.4909 17.5098 39.1484V42H16.8213V36.668H17.3779L17.4805 37.5127H17.5195C17.6237 37.3206 17.762 37.1546 17.9346 37.0146C18.1071 36.8714 18.3057 36.7607 18.5303 36.6826C18.7581 36.6045 19.0072 36.5654 19.2773 36.5654ZM24.4824 41.5264C24.6224 41.5264 24.7607 41.515 24.8975 41.4922C25.0342 41.4694 25.1497 41.4417 25.2441 41.4092V41.9512C25.1432 41.9902 25.0146 42.0244 24.8584 42.0537C24.7021 42.083 24.5426 42.0977 24.3799 42.0977C24.0902 42.0977 23.8363 42.0456 23.6182 41.9414C23.4001 41.8372 23.2292 41.668 23.1055 41.4336C22.9818 41.1992 22.9199 40.8851 22.9199 40.4912V37.2148H22.1436V36.8584L22.9199 36.6045L23.1836 35.4082H23.6084V36.668H25.21V37.2148H23.6084V40.4619C23.6084 40.8167 23.6833 41.0837 23.833 41.2627C23.9827 41.4385 24.1992 41.5264 24.4824 41.5264ZM29.751 40.5645C29.751 40.8965 29.668 41.1764 29.502 41.4043C29.3359 41.6322 29.0967 41.8047 28.7842 41.9219C28.4717 42.0391 28.0957 42.0977 27.6562 42.0977C27.2852 42.0977 26.9596 42.0667 26.6797 42.0049C26.3997 41.943 26.1589 41.8617 25.957 41.7607V41.1162C26.1849 41.2269 26.4486 41.3245 26.748 41.4092C27.0475 41.4906 27.3551 41.5312 27.6709 41.5312C28.1657 41.5312 28.5238 41.4499 28.7451 41.2871C28.9665 41.1243 29.0771 40.9014 29.0771 40.6182C29.0771 40.4456 29.0283 40.2992 28.9307 40.1787C28.833 40.055 28.6816 39.9411 28.4766 39.8369C28.2715 39.7327 28.0029 39.6221 27.6709 39.5049C27.3356 39.3812 27.0426 39.2591 26.792 39.1387C26.5413 39.0182 26.346 38.8669 26.2061 38.6846C26.0693 38.499 26.001 38.2549 26.001 37.9521C26.001 37.5094 26.1784 37.1676 26.5332 36.9268C26.8913 36.6859 27.3649 36.5654 27.9541 36.5654C28.2764 36.5654 28.5758 36.5964 28.8525 36.6582C29.1325 36.7201 29.3913 36.8031 29.6289 36.9072L29.3945 37.4639C29.1797 37.3695 28.9437 37.2913 28.6865 37.2295C28.4326 37.1676 28.1738 37.1367 27.9102 37.1367C27.513 37.1367 27.2054 37.2051 26.9873 37.3418C26.7725 37.4753 26.665 37.6657 26.665 37.9131C26.665 38.1019 26.7155 38.2549 26.8164 38.3721C26.9206 38.486 27.0768 38.5885 27.2852 38.6797C27.4967 38.7708 27.7637 38.8766 28.0859 38.9971C28.4115 39.1143 28.6995 39.2363 28.9502 39.3633C29.2008 39.487 29.3962 39.6432 29.5361 39.832C29.6794 40.0176 29.751 40.2617 29.751 40.5645Z" fill="#FAFAFA"/>
<rect x="5" y="2.93494" width="20" height="20.6452" rx="4" fill="#FAFAFA" stroke="#FAFAFA" stroke-width="1.5" stroke-linejoin="round"/>
<path d="M5.38721 9.38672H24.742" stroke="#020309" stroke-width="1.5" stroke-linecap="round"/>
<path d="M20.2261 1V4.87097" stroke="#FAFAFA" stroke-width="1.5" stroke-linecap="round"/>
<path d="M10.5483 1V4.87097" stroke="#FAFAFA" stroke-width="1.5" stroke-linecap="round"/>
<circle cx="9.96774" cy="13.581" r="0.967742" fill="#EDA592" stroke="#020309" stroke-width="1.5"/>
<circle cx="15.1294" cy="13.581" r="0.967742" fill="#EDA592" stroke="#020309" stroke-width="1.5"/>
<circle cx="20.2905" cy="13.581" r="0.967742" fill="#EDA592" stroke="#020309" stroke-width="1.5"/>
<circle cx="9.96774" cy="18.7428" r="0.967742" fill="#EDA592" stroke="#020309" stroke-width="1.5"/>
<circle cx="15.1294" cy="18.7428" r="0.967742" fill="#EDA592" stroke="#020309" stroke-width="1.5"/>
<circle cx="20.2905" cy="18.7428" r="0.967742" fill="#EDA592" stroke="#020309" stroke-width="1.5"/>
</svg>
