<svg width="25" height="44" viewBox="0 0 25 44" fill="none" xmlns="http://www.w3.org/2000/svg">
<path d="M4.40918 40L1.92871 33.5742H1.89453C1.9043 33.7044 1.91243 33.8542 1.91895 34.0234C1.92871 34.1895 1.93522 34.3701 1.93848 34.5654C1.94499 34.7575 1.94824 34.9561 1.94824 35.1611V40H1.28906V32.8613H2.33887L4.70215 38.9648H4.73633L7.12891 32.8613H8.16406V40H7.4707V35.1025C7.4707 34.9235 7.47233 34.7428 7.47559 34.5605C7.4821 34.3783 7.48861 34.2041 7.49512 34.0381C7.50488 33.8688 7.51465 33.7174 7.52441 33.584H7.49023L4.98047 40H4.40918ZM14.5557 37.3242C14.5557 37.7507 14.5003 38.1348 14.3896 38.4766C14.2822 38.8184 14.1243 39.1097 13.916 39.3506C13.7077 39.5915 13.4538 39.777 13.1543 39.9072C12.8548 40.0342 12.5114 40.0977 12.124 40.0977C11.7594 40.0977 11.429 40.0342 11.1328 39.9072C10.8398 39.777 10.5876 39.5931 10.376 39.3555C10.1676 39.1146 10.0065 38.8232 9.89258 38.4814C9.7819 38.1396 9.72656 37.7539 9.72656 37.3242C9.72656 36.7448 9.82422 36.25 10.0195 35.8398C10.2148 35.4264 10.4932 35.1107 10.8545 34.8926C11.2191 34.6745 11.6553 34.5654 12.1631 34.5654C12.6611 34.5654 13.0892 34.6777 13.4473 34.9023C13.8053 35.127 14.0788 35.446 14.2676 35.8594C14.4596 36.2695 14.5557 36.7578 14.5557 37.3242ZM10.4346 37.3242C10.4346 37.7669 10.4948 38.1527 10.6152 38.4814C10.7389 38.8102 10.9261 39.0658 11.1768 39.248C11.4274 39.4271 11.748 39.5166 12.1387 39.5166C12.5326 39.5166 12.8548 39.4271 13.1055 39.248C13.3594 39.0658 13.5465 38.8102 13.667 38.4814C13.7874 38.1494 13.8477 37.7637 13.8477 37.3242C13.8477 36.8913 13.7874 36.512 13.667 36.1865C13.5498 35.861 13.3659 35.6071 13.1152 35.4248C12.8678 35.2425 12.5456 35.1514 12.1484 35.1514C11.569 35.1514 11.1377 35.3434 10.8545 35.7275C10.5745 36.1117 10.4346 36.6439 10.4346 37.3242ZM18.291 34.5703C18.4115 34.5703 18.5303 34.5768 18.6475 34.5898C18.7679 34.6029 18.877 34.6208 18.9746 34.6436L18.8818 35.2783C18.7874 35.2555 18.6849 35.2376 18.5742 35.2246C18.4668 35.2083 18.3594 35.2002 18.252 35.2002C18.0241 35.2002 17.8125 35.2458 17.6172 35.3369C17.4251 35.4248 17.2591 35.5534 17.1191 35.7227C16.9792 35.8887 16.8701 36.0889 16.792 36.3232C16.7139 36.5576 16.6748 36.818 16.6748 37.1045V40H15.9814V34.668H16.5576L16.6309 35.6592H16.665C16.7627 35.4574 16.888 35.2751 17.041 35.1123C17.194 34.9463 17.3747 34.8145 17.583 34.7168C17.7946 34.6191 18.0306 34.5703 18.291 34.5703ZM22.0361 34.5654C22.4919 34.5654 22.8776 34.668 23.1934 34.873C23.5091 35.0781 23.7484 35.3646 23.9111 35.7324C24.0739 36.097 24.1553 36.5186 24.1553 36.9971V37.4463H20.4053C20.4118 38.1136 20.5729 38.6247 20.8887 38.9795C21.2044 39.3311 21.652 39.5068 22.2314 39.5068C22.5667 39.5068 22.8613 39.4775 23.1152 39.4189C23.3691 39.3604 23.6393 39.2676 23.9258 39.1406V39.7559C23.6589 39.873 23.3936 39.9593 23.1299 40.0146C22.8662 40.07 22.5586 40.0977 22.207 40.0977C21.6829 40.0977 21.2337 39.9902 20.8594 39.7754C20.485 39.5605 20.1969 39.2497 19.9951 38.8428C19.7965 38.4359 19.6973 37.946 19.6973 37.373C19.6973 36.8164 19.79 36.3265 19.9756 35.9033C20.1644 35.4801 20.4329 35.1514 20.7812 34.917C21.1296 34.6826 21.5479 34.5654 22.0361 34.5654ZM22.0264 35.1367C21.5641 35.1367 21.193 35.2897 20.9131 35.5957C20.6364 35.8984 20.472 36.3281 20.4199 36.8848H23.4375C23.4342 36.5397 23.3822 36.2354 23.2812 35.9717C23.1803 35.708 23.0257 35.5029 22.8174 35.3564C22.6123 35.21 22.3486 35.1367 22.0264 35.1367Z" fill="#FAFAFA"/>
<rect x="2" y="1" width="8.64706" height="8.64706" rx="2" fill="white" stroke="#FAFAFA" stroke-width="1.5"/>
<rect x="14.3525" y="1" width="8.64706" height="8.64706" rx="2" fill="white" stroke="#FAFAFA" stroke-width="1.5"/>
<rect x="14.3525" y="13.3534" width="8.64706" height="8.64706" rx="2" fill="white" stroke="#FAFAFA" stroke-width="1.5"/>
<rect x="2" y="13.3534" width="8.64706" height="8.64706" rx="2" fill="white" stroke="#FAFAFA" stroke-width="1.5"/>
</svg>
