<svg width="40" height="49" viewBox="0 0 40 49" fill="none" xmlns="http://www.w3.org/2000/svg">
<path fill-rule="evenodd" clip-rule="evenodd" d="M19.5546 1C20.337 1 20.9713 1.63427 20.9713 2.41667V16.2414H8.41667C7.63426 16.2414 7 15.6071 7 14.8247V2.41667C7 1.63426 7.63426 1 8.41667 1H19.5546ZM32.653 10.2833C32.653 10.0265 32.5832 9.77455 32.4511 9.55438L29.2553 4.22808C28.9993 3.80137 28.5381 3.54028 28.0405 3.54028H23.2219H21.2219V5.54028V14.2414V16.2414H23.2219H30.653H32.653V14.2414V10.2833ZM27.7102 5.54028H23.2219V14.2414H30.653V10.4448L27.7102 5.54028Z" fill="white"/>
<path d="M20.9713 16.2414V16.9914H21.7213V16.2414H20.9713ZM32.4511 9.55438L33.0942 9.16851V9.16851L32.4511 9.55438ZM29.2553 4.22808L29.8984 3.84221V3.84221L29.2553 4.22808ZM21.2219 3.54028V2.79028H20.4719V3.54028H21.2219ZM21.2219 16.2414H20.4719V16.9914H21.2219V16.2414ZM32.653 16.2414V16.9914H33.403V16.2414H32.653ZM23.2219 5.54028V4.79028H22.4719V5.54028H23.2219ZM27.7102 5.54028L28.3534 5.15441L28.1349 4.79028H27.7102V5.54028ZM23.2219 14.2414H22.4719V14.9914H23.2219V14.2414ZM30.653 14.2414V14.9914H31.403V14.2414H30.653ZM30.653 10.4448H31.403V10.2371L31.2961 10.059L30.653 10.4448ZM21.7213 2.41667C21.7213 1.22005 20.7512 0.25 19.5546 0.25V1.75C19.9228 1.75 20.2213 2.04848 20.2213 2.41667H21.7213ZM21.7213 16.2414V2.41667H20.2213V16.2414H21.7213ZM8.41667 16.9914H20.9713V15.4914H8.41667V16.9914ZM6.25 14.8247C6.25 16.0213 7.22005 16.9914 8.41667 16.9914V15.4914C8.04848 15.4914 7.75 15.1929 7.75 14.8247H6.25ZM6.25 2.41667V14.8247H7.75V2.41667H6.25ZM8.41667 0.25C7.22005 0.25 6.25 1.22005 6.25 2.41667H7.75C7.75 2.04848 8.04848 1.75 8.41667 1.75V0.25ZM19.5546 0.25H8.41667V1.75H19.5546V0.25ZM31.808 9.94025C31.8701 10.0439 31.903 10.1624 31.903 10.2833H33.403C33.403 9.89056 33.2962 9.50524 33.0942 9.16851L31.808 9.94025ZM28.6122 4.61395L31.808 9.94025L33.0942 9.16851L29.8984 3.84221L28.6122 4.61395ZM28.0405 4.29028C28.2747 4.29028 28.4917 4.41315 28.6122 4.61395L29.8984 3.84221C29.5069 3.1896 28.8016 2.79028 28.0405 2.79028V4.29028ZM23.2219 4.29028H28.0405V2.79028H23.2219V4.29028ZM21.2219 4.29028H23.2219V2.79028H21.2219V4.29028ZM21.9719 5.54028V3.54028H20.4719V5.54028H21.9719ZM21.9719 14.2414V5.54028H20.4719V14.2414H21.9719ZM21.9719 16.2414V14.2414H20.4719V16.2414H21.9719ZM23.2219 15.4914H21.2219V16.9914H23.2219V15.4914ZM30.653 15.4914H23.2219V16.9914H30.653V15.4914ZM32.653 15.4914H30.653V16.9914H32.653V15.4914ZM31.903 14.2414V16.2414H33.403V14.2414H31.903ZM31.903 10.2833V14.2414H33.403V10.2833H31.903ZM23.2219 6.29028H27.7102V4.79028H23.2219V6.29028ZM23.9719 14.2414V5.54028H22.4719V14.2414H23.9719ZM30.653 13.4914H23.2219V14.9914H30.653V13.4914ZM29.903 10.4448V14.2414H31.403V10.4448H29.903ZM27.0671 5.92616L30.0099 10.8307L31.2961 10.059L28.3534 5.15441L27.0671 5.92616Z" fill="#FAFAFA"/>
<circle cx="12.3303" cy="16.8764" r="2.54023" fill="black" stroke="#FAFAFA" stroke-width="1.5"/>
<circle cx="27.5705" cy="16.8764" r="2.54023" fill="black" stroke="#FAFAFA" stroke-width="1.5"/>
<g filter="url(#filter0_d_1323_18550)">
<path d="M10.5596 36.4209C10.5596 36.9678 10.4896 37.4674 10.3496 37.9199C10.2129 38.3691 10.0078 38.7565 9.73438 39.082C9.46419 39.4043 9.12728 39.6549 8.72363 39.834C8.31999 40.0098 7.85124 40.0977 7.31738 40.0977C6.77051 40.0977 6.29362 40.0098 5.88672 39.834C5.47982 39.6549 5.14128 39.4027 4.87109 39.0771C4.60091 38.7516 4.39909 38.3626 4.26562 37.9102C4.13216 37.4577 4.06543 36.958 4.06543 36.4111C4.06543 35.6852 4.18587 35.0472 4.42676 34.4971C4.6709 33.9469 5.03548 33.5189 5.52051 33.2129C6.00879 32.9036 6.61589 32.749 7.3418 32.749C8.03516 32.749 8.62109 32.8988 9.09961 33.1982C9.57812 33.4977 9.94108 33.9225 10.1885 34.4727C10.4359 35.0195 10.5596 35.6689 10.5596 36.4209ZM4.80273 36.4209C4.80273 37.0394 4.89225 37.5781 5.07129 38.0371C5.25358 38.4961 5.53027 38.8525 5.90137 39.1064C6.27572 39.3604 6.74772 39.4873 7.31738 39.4873C7.89355 39.4873 8.36556 39.362 8.7334 39.1113C9.10449 38.8574 9.37793 38.501 9.55371 38.042C9.73275 37.583 9.82227 37.0426 9.82227 36.4209C9.82227 35.4606 9.61719 34.7135 9.20703 34.1797C8.80013 33.6426 8.17839 33.374 7.3418 33.374C6.76562 33.374 6.29036 33.4993 5.91602 33.75C5.54167 34.0007 5.26172 34.3538 5.07617 34.8096C4.89388 35.262 4.80273 35.7992 4.80273 36.4209ZM14.3486 34.5703C14.4691 34.5703 14.5879 34.5768 14.7051 34.5898C14.8255 34.6029 14.9346 34.6208 15.0322 34.6436L14.9395 35.2783C14.8451 35.2555 14.7425 35.2376 14.6318 35.2246C14.5244 35.2083 14.417 35.2002 14.3096 35.2002C14.0817 35.2002 13.8701 35.2458 13.6748 35.3369C13.4827 35.4248 13.3167 35.5534 13.1768 35.7227C13.0368 35.8887 12.9277 36.0889 12.8496 36.3232C12.7715 36.5576 12.7324 36.818 12.7324 37.1045V40H12.0391V34.668H12.6152L12.6885 35.6592H12.7227C12.8203 35.4574 12.9456 35.2751 13.0986 35.1123C13.2516 34.9463 13.4323 34.8145 13.6406 34.7168C13.8522 34.6191 14.0882 34.5703 14.3486 34.5703ZM17.9668 40.0977C17.2702 40.0977 16.7266 39.8682 16.3359 39.4092C15.9486 38.9469 15.7549 38.2666 15.7549 37.3682C15.7549 36.4502 15.9551 35.7536 16.3555 35.2783C16.7591 34.8031 17.3044 34.5654 17.9912 34.5654C18.2842 34.5654 18.5381 34.6077 18.7529 34.6924C18.971 34.7738 19.1566 34.8844 19.3096 35.0244C19.4658 35.1611 19.5928 35.319 19.6904 35.498H19.7393C19.7262 35.3678 19.7148 35.2116 19.7051 35.0293C19.6953 34.8438 19.6904 34.6842 19.6904 34.5508V32.4023H20.374V40H19.8174L19.7197 39.1553H19.6904C19.5928 39.3311 19.4658 39.4906 19.3096 39.6338C19.1566 39.7738 18.9694 39.8861 18.748 39.9707C18.5299 40.0553 18.2695 40.0977 17.9668 40.0977ZM18.0645 39.5166C18.6569 39.5166 19.0768 39.3424 19.3242 38.9941C19.5716 38.6426 19.6953 38.1315 19.6953 37.4609V37.3389C19.6953 36.6325 19.5749 36.0905 19.334 35.7129C19.0931 35.3353 18.6748 35.1465 18.0791 35.1465C17.5452 35.1465 17.1416 35.3434 16.8682 35.7373C16.598 36.1279 16.4629 36.6781 16.4629 37.3877C16.4629 38.0745 16.5947 38.6019 16.8584 38.9697C17.1221 39.3343 17.5241 39.5166 18.0645 39.5166ZM24.1484 34.5654C24.6042 34.5654 24.9899 34.668 25.3057 34.873C25.6214 35.0781 25.8607 35.3646 26.0234 35.7324C26.1862 36.097 26.2676 36.5186 26.2676 36.9971V37.4463H22.5176C22.5241 38.1136 22.6852 38.6247 23.001 38.9795C23.3167 39.3311 23.7643 39.5068 24.3438 39.5068C24.679 39.5068 24.9736 39.4775 25.2275 39.4189C25.4814 39.3604 25.7516 39.2676 26.0381 39.1406V39.7559C25.7712 39.873 25.5059 39.9593 25.2422 40.0146C24.9785 40.07 24.6709 40.0977 24.3193 40.0977C23.7952 40.0977 23.346 39.9902 22.9717 39.7754C22.5973 39.5605 22.3092 39.2497 22.1074 38.8428C21.9089 38.4359 21.8096 37.946 21.8096 37.373C21.8096 36.8164 21.9023 36.3265 22.0879 35.9033C22.2767 35.4801 22.5452 35.1514 22.8936 34.917C23.2419 34.6826 23.6602 34.5654 24.1484 34.5654ZM24.1387 35.1367C23.6764 35.1367 23.3053 35.2897 23.0254 35.5957C22.7487 35.8984 22.5843 36.3281 22.5322 36.8848H25.5498C25.5465 36.5397 25.4945 36.2354 25.3936 35.9717C25.2926 35.708 25.138 35.5029 24.9297 35.3564C24.7246 35.21 24.4609 35.1367 24.1387 35.1367ZM29.9834 34.5703C30.1038 34.5703 30.2227 34.5768 30.3398 34.5898C30.4603 34.6029 30.5693 34.6208 30.667 34.6436L30.5742 35.2783C30.4798 35.2555 30.3773 35.2376 30.2666 35.2246C30.1592 35.2083 30.0518 35.2002 29.9443 35.2002C29.7165 35.2002 29.5049 35.2458 29.3096 35.3369C29.1175 35.4248 28.9515 35.5534 28.8115 35.7227C28.6715 35.8887 28.5625 36.0889 28.4844 36.3232C28.4062 36.5576 28.3672 36.818 28.3672 37.1045V40H27.6738V34.668H28.25L28.3232 35.6592H28.3574C28.4551 35.4574 28.5804 35.2751 28.7334 35.1123C28.8864 34.9463 29.0671 34.8145 29.2754 34.7168C29.487 34.6191 29.723 34.5703 29.9834 34.5703ZM35.0957 38.5645C35.0957 38.8965 35.0127 39.1764 34.8467 39.4043C34.6807 39.6322 34.4414 39.8047 34.1289 39.9219C33.8164 40.0391 33.4404 40.0977 33.001 40.0977C32.6299 40.0977 32.3044 40.0667 32.0244 40.0049C31.7445 39.943 31.5036 39.8617 31.3018 39.7607V39.1162C31.5296 39.2269 31.7933 39.3245 32.0928 39.4092C32.3923 39.4906 32.6999 39.5312 33.0156 39.5312C33.5104 39.5312 33.8685 39.4499 34.0898 39.2871C34.3112 39.1243 34.4219 38.9014 34.4219 38.6182C34.4219 38.4456 34.373 38.2992 34.2754 38.1787C34.1777 38.055 34.0264 37.9411 33.8213 37.8369C33.6162 37.7327 33.3477 37.6221 33.0156 37.5049C32.6803 37.3812 32.3874 37.2591 32.1367 37.1387C31.8861 37.0182 31.6908 36.8669 31.5508 36.6846C31.4141 36.499 31.3457 36.2549 31.3457 35.9521C31.3457 35.5094 31.5231 35.1676 31.8779 34.9268C32.236 34.6859 32.7096 34.5654 33.2988 34.5654C33.6211 34.5654 33.9206 34.5964 34.1973 34.6582C34.4772 34.7201 34.736 34.8031 34.9736 34.9072L34.7393 35.4639C34.5244 35.3695 34.2884 35.2913 34.0312 35.2295C33.7773 35.1676 33.5186 35.1367 33.2549 35.1367C32.8577 35.1367 32.5501 35.2051 32.332 35.3418C32.1172 35.4753 32.0098 35.6657 32.0098 35.9131C32.0098 36.1019 32.0602 36.2549 32.1611 36.3721C32.2653 36.486 32.4215 36.5885 32.6299 36.6797C32.8415 36.7708 33.1084 36.8766 33.4307 36.9971C33.7562 37.1143 34.0443 37.2363 34.2949 37.3633C34.5456 37.487 34.7409 37.6432 34.8809 37.832C35.0241 38.0176 35.0957 38.2617 35.0957 38.5645Z" fill="#FAFAFA"/>
</g>
<defs>
<filter id="filter0_d_1323_18550" x="0.0654297" y="32.4023" width="39.0303" height="15.6953" filterUnits="userSpaceOnUse" color-interpolation-filters="sRGB">
<feFlood flood-opacity="0" result="BackgroundImageFix"/>
<feColorMatrix in="SourceAlpha" type="matrix" values="0 0 0 0 0 0 0 0 0 0 0 0 0 0 0 0 0 0 127 0" result="hardAlpha"/>
<feOffset dy="4"/>
<feGaussianBlur stdDeviation="2"/>
<feComposite in2="hardAlpha" operator="out"/>
<feColorMatrix type="matrix" values="0 0 0 0 0 0 0 0 0 0 0 0 0 0 0 0 0 0 0.25 0"/>
<feBlend mode="normal" in2="BackgroundImageFix" result="effect1_dropShadow_1323_18550"/>
<feBlend mode="normal" in="SourceGraphic" in2="effect1_dropShadow_1323_18550" result="shape"/>
</filter>
</defs>
</svg>
