<svg width="26" height="45" viewBox="0 0 26 45" fill="none" xmlns="http://www.w3.org/2000/svg">
<path d="M5.23438 39.125C5.23438 39.5482 5.12695 39.9079 4.91211 40.2041C4.70052 40.4971 4.40755 40.7201 4.0332 40.873C3.66211 41.0228 3.22917 41.0977 2.73438 41.0977C2.45768 41.0977 2.19889 41.0846 1.95801 41.0586C1.72038 41.0326 1.50228 40.9951 1.30371 40.9463C1.1084 40.8975 0.932617 40.8405 0.776367 40.7754V40.0918C1.02702 40.1927 1.32324 40.2839 1.66504 40.3652C2.01009 40.4466 2.3763 40.4873 2.76367 40.4873C3.12826 40.4873 3.44238 40.4368 3.70605 40.3359C3.96973 40.235 4.17318 40.0869 4.31641 39.8916C4.45964 39.6963 4.53125 39.457 4.53125 39.1738C4.53125 38.9102 4.47103 38.6921 4.35059 38.5195C4.23014 38.3438 4.03971 38.1891 3.7793 38.0557C3.52214 37.9189 3.18034 37.7773 2.75391 37.6309C2.45443 37.5267 2.1875 37.4144 1.95312 37.2939C1.71875 37.1702 1.52018 37.0303 1.35742 36.874C1.19792 36.7145 1.07585 36.529 0.991211 36.3174C0.909831 36.1025 0.869141 35.8551 0.869141 35.5752C0.869141 35.1911 0.966797 34.8639 1.16211 34.5938C1.35742 34.3203 1.62598 34.1136 1.96777 33.9736C2.31283 33.8304 2.70508 33.7588 3.14453 33.7588C3.50911 33.7588 3.85091 33.793 4.16992 33.8613C4.48893 33.9297 4.78678 34.0257 5.06348 34.1494L4.83398 34.7549C4.56706 34.641 4.28874 34.5514 3.99902 34.4863C3.71257 34.418 3.42122 34.3838 3.125 34.3838C2.80924 34.3838 2.53581 34.431 2.30469 34.5254C2.07357 34.6165 1.89453 34.7516 1.76758 34.9307C1.64062 35.1064 1.57715 35.3213 1.57715 35.5752C1.57715 35.8486 1.63737 36.0749 1.75781 36.2539C1.87826 36.4297 2.06055 36.5811 2.30469 36.708C2.54883 36.835 2.85807 36.9652 3.23242 37.0986C3.65234 37.2484 4.01042 37.4062 4.30664 37.5723C4.60612 37.7383 4.83561 37.9434 4.99512 38.1875C5.15462 38.4316 5.23438 38.7441 5.23438 39.125ZM8.21289 40.5264C8.35286 40.5264 8.49121 40.515 8.62793 40.4922C8.76465 40.4694 8.88021 40.4417 8.97461 40.4092V40.9512C8.8737 40.9902 8.74512 41.0244 8.58887 41.0537C8.43262 41.083 8.27311 41.0977 8.11035 41.0977C7.82064 41.0977 7.56673 41.0456 7.34863 40.9414C7.13053 40.8372 6.95964 40.668 6.83594 40.4336C6.71224 40.1992 6.65039 39.8851 6.65039 39.4912V36.2148H5.87402V35.8584L6.65039 35.6045L6.91406 34.4082H7.33887V35.668H8.94043V36.2148H7.33887V39.4619C7.33887 39.8167 7.41374 40.0837 7.56348 40.2627C7.71322 40.4385 7.92969 40.5264 8.21289 40.5264ZM14.6045 38.3242C14.6045 38.7507 14.5492 39.1348 14.4385 39.4766C14.3311 39.8184 14.1732 40.1097 13.9648 40.3506C13.7565 40.5915 13.5026 40.777 13.2031 40.9072C12.9036 41.0342 12.5602 41.0977 12.1729 41.0977C11.8083 41.0977 11.4779 41.0342 11.1816 40.9072C10.8887 40.777 10.6364 40.5931 10.4248 40.3555C10.2165 40.1146 10.0553 39.8232 9.94141 39.4814C9.83073 39.1396 9.77539 38.7539 9.77539 38.3242C9.77539 37.7448 9.87305 37.25 10.0684 36.8398C10.2637 36.4264 10.542 36.1107 10.9033 35.8926C11.2679 35.6745 11.7041 35.5654 12.2119 35.5654C12.71 35.5654 13.138 35.6777 13.4961 35.9023C13.8542 36.127 14.1276 36.446 14.3164 36.8594C14.5085 37.2695 14.6045 37.7578 14.6045 38.3242ZM10.4834 38.3242C10.4834 38.7669 10.5436 39.1527 10.6641 39.4814C10.7878 39.8102 10.9749 40.0658 11.2256 40.248C11.4762 40.4271 11.7969 40.5166 12.1875 40.5166C12.5814 40.5166 12.9036 40.4271 13.1543 40.248C13.4082 40.0658 13.5954 39.8102 13.7158 39.4814C13.8363 39.1494 13.8965 38.7637 13.8965 38.3242C13.8965 37.8913 13.8363 37.512 13.7158 37.1865C13.5986 36.861 13.4147 36.6071 13.1641 36.4248C12.9167 36.2425 12.5944 36.1514 12.1973 36.1514C11.6178 36.1514 11.1865 36.3434 10.9033 36.7275C10.6234 37.1117 10.4834 37.6439 10.4834 38.3242ZM18.3398 35.5703C18.4603 35.5703 18.5791 35.5768 18.6963 35.5898C18.8167 35.6029 18.9258 35.6208 19.0234 35.6436L18.9307 36.2783C18.8363 36.2555 18.7337 36.2376 18.623 36.2246C18.5156 36.2083 18.4082 36.2002 18.3008 36.2002C18.0729 36.2002 17.8613 36.2458 17.666 36.3369C17.474 36.4248 17.3079 36.5534 17.168 36.7227C17.028 36.8887 16.9189 37.0889 16.8408 37.3232C16.7627 37.5576 16.7236 37.818 16.7236 38.1045V41H16.0303V35.668H16.6064L16.6797 36.6592H16.7139C16.8115 36.4574 16.9368 36.2751 17.0898 36.1123C17.2428 35.9463 17.4235 35.8145 17.6318 35.7168C17.8434 35.6191 18.0794 35.5703 18.3398 35.5703ZM22.085 35.5654C22.5407 35.5654 22.9264 35.668 23.2422 35.873C23.5579 36.0781 23.7972 36.3646 23.96 36.7324C24.1227 37.097 24.2041 37.5186 24.2041 37.9971V38.4463H20.4541C20.4606 39.1136 20.6217 39.6247 20.9375 39.9795C21.2533 40.3311 21.7008 40.5068 22.2803 40.5068C22.6156 40.5068 22.9102 40.4775 23.1641 40.4189C23.418 40.3604 23.6882 40.2676 23.9746 40.1406V40.7559C23.7077 40.873 23.4424 40.9593 23.1787 41.0146C22.915 41.07 22.6074 41.0977 22.2559 41.0977C21.7318 41.0977 21.2826 40.9902 20.9082 40.7754C20.5339 40.5605 20.2458 40.2497 20.0439 39.8428C19.8454 39.4359 19.7461 38.946 19.7461 38.373C19.7461 37.8164 19.8389 37.3265 20.0244 36.9033C20.2132 36.4801 20.4818 36.1514 20.8301 35.917C21.1784 35.6826 21.5967 35.5654 22.085 35.5654ZM22.0752 36.1367C21.613 36.1367 21.2419 36.2897 20.9619 36.5957C20.6852 36.8984 20.5208 37.3281 20.4688 37.8848H23.4863C23.4831 37.5397 23.431 37.2354 23.3301 36.9717C23.2292 36.708 23.0745 36.5029 22.8662 36.3564C22.6611 36.21 22.3975 36.1367 22.0752 36.1367Z" fill="#FAFAFA"/>
<path d="M13.3333 2C13.3333 8.25923 18.4074 13.3333 24.6667 13.3333C18.4074 13.3333 13.3333 18.4074 13.3333 24.6666C13.3333 18.4074 8.25923 13.3333 2 13.3333C8.25923 13.3333 13.3333 8.25923 13.3333 2Z" fill="#FAFAFA" stroke="#FAFAFA" stroke-width="2.125" stroke-linecap="round" stroke-linejoin="round"/>
</svg>
