<svg width="33" height="48" viewBox="0 0 33 48" fill="none" xmlns="http://www.w3.org/2000/svg">
<g filter="url(#filter0_d_1865_22735)">
<path d="M9.04297 37.7639C9.04297 38.1871 8.93555 38.5468 8.7207 38.843C8.50911 39.136 8.21615 39.359 7.8418 39.512C7.4707 39.6617 7.03776 39.7366 6.54297 39.7366C6.26628 39.7366 6.00749 39.7236 5.7666 39.6975C5.52897 39.6715 5.31087 39.634 5.1123 39.5852C4.91699 39.5364 4.74121 39.4794 4.58496 39.4143V38.7307C4.83561 38.8316 5.13184 38.9228 5.47363 39.0042C5.81868 39.0855 6.1849 39.1262 6.57227 39.1262C6.93685 39.1262 7.25098 39.0758 7.51465 38.9749C7.77832 38.8739 7.98177 38.7258 8.125 38.5305C8.26823 38.3352 8.33984 38.0959 8.33984 37.8127C8.33984 37.5491 8.27962 37.331 8.15918 37.1584C8.03874 36.9827 7.84831 36.828 7.58789 36.6946C7.33073 36.5579 6.98893 36.4163 6.5625 36.2698C6.26302 36.1656 5.99609 36.0533 5.76172 35.9329C5.52734 35.8092 5.32878 35.6692 5.16602 35.5129C5.00651 35.3534 4.88444 35.1679 4.7998 34.9563C4.71842 34.7415 4.67773 34.4941 4.67773 34.2141C4.67773 33.83 4.77539 33.5028 4.9707 33.2327C5.16602 32.9592 5.43457 32.7525 5.77637 32.6125C6.12142 32.4693 6.51367 32.3977 6.95312 32.3977C7.31771 32.3977 7.65951 32.4319 7.97852 32.5002C8.29753 32.5686 8.59538 32.6646 8.87207 32.7883L8.64258 33.3938C8.37565 33.2799 8.09733 33.1903 7.80762 33.1252C7.52116 33.0569 7.22982 33.0227 6.93359 33.0227C6.61784 33.0227 6.3444 33.0699 6.11328 33.1643C5.88216 33.2555 5.70312 33.3905 5.57617 33.5696C5.44922 33.7454 5.38574 33.9602 5.38574 34.2141C5.38574 34.4875 5.44596 34.7138 5.56641 34.8928C5.68685 35.0686 5.86914 35.22 6.11328 35.3469C6.35742 35.4739 6.66667 35.6041 7.04102 35.7375C7.46094 35.8873 7.81901 36.0452 8.11523 36.2112C8.41471 36.3772 8.64421 36.5823 8.80371 36.8264C8.96322 37.0706 9.04297 37.3831 9.04297 37.7639ZM12.0215 39.1653C12.1615 39.1653 12.2998 39.1539 12.4365 39.1311C12.5732 39.1083 12.6888 39.0806 12.7832 39.0481V39.5901C12.6823 39.6292 12.5537 39.6633 12.3975 39.6926C12.2412 39.7219 12.0817 39.7366 11.9189 39.7366C11.6292 39.7366 11.3753 39.6845 11.1572 39.5803C10.9391 39.4762 10.7682 39.3069 10.6445 39.0725C10.5208 38.8381 10.459 38.524 10.459 38.1301V34.8538H9.68262V34.4973L10.459 34.2434L10.7227 33.0471H11.1475V34.3069H12.749V34.8538H11.1475V38.1008C11.1475 38.4556 11.2223 38.7226 11.3721 38.9016C11.5218 39.0774 11.7383 39.1653 12.0215 39.1653ZM18.4131 36.9631C18.4131 37.3896 18.3577 37.7737 18.2471 38.1155C18.1396 38.4573 17.9818 38.7486 17.7734 38.9895C17.5651 39.2304 17.3112 39.4159 17.0117 39.5461C16.7122 39.6731 16.3688 39.7366 15.9814 39.7366C15.6169 39.7366 15.2865 39.6731 14.9902 39.5461C14.6973 39.4159 14.445 39.232 14.2334 38.9944C14.0251 38.7535 13.8639 38.4622 13.75 38.1204C13.6393 37.7786 13.584 37.3928 13.584 36.9631C13.584 36.3837 13.6816 35.8889 13.877 35.4788C14.0723 35.0653 14.3506 34.7496 14.7119 34.5315C15.0765 34.3134 15.5127 34.2043 16.0205 34.2043C16.5186 34.2043 16.9466 34.3167 17.3047 34.5413C17.6628 34.7659 17.9362 35.0849 18.125 35.4983C18.3171 35.9084 18.4131 36.3967 18.4131 36.9631ZM14.292 36.9631C14.292 37.4058 14.3522 37.7916 14.4727 38.1204C14.5964 38.4491 14.7835 38.7047 15.0342 38.887C15.2848 39.066 15.6055 39.1555 15.9961 39.1555C16.39 39.1555 16.7122 39.066 16.9629 38.887C17.2168 38.7047 17.404 38.4491 17.5244 38.1204C17.6449 37.7883 17.7051 37.4026 17.7051 36.9631C17.7051 36.5302 17.6449 36.151 17.5244 35.8254C17.4072 35.4999 17.2233 35.246 16.9727 35.0637C16.7253 34.8814 16.403 34.7903 16.0059 34.7903C15.4264 34.7903 14.9951 34.9823 14.7119 35.3665C14.432 35.7506 14.292 36.2828 14.292 36.9631ZM22.1484 34.2092C22.2689 34.2092 22.3877 34.2157 22.5049 34.2288C22.6253 34.2418 22.7344 34.2597 22.832 34.2825L22.7393 34.9172C22.6449 34.8944 22.5423 34.8765 22.4316 34.8635C22.3242 34.8472 22.2168 34.8391 22.1094 34.8391C21.8815 34.8391 21.6699 34.8847 21.4746 34.9758C21.2826 35.0637 21.1165 35.1923 20.9766 35.3616C20.8366 35.5276 20.7275 35.7278 20.6494 35.9622C20.5713 36.1965 20.5322 36.4569 20.5322 36.7434V39.6389H19.8389V34.3069H20.415L20.4883 35.2981H20.5225C20.6201 35.0963 20.7454 34.914 20.8984 34.7512C21.0514 34.5852 21.2321 34.4534 21.4404 34.3557C21.652 34.2581 21.888 34.2092 22.1484 34.2092ZM25.8936 34.2043C26.3493 34.2043 26.735 34.3069 27.0508 34.512C27.3665 34.717 27.6058 35.0035 27.7686 35.3713C27.9313 35.7359 28.0127 36.1575 28.0127 36.636V37.0852H24.2627C24.2692 37.7525 24.4303 38.2636 24.7461 38.6184C25.0618 38.97 25.5094 39.1458 26.0889 39.1458C26.4242 39.1458 26.7188 39.1165 26.9727 39.0579C27.2266 38.9993 27.4967 38.9065 27.7832 38.7795V39.3948C27.5163 39.512 27.251 39.5982 26.9873 39.6536C26.7236 39.7089 26.416 39.7366 26.0645 39.7366C25.5404 39.7366 25.0911 39.6292 24.7168 39.4143C24.3424 39.1995 24.0544 38.8886 23.8525 38.4817C23.654 38.0748 23.5547 37.5849 23.5547 37.012C23.5547 36.4553 23.6475 35.9654 23.833 35.5422C24.0218 35.1191 24.2904 34.7903 24.6387 34.5559C24.987 34.3215 25.4053 34.2043 25.8936 34.2043ZM25.8838 34.7756C25.4215 34.7756 25.0505 34.9286 24.7705 35.2346C24.4938 35.5374 24.3294 35.967 24.2773 36.5237H27.2949C27.2917 36.1786 27.2396 35.8743 27.1387 35.6106C27.0378 35.3469 26.8831 35.1418 26.6748 34.9954C26.4697 34.8489 26.2061 34.7756 25.8838 34.7756Z" fill="#FAFAFA"/>
<path d="M22.8853 15.6408C22.6172 16.7402 21.6322 17.5139 20.5006 17.5139H11.4994C10.3678 17.5139 9.3828 16.7402 9.11474 15.6408L7.18788 7.73765C7.06574 7.23667 7.10447 6.70994 7.2986 6.23221L8.9495 2.16943C9.3255 1.24412 10.2247 0.638916 11.2235 0.638916H20.7765C21.7753 0.638916 22.6745 1.24412 23.0505 2.16943L24.7014 6.23221C24.8955 6.70994 24.9343 7.23666 24.8121 7.73765L22.8853 15.6408Z" fill="white" stroke="#FAFAFA" stroke-width="1.22727"/>
<path d="M7 6.43994L8.69041 8.0247C9.00513 8.31975 9.49487 8.31975 9.80959 8.0247L10.9404 6.96456C11.2551 6.66951 11.7449 6.66951 12.0596 6.96456L13.1904 8.0247C13.5051 8.31975 13.9949 8.31975 14.3096 8.0247L15.4404 6.96456C15.7551 6.66951 16.2449 6.66951 16.5596 6.96456L17.6904 8.0247C18.0051 8.31975 18.4949 8.31975 18.8096 8.0247L19.9404 6.96456C20.2551 6.66951 20.7449 6.66951 21.0596 6.96456L22.1904 8.0247C22.5051 8.31975 22.9949 8.31975 23.3096 8.0247L25 6.43994" stroke="url(#paint0_linear_1865_22735)" stroke-width="1.22727"/>
<path d="M14.0874 14.4907C14.0874 13.2481 15.0948 12.2407 16.3374 12.2407V12.2407C17.58 12.2407 18.5874 13.2481 18.5874 14.4907V17.5142H14.0874V14.4907Z" stroke="url(#paint1_linear_1865_22735)" stroke-width="1.22727"/>
</g>
<defs>
<filter id="filter0_d_1865_22735" x="0.584961" y="0.0253906" width="31.4277" height="47.7112" filterUnits="userSpaceOnUse" color-interpolation-filters="sRGB">
<feFlood flood-opacity="0" result="BackgroundImageFix"/>
<feColorMatrix in="SourceAlpha" type="matrix" values="0 0 0 0 0 0 0 0 0 0 0 0 0 0 0 0 0 0 127 0" result="hardAlpha"/>
<feOffset dy="4"/>
<feGaussianBlur stdDeviation="2"/>
<feComposite in2="hardAlpha" operator="out"/>
<feColorMatrix type="matrix" values="0 0 0 0 0 0 0 0 0 0 0 0 0 0 0 0 0 0 0.25 0"/>
<feBlend mode="normal" in2="BackgroundImageFix" result="effect1_dropShadow_1865_22735"/>
<feBlend mode="normal" in="SourceGraphic" in2="effect1_dropShadow_1865_22735" result="shape"/>
</filter>
<linearGradient id="paint0_linear_1865_22735" x1="7" y1="7.43824" x2="25" y2="7.43824" gradientUnits="userSpaceOnUse">
<stop stop-color="#050505"/>
<stop offset="1" stop-color="#00020D"/>
</linearGradient>
<linearGradient id="paint1_linear_1865_22735" x1="14.0874" y1="14.7365" x2="18.5874" y2="14.7365" gradientUnits="userSpaceOnUse">
<stop stop-color="#050505"/>
<stop offset="1" stop-color="#00020D"/>
</linearGradient>
</defs>
</svg>
