<svg width="19" height="17" viewBox="0 0 19 17" fill="none" xmlns="http://www.w3.org/2000/svg">
<path d="M15.6708 14.132C15.4299 15.1201 14.5447 15.8154 13.5277 15.8154H5.43835C4.42133 15.8154 3.53613 15.1201 3.29523 14.132L1.56356 7.02951C1.45379 6.57928 1.4886 6.10591 1.66306 5.67658L3.14673 2.02536C3.48464 1.19379 4.29274 0.649889 5.19035 0.649889H13.7757C14.6733 0.649889 15.4814 1.19379 15.8193 2.02536L17.3029 5.67658C17.4774 6.10591 17.5122 6.57928 17.4024 7.02951L15.6708 14.132Z" stroke="#FAFAFA" stroke-width="1.10295"/>
<path d="M1.39453 5.86328L2.9137 7.2875C3.19654 7.55267 3.63667 7.55267 3.9195 7.2875L4.93577 6.33475C5.21861 6.06959 5.65874 6.06959 5.94158 6.33475L6.95785 7.2875C7.24069 7.55267 7.68081 7.55267 7.96365 7.2875L8.97992 6.33475C9.26276 6.06959 9.70288 6.06959 9.98572 6.33475L11.002 7.2875C11.2848 7.55267 11.725 7.55267 12.0078 7.2875L13.0241 6.33475C13.3069 6.06959 13.747 6.06959 14.0299 6.33475L15.0461 7.2875C15.329 7.55267 15.7691 7.55267 16.0519 7.2875L17.5711 5.86328" stroke="#FAFAFA" stroke-width="1.10295"/>
<path d="M7.76367 13.0985C7.76367 11.9817 8.66898 11.0764 9.78574 11.0764V11.0764C10.9025 11.0764 11.8078 11.9817 11.8078 13.0985V15.8156H7.76367V13.0985Z" stroke="#FAFAFA" stroke-width="1.10295"/>
</svg>
