<svg width="29" height="44" viewBox="0 0 29 44" fill="none" xmlns="http://www.w3.org/2000/svg">
<path d="M9.20215 32.8613L7.27832 40H6.5752L5.11523 34.9658C5.07617 34.8389 5.03874 34.7135 5.00293 34.5898C4.97038 34.4661 4.93945 34.3473 4.91016 34.2334C4.88086 34.1195 4.85482 34.0169 4.83203 33.9258C4.8125 33.8346 4.79785 33.7614 4.78809 33.7061C4.77832 33.7614 4.7653 33.833 4.74902 33.9209C4.73275 34.0088 4.71159 34.1064 4.68555 34.2139C4.66276 34.3213 4.63509 34.4352 4.60254 34.5557C4.56999 34.6761 4.53581 34.7982 4.5 34.9219L3.06934 40H2.36621L0.461914 32.8613H1.18945L2.41016 37.5537C2.44922 37.7002 2.48503 37.8418 2.51758 37.9785C2.55013 38.112 2.57943 38.2422 2.60547 38.3691C2.63477 38.4961 2.66081 38.6198 2.68359 38.7402C2.70638 38.8607 2.72754 38.9795 2.74707 39.0967C2.7666 38.9762 2.78776 38.8525 2.81055 38.7256C2.83659 38.5986 2.86426 38.4701 2.89355 38.3398C2.92611 38.2064 2.95866 38.0713 2.99121 37.9346C3.02702 37.7979 3.06608 37.6579 3.1084 37.5146L4.43652 32.8613H5.1543L6.53613 37.5488C6.57845 37.6953 6.61751 37.8385 6.65332 37.9785C6.69238 38.1185 6.72656 38.2536 6.75586 38.3838C6.78516 38.514 6.8112 38.6393 6.83398 38.7598C6.85677 38.8802 6.87956 38.9958 6.90234 39.1064C6.92513 38.9535 6.95117 38.7956 6.98047 38.6328C7.01302 38.4701 7.05046 38.2992 7.09277 38.1201C7.13509 37.9411 7.18066 37.7539 7.22949 37.5586L8.46484 32.8613H9.20215ZM12.1904 34.5752C12.8089 34.5752 13.2679 34.7201 13.5674 35.0098C13.8701 35.2995 14.0215 35.7601 14.0215 36.3916V40H13.5137L13.3818 39.1553H13.3477C13.2109 39.3506 13.0612 39.5199 12.8984 39.6631C12.7357 39.8031 12.5436 39.9105 12.3223 39.9854C12.1009 40.0602 11.8291 40.0977 11.5068 40.0977C11.1748 40.0977 10.8851 40.0407 10.6377 39.9268C10.3903 39.8128 10.1966 39.6436 10.0566 39.4189C9.91667 39.1911 9.84668 38.9079 9.84668 38.5693C9.84668 38.0387 10.0599 37.6335 10.4863 37.3535C10.916 37.0703 11.554 36.9141 12.4004 36.8848L13.3477 36.8408V36.4893C13.3477 35.9945 13.2451 35.6462 13.04 35.4443C12.835 35.2393 12.5404 35.1367 12.1562 35.1367C11.8796 35.1367 11.6143 35.1758 11.3604 35.2539C11.1064 35.332 10.859 35.4297 10.6182 35.5469L10.4082 35.0098C10.6523 34.8893 10.9258 34.7868 11.2285 34.7021C11.5345 34.6175 11.8551 34.5752 12.1904 34.5752ZM13.3428 37.3389L12.4834 37.373C11.8128 37.4023 11.3245 37.5163 11.0186 37.7148C10.7158 37.9134 10.5645 38.2015 10.5645 38.5791C10.5645 38.8949 10.6621 39.1325 10.8574 39.292C11.0527 39.4515 11.3164 39.5312 11.6484 39.5312C12.166 39.5312 12.5762 39.3864 12.8789 39.0967C13.1849 38.807 13.3395 38.3887 13.3428 37.8418V37.3389ZM16.3994 40H15.7061V32.4023H16.3994V40ZM18.8213 40H18.1279V32.4023H18.8213V40ZM22.5908 34.5654C23.0465 34.5654 23.4323 34.668 23.748 34.873C24.0638 35.0781 24.3031 35.3646 24.4658 35.7324C24.6286 36.097 24.71 36.5186 24.71 36.9971V37.4463H20.96C20.9665 38.1136 21.1276 38.6247 21.4434 38.9795C21.7591 39.3311 22.2067 39.5068 22.7861 39.5068C23.1214 39.5068 23.416 39.4775 23.6699 39.4189C23.9238 39.3604 24.194 39.2676 24.4805 39.1406V39.7559C24.2135 39.873 23.9482 39.9593 23.6846 40.0146C23.4209 40.07 23.1133 40.0977 22.7617 40.0977C22.2376 40.0977 21.7884 39.9902 21.4141 39.7754C21.0397 39.5605 20.7516 39.2497 20.5498 38.8428C20.3512 38.4359 20.252 37.946 20.252 37.373C20.252 36.8164 20.3447 36.3265 20.5303 35.9033C20.7191 35.4801 20.9876 35.1514 21.3359 34.917C21.6842 34.6826 22.1025 34.5654 22.5908 34.5654ZM22.5811 35.1367C22.1188 35.1367 21.7477 35.2897 21.4678 35.5957C21.1911 35.8984 21.0267 36.3281 20.9746 36.8848H23.9922C23.9889 36.5397 23.9368 36.2354 23.8359 35.9717C23.735 35.708 23.5804 35.5029 23.3721 35.3564C23.167 35.21 22.9033 35.1367 22.5811 35.1367ZM27.7324 39.5264C27.8724 39.5264 28.0107 39.515 28.1475 39.4922C28.2842 39.4694 28.3997 39.4417 28.4941 39.4092V39.9512C28.3932 39.9902 28.2646 40.0244 28.1084 40.0537C27.9521 40.083 27.7926 40.0977 27.6299 40.0977C27.3402 40.0977 27.0863 40.0456 26.8682 39.9414C26.6501 39.8372 26.4792 39.668 26.3555 39.4336C26.2318 39.1992 26.1699 38.8851 26.1699 38.4912V35.2148H25.3936V34.8584L26.1699 34.6045L26.4336 33.4082H26.8584V34.668H28.46V35.2148H26.8584V38.4619C26.8584 38.8167 26.9333 39.0837 27.083 39.2627C27.2327 39.4385 27.4492 39.5264 27.7324 39.5264Z" fill="#FAFAFA"/>
<rect x="4" y="1" width="21" height="21" rx="4" fill="#FAFAFA" stroke="#FAFAFA" stroke-width="1.5" stroke-linejoin="round"/>
<path d="M16.6001 10.9744C16.6001 9.52462 17.7753 8.34937 19.2251 8.34937H25.0001V13.5994H19.2251C17.7754 13.5994 16.6001 12.4241 16.6001 10.9744V10.9744Z" stroke="#01030B" stroke-width="1.5" stroke-linejoin="round"/>
<circle cx="19.4219" cy="11.0413" r="0.5" fill="#EDA592" stroke="#01030B" stroke-width="0.96875"/>
<path d="M8.9873 5.85596H12.9248" stroke="#01030B" stroke-width="1.5" stroke-linecap="round"/>
</svg>
