<svg fill="none" height="28" viewBox="0 0 28 28" width="28" xmlns="http://www.w3.org/2000/svg">
    <path
        d="M14.0001 16.3334C15.2887 16.3334 16.3334 15.2887 16.3334 14C16.3334 12.7114 15.2887 11.6667 14.0001 11.6667C12.7114 11.6667 11.6667 12.7114 11.6667 14C11.6667 15.2887 12.7114 16.3334 14.0001 16.3334Z"
        fill="white" />
    <path
        d="M14.0001 8.16667C15.2887 8.16667 16.3334 7.122 16.3334 5.83333C16.3334 4.54467 15.2887 3.5 14.0001 3.5C12.7114 3.5 11.6667 4.54467 11.6667 5.83333C11.6667 7.122 12.7114 8.16667 14.0001 8.16667Z"
        fill="white" />
    <path
        d="M14.0001 24.5C15.2887 24.5 16.3334 23.4553 16.3334 22.1666C16.3334 20.878 15.2887 19.8333 14.0001 19.8333C12.7114 19.8333 11.6667 20.878 11.6667 22.1666C11.6667 23.4553 12.7114 24.5 14.0001 24.5Z"
        fill="white" />
</svg>
