<svg width="126" height="108" viewBox="0 0 126 108" fill="none" xmlns="http://www.w3.org/2000/svg">
<path d="M31.5017 89.2115C21.1185 94.0751 24.4507 103.65 27.4173 107.83C26.8236 106.918 29.4005 103.144 30.7605 101.371C30.7605 105.323 34.9632 107.324 37.0645 107.83C37.559 104.664 40.402 98.3315 41.8853 98.3315C44.5553 98.3315 46.4588 103.904 47.0769 106.691C52.6349 103.918 53.7474 99.3586 54.1183 99.7386C55.1671 100.813 55.1115 105.297 54.8643 107.83C60.7975 102.51 52.6393 85.7925 53.7518 89.2115C54.6418 91.9467 52.8865 95.1646 51.8976 96.4316C51.5268 95.0384 50.0435 91.6439 47.0769 89.2115C44.1103 86.7791 44.8519 83.1317 45.5936 81.6121C40.0312 80.0922 32.2438 94.5311 30.7605 94.5311C29.5738 94.5311 30.7602 90.9847 31.5017 89.2115Z" fill="#F45A28"/>
<path d="M30.3714 96.8342C27.3372 97.7439 27.3257 105.932 27.3242 107.827L30.2006 102.591C30.0298 105.467 34.0358 107.385 37.1939 107.827C36.8905 105.098 40.0348 100.624 41.8047 98.6027C45.5975 98.9818 46.1572 105.892 46.7353 106.942C46.8647 107.177 50.8479 105.44 53.8821 100.512C54.2001 99.9957 54.8979 105.932 55.0243 107.827C56.5415 106.69 55.4036 93.8017 55.0243 96.0761C54.7209 97.8955 50.3466 102.646 48.1974 104.794C49.7145 101.383 47.186 98.4768 46.301 97.9713C45.416 97.4659 42.1289 93.549 41.3704 91.5273C36.2122 93.9533 34.9227 101.888 34.9227 105.553C33.1022 105.249 31.1299 99.6139 30.3714 96.8342Z" fill="#FB9320"/>
<path d="M10.8629 39.3914V27.1667C9.05181 27.6195 5.42969 29.6117 5.42969 33.9582C5.42969 38.3047 9.05181 39.3914 10.8629 39.3914Z" fill="#DE4C3C"/>
<path d="M33.9539 36.6748H29.879C29.879 42.108 35.3122 44.3718 38.0288 44.8246V40.7497C34.7688 40.7497 33.9539 38.0331 33.9539 36.6748Z" fill="#DE4C3C"/>
<path d="M59.7615 40.7497H54.3283V44.8246H59.7615V40.7497Z" fill="#DE4C3C"/>
<path d="M52.97 10.8672C52.97 14.1271 50.2534 14.9421 48.8951 14.9421V19.017C55.4149 19.017 57.0449 13.5838 57.0449 10.8672H52.97Z" fill="#DE4C3C"/>
<path d="M38.0288 21.7335H33.9539V24.4501H38.0288V21.7335Z" fill="#DE4C3C"/>
<path d="M80.1394 50.2539H0C3.31404e-06 66.5534 5.42787 73.3449 13.5829 74.7032C27.1659 75.6087 55.6229 74.7032 69.273 74.7032C78.7758 74.7032 81.4977 57.4981 80.1394 50.2539Z" fill="#B3B3B3"/>
<path d="M86.9257 52.9718H80.1342L78.7812 61.1216H91.0006L97.7921 50.2552H123.6C127.946 46.9953 125.411 43.4638 123.6 42.1055H93.7172L86.9257 52.9718Z" fill="#4D4D4D"/>
<path d="M5.42969 70.6283C23.5403 70.1756 63.8364 65.4668 80.1359 50.2539C80.2571 51.0416 80.3556 51.9591 80.4144 52.9705C80.4885 54.2438 80.4997 55.666 80.4144 57.1656C80.061 63.3753 78.0511 70.9126 71.9861 74.7032H13.5795C10.8629 73.7977 5.42969 71.715 5.42969 70.6283Z" fill="#808080"/>
<path d="M10.8594 62.4786V50.2539H36.667V66.5534C35.3087 69.27 33.9504 69.27 31.2338 69.27C28.5172 69.27 27.1589 63.8369 27.1589 61.1203C25.8006 58.4037 25.734 57.0454 23.084 57.0454C20.9108 57.0454 19.4619 60.6675 19.0091 62.4786C15.7492 67.9117 12.2177 64.7424 10.8594 62.4786Z" fill="#CFCFCF"/>
<path d="M63.8359 44.8253V40.7505C67.0958 40.7505 67.0053 36.2228 66.5525 33.959H70.6274C71.714 41.5654 66.5525 44.3726 63.8359 44.8253Z" fill="#FDB62F"/>
<path d="M74.6982 33.9564H62.4735C61.568 31.2398 62.4757 25.8066 67.9067 25.8066C74.4265 25.8066 75.1509 31.2398 74.6982 33.9564Z" fill="#FDB62F"/>
<path d="M66.5514 12.2246H62.4766V16.2995H66.5514V12.2246Z" fill="#FDB62F"/>
<path d="M17.653 19.015H13.5781C13.5781 16.7518 14.9364 10.8672 21.7279 10.8672C28.3376 10.8672 30.7832 15.8463 31.236 19.015H27.1611C24.4445 12.2249 17.653 14.9387 17.653 19.015Z" fill="#FDB62F"/>
<path d="M24.4466 31.2389V27.1641C17.9268 28.2507 16.2969 33.05 16.2969 35.3138H20.3718C20.3718 32.0539 23.0883 31.2389 24.4466 31.2389Z" fill="#FDB62F"/>
<circle cx="48.8941" cy="32.5972" r="5.43318" fill="#DE4C3C"/>
<circle cx="40.7457" cy="5.43318" r="5.43318" fill="#DE4C3C"/>
</svg>
