<svg width="23" height="27" viewBox="0 0 23 27" fill="none" xmlns="http://www.w3.org/2000/svg">
<path d="M14.2218 26.6388C14.0005 26.8701 13.7004 27 13.3876 27C13.0747 27 12.7747 26.8701 12.5533 26.6388L8.61815 22.5223C8.40962 22.2882 8.29609 21.9786 8.30148 21.6587C8.30688 21.3387 8.43078 21.0335 8.64708 20.8072C8.86338 20.5809 9.15519 20.4513 9.46103 20.4457C9.76688 20.44 10.0629 20.5588 10.2867 20.7769L12.207 22.7858L12.207 11.77C12.207 11.4425 12.3314 11.1284 12.5528 10.8968C12.7742 10.6652 13.0745 10.5351 13.3876 10.5351C13.7007 10.5351 14.001 10.6652 14.2224 10.8968C14.4438 11.1284 14.5681 11.4425 14.5681 11.77L14.5681 22.7858L16.4885 20.7769C16.7123 20.5588 17.0083 20.44 17.3142 20.4457C17.62 20.4513 17.9118 20.5809 18.1281 20.8072C18.3444 21.0335 18.4683 21.3387 18.4737 21.6587C18.4791 21.9786 18.3656 22.2882 18.157 22.5223L14.2218 26.6388ZM18.7898 3.12536C18.6153 2.41832 18.2211 1.792 17.6692 1.3449C17.1172 0.8978 16.4389 0.655277 15.7408 0.655462L7.08343 0.655462C5.20481 0.655462 3.40314 1.43613 2.07476 2.82572C0.746374 4.21531 9.91821e-05 6.09999 9.91821e-05 8.06517V11.77C9.91821e-05 12.0976 0.124477 12.4117 0.345875 12.6433C0.567272 12.8749 0.867552 13.005 1.18065 13.005C1.49376 13.005 1.79403 12.8749 2.01543 12.6433C2.23683 12.4117 2.36121 12.0976 2.36121 11.77V8.06517C2.36121 6.75505 2.85873 5.49859 3.74431 4.5722C4.6299 3.64581 5.83102 3.12536 7.08343 3.12536L18.7898 3.12536ZM20.4709 15.8865C20.4709 16.2141 20.5953 16.5282 20.8167 16.7598C21.0381 16.9914 21.3384 17.1215 21.6515 17.1215C21.9646 17.1215 22.2649 16.9914 22.4863 16.7598C22.7077 16.5282 22.832 16.2141 22.832 15.8865L22.832 8.06517C22.832 7.19176 22.5004 6.35412 21.91 5.73652C21.3196 5.11893 20.5188 4.77197 19.6839 4.77197L7.0913 4.77197C6.25636 4.77197 5.45561 5.11893 4.86522 5.73652C4.27483 6.35412 3.94315 7.19176 3.94315 8.06517L3.94315 15.8865C3.94315 16.2141 4.06753 16.5282 4.28893 16.7598C4.51033 16.9914 4.8106 17.1215 5.12371 17.1215C5.43681 17.1215 5.73709 16.9914 5.95848 16.7598C6.17988 16.5282 6.30426 16.2141 6.30426 15.8865L6.30426 8.06517C6.30426 7.84682 6.38718 7.63741 6.53478 7.48301C6.68238 7.32861 6.88256 7.24187 7.0913 7.24187L19.6839 7.24187C19.8926 7.24187 20.0928 7.32861 20.2404 7.48301C20.388 7.63741 20.4709 7.84682 20.4709 8.06517L20.4709 15.8865Z" fill="#1F1F1F"/>
</svg>
