<svg width="19" height="19" viewBox="0 0 19 19" fill="none" xmlns="http://www.w3.org/2000/svg">
<path d="M18.24 0H0.76C0.339625 0 0 0.339625 0 0.76V18.24C0 18.6604 0.339625 19 0.76 19H18.24C18.6604 19 19 18.6604 19 18.24V0.76C19 0.339625 18.6604 0 18.24 0ZM11.5544 5.67387H14.8414V6.47425H11.5544V5.67387ZM9.5 12.274C9.34626 12.5658 9.12672 12.8179 8.85875 13.0102C8.5785 13.205 8.26737 13.3475 7.93725 13.4306C7.59186 13.5232 7.23556 13.5687 6.878 13.566H2.945V5.46488H6.76875C7.15587 5.46488 7.50738 5.5005 7.828 5.567C8.14625 5.6335 8.417 5.7475 8.645 5.90188C8.87062 6.05625 9.04875 6.26287 9.17462 6.51937C9.29812 6.7735 9.36225 7.09175 9.36225 7.46938C9.36225 7.87788 9.26962 8.21513 9.08437 8.48825C8.89675 8.76137 8.626 8.98225 8.25788 9.15563C8.759 9.29813 9.12712 9.55225 9.36938 9.9085C9.61637 10.2695 9.7375 10.7017 9.7375 11.21C9.7375 11.6233 9.65913 11.9771 9.5 12.274ZM16.1215 11.02H11.8845C11.8845 11.4807 12.0436 11.9225 12.2835 12.16C12.5258 12.3951 12.8725 12.5139 13.3261 12.5139C13.6539 12.5139 13.9317 12.4307 14.1692 12.2669C14.4044 12.103 14.5469 11.9296 14.5991 11.7491H16.0194C15.7914 12.4545 15.4446 12.958 14.9744 13.262C14.5089 13.566 13.9389 13.718 13.2762 13.718C12.8131 13.718 12.3975 13.642 12.0246 13.4971C11.666 13.357 11.343 13.1432 11.077 12.8677C10.8147 12.5848 10.612 12.2521 10.4809 11.8892C10.336 11.4879 10.2648 11.0651 10.2695 10.64C10.2695 10.2006 10.3431 9.79212 10.4856 9.41212C10.7587 8.6735 11.3264 8.08212 12.0508 7.77575C12.4379 7.61425 12.8535 7.5335 13.2739 7.53825C13.7726 7.53825 14.2049 7.63325 14.5801 7.828C14.9414 8.01397 15.255 8.2805 15.4969 8.607C15.7367 8.93237 15.9054 9.30287 16.0123 9.72087C16.1144 10.1318 16.15 10.564 16.1215 11.02ZM13.224 8.7495C12.9675 8.7495 12.7514 8.79462 12.5851 8.8825C12.4189 8.97038 12.2811 9.07962 12.1766 9.2055C12.0771 9.32704 12.0035 9.46768 11.9605 9.61875C11.9225 9.74463 11.8964 9.87288 11.8869 10.0035H14.5112C14.4732 9.59262 14.3307 9.28862 14.1407 9.07487C13.9412 8.8635 13.6206 8.7495 13.224 8.7495ZM7.32212 8.50962C7.52875 8.36 7.6285 8.113 7.6285 7.77337C7.63562 7.61187 7.60238 7.45275 7.53113 7.30788C7.467 7.1915 7.372 7.09412 7.25562 7.02525C7.13496 6.95207 7.00094 6.90363 6.86137 6.88275C6.70937 6.85425 6.555 6.84 6.403 6.84238H4.73337V8.73525H6.54075C6.85187 8.73762 7.1155 8.66162 7.32212 8.50962ZM7.60238 10.2196C7.36963 10.0415 7.0585 9.95362 6.67137 9.95362H4.72863V12.1861H6.63337C6.8115 12.1861 6.97537 12.1695 7.1345 12.1362C7.29362 12.103 7.43612 12.046 7.55725 11.9653C7.67838 11.8869 7.77575 11.78 7.84937 11.6423C7.92062 11.5045 7.95625 11.3287 7.95625 11.1174C7.95625 10.697 7.8375 10.4001 7.60238 10.2196Z" fill="#AFAFAF"/>
</svg>
