<svg width="82" height="127" viewBox="0 0 82 127" fill="none" xmlns="http://www.w3.org/2000/svg">
<path d="M3.03516 37.9629V50.1109H10.6277V37.9629H3.03516Z" fill="#262626"/>
<path d="M60.7383 37.9629V50.1109H69.8493V37.9629H60.7383Z" fill="#262626"/>
<path d="M69.8482 48.591H62.2557L59.2188 60.739H69.8482C70.8606 60.2329 72.8852 58.3094 72.8852 54.665C72.8852 51.0206 70.8606 49.0972 69.8482 48.591Z" fill="#FA9E3E"/>
<path d="M3.03848 50.1067H10.631L13.668 62.2547H3.03848C2.02614 61.7485 0.0014782 59.8251 0.0014782 56.1807C0.0014782 52.5363 2.02614 50.6128 3.03848 50.1067Z" fill="#FA9E3E"/>
<path d="M4.55469 97.1829C5.76949 87.4645 19.2335 80.9856 25.8137 78.9609L51.6282 80.4794C63.7761 86.5534 66.8131 93.1336 66.8131 95.6644L68.3316 116.923H4.55469V97.1829Z" fill="#B5453C"/>
<path d="M66.8198 95.6616H62.2643C62.2643 93.2277 56.1844 85.0321 51.6289 81.9951L51.6348 80.4766C56.6965 83.0074 66.8198 89.5876 66.8198 95.6616Z" fill="#C21C1C"/>
<path d="M18.2245 81.999L15.1875 83.5175V116.924H57.7055V83.5175L54.6685 81.999V98.7025H18.2245V81.999Z" fill="#F0EEEE"/>
<circle cx="65.2972" cy="109.328" r="16.7035" fill="#FF3333"/>
<path d="M21.2578 80.4794L27.3318 77.4424H45.5538L51.6278 80.4794V97.1829H47.0723L37.9613 91.1089V89.5904H34.9243V91.1089L25.8133 97.1829H21.2578V80.4794Z" fill="#C21C1C"/>
<path d="M27.3359 83.5124V75.9199H45.5579V83.5124L39.4839 89.5864H33.4099L27.3359 83.5124Z" fill="#FA9E3E"/>
<path d="M34.9125 77.4419C12.1391 77.4419 7.59448 51.6274 9.11246 37.9609L63.764 39.4794C63.764 69.8494 53.417 77.4419 34.9125 77.4419Z" fill="#FFB56B"/>
<path d="M57.0224 39.4794L63.7785 37.9609C63.7785 62.2569 59.223 72.8864 42.5195 77.4419C59.223 69.8494 59.223 51.6274 57.0224 39.4794Z" fill="#EF9245"/>
<circle cx="22.5" cy="52.501" r="2.5" fill="black"/>
<circle cx="49.8359" cy="52.501" r="2.5" fill="black"/>
<path d="M44.1836 69.626C42.6651 65.0705 33.5541 62.0335 28.9986 69.626" stroke="#162E3E" stroke-width="2" stroke-linecap="round"/>
<path d="M36.4489 42.518L1.52344 37.9625L10.6344 0H63.7819L72.8929 37.9625L36.4489 42.518Z" fill="#F0EEEE"/>
<path d="M57.707 0H63.781L72.892 37.9625H66.818L57.707 0Z" fill="#D9D4D4"/>
<path d="M3.03906 31.8904L4 27.0009L36.446 30.3719L70.5 27.5009L71.3715 31.8904L36.446 34.9274L3.03906 31.8904Z" fill="#B41919"/>
<path d="M60 104L72 116M60 116L72 104" stroke="black" stroke-width="3" stroke-linecap="round"/>
</svg>
