<svg width="32" height="32" viewBox="0 0 32 32" fill="none" xmlns="http://www.w3.org/2000/svg">
<rect width="32" height="32" rx="6" fill="#686868"/>
<path d="M22.6372 20.9289C23.1209 21.4131 23.1209 22.1662 22.6372 22.6503C22.3954 22.8924 22.0998 23 21.7774 23C21.4549 23 21.1593 22.8924 20.9175 22.6503L16 17.7281L11.0825 22.6503C10.8407 22.8924 10.5451 23 10.2226 23C9.90019 23 9.60461 22.8924 9.36276 22.6503C8.87908 22.1662 8.87908 21.4131 9.36276 20.9289L14.2802 16.0067L9.36276 11.0845C8.87908 10.6004 8.87908 9.84726 9.36276 9.36311C9.84645 8.87896 10.5988 8.87896 11.0825 9.36311L16 14.2853L20.9175 9.36311C21.4012 8.87896 22.1536 8.87896 22.6372 9.36311C23.1209 9.84726 23.1209 10.6004 22.6372 11.0845L17.7198 16.0067L22.6372 20.9289Z" fill="#F4F4F4"/>
</svg>
