<svg width="137" height="110" viewBox="0 0 137 110" fill="none" xmlns="http://www.w3.org/2000/svg">
<path d="M31.4503 2.43473V9.73894L25.2252 25.5647L19 94.9546L21.4901 97.3894H81.2517L76.2716 49.912H73.7815V45.0426H77.5166L78.7617 38.9557H101.172L99.9272 25.5647L93.7021 9.73894V2.43473L92.457 0H32.6954L31.4503 2.43473Z" fill="#D1A190"/>
<path d="M25.0859 24.3479L31.1799 9.13086H93.259L98.128 24.3479H25.0859Z" fill="#BD7C63"/>
<path d="M70.7387 44.1281L72.2604 36.5195H119.433L120.955 44.1281H123.999V50.2149H67.6953V44.1281H70.7387Z" fill="#7CA1B1"/>
<path d="M120.955 51.7383H70.7383L76.8251 109.563H114.868L120.955 51.7383Z" fill="#FF5D4E"/>
<path d="M120.949 51.7383H116.384L110.297 104.998L107.254 109.563H114.862L117.906 80.6508L120.949 51.7383Z" fill="#E32929"/>
<path d="M75.303 95.8672L73.7812 79.1284L119.433 62.3896L117.911 79.1284L75.303 95.8672Z" fill="#F9EFEF"/>
<path d="M123.999 45.6514H67.6953V51.7382H123.999V45.6514Z" fill="#537983"/>
<path d="M117.914 51.7382V45.6514H124.001V51.7382H117.914Z" fill="#3E5959"/>
<path d="M119.431 36.5195H113.344V45.6498H120.952L119.431 36.5195Z" fill="#678D98"/>
<path d="M119.431 62.3896L114.865 63.9114L113.344 80.6502L117.909 79.1284L119.431 62.3896Z" fill="#EFE2DD"/>
<g opacity="0.71">
<path d="M31.4503 2.43473V9.73894L25.2252 25.5647L19 94.9546L21.4901 97.3894H81.2517L76.2716 49.912H73.7815V45.0426H77.5166L78.7617 38.9557H101.172L99.9272 25.5647L93.7021 9.73894V2.43473L92.457 0H32.6954L31.4503 2.43473Z" fill="#2B2929"/>
<path d="M25.0859 24.3483L31.1799 9.1312H93.259L98.128 24.3483H25.0859Z" fill="#2B2929"/>
<path d="M70.7407 44.1285L72.2624 36.5199H119.435L120.957 44.1285H124V50.2153H67.6973V44.1285H70.7407Z" fill="#2B2929"/>
<path d="M120.955 51.7383H70.7383L76.8251 109.563H114.868L120.955 51.7383Z" fill="#2B2929"/>
<path d="M120.951 51.7383H116.386L110.299 104.998L107.255 109.563H114.864L117.907 80.6508L120.951 51.7383Z" fill="#2B2929"/>
<path d="M75.301 95.8676L73.7793 79.1289L119.431 62.3901L117.909 79.1289L75.301 95.8676Z" fill="#2B2929"/>
<path d="M124 45.6511H67.6973V51.738H124V45.6511Z" fill="#2B2929"/>
<path d="M117.913 51.738V45.6511H124V51.738H117.913Z" fill="#2B2929"/>
<path d="M119.432 36.5199H113.345V45.6502H120.954L119.432 36.5199Z" fill="#2B2929"/>
<path d="M119.432 62.3901L114.867 63.9118L113.345 80.6506L117.91 79.1289L119.432 62.3901Z" fill="#2B2929"/>
</g>
<rect x="2.44005" y="55.9844" width="128.829" height="29.3753" transform="rotate(-13.715 2.44005 55.9844)" stroke="#EE3C31" stroke-width="4.03789"/>
<rect x="7.17258" y="58.9542" width="121.103" height="21.7323" transform="rotate(-13.715 7.17258 58.9542)" stroke="#EE3C31" stroke-width="0.807577"/>
<path d="M19.1765 72.9216L19.0934 72.5815L19.5623 72.467C20.0894 72.3383 20.4221 72.0785 20.5605 71.6875C20.6459 71.4523 20.6026 70.9823 20.4305 70.2774L18.4643 62.2237C18.2742 61.4453 18.0695 60.979 17.85 60.8247C17.5451 60.6134 17.1567 60.5654 16.6847 60.6806L16.2158 60.7951L16.1328 60.4549L21.2077 59.2159C23.071 58.761 24.5385 58.6268 25.6101 58.8132C26.6879 58.9982 27.6415 59.5123 28.4708 60.3554C29.3063 61.1971 29.8819 62.2645 30.1976 63.5578C30.6211 65.2923 30.4479 66.8706 29.678 68.2925C28.8123 69.8807 27.1689 70.9703 24.7479 71.5614L19.1765 72.9216ZM22.5145 71.152C23.3348 71.1336 24.0085 71.06 24.5356 70.9313C25.9576 70.5841 27.0155 69.7966 27.7093 68.5686C28.4032 67.3405 28.5414 65.8715 28.1239 64.1615C27.7034 62.4392 26.903 61.196 25.7229 60.4321C24.5427 59.6681 23.2171 59.4657 21.7461 59.8248C21.1945 59.9595 20.5879 60.2017 19.9265 60.5516L22.5145 71.152ZM33.5188 56.9311L34.7219 61.8589L37.4616 61.1901C38.1726 61.0165 38.6215 60.7932 38.8081 60.5204C39.058 60.1606 39.1145 59.6208 38.9777 58.9008L39.3179 58.8177L40.3774 63.1572L40.0372 63.2402C39.8032 62.6544 39.6224 62.2862 39.4947 62.1355C39.332 61.9479 39.11 61.8235 38.8288 61.7623C38.5476 61.701 38.1465 61.734 37.6255 61.8612L34.8858 62.5301L35.8891 66.6397C36.0238 67.1913 36.1306 67.5224 36.2096 67.6331C36.287 67.7375 36.396 67.8116 36.5366 67.8552C36.6756 67.8927 36.9167 67.8696 37.26 67.7858L39.3745 67.2695C40.0794 67.0974 40.5792 66.9234 40.874 66.7476C41.1688 66.5717 41.4281 66.3038 41.652 65.9439C41.9392 65.4711 42.1885 64.803 42.3998 63.9396L42.7676 63.8498L42.4551 67.2383L32.8476 69.5839L32.7645 69.2437L33.2058 69.136C33.5 69.0642 33.7617 68.9256 33.9908 68.7203C34.163 68.5743 34.2589 68.3951 34.2784 68.1825C34.3041 67.9684 34.2429 67.5579 34.0947 66.9511L32.1172 58.8514C31.9242 58.0608 31.7255 57.593 31.5213 57.448C31.2408 57.2567 30.8431 57.2239 30.3283 57.3496L29.887 57.4573L29.8039 57.1172L39.4114 54.7716L40.2159 57.4684L39.8574 57.556C39.5686 56.9316 39.3145 56.5163 39.0953 56.31C38.8822 56.1022 38.6068 55.9714 38.2689 55.9175C38.0013 55.8854 37.5579 55.945 36.9389 56.0961L33.5188 56.9311ZM53.9238 60.7851L54.2429 60.7754L54.0024 64.4191L44.349 66.7759L44.2659 66.4357L44.7348 66.3213C45.2619 66.1926 45.597 65.9289 45.7399 65.5303C45.8208 65.3028 45.7744 64.8335 45.6008 64.1225L43.6368 56.078C43.4468 55.2996 43.242 54.8333 43.0225 54.679C42.7176 54.4677 42.3292 54.4196 41.8572 54.5349L41.3884 54.6493L41.3053 54.3092L46.9503 52.931L47.0333 53.2712C46.3699 53.4266 45.919 53.6017 45.6808 53.7962C45.4486 53.9893 45.3075 54.1958 45.2573 54.4159C45.2071 54.636 45.2726 55.1168 45.4536 55.8585L47.366 63.6916C47.4902 64.2003 47.6245 64.5377 47.769 64.7037C47.874 64.8145 48.0106 64.8818 48.1788 64.9057C48.3469 64.9296 48.8325 64.8435 49.6354 64.6475L50.5456 64.4253C51.5018 64.1918 52.1557 63.9575 52.5074 63.7222C52.8591 63.487 53.151 63.1527 53.3829 62.7194C53.6133 62.28 53.7936 61.6352 53.9238 60.7851ZM61.21 62.299L61.2931 62.6391L55.9515 63.9432L55.8685 63.6031L56.3098 63.4953C56.8246 63.3696 57.1618 63.1282 57.3214 62.771C57.4206 62.5389 57.379 62.049 57.1964 61.3013L55.2301 53.2475C55.076 52.6162 54.9344 52.2092 54.8053 52.0264C54.7066 51.8881 54.5488 51.787 54.3319 51.7231C54.0263 51.6418 53.7264 51.6371 53.4322 51.7089L52.9909 51.8167L52.9078 51.4765L58.2494 50.1724L58.3325 50.5126L57.882 50.6225C57.3732 50.7467 57.0391 50.9874 56.8795 51.3446C56.7742 51.5782 56.8128 52.0688 56.9953 52.8166L58.9616 60.8703C59.1157 61.5016 59.2573 61.9087 59.3864 62.0915C59.4851 62.2298 59.646 62.3301 59.869 62.3925C60.1685 62.4753 60.4653 62.4808 60.7595 62.4089L61.21 62.299ZM72.0768 46.7965L72.1599 47.1367C71.738 47.3241 71.4384 47.5466 71.261 47.8043C71.0095 48.1839 70.8336 48.7139 70.7335 49.3943L68.9751 61.0656L68.6349 61.1487L61.3406 51.5414C60.9669 51.0481 60.716 50.7522 60.588 50.6535C60.3884 50.5009 60.1625 50.4002 59.9102 50.3514C59.6627 50.295 59.3451 50.2978 58.9576 50.3599L58.8746 50.0198L63.9679 48.7762L64.051 49.1164C63.4883 49.3122 63.1384 49.5016 63.0012 49.6845C62.864 49.8673 62.8223 50.0691 62.8762 50.2897C62.951 50.5962 63.2087 51.0399 63.6492 51.6207L68.6055 58.1554L69.7855 50.22C69.9 49.4387 69.9236 48.9101 69.8563 48.6343C69.8129 48.4566 69.6828 48.3097 69.4662 48.1937C69.248 48.0716 68.9193 48.0285 68.4799 48.0643C68.4478 48.0657 68.3934 48.0692 68.3169 48.0749L68.2338 47.7348L72.0768 46.7965ZM76.4169 46.4578L77.62 51.3857L80.3597 50.7168C81.0707 50.5432 81.5195 50.32 81.7062 50.0471C81.9561 49.6873 82.0126 49.1475 81.8758 48.4275L82.216 48.3444L83.2754 52.6839L82.9353 52.767C82.7013 52.1811 82.5205 51.8129 82.3928 51.6622C82.2301 51.4746 82.0081 51.3502 81.7269 51.289C81.4457 51.2277 81.0446 51.2607 80.5236 51.3879L77.7839 52.0568L78.7872 56.1664C78.9219 56.718 79.0287 57.0492 79.1076 57.1598C79.1851 57.2643 79.2941 57.3383 79.4346 57.3819C79.5737 57.4194 79.8148 57.3963 80.1581 57.3125L82.2726 56.7962C82.9775 56.6241 83.4773 56.4501 83.7721 56.2743C84.0669 56.0984 84.3262 55.8305 84.55 55.4706C84.8373 54.9978 85.0866 54.3297 85.2979 53.4663L85.6657 53.3765L85.3532 56.765L75.7457 59.1106L75.6626 58.7704L76.1039 58.6627C76.3981 58.5909 76.6598 58.4523 76.8889 58.247C77.0611 58.101 77.157 57.9218 77.1765 57.7092C77.2022 57.4951 77.1409 57.0846 76.9928 56.4779L75.0153 48.3782C74.8223 47.5875 74.6236 47.1197 74.4194 46.9747C74.1389 46.7834 73.7412 46.7506 73.2263 46.8763L72.785 46.984L72.702 46.6439L82.3095 44.2983L83.114 46.9952L82.7555 47.0827C82.4666 46.4583 82.2126 46.043 81.9934 45.8367C81.7803 45.6289 81.5048 45.4981 81.167 45.4442C80.8993 45.4121 80.456 45.4717 79.837 45.6228L76.4169 46.4578ZM99.5943 53.2881L96.2661 54.1007L90.6231 49.3021C90.3135 49.3907 90.0607 49.4589 89.8645 49.5068C89.7849 49.5262 89.6991 49.5472 89.6071 49.5696C89.5137 49.586 89.4172 49.603 89.3176 49.6208L90.202 53.2432C90.3935 54.0277 90.5983 54.494 90.8163 54.6421C91.1151 54.855 91.4973 54.9045 91.9632 54.7908L92.4504 54.6718L92.5335 55.012L87.1919 56.3161L87.1089 55.9759L87.5777 55.8614C88.1048 55.7328 88.4399 55.4691 88.5829 55.0705C88.6652 54.8491 88.6196 54.3829 88.446 53.6719L86.4797 45.6182C86.2882 44.8336 86.0834 44.3673 85.8654 44.2192C85.5605 44.0079 85.1721 43.9598 84.7002 44.075L84.2313 44.1895L84.1482 43.8494L88.6899 42.7405C90.0138 42.4173 91.0123 42.2774 91.6854 42.3209C92.3631 42.3568 92.9831 42.5821 93.5455 42.9969C94.1125 43.404 94.4835 43.9661 94.6586 44.6832C94.8456 45.4493 94.7567 46.1757 94.3918 46.8623C94.033 47.5474 93.358 48.1343 92.3668 48.6231L95.8142 51.571C96.6031 52.2487 97.2419 52.6707 97.7307 52.8371C98.2194 53.0036 98.8129 53.0405 99.5112 52.948L99.5943 53.2881ZM89.1762 49.0416C89.2927 49.0132 89.3945 48.9916 89.4818 48.9767C89.5677 48.9558 89.6381 48.9386 89.6933 48.9251C90.8824 48.6348 91.7144 48.1589 92.1893 47.4974C92.6704 46.8344 92.8137 46.1045 92.6192 45.3077C92.4291 44.5293 92.0298 43.9579 91.4213 43.5934C90.8174 43.2213 90.114 43.1332 89.311 43.3293C88.9555 43.4161 88.4886 43.5917 87.9103 43.8563L89.1762 49.0416ZM100.486 40.5814L101.689 45.5093L104.429 44.8404C105.14 44.6668 105.589 44.4436 105.775 44.1707C106.025 43.811 106.082 43.2711 105.945 42.5511L106.285 42.4681L107.345 46.8075L107.005 46.8906C106.771 46.3048 106.59 45.9365 106.462 45.7858C106.299 45.5982 106.077 45.4738 105.796 45.4126C105.515 45.3514 105.114 45.3844 104.593 45.5116L101.853 46.1804L102.856 50.2901C102.991 50.8417 103.098 51.1728 103.177 51.2834C103.254 51.3879 103.363 51.4619 103.504 51.5056C103.643 51.5431 103.884 51.5199 104.227 51.4361L106.342 50.9199C107.047 50.7478 107.547 50.5738 107.841 50.3979C108.136 50.222 108.395 49.9541 108.619 49.5942C108.907 49.1215 109.156 48.4534 109.367 47.5899L109.735 47.5002L109.422 50.8887L99.8149 53.2343L99.7319 52.8941L100.173 52.7863C100.467 52.7145 100.729 52.576 100.958 52.3706C101.13 52.2247 101.226 52.0454 101.246 51.8328C101.271 51.6187 101.21 51.2083 101.062 50.6015L99.0846 42.5018C98.8915 41.7111 98.6929 41.2433 98.4887 41.0983C98.2081 40.9071 97.8105 40.8743 97.2956 40.9999L96.8543 41.1077L96.7713 40.7675L106.379 38.4219L107.183 41.1188L106.825 41.2063C106.536 40.5819 106.282 40.1666 106.063 39.9603C105.85 39.7526 105.574 39.6218 105.236 39.5679C104.969 39.5358 104.525 39.5953 103.906 39.7465L100.486 40.5814ZM111.261 50.4397L111.178 50.0996L111.647 49.9851C112.174 49.8564 112.507 49.5966 112.645 49.2056C112.731 48.9704 112.687 48.5004 112.515 47.7955L110.549 39.7418C110.359 38.9634 110.154 38.4971 109.935 38.3428C109.63 38.1315 109.241 38.0835 108.769 38.1987L108.301 38.3132L108.217 37.973L113.292 36.734C115.156 36.2791 116.623 36.1449 117.695 36.3313C118.773 36.5163 119.726 37.0304 120.556 37.8735C121.391 38.7152 121.967 39.7826 122.282 41.0759C122.706 42.8104 122.533 44.3887 121.763 45.8106C120.897 47.3988 119.254 48.4884 116.833 49.0795L111.261 50.4397ZM114.599 48.6701C115.419 48.6517 116.093 48.5781 116.62 48.4494C118.042 48.1023 119.1 47.3147 119.794 46.0867C120.488 44.8587 120.626 43.3896 120.209 41.6796C119.788 39.9573 118.988 38.7142 117.808 37.9502C116.627 37.1862 115.302 36.9838 113.831 37.3429C113.279 37.4776 112.673 37.7199 112.011 38.0697L114.599 48.6701Z" fill="#EE3C31"/>
</svg>
