<svg width="20" height="20" viewBox="0 0 20 20" fill="none" xmlns="http://www.w3.org/2000/svg">
<path d="M19 10C19.0015 11.1854 18.7681 12.3594 18.3132 13.4541C17.8584 14.5488 17.1911 15.5425 16.3499 16.3778C15.5157 17.2106 14.5255 17.8709 13.4359 18.3208C12.3463 18.7707 11.1788 19.0015 10 19C5.02931 19 1.00001 14.9707 1.00001 10C0.996861 7.6923 1.8833 5.47217 3.47501 3.80126C4.31486 2.91503 5.32672 2.20949 6.44866 1.72783C7.57061 1.24617 8.77904 0.998508 10 1.00001C11.1788 0.998481 12.3463 1.22927 13.4359 1.6792C14.5255 2.12912 15.5157 2.78935 16.3499 3.62215C17.1911 4.45746 17.8584 5.45117 18.3132 6.54587C18.7681 7.64057 19.0015 8.81456 19 10Z" fill="#AFAFAF" stroke="white" stroke-width="1.8" stroke-linecap="round" stroke-linejoin="round"/>
<path d="M19.0003 10C17.6872 10 14.0647 9.50505 10.8225 10.9284C7.30032 12.475 4.75017 14.874 3.63867 16.3662" fill="#AFAFAF"/>
<path d="M19.0003 10C17.6872 10 14.0647 9.50505 10.8225 10.9284C7.30032 12.475 4.75017 14.874 3.63867 16.3662" stroke="white" stroke-width="1.8" stroke-linecap="round" stroke-linejoin="round"/>
<path d="M6.625 1.6543C8.0335 2.95435 11.107 6.26409 12.25 9.54999C13.393 12.8359 13.816 16.876 14.077 18.0257" fill="#AFAFAF"/>
<path d="M6.625 1.6543C8.0335 2.95435 11.107 6.26409 12.25 9.54999C13.393 12.8359 13.816 16.876 14.077 18.0257" stroke="white" stroke-width="1.8" stroke-linecap="round" stroke-linejoin="round"/>
<path d="M1.06934 8.87487C2.76943 8.97747 7.26988 9.06972 10.1499 7.83987C13.0299 6.61002 15.508 4.34788 16.3581 3.63013M1.67504 13.4257C2.46808 15.3454 3.89835 16.9331 5.72503 17.9217L1.67504 13.4257Z" fill="#AFAFAF"/>
<path d="M1.06934 8.87487C2.76943 8.97747 7.26988 9.06972 10.1499 7.83987C13.0299 6.61002 15.508 4.34788 16.3581 3.63013M1.67504 13.4257C2.46808 15.3454 3.89835 16.9331 5.72503 17.9217" stroke="white" stroke-width="1.8" stroke-linecap="round" stroke-linejoin="round"/>
<path d="M1.00001 10C0.996861 7.6923 1.8833 5.47217 3.47501 3.80125L1.00001 10ZM10 1.00001C8.77904 0.998507 7.57061 1.24617 6.44866 1.72783C5.32672 2.20949 4.31486 2.91502 3.47501 3.80125M13.6 1.74881C14.6249 2.19725 15.5575 2.83251 16.3499 3.62215C17.1911 4.45746 17.8584 5.45117 18.3132 6.54587C18.7681 7.64057 19.0015 8.81456 19 10C19 11.1079 18.7997 12.1694 18.433 13.15M10 19C11.1788 19.0015 12.3463 18.7707 13.4359 18.3208C14.5255 17.8709 15.5157 17.2106 16.3499 16.3778" fill="#AFAFAF"/>
<path d="M1.00001 10C0.996861 7.6923 1.8833 5.47217 3.47501 3.80125M10 1.00001C8.77904 0.998507 7.57061 1.24617 6.44866 1.72783C5.32672 2.20949 4.31486 2.91502 3.47501 3.80125M13.6 1.74881C14.6249 2.19725 15.5575 2.83251 16.3499 3.62215C17.1911 4.45746 17.8584 5.45117 18.3132 6.54587C18.7681 7.64057 19.0015 8.81456 19 10C19 11.1079 18.7997 12.1694 18.433 13.15M10 19C11.1788 19.0015 12.3463 18.7707 13.4359 18.3208C14.5255 17.8709 15.5157 17.2106 16.3499 16.3778" stroke="white" stroke-width="1.8" stroke-linecap="round" stroke-linejoin="round"/>
</svg>
