<svg fill="none" height="325" viewBox="0 0 321 325" width="321" xmlns="http://www.w3.org/2000/svg">
    <path
        d="M122.453 319H115.299V306.15H122.453V307.469H116.793V311.626H122.128V312.927H116.793V317.682H122.453V319ZM135.54 309.191C136.601 309.191 137.4 309.47 137.939 310.026C138.479 310.577 138.748 311.465 138.748 312.689V319H137.307V312.76C137.307 311.98 137.137 311.397 136.797 311.011C136.463 310.618 135.965 310.422 135.303 310.422C134.371 310.422 133.694 310.691 133.272 311.23C132.851 311.77 132.64 312.563 132.64 313.612V319H131.189V312.76C131.189 312.238 131.113 311.805 130.961 311.459C130.814 311.113 130.592 310.855 130.293 310.686C130 310.51 129.628 310.422 129.177 310.422C128.538 310.422 128.025 310.554 127.639 310.817C127.252 311.081 126.971 311.474 126.795 311.995C126.625 312.511 126.54 313.146 126.54 313.902V319H125.081V309.367H126.259L126.479 310.729H126.558C126.751 310.396 126.994 310.114 127.287 309.886C127.58 309.657 127.908 309.484 128.271 309.367C128.635 309.25 129.021 309.191 129.432 309.191C130.164 309.191 130.776 309.329 131.269 309.604C131.767 309.874 132.127 310.287 132.35 310.844H132.429C132.745 310.287 133.179 309.874 133.729 309.604C134.28 309.329 134.884 309.191 135.54 309.191ZM146.271 309.191C147.473 309.191 148.431 309.604 149.146 310.431C149.86 311.257 150.218 312.499 150.218 314.157C150.218 315.253 150.054 316.173 149.726 316.917C149.397 317.661 148.935 318.224 148.337 318.604C147.745 318.985 147.045 319.176 146.236 319.176C145.727 319.176 145.278 319.108 144.892 318.974C144.505 318.839 144.174 318.657 143.898 318.429C143.623 318.2 143.395 317.951 143.213 317.682H143.107C143.125 317.91 143.146 318.186 143.169 318.508C143.198 318.83 143.213 319.111 143.213 319.352V323.307H141.745V309.367H142.949L143.143 310.791H143.213C143.4 310.498 143.629 310.231 143.898 309.991C144.168 309.745 144.496 309.552 144.883 309.411C145.275 309.265 145.738 309.191 146.271 309.191ZM146.017 310.422C145.349 310.422 144.81 310.551 144.399 310.809C143.995 311.066 143.699 311.453 143.512 311.969C143.324 312.479 143.225 313.12 143.213 313.894V314.175C143.213 314.989 143.301 315.678 143.477 316.24C143.658 316.803 143.954 317.23 144.364 317.523C144.78 317.816 145.337 317.963 146.034 317.963C146.632 317.963 147.13 317.802 147.528 317.479C147.927 317.157 148.223 316.709 148.416 316.135C148.615 315.555 148.715 314.89 148.715 314.14C148.715 313.003 148.492 312.101 148.047 311.433C147.607 310.759 146.931 310.422 146.017 310.422ZM155.878 317.98C156.118 317.98 156.364 317.96 156.616 317.919C156.868 317.878 157.073 317.828 157.231 317.77V318.903C157.062 318.979 156.824 319.044 156.52 319.097C156.221 319.149 155.928 319.176 155.641 319.176C155.131 319.176 154.668 319.088 154.252 318.912C153.836 318.73 153.502 318.426 153.25 317.998C153.004 317.57 152.881 316.979 152.881 316.223V310.51H151.51V309.798L152.89 309.227L153.47 307.135H154.349V309.367H157.17V310.51H154.349V316.179C154.349 316.782 154.486 317.233 154.762 317.532C155.043 317.831 155.415 317.98 155.878 317.98ZM157.662 309.367H159.227L161.354 314.957C161.477 315.285 161.591 315.602 161.696 315.906C161.802 316.205 161.896 316.492 161.978 316.768C162.06 317.043 162.124 317.31 162.171 317.567H162.232C162.314 317.274 162.432 316.891 162.584 316.416C162.736 315.936 162.9 315.446 163.076 314.948L165.089 309.367H166.662L162.47 320.415C162.247 321.007 161.986 321.522 161.688 321.962C161.395 322.401 161.037 322.738 160.615 322.973C160.193 323.213 159.684 323.333 159.086 323.333C158.811 323.333 158.567 323.315 158.356 323.28C158.146 323.251 157.964 323.216 157.812 323.175V322.006C157.94 322.035 158.096 322.062 158.277 322.085C158.465 322.108 158.658 322.12 158.857 322.12C159.221 322.12 159.534 322.05 159.798 321.909C160.067 321.774 160.299 321.575 160.492 321.312C160.686 321.048 160.853 320.734 160.993 320.371L161.521 319.018L157.662 309.367ZM178.589 307.284C177.88 307.284 177.241 307.407 176.673 307.653C176.11 307.894 175.63 308.245 175.231 308.708C174.839 309.165 174.537 309.719 174.326 310.369C174.115 311.02 174.01 311.752 174.01 312.566C174.01 313.645 174.177 314.582 174.511 315.379C174.851 316.17 175.354 316.782 176.022 317.216C176.696 317.649 177.537 317.866 178.545 317.866C179.119 317.866 179.658 317.819 180.162 317.726C180.672 317.626 181.167 317.503 181.647 317.356V318.657C181.179 318.833 180.687 318.962 180.171 319.044C179.655 319.132 179.043 319.176 178.334 319.176C177.027 319.176 175.935 318.906 175.056 318.367C174.183 317.822 173.526 317.055 173.087 316.064C172.653 315.074 172.437 313.905 172.437 312.558C172.437 311.585 172.571 310.697 172.841 309.895C173.116 309.086 173.515 308.389 174.036 307.803C174.563 307.217 175.208 306.766 175.97 306.449C176.737 306.127 177.616 305.966 178.606 305.966C179.257 305.966 179.884 306.03 180.487 306.159C181.091 306.288 181.636 306.473 182.122 306.713L181.524 307.979C181.114 307.791 180.663 307.63 180.171 307.495C179.685 307.354 179.157 307.284 178.589 307.284ZM187.817 309.209C188.966 309.209 189.818 309.467 190.375 309.982C190.932 310.498 191.21 311.321 191.21 312.452V319H190.146L189.865 317.576H189.795C189.525 317.928 189.244 318.224 188.951 318.464C188.658 318.698 188.318 318.877 187.932 319C187.551 319.117 187.082 319.176 186.525 319.176C185.939 319.176 185.418 319.073 184.961 318.868C184.51 318.663 184.152 318.353 183.889 317.937C183.631 317.521 183.502 316.993 183.502 316.354C183.502 315.394 183.883 314.655 184.645 314.14C185.406 313.624 186.566 313.343 188.125 313.296L189.786 313.226V312.637C189.786 311.805 189.607 311.222 189.25 310.888C188.893 310.554 188.389 310.387 187.738 310.387C187.234 310.387 186.754 310.46 186.297 310.606C185.84 310.753 185.406 310.926 184.996 311.125L184.548 310.018C184.981 309.795 185.479 309.604 186.042 309.446C186.604 309.288 187.196 309.209 187.817 309.209ZM189.769 314.254L188.301 314.315C187.1 314.362 186.253 314.559 185.761 314.904C185.269 315.25 185.022 315.739 185.022 316.372C185.022 316.923 185.189 317.33 185.523 317.594C185.857 317.857 186.3 317.989 186.851 317.989C187.706 317.989 188.406 317.752 188.951 317.277C189.496 316.803 189.769 316.091 189.769 315.142V314.254ZM198.593 309.191C198.786 309.191 198.988 309.203 199.199 309.227C199.41 309.244 199.598 309.271 199.762 309.306L199.577 310.659C199.419 310.618 199.243 310.586 199.05 310.562C198.856 310.539 198.675 310.527 198.505 310.527C198.118 310.527 197.752 310.606 197.406 310.765C197.066 310.917 196.768 311.14 196.51 311.433C196.252 311.72 196.05 312.068 195.903 312.479C195.757 312.883 195.684 313.334 195.684 313.832V319H194.216V309.367H195.429L195.587 311.143H195.648C195.848 310.785 196.088 310.46 196.369 310.167C196.65 309.868 196.976 309.631 197.345 309.455C197.72 309.279 198.136 309.191 198.593 309.191ZM204.692 317.98C204.933 317.98 205.179 317.96 205.431 317.919C205.683 317.878 205.888 317.828 206.046 317.77V318.903C205.876 318.979 205.639 319.044 205.334 319.097C205.035 319.149 204.742 319.176 204.455 319.176C203.945 319.176 203.482 319.088 203.066 318.912C202.65 318.73 202.316 318.426 202.064 317.998C201.818 317.57 201.695 316.979 201.695 316.223V310.51H200.324V309.798L201.704 309.227L202.284 307.135H203.163V309.367H205.984V310.51H203.163V316.179C203.163 316.782 203.301 317.233 203.576 317.532C203.857 317.831 204.229 317.98 204.692 317.98Z"
        fill="white" fill-opacity="0.8" />
    <g clip-path="url(#clip0_1375_20892)">
        <path
            d="M14.9158 255.376C19.3684 263.634 28.8184 267.179 28.8184 267.179C28.8184 267.179 31.0493 257.335 26.5967 249.076C22.1441 240.818 12.6941 237.273 12.6941 237.273C12.6941 237.273 10.4632 247.117 14.9158 255.376Z"
            fill="#2F2E41" />
        <path
            d="M17.9762 252.659C26.0149 257.496 29.1109 267.103 29.1109 267.103C29.1109 267.103 19.1735 268.868 11.1347 264.032C3.09598 259.195 0 249.587 0 249.587C0 249.587 9.93742 247.822 17.9762 252.659Z"
            fill="#F8D848" />
        <path d="M209.671 40.8135H208.954V47.4421H209.671V40.8135Z" fill="#F2F2F2" />
        <path d="M254.453 56.937H253.736V63.5656H254.453V56.937Z" fill="#F2F2F2" />
        <path d="M249.437 223.189H248.721V229.818H249.437V223.189Z" fill="#F2F2F2" />
        <path d="M259.827 168.369H259.11V174.998H259.827V168.369Z" fill="#F2F2F2" />
        <path
            d="M129.711 251.594H44.8806V250.984H129.101V221.381H52.0121L48.2672 213.578L48.8175 213.314L52.3962 220.77H129.711V251.594Z"
            fill="#2F2E41" />
        <path
            d="M56.1708 266.548C59.7099 266.548 62.5789 263.679 62.5789 260.139C62.5789 256.6 59.7099 253.73 56.1708 253.73C52.6317 253.73 49.7627 256.6 49.7627 260.139C49.7627 263.679 52.6317 266.548 56.1708 266.548Z"
            fill="#3F3D56" />
        <path
            d="M119.336 266.548C122.875 266.548 125.744 263.679 125.744 260.139C125.744 256.6 122.875 253.73 119.336 253.73C115.797 253.73 112.928 256.6 112.928 260.139C112.928 263.679 115.797 266.548 119.336 266.548Z"
            fill="#3F3D56" />
        <path
            d="M138.784 211.31H43.4343L22.8027 143.865H160.032L159.907 144.261L138.784 211.31ZM43.8857 210.7H138.337L159.2 144.475H23.6276L43.8857 210.7Z"
            fill="#2F2E41" />
        <path d="M133.801 208H47.6427L29 148H153L152.887 148.353L133.801 208Z" fill="#F2F2F2" />
        <path
            d="M159.741 144.839L159.151 144.682L163.179 129.501H186.605V130.112H163.648L159.741 144.839Z"
            fill="#2F2E41" />
        <path d="M153.174 164.312H29.4697V164.922H153.174V164.312Z" fill="#2F2E41" />
        <path d="M146.09 186.799H36.3486V187.409H146.09V186.799Z" fill="#2F2E41" />
        <path d="M91.7204 144.17H91.1101V211.005H91.7204V144.17Z" fill="#2F2E41" />
        <path d="M119.044 144.15L114.664 210.984L115.273 211.024L119.654 144.19L119.044 144.15Z"
            fill="#2F2E41" />
        <path d="M63.799 144.15L63.1899 144.189L67.5454 211.025L68.1545 210.985L63.799 144.15Z"
            fill="#2F2E41" />
        <path
            d="M213.311 22.1702C213.311 22.1702 218.548 37.0778 215.326 39.3713C212.103 41.6648 226.203 60.3949 226.203 60.3949L243.123 55.8079L233.857 40.1358C233.857 40.1358 232.649 24.4637 232.649 22.1702C232.649 19.8767 213.311 22.1702 213.311 22.1702Z"
            fill="#A0616A" />
        <path
            d="M213.311 22.1702C213.311 22.1702 218.548 37.0778 215.326 39.3713C212.103 41.6648 226.203 60.3949 226.203 60.3949L243.123 55.8079L233.857 40.1358C233.857 40.1358 232.649 24.4637 232.649 22.1702C232.649 19.8767 213.311 22.1702 213.311 22.1702Z"
            fill="black" opacity="0.1" />
        <path
            d="M218.28 244.638V250.754C218.28 250.754 211.4 267.379 218.28 267.379C225.159 267.379 230.51 269.102 230.51 266.808V246.167L218.28 244.638Z"
            fill="#242331" />
        <path
            d="M263.379 244.627V250.743C263.379 250.743 270.259 267.368 263.379 267.368C256.5 267.368 251.149 269.091 251.149 266.798V246.156L263.379 244.627Z"
            fill="#242331" />
        <path
            d="M204.521 128.435C204.521 128.435 202.992 147.547 204.521 157.486C206.049 167.424 208.343 194.946 208.343 194.946C208.343 194.946 208.343 246.931 216.751 247.696C225.159 248.46 231.275 249.225 232.039 246.167C232.803 243.109 228.217 241.58 230.51 240.051C232.803 238.522 233.568 233.171 230.51 227.055C227.453 220.939 230.51 159.015 230.51 159.015L245.034 198.004C245.034 198.004 246.563 230.113 248.091 234.7C249.62 239.287 246.563 247.696 251.913 248.46C257.264 249.225 263.379 244.638 266.437 243.109C269.495 241.58 261.851 241.58 263.379 240.815C264.908 240.051 269.495 237.758 267.966 236.993C266.437 236.229 264.908 199.533 264.908 199.533C264.908 199.533 260.704 121.172 255.353 118.114C250.002 115.056 246.563 120.323 246.563 120.323L204.521 128.435Z"
            fill="#2F2E41" />
        <path
            d="M224.013 33.2554C231.612 33.2554 237.772 27.0945 237.772 19.4945C237.772 11.8946 231.612 5.73364 224.013 5.73364C216.414 5.73364 210.254 11.8946 210.254 19.4945C210.254 27.0945 216.414 33.2554 224.013 33.2554Z"
            fill="#A0616A" />
        <path
            d="M219.809 45.1052C219.809 45.1052 223.631 56.5726 229.746 54.2791L235.861 51.9857L246.563 125.377C246.563 125.377 238.154 137.609 225.924 129.964C213.693 122.319 219.809 45.1052 219.809 45.1052Z"
            fill="#F8D848" />
        <path
            d="M230.51 42.8118L233.95 35.5491C233.95 35.5491 254.207 45.1052 257.264 48.1632C260.322 51.2212 260.322 55.8082 260.322 55.8082L254.971 74.9205C254.971 74.9205 256.5 116.968 256.5 118.497C256.5 120.026 261.851 128.435 258.029 125.377C254.207 122.319 253.442 119.261 250.385 123.848C247.327 128.435 240.447 133.787 240.447 133.787L230.51 42.8118Z"
            fill="#3F3D56" />
        <path
            d="M257.264 97.8552L254.971 119.261C254.971 119.261 241.212 131.493 244.27 132.257C247.327 133.022 248.856 129.964 248.856 129.964C248.856 129.964 254.207 135.315 257.264 132.257C260.322 129.199 267.966 100.149 267.966 100.149L257.264 97.8552Z"
            fill="#A0616A" />
        <path
            d="M224.306 0.0465331C221.256 -0.0625234 217.991 -0.11647 215.42 1.52747C214.236 2.3525 213.199 3.36859 212.349 4.53418C209.844 7.70102 207.68 11.6856 208.61 15.6148L209.691 15.1933C209.691 16.2421 209.457 17.2778 209.008 18.2255C209.16 17.7829 209.67 18.4983 209.533 18.946L208.343 22.8517C210.3 22.1343 212.734 23.5869 213.032 25.6499C213.168 21.1134 213.639 15.9114 217.318 13.2551C219.174 11.9155 221.522 11.5066 223.782 11.1434C225.866 10.8084 228.051 10.4889 230.048 11.1753C232.045 11.8616 233.745 13.9037 233.292 15.9661C234.213 15.6489 235.242 16.2906 235.697 17.1516C236.152 18.0125 236.176 19.0282 236.19 20.0019C237.171 20.6955 238.288 19.3182 238.688 18.1849C239.627 15.5247 240.461 12.693 239.955 9.91777C239.45 7.1425 237.188 4.4903 234.368 4.48089C234.71 4.10479 234.893 3.61025 234.877 3.10188L232.552 2.90542C233.142 2.82184 233.685 2.53563 234.088 2.09582C233.154 3.12305 225.815 0.100497 224.306 0.0465331Z"
            fill="#2F2E41" />
        <path
            d="M223.631 40.5181C223.631 40.5181 217.408 34.4195 215.168 34.7931C212.929 35.1667 209.871 40.5181 209.871 40.5181C209.871 40.5181 191.526 46.6341 192.29 52.75C193.054 58.866 201.463 88.6812 201.463 88.6812C201.463 88.6812 208.342 124.612 202.227 128.435C196.112 132.257 231.275 142.196 232.039 137.609C232.803 133.022 234.332 87.1523 232.039 80.2718C229.746 73.3914 223.631 40.5181 223.631 40.5181Z"
            fill="#3F3D56" />
        <path
            d="M250.385 52.75H259.837C259.837 52.75 266.437 81.8008 267.202 84.8587C267.966 87.9167 269.495 102.442 268.73 102.442C267.966 102.442 252.678 99.3841 252.678 101.678L250.385 52.75Z"
            fill="#3F3D56" />
        <path
            d="M250.065 124.689H213.881C210.35 108.444 210.055 92.7479 213.881 77.7517H250.065C244.225 92.4782 243.861 108.067 250.065 124.689Z"
            fill="#F2F2F2" />
        <path
            d="M199.17 104.736L209.871 109.323C209.871 109.323 230.51 112.381 230.51 103.971C230.51 95.5618 209.871 100.149 209.871 100.149L202.991 97.9487L199.17 104.736Z"
            fill="#A0616A" />
        <path d="M321 268H0V268.717H321V268Z" fill="#3D3C54" />
        <path
            d="M201.463 48.1631L192.29 50.4566L185.411 90.9747C185.411 90.9747 183.117 101.678 186.939 102.442C190.761 103.207 201.463 109.323 201.463 109.323C201.463 109.323 202.992 97.8552 206.049 97.8552L198.405 91.7392L202.992 64.982L201.463 48.1631Z"
            fill="#3F3D56" />
        <path
            d="M189.967 133.935C192.158 133.935 193.934 132.159 193.934 129.967C193.934 127.776 192.158 126 189.967 126C187.776 126 186 127.776 186 129.967C186 132.159 187.776 133.935 189.967 133.935Z"
            fill="#3F3D56" />
    </g>
    <defs>
        <clipPath id="clip0_1375_20892">
            <rect fill="white" height="269" width="321" />
        </clipPath>
    </defs>
</svg>
