<svg width="224" height="157" viewBox="0 0 224 157" fill="none" xmlns="http://www.w3.org/2000/svg">
<g clip-path="url(#clip0_801_15618)">
<path d="M13.0151 18.1428V133.974H210.277V18.1428H13.0151Z" fill="#171717"/>
<path d="M210.275 11.1644V18.1422H13.0136V11.1644C13.0136 4.98911 18.0376 0 24.2129 0H199.076C205.251 0 210.275 4.98911 210.275 11.1644ZM223.289 133.973V135.055C223.289 147.161 213.485 157 201.344 157H21.9451C9.80378 157 0 147.196 0 135.055V133.973H223.289Z" fill="#48495A"/>
<path d="M111.721 100H86.2462C85.2657 100 84.6737 98.927 85.1917 98.0945L97.8644 77.9292L110.889 57.5975C111.277 56.987 112.091 56.8205 112.702 57.209C112.868 57.32 112.998 57.4495 113.109 57.616L125.596 77.9107L138.269 98.076C138.639 98.6495 138.454 99.4265 137.88 99.7965C137.677 99.926 137.455 99.9815 137.214 99.9815H111.721V100Z" fill="#EDC92C"/>
<path d="M109.261 70.3256L109.964 83.7198C110.019 84.6078 110.759 85.3108 111.647 85.3108C112.535 85.3108 113.275 84.6263 113.331 83.7383L114.182 70.3256C114.182 66.4036 109.205 66.8846 109.261 70.3256ZM113.997 90.1949C113.997 91.4529 112.979 92.4704 111.721 92.4704C110.463 92.4704 109.446 91.4529 109.446 90.1949C109.446 88.9368 110.463 87.9193 111.721 87.9193C112.979 87.9193 113.997 88.9368 113.997 90.1949Z" fill="black"/>
</g>
<defs>
<clipPath id="clip0_801_15618">
<rect width="223.289" height="157" fill="white"/>
</clipPath>
</defs>
</svg>
