<svg width="205" height="278" viewBox="0 0 205 278" fill="none" xmlns="http://www.w3.org/2000/svg">
<path d="M12.5566 268H9.26172V250.801H3.41016V248.012H18.3945V250.801H12.5566V268ZM27.0762 248.012C28.7988 248.012 30.2207 248.221 31.3418 248.641C32.472 249.06 33.3105 249.698 33.8574 250.555C34.4134 251.411 34.6914 252.501 34.6914 253.822C34.6914 254.807 34.5091 255.645 34.1445 256.338C33.7799 257.031 33.3014 257.605 32.709 258.061C32.1165 258.516 31.4831 258.881 30.8086 259.154L36.4824 268H32.7773L27.9512 259.988H24.7383V268H21.457V248.012H27.0762ZM26.8574 250.746H24.7383V257.281H27.0078C28.5299 257.281 29.6328 256.999 30.3164 256.434C31.0091 255.868 31.3555 255.035 31.3555 253.932C31.3555 252.774 30.9863 251.954 30.248 251.471C29.5189 250.988 28.3887 250.746 26.8574 250.746ZM51.7266 268L49.7715 262.449H42.1289L40.1738 268H36.7148L44.1523 247.93H47.7891L55.2129 268H51.7266ZM48.9238 259.633L47.0234 254.164C46.9505 253.927 46.8457 253.594 46.709 253.166C46.5723 252.729 46.4355 252.286 46.2988 251.84C46.1621 251.384 46.0482 251.001 45.957 250.691C45.8659 251.065 45.752 251.484 45.6152 251.949C45.4876 252.405 45.36 252.833 45.2324 253.234C45.1139 253.635 45.0228 253.945 44.959 254.164L43.0449 259.633H48.9238ZM66.3691 250.514C65.4121 250.514 64.5553 250.687 63.7988 251.033C63.0514 251.38 62.418 251.881 61.8984 252.537C61.3789 253.184 60.9824 253.973 60.709 254.902C60.4355 255.823 60.2988 256.862 60.2988 258.02C60.2988 259.569 60.5176 260.904 60.9551 262.025C61.3926 263.137 62.0579 263.994 62.9512 264.596C63.8444 265.188 64.9746 265.484 66.3418 265.484C67.1895 265.484 68.0143 265.402 68.8164 265.238C69.6185 265.074 70.4479 264.851 71.3047 264.568V267.357C70.4935 267.676 69.6732 267.909 68.8438 268.055C68.0143 268.201 67.0573 268.273 65.9727 268.273C63.931 268.273 62.2357 267.85 60.8867 267.002C59.5469 266.154 58.5443 264.96 57.8789 263.42C57.2227 261.88 56.8945 260.075 56.8945 258.006C56.8945 256.493 57.1042 255.107 57.5234 253.85C57.9427 252.592 58.5534 251.507 59.3555 250.596C60.1576 249.675 61.1465 248.969 62.3223 248.477C63.5072 247.975 64.8607 247.725 66.3828 247.725C67.3854 247.725 68.3698 247.839 69.3359 248.066C70.3112 248.285 71.2135 248.6 72.043 249.01L70.8945 251.717C70.2018 251.389 69.4772 251.106 68.7207 250.869C67.9642 250.632 67.1803 250.514 66.3691 250.514ZM90.8418 268H87.0684L80.8477 258.922L78.8789 260.521V268H75.5977V248.012H78.8789V257.568C79.2799 257.076 79.6855 256.584 80.0957 256.092C80.5059 255.6 80.916 255.107 81.3262 254.615L86.959 248.012H90.6641L83.1992 256.762L90.8418 268ZM112.074 268H100.754V248.012H112.074V250.773H104.035V256.201H111.568V258.949H104.035V265.225H112.074V268ZM131.215 248.012L124.229 268H120.756L113.77 248.012H117.133L121.344 260.535C121.471 260.9 121.608 261.342 121.754 261.861C121.909 262.381 122.05 262.905 122.178 263.434C122.314 263.962 122.419 264.432 122.492 264.842C122.565 264.432 122.665 263.962 122.793 263.434C122.93 262.905 123.071 262.381 123.217 261.861C123.363 261.342 123.499 260.895 123.627 260.521L127.852 248.012H131.215ZM145.16 268H133.84V248.012H145.16V250.773H137.121V256.201H144.654V258.949H137.121V265.225H145.16V268ZM166.16 268H162.127L152.338 252.045H152.215C152.251 252.583 152.283 253.152 152.311 253.754C152.347 254.355 152.374 254.975 152.393 255.613C152.42 256.251 152.443 256.898 152.461 257.555V268H149.48V248.012H153.486L163.262 263.857H163.357C163.339 263.393 163.316 262.859 163.289 262.258C163.262 261.656 163.234 261.036 163.207 260.398C163.189 259.751 163.175 259.127 163.166 258.525V248.012H166.16V268ZM178.342 268H175.047V250.801H169.195V248.012H184.18V250.801H178.342V268ZM198.781 262.559C198.781 263.743 198.49 264.764 197.906 265.621C197.332 266.478 196.503 267.134 195.418 267.59C194.342 268.046 193.057 268.273 191.562 268.273C190.833 268.273 190.136 268.232 189.471 268.15C188.805 268.068 188.176 267.95 187.584 267.795C187.001 267.631 186.467 267.435 185.984 267.207V264.117C186.796 264.473 187.702 264.796 188.705 265.088C189.708 265.37 190.729 265.512 191.768 265.512C192.615 265.512 193.317 265.402 193.873 265.184C194.438 264.956 194.857 264.637 195.131 264.227C195.404 263.807 195.541 263.32 195.541 262.764C195.541 262.171 195.382 261.67 195.062 261.26C194.743 260.85 194.26 260.476 193.613 260.139C192.975 259.792 192.173 259.423 191.207 259.031C190.551 258.767 189.922 258.466 189.32 258.129C188.728 257.792 188.199 257.395 187.734 256.939C187.27 256.484 186.9 255.946 186.627 255.326C186.363 254.697 186.23 253.959 186.23 253.111C186.23 251.981 186.499 251.015 187.037 250.213C187.584 249.411 188.35 248.796 189.334 248.367C190.327 247.939 191.485 247.725 192.807 247.725C193.855 247.725 194.839 247.834 195.76 248.053C196.689 248.271 197.601 248.581 198.494 248.982L197.455 251.621C196.635 251.284 195.837 251.015 195.062 250.814C194.297 250.614 193.513 250.514 192.711 250.514C192.018 250.514 191.43 250.618 190.947 250.828C190.464 251.038 190.095 251.334 189.84 251.717C189.594 252.09 189.471 252.537 189.471 253.057C189.471 253.64 189.612 254.132 189.895 254.533C190.186 254.925 190.633 255.285 191.234 255.613C191.845 255.941 192.629 256.306 193.586 256.707C194.689 257.163 195.623 257.641 196.389 258.143C197.163 258.644 197.756 259.245 198.166 259.947C198.576 260.64 198.781 261.51 198.781 262.559Z" fill="white"/>
<path d="M78.7632 170.725L73.4521 175.617L77.6749 168.534C74.3502 162.501 68.9088 157.289 68.9088 157.289C68.9088 157.289 57.6211 168.101 57.6211 176.603C57.6211 185.105 62.675 188.07 68.9088 188.07C75.1426 188.07 80.1966 185.102 80.1966 176.603C80.1931 174.708 79.6331 172.701 78.7632 170.725Z" fill="#F2F2F2"/>
<path d="M72.0862 175.88V176.299C72.0616 181.17 71.241 184.97 69.628 187.643C69.6068 187.682 69.5786 187.72 69.5575 187.759L69.3779 187.65L69.2053 187.541C70.9945 184.653 71.6249 180.567 71.6495 176.32C71.6531 176.183 71.6531 176.045 71.6531 175.904C71.646 174.105 71.5368 172.287 71.3607 170.519C71.3466 170.382 71.3326 170.245 71.3185 170.104C71.0755 167.772 70.7197 165.546 70.3605 163.609C70.3359 163.472 70.3077 163.335 70.283 163.201C69.6596 159.929 69.0222 157.559 68.8778 157.034C68.8602 156.971 68.8496 156.935 68.8496 156.925L69.0468 156.868L69.0504 156.865L69.2511 156.809C69.2546 156.816 69.2898 156.935 69.3462 157.154C69.5681 157.974 70.1457 160.204 70.7127 163.145C70.7374 163.278 70.7655 163.416 70.7902 163.55C71.086 165.12 71.3713 166.874 71.6002 168.716C71.6566 169.178 71.7094 169.635 71.7552 170.086C71.7728 170.224 71.7869 170.364 71.7975 170.502C71.9806 172.418 72.0792 174.21 72.0862 175.88Z" fill="white"/>
<path d="M70.7021 163.151C70.5648 163.169 70.4204 163.19 70.2795 163.204C69.8921 163.243 69.5012 163.264 69.1102 163.264C67.4444 163.268 65.7996 162.894 64.2993 162.176C64.2113 162.285 64.1267 162.394 64.0352 162.507C65.6165 163.278 67.3528 163.68 69.1102 163.676C69.5258 163.676 69.9449 163.655 70.3605 163.609C70.5014 163.595 70.6423 163.577 70.7831 163.556C71.9313 163.391 73.0442 163.053 74.0902 162.556C74.0022 162.443 73.9141 162.331 73.8296 162.222C72.8364 162.683 71.7834 162.996 70.7021 163.151Z" fill="white"/>
<path d="M71.7452 170.092C71.6008 170.099 71.4599 170.106 71.3155 170.106C71.2733 170.109 71.2275 170.109 71.1817 170.109C67.5189 170.109 64.0886 168.317 61.9965 165.312C61.912 165.436 61.831 165.556 61.75 165.682C63.9301 168.722 67.4414 170.525 71.1817 170.525C71.238 170.525 71.2979 170.525 71.3543 170.521C71.4987 170.518 71.6431 170.514 71.7839 170.507C73.9992 170.395 76.1335 169.644 77.9332 168.352C77.8663 168.229 77.7994 168.109 77.7325 167.986C75.9891 169.254 73.9041 169.986 71.7452 170.092Z" fill="white"/>
<path d="M72.0881 175.881C71.9437 175.895 71.7993 175.902 71.6514 175.909C71.4964 175.916 71.3415 175.92 71.183 175.92C66.203 175.913 61.8217 172.627 60.4271 167.848C60.332 168.017 60.2404 168.182 60.1523 168.351C61.7231 173.113 66.1713 176.332 71.183 176.335C71.338 176.335 71.4929 176.332 71.6479 176.325C71.7958 176.321 71.9402 176.311 72.0846 176.304C75.0184 176.075 77.7514 174.74 79.7377 172.567C79.6955 172.412 79.6426 172.261 79.5933 172.109C77.6809 174.293 74.9867 175.645 72.0881 175.881Z" fill="white"/>
<path d="M203.704 0.591682H0.295841C0.130311 0.591682 0 0.457849 0 0.295841C0 0.133833 0.130311 0.00352192 0.295841 0H203.708C203.87 0 204.004 0.133833 204.004 0.295841C204 0.457849 203.866 0.591682 203.704 0.591682Z" fill="#CACACA"/>
<path d="M192.537 13.9453H6.12891V112.707H192.537V13.9453Z" fill="#F0F0F0"/>
<path d="M192.537 32.4319V31.4633H156.251V13.9453H155.282V31.4633H118.996V13.9453H118.027V31.4633H81.741V13.9453H80.7724V31.4633H44.4861V13.9453H43.5176V31.4633H6.12891V32.4319H43.5176V51.7848H6.12891V52.7533H43.5176V72.1063H6.12891V73.0748H43.5176V92.4242H6.12891V93.3927H43.5176V112.707H44.4861V93.3927H80.7724V112.707H81.741V93.3927H118.027V112.707H118.996V93.3927H155.282V112.707H156.251V93.3927H192.537V92.4242H156.251V73.0748H192.537V72.1063H156.251V52.7533H192.537V51.7848H156.251V32.4319H192.537ZM80.7724 92.4242H44.4861V73.0748H80.7724V92.4242ZM80.7724 72.1063H44.4861V52.7533H80.7724V72.1063ZM80.7724 51.7848H44.4861V32.4319H80.7724V51.7848ZM118.027 92.4242H81.741V73.0748H118.027V92.4242ZM118.027 72.1063H81.741V52.7533H118.027V72.1063ZM118.027 51.7848H81.741V32.4319H118.027V51.7848ZM155.282 92.4242H118.996V73.0748H155.282V92.4242ZM155.282 72.1063H118.996V52.7533H155.282V72.1063ZM155.282 51.7848H118.996V32.4319H155.282V51.7848Z" fill="white"/>
<path d="M64.1742 37.1328H51.7031V49.2059H64.1742V37.1328Z" fill="#CACACA"/>
<path d="M178.989 76.2266H166.518V88.2997H178.989V76.2266Z" fill="#CACACA"/>
<path d="M68.0473 96.3047H55.5762V108.378H68.0473V96.3047Z" fill="#CACACA"/>
<path d="M71.7348 34.8945H59.2637V46.9677H71.7348V34.8945Z" fill="#FFB548"/>
<path d="M130.355 85.0806L145.155 71.8945L149.518 74.057L131.771 92.6738L130.355 85.0806Z" fill="#FFB6B6"/>
<path d="M147.102 76.4306C149.047 76.4306 150.624 74.8537 150.624 72.9086C150.624 70.9635 149.047 69.3867 147.102 69.3867C145.157 69.3867 143.58 70.9635 143.58 72.9086C143.58 74.8537 145.157 76.4306 147.102 76.4306Z" fill="#FFB6B6"/>
<path d="M116.504 184.323H113L111.334 170.816H116.504V184.323Z" fill="#FFB6B6"/>
<path d="M117.397 187.716H106.105V187.571C106.105 185.145 108.074 183.176 110.501 183.176H117.397V187.716Z" fill="#2F2E41"/>
<path d="M103.824 184.323H100.32L98.6543 170.816H103.824V184.323Z" fill="#FFB6B6"/>
<path d="M104.717 187.716H93.4258V187.571C93.4258 185.145 95.3945 183.176 97.8211 183.176H104.717V187.716Z" fill="#2F2E41"/>
<path d="M119.445 107.114C119.445 107.114 128.25 106.41 125.432 121.906C122.615 137.403 116.779 179.793 116.779 179.793L111.489 180.522L108.362 123.974L105.999 180.522L99.2646 179.793L92.6751 119.089C92.6751 119.089 90.5584 114.207 92.6751 110.837C94.7918 107.466 119.445 107.114 119.445 107.114Z" fill="#2F2E41"/>
<path d="M113.811 68.7286L116.255 67.4184C116.255 67.4184 122.277 66.9042 124.736 73.9798L131.255 83.8271L141.82 74.6701L146.399 77.8398L133.082 93.7307L127.546 94.4386L115.572 78.9422L113.811 68.7286Z" fill="#3F3D56"/>
<path d="M104.941 40.1562C94.8964 40.1562 92.0859 51.1904 92.0859 57.4136C92.0859 63.6369 97.8408 62.6965 104.941 62.6965C107.987 62.6965 110.787 62.8691 112.989 62.5733L114.049 59.9846L114.901 62.1295C116.708 61.4639 117.796 60.115 117.796 57.4136C117.796 51.1869 115.331 40.1562 104.941 40.1562Z" fill="#2F2E41"/>
<path d="M104.896 62.6825C109.673 62.6825 113.546 58.8098 113.546 54.0326C113.546 49.2555 109.673 45.3828 104.896 45.3828C100.119 45.3828 96.2461 49.2555 96.2461 54.0326C96.2461 58.8098 100.119 62.6825 104.896 62.6825Z" fill="#FFB6B6"/>
<path d="M94.9023 53.1882H98.3221L99.833 48.9619L100.136 53.1882H101.77L102.651 50.7229L102.827 53.1882H114.977C114.977 48.1308 110.878 44.0312 105.82 44.0312H104.059C99.0019 44.0312 94.9023 48.1308 94.9023 53.1882Z" fill="#2F2E41"/>
<path d="M152.737 59.5508H140.266V71.6239H152.737V59.5508Z" fill="#FFB548"/>
<path d="M122.182 103.93C120.855 103.947 116.854 80.2095 116.854 80.2095L116.255 67.4179L111.884 67.27V66.9812C111.884 65.7803 110.909 64.8047 109.708 64.8047H101.382C100.234 64.8047 99.2829 65.6993 99.2124 66.8439L95.7856 66.7277L89.8477 85.5875C89.8477 85.5875 95.3172 103.113 92.6793 110.836C92.6793 110.836 118.403 113.044 123.327 108.142C123.323 108.145 123.51 103.912 122.182 103.93Z" fill="#3F3D56"/>
<path d="M97.2587 69.0768L95.7865 66.7277C95.7865 66.7277 90.9932 65.5443 89.0209 68.7176C87.0486 71.8908 81.248 89.106 81.248 89.106L87.2353 91.2191L94.0291 81.6923L97.2587 69.0768Z" fill="#3F3D56"/>
<path d="M112.237 81.3828H99.7656V93.4559H112.237V81.3828Z" fill="#FFB548"/>
<path d="M90.1971 85.7508L85.8581 85.293C84.8614 87.4202 85.7771 89.956 87.9043 90.9527C88.2142 91.0971 88.5418 91.2063 88.8763 91.2732L106.042 94.7L104.253 89.1847L90.1971 85.7508Z" fill="#FFB6B6"/>
<path d="M106.098 94.7587C108.043 94.7587 109.62 93.1819 109.62 91.2368C109.62 89.2917 108.043 87.7148 106.098 87.7148C104.153 87.7148 102.576 89.2917 102.576 91.2368C102.576 93.1819 104.153 94.7587 106.098 94.7587Z" fill="#FFB6B6"/>
<path d="M101.703 94.8658L88.6262 91.8757C86.6997 91.4284 85.1431 90.0091 84.5302 88.1284L84.002 86.4977L87.3971 83.8281L102.946 88.1742L101.703 94.8658Z" fill="#3F3D56"/>
<path d="M175.193 188.427H41.0084C40.8147 188.427 40.6562 188.269 40.6562 188.075C40.6562 187.881 40.8147 187.723 41.0084 187.723H175.193C175.387 187.723 175.546 187.881 175.546 188.075C175.546 188.269 175.387 188.427 175.193 188.427Z" fill="#CACACA"/>
</svg>
