<svg width="316" height="268" viewBox="0 0 316 268" fill="none" xmlns="http://www.w3.org/2000/svg">
<g clip-path="url(#clip0_1326_19920)">
<path d="M9.95187 112.993H9.9278C8.02117 113.017 6.15305 112.475 4.55457 111.439C1.60314 109.524 -0.125348 106.209 0.00464999 102.702L3.74088 9.77281C3.93828 4.46161 8.32931 0.258715 13.664 0.273108H226.013C232.792 0.273108 239.345 2.72 244.453 7.16279L295.624 51.6579C309.043 59.5791 316.886 74.318 315.928 89.8294C315.61 95.1982 315.388 98.4895 315.244 100.663C314.965 104.055 314.873 107.457 314.97 110.858L314.979 112.322H314.738L9.95187 112.993Z" fill="#F0F0F0"/>
<path d="M291.613 129.359C301.766 129.359 309.996 121.157 309.996 111.041C309.996 100.924 301.766 92.7225 291.613 92.7225C281.461 92.7225 273.231 100.924 273.231 111.041C273.231 121.157 281.461 129.359 291.613 129.359Z" fill="#3F3D56"/>
<path d="M291.614 122.632C298.038 122.632 303.246 117.442 303.246 111.041C303.246 104.639 298.038 99.449 291.614 99.449C285.189 99.449 279.981 104.639 279.981 111.041C279.981 117.442 285.189 122.632 291.614 122.632Z" fill="white"/>
<path d="M81.7012 129.546C91.8537 129.546 100.084 121.345 100.084 111.228C100.084 101.111 91.8537 92.9097 81.7012 92.9097C71.5488 92.9097 63.3186 101.111 63.3186 111.228C63.3186 121.345 71.5488 129.546 81.7012 129.546Z" fill="#3F3D56"/>
<path d="M81.7012 122.819C88.1256 122.819 93.3336 117.63 93.3336 111.228C93.3336 104.826 88.1256 99.6362 81.7012 99.6362C75.2768 99.6362 70.0688 104.826 70.0688 111.228C70.0688 117.63 75.2768 122.819 81.7012 122.819Z" fill="white"/>
<path d="M266.664 64.9238H265.161C262.441 64.919 260.236 62.7216 260.231 60.0108V49.1677C260.236 46.457 262.441 44.2596 265.161 44.2548H266.664C269.384 44.2596 271.589 46.457 271.594 49.1677V60.0108C271.589 62.7216 269.384 64.919 266.664 64.9238Z" fill="#3F3D56"/>
<path d="M211.237 30.7921H8.7824C7.05392 30.7921 5.65283 29.396 5.65283 27.6735C5.65283 27.2897 5.72505 26.9059 5.86468 26.546L15.9612 0.565796H204.068L214.159 26.546C214.785 28.1533 213.981 29.9573 212.373 30.581C212.007 30.7202 211.622 30.7921 211.237 30.7921Z" fill="#CACACA"/>
</g>
<path d="M212.157 112.884C213.014 112.311 213.242 111.153 212.665 110.301C212.603 110.212 212.534 110.126 212.458 110.047L215.455 104.146L212.022 104.541L209.703 110.085C209.005 110.851 209.067 112.032 209.838 112.726C210.477 113.307 211.438 113.372 212.157 112.884Z" fill="#FFB7B7"/>
<path d="M236.192 154.681H233.489L232.207 144.328H236.192V154.681Z" fill="#FFB7B7"/>
<path d="M236.884 157.275H228.175V157.165C228.175 155.304 229.692 153.796 231.565 153.796H236.884V157.275Z" fill="#2F2E41"/>
<path d="M221.434 154.681H218.731L217.446 144.328H221.434V154.681Z" fill="#FFB7B7"/>
<path d="M221.46 157.275H212.75V157.165C212.75 155.304 214.268 153.796 216.141 153.796H221.46V157.275Z" fill="#2F2E41"/>
<path d="M221.214 110.946L218.57 117.002L216.389 151.793L221.895 151.574L223.402 134.99L228.04 120.217L230.709 136.687L231.811 151.137L236.37 151.333L238.185 110.946H221.214Z" fill="#2F2E41"/>
<path d="M234.43 81.0773L226.767 81.2662L222.267 83.5607L222.021 100.494L219.215 112.187C219.215 112.187 236.749 113.385 239.172 111.634L236.306 98.2755L240.15 83.8389L234.43 81.0773Z" fill="#FFB548"/>
<path d="M223.448 83.8449L222.736 83.3674C222.736 83.3674 219.781 84.2467 218.907 88.1625C218.907 88.1625 218.24 90.1272 217.946 91.4771C217.611 93.0262 210.179 107.26 210.179 107.26L214.628 108.528L222.781 95.4237L223.448 83.8449Z" fill="#FFB548"/>
<path d="M240.027 115.051C239.363 114.264 239.463 113.089 240.255 112.43C240.338 112.358 240.431 112.296 240.525 112.241L239.28 105.749L242.47 107.071L243.162 113.034C243.618 113.962 243.234 115.081 242.301 115.538C241.523 115.92 240.583 115.717 240.027 115.051Z" fill="#FFB7B7"/>
<path d="M238.993 84.042L239.812 83.7775C239.812 83.7775 242.408 85.4331 242.162 89.4381C242.162 89.4381 242.259 91.5093 242.166 92.8901C242.058 94.4701 243.489 110.188 243.489 110.188H238.861L236.877 95.954L238.993 84.042Z" fill="#FFB548"/>
<path d="M236.31 73.9672C236.31 76.8834 233.932 79.2466 230.997 79.2466C228.063 79.2466 225.685 76.8834 225.685 73.9672C225.685 71.0511 228.063 68.6879 230.997 68.6879C233.925 68.681 236.303 71.0339 236.31 73.9398C236.31 73.9501 236.31 73.9604 236.31 73.9672Z" fill="#FFB7B7"/>
<path d="M225.698 66.8779C226.321 65.5487 227.523 65.8097 228.578 66.2631C229.912 65.9677 231.18 65.0884 232.618 65.6105C234.035 67.6576 238.788 67.0531 237.775 70.3849C237.775 71.1818 239.285 70.7181 239.023 72.0268C239.824 74.5411 236.13 79.3086 234.011 78.3022C234.536 77.3473 235.732 75.1765 233.918 74.9636C230.009 78.577 233.513 68.0801 228.602 71.1337C226.974 72.6107 224.748 68.3549 225.698 66.8779Z" fill="#2F2E41"/>
<path d="M205.739 96.9428C205.666 97.0184 205.597 97.1008 205.535 97.1867L195.999 96.9566L194.886 94.9369L191.599 96.2078L193.22 99.9724C193.49 100.598 194.14 100.972 194.82 100.889L205.594 99.5945C206.285 100.464 207.553 100.611 208.428 99.9243C209.302 99.2373 209.451 97.9767 208.76 97.1077C208.068 96.2387 206.8 96.091 205.926 96.778C205.86 96.826 205.798 96.8844 205.739 96.9428Z" fill="#9F616A"/>
<path d="M174.655 154.485H177.79L179.283 142.47H174.655V154.485Z" fill="#9F616A"/>
<path d="M173.855 153.471H180.028C182.202 153.471 183.961 155.223 183.961 157.38V157.507H173.852L173.855 153.471Z" fill="#2F2E41"/>
<path d="M203.128 154.418L206.011 153.195L202.63 141.562L198.375 143.368L203.128 154.418Z" fill="#9F616A"/>
<path d="M201.983 153.796L207.661 151.385C209.659 150.537 211.971 151.461 212.825 153.446L212.877 153.563L203.579 157.509L201.983 153.796Z" fill="#2F2E41"/>
<path d="M189.896 99.5496L190.124 103.201L183.498 103.905L176.561 104.64L178.604 99.0962L189.896 99.5496Z" fill="#9F616A"/>
<path d="M190.132 100.853C190.056 100.822 182.573 97.9295 177.976 100.296L177.862 100.354L176.946 95.8686L176.425 86.2235L179.826 84.6263L180.762 82.5414L187.139 82.167L188.449 83.9531L192.911 85.406L190.243 100.897L190.132 100.853Z" fill="#FFB548"/>
<path d="M190.364 92.1449L191.152 85.9862L192.949 85.4435L192.98 85.4538C193.675 85.7767 194.159 86.4258 194.266 87.185C194.521 88.473 196.454 96.4968 196.474 96.5758L196.495 96.6548L191.957 98.4581L190.364 92.1449Z" fill="#FFB548"/>
<path d="M200.788 152.307L206.83 151.074L197.173 124.594L193.869 115.564C193.869 115.564 191.774 108.324 190.827 105.521L190.257 101.76L176.729 103.247C176.729 103.247 172.951 108.763 174.099 117.752L173.58 151.537L179.622 151.846L184.682 117.773L193.565 136.451C193.565 136.451 196.364 144.424 198.365 146.151L200.788 152.307Z" fill="#2F2E41"/>
<path d="M188.848 80.7236H178.016C177.553 80.7236 177.176 80.3492 177.176 79.8889V75.2484C177.176 71.8136 179.976 69.0314 183.432 69.0314C186.889 69.0314 189.688 71.8136 189.688 75.2484V79.8889C189.688 80.3492 189.311 80.7236 188.848 80.7236Z" fill="#2F2E41"/>
<path d="M184.716 80.6186C187.249 80.6186 189.302 78.5779 189.302 76.0606C189.302 73.5433 187.249 71.5026 184.716 71.5026C182.183 71.5026 180.129 73.5433 180.129 76.0606C180.129 78.5779 182.183 80.6186 184.716 80.6186Z" fill="#9F616A"/>
<path d="M191.167 75.7125H184.544L184.475 74.7679L184.136 75.7125H183.117L182.982 73.8405L182.308 75.7125H180.334V75.6197C180.338 72.9062 182.55 70.7045 185.284 70.701H186.217C188.948 70.7045 191.163 72.9028 191.167 75.6197V75.7125Z" fill="#2F2E41"/>
<path d="M184.486 81.5932C184.438 81.5932 184.386 81.5898 184.338 81.5795L179.489 80.7276V72.7622H184.829L184.697 72.9168C182.858 75.0498 184.244 78.5053 185.233 80.3738C185.382 80.652 185.357 80.9921 185.167 81.2463C185.005 81.4661 184.753 81.5932 184.486 81.5932Z" fill="#2F2E41"/>
<path d="M211.022 96.1532C210.721 96.1841 210.417 96.1909 210.113 96.1738C210.006 96.1635 209.909 96.239 209.895 96.3455L209.314 100.673C209.269 100.986 209.142 101.285 208.941 101.532C208.606 101.931 208.454 102.446 208.519 102.961V110.312C208.519 110.312 208.481 111.291 209.238 111.291C210.144 111.404 211.063 111.404 211.969 111.291C211.969 111.291 212.577 111.177 212.577 110.27V103.033C212.67 102.521 212.532 101.996 212.204 101.594C212.01 101.347 211.886 101.051 211.841 100.742L211.233 96.3215C211.219 96.2184 211.125 96.1429 211.022 96.1532Z" fill="white"/>
<path d="M210.596 111.491C210.136 111.491 209.68 111.464 209.224 111.405C209.02 111.409 208.82 111.33 208.678 111.182C208.477 110.931 208.377 110.615 208.388 110.296V102.959C208.322 102.413 208.484 101.867 208.84 101.444C209.027 101.214 209.145 100.939 209.186 100.651L209.767 96.3265C209.791 96.1547 209.946 96.0311 210.123 96.0483C210.416 96.062 210.714 96.0551 211.007 96.0277H211.011C211.18 96.0139 211.332 96.1376 211.353 96.3059L211.954 100.723C211.996 101.012 212.113 101.286 212.293 101.517C212.646 101.942 212.791 102.499 212.694 103.042V110.269C212.694 111.265 211.993 111.409 211.986 111.409C211.526 111.464 211.063 111.491 210.596 111.491ZM210.095 96.2956C210.057 96.2921 210.022 96.3196 210.019 96.3574L209.438 100.685C209.39 101.022 209.252 101.338 209.037 101.602C208.726 101.973 208.581 102.458 208.64 102.939V102.952V110.303C208.63 110.557 208.709 110.808 208.861 111.014C208.958 111.113 209.096 111.165 209.234 111.158H209.252C210.147 111.271 211.056 111.271 211.951 111.158C211.961 111.155 212.449 111.045 212.449 110.262L212.452 103.004C212.539 102.53 212.411 102.039 212.103 101.664C211.896 101.4 211.761 101.084 211.713 100.751L211.111 96.3334C211.104 96.2956 211.073 96.2681 211.035 96.2715C210.727 96.3024 210.416 96.3093 210.109 96.2921L210.095 96.2956Z" fill="#FFB548"/>
<path d="M210.109 103.089H211.028C211.789 103.089 212.407 103.704 212.407 104.46V107.898C212.407 108.654 211.789 109.269 211.028 109.269H210.109C209.348 109.269 208.73 108.654 208.73 107.898V104.46C208.73 103.701 209.345 103.089 210.109 103.089Z" fill="#FFB548"/>
<path d="M206.075 88.4735C205.775 88.5044 205.471 88.5113 205.166 88.4941C205.059 88.4838 204.963 88.5593 204.949 88.6658L204.368 92.9937C204.323 93.3063 204.195 93.6051 203.995 93.8524C203.659 94.2509 203.507 94.7661 203.573 95.2813V102.632C203.573 102.632 203.535 103.611 204.292 103.611C205.198 103.724 206.117 103.724 207.022 103.611C207.022 103.611 207.631 103.497 207.631 102.591V95.3535C207.724 94.8417 207.586 94.3161 207.258 93.9143C207.064 93.667 206.94 93.3716 206.895 93.0624L206.293 88.6452C206.272 88.5387 206.179 88.4632 206.075 88.4735Z" fill="white"/>
<path d="M205.652 103.812C205.192 103.812 204.736 103.784 204.28 103.726C204.076 103.729 203.875 103.65 203.734 103.503C203.533 103.252 203.433 102.936 203.443 102.616V95.2795C203.378 94.7333 203.54 94.1872 203.896 93.7647C204.083 93.5346 204.2 93.2598 204.242 92.9713L204.822 88.6468C204.847 88.4751 205.002 88.3514 205.178 88.3686C205.472 88.3823 205.769 88.3754 206.063 88.348H206.067C206.236 88.3342 206.388 88.4579 206.409 88.6262L207.01 93.0434C207.052 93.3319 207.169 93.6067 207.349 93.8369C207.701 94.2628 207.847 94.8192 207.75 95.3619V102.589C207.75 103.585 207.048 103.729 207.041 103.729C206.585 103.784 206.118 103.812 205.652 103.812ZM205.151 88.6159C205.113 88.6124 205.078 88.6399 205.075 88.6777L204.494 93.0056C204.446 93.3422 204.307 93.6582 204.093 93.9227C203.782 94.2937 203.637 94.778 203.696 95.2589V95.2726V102.623C203.685 102.877 203.765 103.128 203.917 103.334C204.014 103.434 204.152 103.485 204.29 103.478H204.307C205.203 103.592 206.112 103.592 207.007 103.478C207.017 103.475 207.504 103.365 207.504 102.582L207.508 95.3241C207.594 94.8501 207.466 94.3589 207.159 93.9845C206.951 93.7201 206.817 93.4041 206.768 93.0709L206.167 88.6537C206.16 88.6159 206.129 88.5884 206.091 88.5918C205.783 88.6228 205.472 88.6296 205.164 88.6125L205.151 88.6159Z" fill="#FFB548"/>
<path d="M205.166 95.406H206.086C206.846 95.406 207.465 96.0209 207.465 96.7765V100.215C207.465 100.97 206.846 101.585 206.086 101.585H205.166C204.406 101.585 203.787 100.97 203.787 100.215V96.7765C203.787 96.0174 204.402 95.406 205.166 95.406Z" fill="#FFB548"/>
<path d="M189.339 105.239H185.046C184.217 105.239 183.543 104.569 183.543 103.745C183.543 102.921 184.217 102.251 185.046 102.251H189.339C190.168 102.251 190.842 102.921 190.842 103.745C190.842 104.573 190.168 105.239 189.339 105.239Z" fill="#E4E4E4"/>
<path d="M190.847 104.383H183.551C183.077 104.38 182.693 103.998 182.697 103.528C182.7 103.061 183.08 102.679 183.551 102.679H190.847C191.32 102.676 191.707 103.057 191.707 103.528C191.711 103.998 191.327 104.383 190.854 104.383C190.85 104.383 190.85 104.383 190.847 104.383Z" fill="#CACACA"/>
<path d="M189.972 108.024H184.286C182.99 108.02 181.943 106.976 181.943 105.688C181.947 104.403 182.994 103.362 184.286 103.359H189.972C191.268 103.359 192.319 104.403 192.319 105.691C192.319 106.979 191.268 108.024 189.972 108.024Z" fill="#E4E4E4"/>
<path d="M182.155 104.502C182.048 104.498 181.94 104.505 181.837 104.519L175.526 97.4122L176.258 95.2276L173.085 93.6957L171.409 97.4362C171.129 98.0579 171.298 98.7861 171.82 99.2258L180.098 106.199C179.925 107.294 180.679 108.318 181.781 108.49C182.884 108.661 183.914 107.912 184.087 106.817C184.26 105.721 183.506 104.697 182.404 104.526C182.321 104.512 182.238 104.505 182.155 104.502Z" fill="#9F616A"/>
<path d="M172.514 94.7527L174.982 87.7697C175.259 86.9453 175.608 86.4473 176.016 86.2824C176.178 86.2103 176.365 86.2068 176.527 86.279L177.633 87.6667L178.66 91.9533L176.026 98.1086L172.514 94.7527Z" fill="#FFB548"/>
<path d="M275.009 157.301H143.323C143.133 157.301 142.978 157.147 142.978 156.958C142.978 156.769 143.133 156.614 143.323 156.614H275.009C275.199 156.614 275.355 156.769 275.355 156.958C275.355 157.147 275.199 157.301 275.009 157.301Z" fill="#CACACA"/>
<circle cx="104.18" cy="98.67" r="4.50797" fill="#FFB6B6"/>
<path d="M58.1556 123.213H54.0306C53.2345 123.213 52.5869 122.539 52.5869 121.711C52.5869 120.882 53.2345 120.208 54.0306 120.208H58.1556C58.9517 120.208 59.5993 120.882 59.5993 121.711C59.5993 122.539 58.9517 123.213 58.1556 123.213Z" fill="#E4E4E4"/>
<path d="M59.7432 122.211H52.4446C51.9723 122.211 51.5859 121.986 51.5859 121.71C51.5859 121.435 51.9723 121.209 52.4446 121.209H59.7432C60.2155 121.209 60.6019 121.435 60.6019 121.71C60.6019 121.986 60.2155 122.211 59.7432 122.211Z" fill="#CACACA"/>
<path d="M59.3374 126.218H53.848C52.5968 126.218 51.5859 125.095 51.5859 123.711C51.5859 122.327 52.601 121.209 53.848 121.209H59.3374C60.5886 121.209 61.6037 122.332 61.6037 123.716C61.6037 125.1 60.5886 126.218 59.3374 126.218Z" fill="#E4E4E4"/>
<path d="M75.9819 127.221H71.2677C70.3578 127.221 69.6177 126.547 69.6177 125.719C69.6177 124.89 70.3578 124.216 71.2677 124.216H75.9819C76.8917 124.216 77.6318 124.89 77.6318 125.719C77.6318 126.547 76.8917 127.221 75.9819 127.221Z" fill="#E4E4E4"/>
<path d="M76.8686 126.22H70.3809C69.9611 126.22 69.6177 125.769 69.6177 125.218C69.6177 124.667 69.9611 124.216 70.3809 124.216H76.8686C77.2884 124.216 77.6318 124.667 77.6318 125.218C77.6318 125.769 77.2884 126.22 76.8686 126.22Z" fill="#CACACA"/>
<path d="M76.3665 130.23H70.8771C69.6259 130.23 68.615 129.107 68.615 127.723C68.615 126.339 69.63 125.221 70.8771 125.221H76.3665C77.6177 125.221 78.6327 126.344 78.6327 127.728C78.6327 129.112 77.6177 130.23 76.3665 130.23Z" fill="#E4E4E4"/>
<path d="M45.59 134.232C44.4999 140.913 99.7462 140.913 98.6518 134.232C99.742 127.556 44.4957 127.556 45.59 134.232Z" fill="#F0F0F0"/>
<path d="M73.6242 137.237H70.6189V178.31H73.6242V137.237Z" fill="#F0F0F0"/>
<path d="M54.276 131.462C53.6162 130.174 52.0376 129.668 50.7555 130.329C50.5676 130.425 50.3922 130.542 50.2335 130.68L38.9078 127.996L38.0726 125.221L33.554 125.965C34.1637 127.85 33.9215 132.686 36.8281 132.737L49.6405 133.865C51.1648 136.871 55.8379 134.429 54.276 131.462Z" fill="#9F616A"/>
<path d="M29.4616 151.267H40.7507C40.7507 151.624 52.3874 151.916 52.3874 151.916C54.6221 153.721 53.5709 158.369 50.6245 158.278H29.4616C25.5716 158.337 25.5634 151.208 29.4616 151.267Z" fill="#F0F0F0"/>
<path d="M41.5663 157.273H38.561V177.309H41.5663V157.273Z" fill="#F0F0F0"/>
<path d="M50.5833 177.12C50.5833 177.453 45.8752 177.249 40.0647 177.249C34.2543 177.249 29.5461 177.453 29.5461 177.12C33.539 173.351 46.6452 173.384 50.5833 177.12Z" fill="#F0F0F0"/>
<path d="M47.5798 175.305H50.2928L51.5869 167.291H47.5798V175.305Z" fill="#9F616A"/>
<path d="M46.5789 178.313H56.5942C56.7414 173.155 49.8698 174.511 46.5789 174.362V178.313Z" fill="#2F2E41"/>
<path d="M52.3522 170.651L58.1891 157.371C59.1977 155.051 58.2816 152.331 56.0838 151.124L43.4266 144.237C40.6657 144.011 35.0725 143.503 32.32 143.247C27.3193 152.42 48.2004 154.497 51.1545 156.071C51.6042 156.19 51.8689 156.659 51.7471 157.111C51.7429 157.132 51.7345 157.154 51.7302 157.175L46.3093 169.538C46.1076 170.105 46.3976 170.732 46.9565 170.941C47.0405 170.971 47.1288 170.992 47.217 171.001C48.0743 170.792 51.9782 171.994 52.3522 170.651Z" fill="#2F2E41"/>
<path d="M45.574 175.305H48.2908L49.5811 167.291H45.574V175.305Z" fill="#9F616A"/>
<path d="M44.573 178.313H54.5884C54.7355 173.155 47.8639 174.511 44.573 174.362V178.313Z" fill="#2F2E41"/>
<path d="M50.2767 170.678L56.1816 157.842C57.2019 155.6 56.2751 152.97 54.0518 151.803L41.2472 145.146C38.807 144.957 33.5908 144.508 31.1804 144.31V144.252C29.9136 145.761 30.3854 151.222 34.1435 152.15C39.8698 154.186 46.4889 155.926 49.0694 156.581C49.5243 156.7 49.7921 157.15 49.6688 157.591C49.6645 157.611 49.656 157.632 49.6518 157.649L44.1678 169.598C43.9637 170.146 44.257 170.752 44.8225 170.954C44.9075 170.983 44.9967 171.004 45.086 171.012C45.9575 170.818 49.8984 171.968 50.2767 170.678Z" fill="#2F2E41"/>
<path d="M38.5068 144.343C38.7913 144.146 42.8505 146.251 43.5723 144.582C40.1925 136.242 42.5235 132.64 40.4515 127.86C39.0885 124.053 34.3543 124.313 31.0849 124.216C28.5797 125.411 27.1743 128.091 27.6286 130.804C27.6456 136.007 30.8004 139.978 29.6964 143.752C29.5096 144.385 29.8748 145.052 30.5201 145.241C30.5371 145.245 30.5499 145.249 30.5668 145.253C31.1613 145.111 38.3328 144.373 38.6257 144.134L38.5068 144.343Z" fill="#FFB548"/>
<path d="M33.0537 111.191C25.7074 111.223 25.7074 122.179 33.0537 122.211C40.4 122.179 40.4 111.223 33.0537 111.191Z" fill="#9F616A"/>
<path d="M31.0377 122.207C31.3558 122.34 32.0094 119.88 31.717 119.383C31.2827 118.649 31.3085 118.658 31.0205 118.17C30.1562 117.152 31.6482 115.467 32.4523 116.76C32.4996 112.881 40.2735 116.234 39.5124 111.918C30.6335 103.497 18.2331 116.756 31.0377 122.207Z" fill="#2F2E41"/>
<path d="M118.192 149.261H109.076C109.076 149.669 99.113 150.005 99.113 150.005C96.4246 152.071 97.6897 157.381 101.233 157.273H118.192C122.881 157.345 122.885 149.194 118.192 149.261Z" fill="#F0F0F0"/>
<path d="M111.693 157.273H107.686V178.31H111.693V157.273Z" fill="#F0F0F0"/>
<path d="M97.682 177.104C96.9813 177.38 122.393 177.38 121.696 177.104C117.134 173.355 102.174 173.391 97.682 177.104Z" fill="#F0F0F0"/>
<path d="M44.3878 136.665L54.2699 128.441C57.3507 129.614 59.0582 124.49 55.953 123.368C54.6245 122.869 53.1656 123.604 52.6929 125.006C52.6236 125.208 52.5788 125.423 52.5584 125.638L42.7211 131.626L40.272 130.139L37.562 133.884C39.2328 134.847 42.3177 138.664 44.3878 136.665Z" fill="#9F616A"/>
<path d="M36.1315 135.234L41.5673 131.273C40.283 129.69 38.5509 124.98 35.9037 126.525C32.8834 127.834 35.8369 133.083 36.1315 135.234Z" fill="#FFB548"/>
<path d="M80.1937 103.178H76.0687C75.2726 103.178 74.625 102.504 74.625 101.675C74.625 100.846 75.2726 100.172 76.0687 100.172H80.1937C80.9898 100.172 81.6374 100.846 81.6374 101.675C81.6374 102.504 80.9898 103.178 80.1937 103.178Z" fill="#E4E4E4"/>
<path d="M81.7811 102.176H74.4824C74.0102 102.176 73.6238 101.725 73.6238 101.174C73.6238 100.623 74.0102 100.172 74.4824 100.172H81.7811C82.2533 100.172 82.6397 100.623 82.6397 101.174C82.6397 101.725 82.2533 102.176 81.7811 102.176Z" fill="#CACACA"/>
<path d="M81.1524 106.186H75.1166C73.7408 106.186 72.6248 105.064 72.6248 103.681C72.6248 102.299 73.7408 101.177 75.1166 101.177H81.1524C82.5282 101.177 83.6442 102.299 83.6442 103.681C83.6442 105.064 82.5282 106.186 81.1524 106.186Z" fill="#E4E4E4"/>
<path d="M110.272 133.963C109.116 133.355 108.64 131.87 109.22 130.645C109.281 130.513 109.353 130.39 109.438 130.275L107.686 112.192H111.472L112.866 129.85C113.857 130.739 113.978 132.308 113.136 133.355C112.423 134.231 111.243 134.482 110.272 133.963Z" fill="#FFB6B6"/>
<path d="M105.526 123.189L97.4819 121.332C97.048 121.229 96.7318 120.835 96.7074 120.367C96.6142 118.468 96.5493 113.557 97.9319 108.973C99.0348 105.341 102.712 103.347 106.142 104.513C106.203 104.535 106.26 104.556 106.321 104.578C109.723 105.843 111.515 109.784 110.319 113.386C110.238 113.635 110.14 113.879 110.031 114.115C108.247 117.987 107.124 120.796 106.69 122.456C106.552 122.983 106.041 123.309 105.526 123.189Z" fill="#FFB548"/>
<path d="M97.665 176.312H94.95L93.658 165.292H97.665V176.312Z" fill="#FFB6B6"/>
<path d="M93.1345 175.303H98.6695V178.308H89.6536C89.6492 176.645 91.2103 175.303 93.1345 175.303Z" fill="#2F2E41"/>
<path d="M125.717 172.05L123.211 173.301L116.701 165.125L120.4 163.283L125.717 172.05Z" fill="#FFB6B6"/>
<path d="M121.441 173.827L126.104 171.303L127.718 174.196L120.118 178.315C119.228 176.713 119.819 174.708 121.441 173.827Z" fill="#2F2E41"/>
<path d="M97.7928 170.296L93.5612 169.961C93.0721 169.922 92.6784 169.532 92.6328 169.032C92.0277 162.593 89.3835 129.954 96.5411 119.906L96.5619 119.876L96.595 119.863C96.6572 119.838 103.044 117.509 106.708 121.781C106.94 122.056 107.014 122.438 106.903 122.786L106.762 123.214C106.679 123.46 106.72 123.732 106.874 123.944C107.889 125.352 111.312 130.768 112.655 141.419C112.664 141.487 112.68 141.555 112.705 141.618L122.635 166.58C122.847 167.11 122.598 167.713 122.08 167.925C122.072 167.929 122.068 167.929 122.059 167.933L118.934 169.15C118.466 169.333 117.935 169.133 117.691 168.684L103.359 142.072C103.21 141.797 102.87 141.695 102.596 141.847C102.439 141.937 102.335 142.093 102.31 142.276L98.8704 169.396C98.8041 169.91 98.3772 170.296 97.8716 170.296C97.8425 170.3 97.8177 170.296 97.7928 170.296Z" fill="#2F2E41"/>
<path d="M85.2477 104.021C85.2765 104.144 85.2929 104.27 85.3012 104.397L94.8683 110.056L97.1932 108.684L99.6704 112.014L95.7859 114.854C95.1399 115.326 94.2716 115.305 93.6503 114.799L83.7869 106.819C82.5771 107.279 81.2315 106.646 80.783 105.401C80.3345 104.161 80.9517 102.781 82.1656 102.321C83.3754 101.861 84.721 102.494 85.1695 103.739C85.1983 103.831 85.2271 103.924 85.2477 104.021Z" fill="#FFB6B6"/>
<path d="M94.6817 108.936C94.7431 108.649 94.9362 108.399 95.2084 108.254L99.8917 105.77C101.187 104.817 103.052 105.046 104.057 106.273C105.058 107.501 104.825 109.26 103.535 110.213L99.7995 113.887C99.3913 114.29 98.7154 114.303 98.2896 113.912C98.2501 113.878 98.215 113.841 98.1843 113.799L94.888 109.747C94.6948 109.527 94.6202 109.223 94.6817 108.936Z" fill="#FFB548"/>
<path d="M105.533 95.9697C104.09 96.9424 102.2 97.9401 100.727 96.905C99.7819 96.1941 99.4232 94.9554 99.8494 93.8621C100.554 91.8751 102.491 91.0021 104.343 90.3328C106.752 89.4599 109.372 88.7698 111.858 89.3934C114.343 90.0169 116.541 92.3905 116.09 94.8764C115.727 96.8759 113.811 98.5428 114.085 100.559C114.36 102.588 116.672 103.652 118.718 104.018C120.765 104.383 123.047 104.496 124.516 105.942C126.389 107.788 125.921 111.084 124.157 113.03C122.393 114.975 119.735 115.861 117.157 116.459C113.744 117.253 110.048 117.673 106.807 116.351C103.567 115.029 101.039 111.479 101.98 108.15C102.377 106.744 103.313 105.551 104.216 104.396C105.119 103.24 106.035 102.026 106.381 100.609C106.702 99.4116 106.436 98.1354 105.659 97.1627C105.364 96.8426 105.309 96.3729 105.524 95.9946L105.533 95.9697Z" fill="#2F2E41"/>
<path d="M142.546 179H10.8605C10.6704 179 10.5149 178.846 10.5149 178.657C10.5149 178.468 10.6704 178.313 10.8605 178.313H142.546C142.736 178.313 142.892 178.468 142.892 178.657C142.892 178.846 142.736 179 142.546 179Z" fill="#CACACA"/>
<path d="M88.3711 247.979C88.3711 249.519 88.1751 250.923 87.7832 252.189C87.4004 253.447 86.8216 254.532 86.0469 255.443C85.2721 256.346 84.3014 257.043 83.1348 257.535C81.9681 258.027 80.6009 258.273 79.0332 258.273C77.4382 258.273 76.0527 258.027 74.877 257.535C73.7103 257.043 72.7396 256.341 71.9648 255.43C71.1992 254.518 70.625 253.429 70.2422 252.162C69.8594 250.895 69.668 249.492 69.668 247.951C69.668 245.891 70.0052 244.096 70.6797 242.564C71.3633 241.024 72.3978 239.83 73.7832 238.982C75.1777 238.126 76.9368 237.697 79.0605 237.697C81.1387 237.697 82.8659 238.121 84.2422 238.969C85.6185 239.816 86.6484 241.01 87.332 242.551C88.0247 244.082 88.3711 245.891 88.3711 247.979ZM73.1133 247.979C73.1133 249.519 73.3229 250.854 73.7422 251.984C74.1615 253.105 74.804 253.971 75.6699 254.582C76.5449 255.184 77.666 255.484 79.0332 255.484C80.4095 255.484 81.5306 255.184 82.3965 254.582C83.2624 253.971 83.9004 253.105 84.3105 251.984C84.7207 250.854 84.9258 249.519 84.9258 247.979C84.9258 245.636 84.4564 243.804 83.5176 242.482C82.5879 241.152 81.1022 240.486 79.0605 240.486C77.6934 240.486 76.5677 240.787 75.6836 241.389C74.8086 241.99 74.1615 242.852 73.7422 243.973C73.3229 245.085 73.1133 246.42 73.1133 247.979ZM98.2832 238.012C100.006 238.012 101.428 238.221 102.549 238.641C103.679 239.06 104.518 239.698 105.064 240.555C105.62 241.411 105.898 242.501 105.898 243.822C105.898 244.807 105.716 245.645 105.352 246.338C104.987 247.031 104.508 247.605 103.916 248.061C103.324 248.516 102.69 248.881 102.016 249.154L107.689 258H103.984L99.1582 249.988H95.9453V258H92.6641V238.012H98.2832ZM98.0645 240.746H95.9453V247.281H98.2148C99.737 247.281 100.84 246.999 101.523 246.434C102.216 245.868 102.562 245.035 102.562 243.932C102.562 242.774 102.193 241.954 101.455 241.471C100.726 240.988 99.5957 240.746 98.0645 240.746ZM126.775 247.814C126.775 250.066 126.356 251.948 125.518 253.461C124.679 254.965 123.462 256.1 121.867 256.865C120.272 257.622 118.349 258 116.098 258H110.547V238.012H116.699C118.768 238.012 120.555 238.385 122.059 239.133C123.562 239.871 124.725 240.969 125.545 242.428C126.365 243.877 126.775 245.673 126.775 247.814ZM123.357 247.91C123.357 246.27 123.098 244.921 122.578 243.863C122.068 242.806 121.311 242.022 120.309 241.512C119.315 240.992 118.089 240.732 116.631 240.732H113.828V255.252H116.152C118.568 255.252 120.372 254.637 121.566 253.406C122.76 252.176 123.357 250.344 123.357 247.91ZM142.402 258H131.082V238.012H142.402V240.773H134.363V246.201H141.896V248.949H134.363V255.225H142.402V258ZM152.342 238.012C154.064 238.012 155.486 238.221 156.607 238.641C157.738 239.06 158.576 239.698 159.123 240.555C159.679 241.411 159.957 242.501 159.957 243.822C159.957 244.807 159.775 245.645 159.41 246.338C159.046 247.031 158.567 247.605 157.975 248.061C157.382 248.516 156.749 248.881 156.074 249.154L161.748 258H158.043L153.217 249.988H150.004V258H146.723V238.012H152.342ZM152.123 240.746H150.004V247.281H152.273C153.796 247.281 154.898 246.999 155.582 246.434C156.275 245.868 156.621 245.035 156.621 243.932C156.621 242.774 156.252 241.954 155.514 241.471C154.785 240.988 153.654 240.746 152.123 240.746ZM175.133 258H171.879V238.012H183.172V240.773H175.133V247.008H182.652V249.756H175.133V258ZM204.555 247.979C204.555 249.519 204.359 250.923 203.967 252.189C203.584 253.447 203.005 254.532 202.23 255.443C201.456 256.346 200.485 257.043 199.318 257.535C198.152 258.027 196.785 258.273 195.217 258.273C193.622 258.273 192.236 258.027 191.061 257.535C189.894 257.043 188.923 256.341 188.148 255.43C187.383 254.518 186.809 253.429 186.426 252.162C186.043 250.895 185.852 249.492 185.852 247.951C185.852 245.891 186.189 244.096 186.863 242.564C187.547 241.024 188.581 239.83 189.967 238.982C191.361 238.126 193.12 237.697 195.244 237.697C197.322 237.697 199.049 238.121 200.426 238.969C201.802 239.816 202.832 241.01 203.516 242.551C204.208 244.082 204.555 245.891 204.555 247.979ZM189.297 247.979C189.297 249.519 189.507 250.854 189.926 251.984C190.345 253.105 190.988 253.971 191.854 254.582C192.729 255.184 193.85 255.484 195.217 255.484C196.593 255.484 197.714 255.184 198.58 254.582C199.446 253.971 200.084 253.105 200.494 251.984C200.904 250.854 201.109 249.519 201.109 247.979C201.109 245.636 200.64 243.804 199.701 242.482C198.771 241.152 197.286 240.486 195.244 240.486C193.877 240.486 192.751 240.787 191.867 241.389C190.992 241.99 190.345 242.852 189.926 243.973C189.507 245.085 189.297 246.42 189.297 247.979ZM226.594 247.979C226.594 249.519 226.398 250.923 226.006 252.189C225.623 253.447 225.044 254.532 224.27 255.443C223.495 256.346 222.524 257.043 221.357 257.535C220.191 258.027 218.824 258.273 217.256 258.273C215.661 258.273 214.275 258.027 213.1 257.535C211.933 257.043 210.962 256.341 210.188 255.43C209.422 254.518 208.848 253.429 208.465 252.162C208.082 250.895 207.891 249.492 207.891 247.951C207.891 245.891 208.228 244.096 208.902 242.564C209.586 241.024 210.62 239.83 212.006 238.982C213.4 238.126 215.16 237.697 217.283 237.697C219.361 237.697 221.089 238.121 222.465 238.969C223.841 239.816 224.871 241.01 225.555 242.551C226.247 244.082 226.594 245.891 226.594 247.979ZM211.336 247.979C211.336 249.519 211.546 250.854 211.965 251.984C212.384 253.105 213.027 253.971 213.893 254.582C214.768 255.184 215.889 255.484 217.256 255.484C218.632 255.484 219.753 255.184 220.619 254.582C221.485 253.971 222.123 253.105 222.533 251.984C222.943 250.854 223.148 249.519 223.148 247.979C223.148 245.636 222.679 243.804 221.74 242.482C220.811 241.152 219.325 240.486 217.283 240.486C215.916 240.486 214.79 240.787 213.906 241.389C213.031 241.99 212.384 242.852 211.965 243.973C211.546 245.085 211.336 246.42 211.336 247.979ZM247.115 247.814C247.115 250.066 246.696 251.948 245.857 253.461C245.019 254.965 243.802 256.1 242.207 256.865C240.612 257.622 238.689 258 236.438 258H230.887V238.012H237.039C239.108 238.012 240.895 238.385 242.398 239.133C243.902 239.871 245.064 240.969 245.885 242.428C246.705 243.877 247.115 245.673 247.115 247.814ZM243.697 247.91C243.697 246.27 243.438 244.921 242.918 243.863C242.408 242.806 241.651 242.022 240.648 241.512C239.655 240.992 238.429 240.732 236.971 240.732H234.168V255.252H236.492C238.908 255.252 240.712 254.637 241.906 253.406C243.1 252.176 243.697 250.344 243.697 247.91Z" fill="white"/>
<defs>
<clipPath id="clip0_1326_19920">
<rect width="316" height="129.273" fill="white" transform="translate(0 0.273071)"/>
</clipPath>
</defs>
</svg>
