<svg width="10" height="15" viewBox="0 0 20 15" fill="none" xmlns="http://www.w3.org/2000/svg">
<path d="M12.3249 4.8183C11.8312 4.8183 11.4286 5.22071 11.4286 5.7158C11.4286 6.21084 11.8313 6.61343 12.3249 6.61343C12.8218 6.61343 13.2243 6.2108 13.2243 5.7158C13.2244 5.22066 12.8218 4.8183 12.3249 4.8183ZM14.2852 6.78031C13.7916 6.78031 13.39 7.17982 13.39 7.6779C13.39 8.17183 13.7916 8.57147 14.2852 8.57147C14.7828 8.57147 15.1847 8.17187 15.1847 7.6779C15.1847 7.17982 14.7828 6.78031 14.2852 6.78031ZM4.6087 3.94499C3.64262 3.94499 2.85718 4.73977 2.85718 5.71477C2.85718 6.69089 3.64262 7.48366 4.6087 7.48366C5.57544 7.48366 6.36089 6.69089 6.36089 5.71477C6.36089 4.73977 5.57548 3.94499 4.6087 3.94499ZM4.60374 6.58294C4.1266 6.58294 3.74021 6.19361 3.74021 5.71477C3.74021 5.23598 4.1266 4.84687 4.60374 4.84687C5.07879 4.84687 5.46522 5.23602 5.46522 5.71477C5.46522 6.19361 5.07879 6.58294 4.60374 6.58294ZM14.2852 2.85718C13.7916 2.85718 13.39 3.25959 13.39 3.75481C13.39 4.2499 13.7916 4.65138 14.2852 4.65138C14.7828 4.65138 15.1847 4.2499 15.1847 3.75481C15.1847 3.25959 14.7828 2.85718 14.2852 2.85718ZM16.2477 4.8183C15.7519 4.8183 15.3503 5.22071 15.3503 5.7158C15.3503 6.21084 15.7519 6.61343 16.2477 6.61343C16.7414 6.61343 17.1429 6.2108 17.1429 5.7158C17.1429 5.22066 16.7414 4.8183 16.2477 4.8183Z" fill="#B6B6B6"/>
<path d="M19.3875 6.82438C18.443 2.87478 17.4397 0.77576 15.4386 0.180179C15.0027 0.0506698 14.6316 0 14.2891 0C13.0571 0 12.1937 0.655492 9.99983 0.655492C7.80456 0.655492 6.9417 8.92858e-05 5.71134 0C5.36916 0 4.99871 0.0506698 4.56308 0.180179C2.56 0.77576 1.55674 2.87478 0.613926 6.82438C-0.331655 10.7741 -0.159914 13.6263 0.956739 14.1587C1.13848 14.2456 1.3242 14.2857 1.51272 14.2857C2.48121 14.2857 3.52786 13.2215 4.53322 11.9622C5.67849 10.5289 5.96688 10.4911 9.45635 10.4911H10.5431C14.0318 10.4911 14.3211 10.5289 15.4664 11.9622C16.472 13.2214 17.5186 14.2838 18.4872 14.2838C18.6758 14.2838 18.8614 14.2446 19.0433 14.1578C20.1596 13.6254 20.3313 10.7741 19.3875 6.82438ZM18.7356 13.5141C18.6537 13.5532 18.5747 13.5714 18.4872 13.5714C18.2184 13.5714 17.8588 13.3907 17.4473 13.0488C17.0374 12.7081 16.5853 12.2225 16.0245 11.5202C15.446 10.7961 14.9679 10.26 14.0813 10.0047C13.3381 9.79068 12.357 9.7768 10.5431 9.7768H9.45639C7.64242 9.7768 6.66125 9.79068 5.91804 10.0047C5.03174 10.26 4.55375 10.7942 3.97505 11.5185C3.41451 12.2206 2.96255 12.7072 2.55263 13.0478C2.14121 13.3897 1.78165 13.571 1.51277 13.571C1.42652 13.571 1.34531 13.5524 1.2642 13.5137C0.837587 13.3103 0.256515 11.3855 1.30875 6.9901C2.26353 2.9905 3.20076 1.3304 4.76674 0.864778C5.1075 0.763439 5.41648 0.714242 5.71134 0.714242C6.14625 0.714242 6.54166 0.81768 7.04224 0.948573C7.75965 1.13621 8.6526 1.36978 9.99992 1.36978C11.3458 1.36978 12.2386 1.13639 12.956 0.94884C13.4572 0.817769 13.8533 0.714287 14.2892 0.714287C14.5847 0.714287 14.8942 0.763573 15.235 0.864778C16.7991 1.33031 17.7363 2.99054 18.6928 6.99041C19.7431 11.3858 19.1621 13.3107 18.7356 13.5141Z" fill="#B6B6B6"/>
</svg>
