<svg width="20" height="19" viewBox="0 0 20 19" fill="none" xmlns="http://www.w3.org/2000/svg">
<path fill-rule="evenodd" clip-rule="evenodd" d="M9.52529 0C4.26257 0 0 4.26257 0 9.52529C0 13.7402 2.72661 17.3003 6.51292 18.5624C6.98918 18.6458 7.16778 18.36 7.16778 18.11C7.16778 17.8837 7.15588 17.1336 7.15588 16.3359C4.76265 16.7764 4.1435 15.7525 3.953 15.2167C3.84584 14.9428 3.38148 14.0974 2.97665 13.8712C2.64327 13.6926 2.167 13.2521 2.96475 13.2402C3.71486 13.2283 4.25066 13.9307 4.42926 14.2165C5.28654 15.6572 6.6558 15.2524 7.2035 15.0023C7.28685 14.3832 7.53689 13.9665 7.81074 13.7283C5.69136 13.4902 3.47673 12.6686 3.47673 9.02522C3.47673 7.98934 3.84584 7.13206 4.45307 6.46529C4.35782 6.22716 4.02444 5.25082 4.54833 3.94109C4.54833 3.94109 5.34607 3.69105 7.16778 4.91743C7.92981 4.70311 8.73946 4.59595 9.54911 4.59595C10.3588 4.59595 11.1684 4.70311 11.9304 4.91743C13.7521 3.67914 14.5499 3.94109 14.5499 3.94109C15.0738 5.25082 14.7404 6.22716 14.6451 6.46529C15.2524 7.13206 15.6215 7.97743 15.6215 9.02522C15.6215 12.6805 13.3949 13.4902 11.2756 13.7283C11.6209 14.026 11.9185 14.5975 11.9185 15.4905C11.9185 16.7645 11.9066 17.7885 11.9066 18.11C11.9066 18.36 12.0852 18.6577 12.5615 18.5624C14.4524 17.924 16.0955 16.7087 17.2596 15.0876C18.4236 13.4664 19.05 11.5211 19.0506 9.52529C19.0506 4.26257 14.788 0 9.52529 0Z" fill="#AFAFAF"/>
</svg>
