<svg width="61" height="62" viewBox="0 0 61 62" fill="none" xmlns="http://www.w3.org/2000/svg">
    <path
        d="M30.5 0C13.6517 0 0 13.8755 0 31C0 48.1245 13.6517 62 30.5 62C47.3483 62 61 48.1245 61 31C61 13.8755 47.3483 0 30.5 0ZM25.793 41.9841C25.4411 42.3418 24.9426 42.6399 24.5026 42.6399C24.0627 42.6399 23.5642 42.3269 23.1976 41.9692L14.9861 33.6231C14.9861 33.6231 13.4796 32.5 15 31C16.5204 29.5 17.5962 30.9702 17.5962 30.9702C17.5962 30.9702 24.0346 38.0096 24.5173 38.0048C25 38 42.8173 19.2707 42.8173 19.2707C42.8173 19.2707 44 18.3887 45 19.25C46.634 20.6573 45.3834 21.9683 45.3834 21.9683L25.793 41.9841Z"
        fill="#67B650" />
</svg>
