<svg width="60" height="37" viewBox="0 0 60 37" fill="none" xmlns="http://www.w3.org/2000/svg">
<path d="M5.31006 34.986L2.70801 36.8491H56.8009L54.199 34.986H5.31006Z" fill="#D19A08"/>
<path d="M59.0358 33.7144C58.7891 32.5746 58.1231 31.5918 57.2231 31.0186L38.1576 18.154C36.3789 16.9411 36.0378 15.2545 35.2472 13.902C34.1996 11.7952 32.2906 10.4364 30.1641 10.2144V9.47478C30.1641 9.0852 30.3748 8.74453 30.6759 8.64671C32.6877 7.9909 33.8781 5.7659 33.4459 3.47081C33.1315 1.80152 31.9073 0.445961 30.3989 0.0980061C28.3239 -0.381214 26.3151 0.937695 25.7226 3.16448C25.6329 3.50311 25.3828 3.7304 25.048 3.7304C24.7075 3.7304 24.4575 4.03596 24.4575 4.4129C24.4575 4.78972 24.7598 5.0954 25.1002 5.0954C25.9345 5.0954 26.6601 4.47419 26.9058 3.5501C27.315 2.01221 28.7062 1.10139 30.1472 1.43441C31.1823 1.67332 32.0228 2.60341 32.2391 3.74942C32.5391 5.34197 31.7171 6.88421 30.3279 7.33713C29.5053 7.60515 28.9312 8.48416 28.9312 9.47491V10.2158C26.7683 10.4442 24.8659 11.8442 23.7846 14.0385C23.0228 15.3416 22.6784 16.9655 20.942 18.1539L1.88888 31.005C0.976227 31.5919 0.310339 32.5746 0.0575745 33.7144C-0.253911 35.1537 1.15366 36.31 2.33281 35.598L25.8871 21.2523C28.1809 19.8532 30.9185 19.8532 33.2062 21.2523L56.7667 35.598C57.9095 36.2971 59.3545 35.1872 59.0358 33.7144Z" fill="#D19A08"/>
</svg>
