<svg width="34" height="31" viewBox="0 0 34 31" fill="none" xmlns="http://www.w3.org/2000/svg">
    <defs>
        <filter id="filter0_d_577_9873" x="0" y="0" width="34" height="31" filterUnits="userSpaceOnUse" color-interpolation-filters="sRGB">
            <feFlood flood-opacity="0" result="BackgroundImageFix"/>
            <feColorMatrix in="SourceAlpha" type="matrix" values="0 0 0 0 0 0 0 0 0 0 0 0 0 0 0 0 0 0 127 0" result="hardAlpha"/>
            <feOffset dy="4"/>
            <feGaussianBlur stdDeviation="2"/>
            <feComposite in2="hardAlpha" operator="out"/>
            <feColorMatrix type="matrix" values="0 0 0 0 0 0 0 0 0 0 0 0 0 0 0 0 0 0 0.25 0"/>
            <feBlend mode="normal" in2="BackgroundImageFix" result="effect1_dropShadow_577_9873"/>
            <feBlend mode="normal" in="SourceGraphic" in2="effect1_dropShadow_577_9873" result="shape"/>
        </filter>
        <filter id="filter1_d_577_9873" x="4" y="0" width="27" height="24" filterUnits="userSpaceOnUse" color-interpolation-filters="sRGB">
            <feFlood flood-opacity="0" result="BackgroundImageFix"/>
            <feColorMatrix in="SourceAlpha" type="matrix" values="0 0 0 0 0 0 0 0 0 0 0 0 0 0 0 0 0 0 127 0" result="hardAlpha"/>
            <feOffset dx="0.5" dy="0.5"/>
            <feGaussianBlur stdDeviation="0.25"/>
            <feComposite in2="hardAlpha" operator="out"/>
            <feColorMatrix type="matrix" values="0 0 0 0 0 0 0 0 0 0 0 0 0 0 0 0 0 0 0.25 0"/>
            <feBlend mode="normal" in2="BackgroundImageFix" result="effect1_dropShadow_577_9873"/>
            <feBlend mode="normal" in="SourceGraphic" in2="effect1_dropShadow_577_9873" result="shape"/>
        </filter>
        <linearGradient id="paint0_linear_577_9873" x1="4" y1="12.1149" x2="30" y2="12.1149" gradientUnits="userSpaceOnUse">
            <stop stop-color="#050505"/>
            <stop offset="1" stop-color="#00020D"/>
        </linearGradient>
    </defs>
    <g filter="url(#filter0_d_577_9873)">
<g filter="url(#filter1_d_577_9873)">
<path fill-rule="evenodd" clip-rule="evenodd" d="M14.9156 22.3731C15.7615 23.1789 17.1536 23.2292 18.0243 22.3998L19.6504 20.8507C20.0162 20.5022 20.2262 20.0614 20.2802 19.6071C21.0173 19.7998 21.8392 19.6204 22.4184 19.0687C22.8802 18.6289 23.1056 18.034 23.0735 17.4495C23.6786 17.4836 24.2957 17.2804 24.7581 16.8399C25.2199 16.4 25.4453 15.8052 25.4132 15.2207C26.0183 15.2547 26.6355 15.0516 27.0978 14.611C27.5235 14.2056 27.7483 13.6685 27.7558 13.1292C30.7651 10.2101 30.748 5.51988 27.7046 2.62078C24.9201 -0.03159 20.3065 0.063802 17.2072 2.20173L17.1917 2.18688C14.1311 -0.728571 9.16845 -0.729171 6.10788 2.18635C3.0107 5.13664 3.48253 10.243 6.50451 13.1217L7.1619 13.7479C7.19991 13.7841 7.24204 13.814 7.28684 13.8376C7.16525 14.4886 7.36842 15.1838 7.89648 15.6869C8.35824 16.1268 8.98271 16.3415 9.59629 16.3108C9.56053 16.8872 9.77376 17.4751 10.2361 17.9156C10.6979 18.3554 11.3224 18.5702 11.936 18.5396C11.9002 19.116 12.1135 19.7039 12.576 20.1443C13.0377 20.5842 13.6622 20.799 14.2758 20.7684C14.24 21.3448 14.4532 21.9326 14.9156 22.3731ZM14.8937 19.4175C14.4842 19.8075 13.8009 19.8045 13.3669 19.391C12.9453 18.9894 12.9453 18.3382 13.3669 17.9366L14.993 16.3876C15.4025 15.9977 16.0859 16.0007 16.5198 16.4141C16.9414 16.8157 16.9414 17.4669 16.5199 17.8686M16.5199 17.8686L14.8937 19.4175ZM12.554 17.1888C12.1446 17.5787 11.4613 17.5757 11.0271 17.1622C10.6056 16.7606 10.6056 16.1095 11.0271 15.7079L12.6533 14.1588C13.0627 13.7689 13.7461 13.7718 14.18 14.1854C14.6017 14.5869 14.6017 15.2382 14.1801 15.6398L12.554 17.1888ZM10.2142 14.96C9.80478 15.3499 9.12144 15.347 8.68742 14.9335C8.26583 14.5319 8.26585 13.8807 8.68746 13.479L10.3135 11.93C10.723 11.5401 11.4063 11.5431 11.8404 11.9566C12.262 12.3582 12.262 13.0094 11.8404 13.411L10.2142 14.96ZM13.2713 12.808C13.8849 12.7773 14.5094 12.9921 14.9711 13.432C15.4335 13.8725 15.6468 14.4604 15.611 15.0368C16.2246 15.0062 16.8491 15.2209 17.3108 15.6607C17.7732 16.1012 17.9865 16.6891 17.9507 17.2655C18.5643 17.235 19.1887 17.4497 19.6504 17.8895C19.752 17.9863 19.8416 18.0902 19.9192 18.1996C19.9852 18.2256 20.047 18.2641 20.1007 18.3152C20.5223 18.7168 21.2059 18.7168 21.6276 18.3152C22.0616 17.9019 22.0648 17.2508 21.6555 16.8609C21.628 16.8348 21.604 16.8066 21.5835 16.7769L16.4135 11.852L17.8499 10.5C17.9554 10.4007 18.0146 10.345 18.1201 10.2457C18.6804 9.7184 18.9945 9.42273 19.5548 8.89539L24.6921 13.7892C24.7232 13.8087 24.7527 13.8315 24.7801 13.8576C25.2018 14.2593 25.8854 14.2593 26.3068 13.8577C26.741 13.4443 26.7442 12.7933 26.3349 12.4034L19.5097 5.9018L17.0959 8.20303L17.0945 8.20445C15.5214 9.72562 13.0359 9.73781 11.4932 8.27888C11.2704 8.06821 11.266 7.72229 11.4917 7.50732L16.2241 2.9992L16.227 2.99647L16.2379 2.98612C16.2394 2.98461 16.241 2.9831 16.2427 2.98161C16.2763 2.94981 16.3101 2.9183 16.3443 2.8871C13.7163 0.440528 9.50399 0.458038 6.8988 2.93976C4.31182 5.40405 4.63307 9.83216 7.29542 12.3683L7.7876 12.8371C7.82223 12.799 7.85853 12.7618 7.89652 12.7256L9.52264 11.1765C10.3935 10.3472 11.7854 10.3974 12.6314 11.2032C13.0938 11.6437 13.307 12.2315 13.2713 12.808ZM17.0157 3.75202C19.678 1.21591 24.3266 0.90984 26.9136 3.37419C29.3726 5.71657 29.5271 9.42285 27.377 11.9365C27.304 11.836 27.2203 11.74 27.1257 11.6499L19.9425 4.80728C19.9045 4.77108 19.8624 4.74118 19.8176 4.71758C19.5996 4.57446 19.2988 4.59533 19.105 4.78009L16.3002 7.45424L16.2987 7.45567C15.2917 8.43039 13.7992 8.54371 12.7087 7.85483L17.0157 3.75202ZM23.9951 14.632C24.4045 15.0221 24.4013 15.673 23.9672 16.0865C23.5456 16.4881 22.862 16.4881 22.4405 16.0865L17.2741 11.0419C17.499 10.8303 17.6251 10.7116 17.8499 10.5C17.9554 10.4007 18.0146 10.345 18.1201 10.2457L18.8241 9.58313L23.9951 14.632ZM15.7067 20.1653L17.3328 18.6163C17.7421 18.2264 18.4255 18.2294 18.8594 18.6429C19.2811 19.0445 19.2811 19.6956 18.8595 20.0972L17.2334 21.6463C16.8241 22.0362 16.1407 22.0333 15.7066 21.6197C15.2851 21.2182 15.2851 20.5671 15.7067 20.1653Z" fill="url(#paint0_linear_577_9873)"/>
</g>
</g>
</svg>
