<svg width="361" height="53" viewBox="0 0 361 53" fill="none" xmlns="http://www.w3.org/2000/svg">
    <defs>
        <linearGradient id="paint0_linear_1150_17139" x1="-4.00002" y1="-29.0677" x2="205.099" y2="273.664" gradientUnits="userSpaceOnUse">
            <stop stop-color="#AEBA66"/>
            <stop offset="0.565625" stop-color="#CF9600"/>
        </linearGradient>
    </defs>
<path d="M45.58 4.363H49.935V52H41.828V22.453L27.021 43.625H23.738L8.931 22.654V52H0.824V4.363H5.179L25.48 33.039L45.58 4.363ZM87.9559 33.843C87.9559 34.915 87.9335 35.6743 87.8889 36.121H58.4759C58.9672 39.2477 60.2402 41.682 62.2949 43.424C64.3495 45.166 67.0072 46.037 70.2679 46.037C75.0472 46.037 78.7769 44.362 81.4569 41.012L86.6159 45.3C82.9532 50.258 77.3252 52.737 69.7319 52.737C63.7465 52.737 59.0119 51.0173 55.5279 47.578C52.0885 44.094 50.3689 39.4487 50.3689 33.642C50.3689 27.9247 52.1109 23.324 55.5949 19.84C59.0789 16.356 63.6125 14.614 69.1959 14.614C75.2705 14.614 79.9159 16.3783 83.1319 19.907C86.3479 23.391 87.9559 28.0363 87.9559 33.843ZM69.1959 21.247C66.4712 21.247 64.1485 22.0287 62.2279 23.592C60.3072 25.1107 59.0789 27.2993 58.5429 30.158H79.9829C79.7149 27.5227 78.6652 25.3787 76.8339 23.726C75.0472 22.0733 72.5012 21.247 69.1959 21.247ZM87.4517 52V15.552H95.1567V20.577C97.8814 16.691 101.723 14.748 106.681 14.748C107.976 14.748 109.003 14.9043 109.763 15.217V23.659C108.155 23.0783 106.591 22.788 105.073 22.788C102.259 22.788 99.9361 23.8153 98.1047 25.87C96.2734 27.88 95.3577 30.7387 95.3577 34.446V52H87.4517ZM125.483 52.67C119.408 52.67 114.629 50.9727 111.145 47.578C107.706 44.1387 105.986 39.5157 105.986 33.709C105.986 28.0363 107.75 23.4803 111.279 20.041C114.852 16.557 119.632 14.815 125.617 14.815C128.922 14.815 131.915 15.4403 134.595 16.691C137.32 17.9417 139.508 19.6613 141.161 21.85L135.667 26.808C134.64 25.3787 133.255 24.2173 131.513 23.324C129.771 22.4307 127.895 21.984 125.885 21.984C122.312 21.984 119.453 23.056 117.309 25.2C115.21 27.2993 114.16 30.1133 114.16 33.642C114.16 37.3047 115.21 40.208 117.309 42.352C119.408 44.496 122.222 45.568 125.751 45.568C130.084 45.568 133.478 43.9377 135.935 40.677L141.429 45.635C139.732 47.8237 137.498 49.5433 134.729 50.794C132.004 52.0447 128.922 52.67 125.483 52.67ZM140.97 52V1.281H148.876V19.237C152.271 16.289 156.246 14.815 160.802 14.815C165.448 14.815 168.954 15.9987 171.321 18.366C173.733 20.7333 174.939 24.731 174.939 30.359V52H166.966V31.967C166.966 28.1703 166.207 25.535 164.688 24.061C163.214 22.587 161.137 21.85 158.457 21.85C154.884 21.85 151.69 23.3017 148.876 26.205V52H140.97ZM192.249 52.737C186.845 52.737 182.512 51.0173 179.251 47.578C176.035 44.1387 174.427 39.5157 174.427 33.709C174.427 27.9023 176.035 23.3017 179.251 19.907C182.467 16.4677 186.688 14.748 191.914 14.748C196.917 14.748 200.825 16.1773 203.639 19.036V15.552H211.545V52H203.773V48.181C201.183 51.2183 197.341 52.737 192.249 52.737ZM193.79 45.702C195.845 45.702 197.766 45.2553 199.552 44.362C201.339 43.4687 202.746 42.1287 203.773 40.342V27.009C202.701 25.3563 201.227 24.0833 199.351 23.19C197.475 22.252 195.532 21.783 193.522 21.783C190.262 21.783 187.626 22.8327 185.616 24.932C183.651 27.0313 182.668 29.9347 182.668 33.642C182.668 37.394 183.673 40.342 185.683 42.486C187.693 44.63 190.396 45.702 193.79 45.702ZM213.669 52V15.552H221.374V19.237C224.858 16.289 228.878 14.815 233.434 14.815C238.08 14.815 241.586 15.9987 243.953 18.366C246.365 20.7333 247.571 24.731 247.571 30.359V52H239.665V31.967C239.665 28.1703 238.906 25.535 237.387 24.061C235.913 22.587 233.836 21.85 231.156 21.85C227.583 21.85 224.389 23.3017 221.575 26.205V52H213.669ZM264.878 52.737C259.474 52.737 255.141 51.0173 251.88 47.578C248.664 44.1387 247.056 39.5157 247.056 33.709C247.056 27.9023 248.664 23.3017 251.88 19.907C255.096 16.4677 259.317 14.748 264.543 14.748C269.546 14.748 273.454 16.1773 276.268 19.036V1.281H284.174V52H276.402V48.181C273.812 51.2183 269.97 52.737 264.878 52.737ZM266.419 45.702C268.474 45.702 270.395 45.2553 272.181 44.362C273.968 43.4687 275.375 42.1287 276.402 40.342V27.009C275.33 25.3563 273.856 24.0833 271.98 23.19C270.104 22.252 268.161 21.783 266.151 21.783C262.891 21.783 260.255 22.8327 258.245 24.932C256.28 27.0313 255.297 29.9347 255.297 33.642C255.297 37.394 256.302 40.342 258.312 42.486C260.322 44.63 263.025 45.702 266.419 45.702ZM294.003 9.388C293.021 10.3707 291.815 10.862 290.385 10.862C288.956 10.862 287.728 10.3707 286.7 9.388C285.718 8.40533 285.226 7.19933 285.226 5.77C285.226 4.38533 285.718 3.20167 286.7 2.219C287.728 1.23633 288.956 0.744997 290.385 0.744997C291.815 0.744997 293.021 1.23633 294.003 2.219C294.986 3.20167 295.477 4.38533 295.477 5.77C295.477 7.19933 294.986 8.40533 294.003 9.388ZM286.298 52V15.552H294.338V52H286.298ZM309.902 52.871C304.229 52.871 299.115 51.7543 294.559 49.521L297.172 43.156C300.968 45.3893 305.145 46.506 309.701 46.506C314.435 46.506 316.803 44.965 316.803 41.883C316.803 40.5877 316.177 39.605 314.927 38.935C313.676 38.265 311.443 37.5727 308.227 36.858C303.715 35.92 300.388 34.6247 298.244 32.972C296.144 31.2747 295.095 28.8403 295.095 25.669C295.095 22.1403 296.368 19.4603 298.914 17.629C301.504 15.753 304.988 14.815 309.366 14.815C313.877 14.815 318.545 15.7753 323.369 17.696L320.689 24.061C317.115 22.2297 313.296 21.314 309.232 21.314C305.122 21.314 303.068 22.587 303.068 25.133C303.068 26.473 303.648 27.478 304.81 28.148C305.971 28.818 308.204 29.5327 311.51 30.292C316.155 31.364 319.55 32.704 321.694 34.312C323.882 35.92 324.977 38.2203 324.977 41.213C324.977 45.233 323.726 48.181 321.225 50.057C318.723 51.933 314.949 52.871 309.902 52.871ZM360.676 33.843C360.676 34.915 360.653 35.6743 360.609 36.121H331.196C331.687 39.2477 332.96 41.682 335.015 43.424C337.069 45.166 339.727 46.037 342.988 46.037C347.767 46.037 351.497 44.362 354.177 41.012L359.336 45.3C355.673 50.258 350.045 52.737 342.452 52.737C336.466 52.737 331.732 51.0173 328.248 47.578C324.808 44.094 323.089 39.4487 323.089 33.642C323.089 27.9247 324.831 23.324 328.315 19.84C331.799 16.356 336.332 14.614 341.916 14.614C347.99 14.614 352.636 16.3783 355.852 19.907C359.068 23.391 360.676 28.0363 360.676 33.843ZM341.916 21.247C339.191 21.247 336.868 22.0287 334.948 23.592C333.027 25.1107 331.799 27.2993 331.263 30.158H352.703C352.435 27.5227 351.385 25.3787 349.554 23.726C347.767 22.0733 345.221 21.247 341.916 21.247Z" fill="url(#paint0_linear_1150_17139)"/>
</svg>
