<svg width="957" height="420" viewBox="0 0 957 420" fill="none" xmlns="http://www.w3.org/2000/svg">
<path d="M0 23C0 23 145.658 296.808 299.5 315C327.229 318.279 335.578 315 363.5 315C496 315 421.72 22.5078 561.5 22.5C710.5 22.4917 853 300.5 805.5 345C758 389.5 870.5 383.5 955 383.5" stroke="#F8D848" stroke-width="0.5"/>
<path d="M4 1C4 1 143.158 282.308 297 300.5C324.729 303.779 316.078 293 344 293C476.5 293 413.22 5.00783 553 5C702 4.99166 844.071 228 825.5 293C806.929 358 955 358.5 955 358.5" stroke="#F8D848" stroke-width="0.5"/>
<path d="M4 83.9898C4 83.9898 151.158 327.298 305 345.49C332.729 348.769 371.647 356.038 397.5 345.49C522.5 294.49 464.001 17.9976 582.5 68.9898C719.5 127.943 813 324.5 825.5 375.99C838 427.479 956 418.5 956 418.5" stroke="#F8D848" stroke-width="0.5"/>
<path d="M0 53.5142C0 53.5142 143.658 310.328 297.5 328.52C325.229 331.799 352.897 323.229 380.5 319.02C508.5 299.5 447.5 -3.00674 575 38.5C720.197 85.7678 782 257.999 825.5 319.02" stroke="#F8D848" stroke-width="0.5"/>
</svg>
