<svg width="284" height="278" viewBox="0 0 284 278" fill="none" xmlns="http://www.w3.org/2000/svg">
<path d="M7.625 248.012H13.5723C16.1517 248.012 18.0977 248.385 19.4102 249.133C20.7227 249.88 21.3789 251.17 21.3789 253.002C21.3789 253.768 21.2422 254.46 20.9688 255.08C20.7044 255.691 20.3171 256.197 19.8066 256.598C19.2962 256.99 18.6673 257.254 17.9199 257.391V257.527C18.6947 257.664 19.3828 257.906 19.9844 258.252C20.5951 258.598 21.0736 259.095 21.4199 259.742C21.7754 260.389 21.9531 261.228 21.9531 262.258C21.9531 263.479 21.6615 264.518 21.0781 265.375C20.5039 266.232 19.679 266.883 18.6035 267.33C17.5371 267.777 16.2702 268 14.8027 268H7.625V248.012ZM10.9062 256.256H14.0508C15.5365 256.256 16.5664 256.014 17.1406 255.531C17.7148 255.048 18.002 254.342 18.002 253.412C18.002 252.464 17.6602 251.781 16.9766 251.361C16.3021 250.942 15.2266 250.732 13.75 250.732H10.9062V256.256ZM10.9062 258.908V265.252H14.3652C15.8965 265.252 16.972 264.956 17.5918 264.363C18.2116 263.771 18.5215 262.969 18.5215 261.957C18.5215 261.337 18.3802 260.799 18.0977 260.344C17.8242 259.888 17.373 259.537 16.7441 259.291C16.1152 259.036 15.2676 258.908 14.2012 258.908H10.9062ZM41.7773 248.012V260.945C41.7773 262.34 41.4811 263.589 40.8887 264.691C40.3053 265.794 39.4212 266.669 38.2363 267.316C37.0514 267.954 35.5612 268.273 33.7656 268.273C31.2044 268.273 29.2539 267.604 27.9141 266.264C26.5833 264.915 25.918 263.124 25.918 260.891V248.012H29.1992V260.604C29.1992 262.271 29.5911 263.502 30.375 264.295C31.1589 265.088 32.3301 265.484 33.8887 265.484C34.9642 265.484 35.8392 265.298 36.5137 264.924C37.1973 264.541 37.6986 263.985 38.0176 263.256C38.3457 262.518 38.5098 261.629 38.5098 260.59V248.012H41.7773ZM52.5508 257.131L57.2949 248.012H60.8359L54.1914 260.234V268H50.9238V260.357L44.2656 248.012H47.834L52.5508 257.131ZM79.3613 268L73.6055 251.307H73.4824C73.5098 251.68 73.5417 252.191 73.5781 252.838C73.6146 253.485 73.6465 254.178 73.6738 254.916C73.7012 255.654 73.7148 256.361 73.7148 257.035V268H70.7344V248.012H75.3418L80.8789 263.967H80.9609L86.6895 248.012H91.2832V268H88.1523V256.871C88.1523 256.26 88.1615 255.6 88.1797 254.889C88.207 254.178 88.2344 253.503 88.2617 252.865C88.2982 252.227 88.3255 251.717 88.3438 251.334H88.2344L82.2598 268H79.3613ZM107.867 268H96.5469V248.012H107.867V250.773H99.8281V256.201H107.361V258.949H99.8281V265.225H107.867V268ZM117.807 248.012C119.529 248.012 120.951 248.221 122.072 248.641C123.202 249.06 124.041 249.698 124.588 250.555C125.144 251.411 125.422 252.501 125.422 253.822C125.422 254.807 125.24 255.645 124.875 256.338C124.51 257.031 124.032 257.605 123.439 258.061C122.847 258.516 122.214 258.881 121.539 259.154L127.213 268H123.508L118.682 259.988H115.469V268H112.188V248.012H117.807ZM117.588 250.746H115.469V257.281H117.738C119.26 257.281 120.363 256.999 121.047 256.434C121.74 255.868 122.086 255.035 122.086 253.932C122.086 252.774 121.717 251.954 120.979 251.471C120.249 250.988 119.119 250.746 117.588 250.746ZM138.588 250.514C137.631 250.514 136.774 250.687 136.018 251.033C135.27 251.38 134.637 251.881 134.117 252.537C133.598 253.184 133.201 253.973 132.928 254.902C132.654 255.823 132.518 256.862 132.518 258.02C132.518 259.569 132.736 260.904 133.174 262.025C133.611 263.137 134.277 263.994 135.17 264.596C136.063 265.188 137.193 265.484 138.561 265.484C139.408 265.484 140.233 265.402 141.035 265.238C141.837 265.074 142.667 264.851 143.523 264.568V267.357C142.712 267.676 141.892 267.909 141.062 268.055C140.233 268.201 139.276 268.273 138.191 268.273C136.15 268.273 134.454 267.85 133.105 267.002C131.766 266.154 130.763 264.96 130.098 263.42C129.441 261.88 129.113 260.075 129.113 258.006C129.113 256.493 129.323 255.107 129.742 253.85C130.161 252.592 130.772 251.507 131.574 250.596C132.376 249.675 133.365 248.969 134.541 248.477C135.726 247.975 137.079 247.725 138.602 247.725C139.604 247.725 140.589 247.839 141.555 248.066C142.53 248.285 143.432 248.6 144.262 249.01L143.113 251.717C142.421 251.389 141.696 251.106 140.939 250.869C140.183 250.632 139.399 250.514 138.588 250.514ZM163.58 268H160.312V258.977H151.098V268H147.816V248.012H151.098V256.188H160.312V248.012H163.58V268ZM181.258 268L179.303 262.449H171.66L169.705 268H166.246L173.684 247.93H177.32L184.744 268H181.258ZM178.455 259.633L176.555 254.164C176.482 253.927 176.377 253.594 176.24 253.166C176.104 252.729 175.967 252.286 175.83 251.84C175.693 251.384 175.579 251.001 175.488 250.691C175.397 251.065 175.283 251.484 175.146 251.949C175.019 252.405 174.891 252.833 174.764 253.234C174.645 253.635 174.554 253.945 174.49 254.164L172.576 259.633H178.455ZM204.062 268H200.029L190.24 252.045H190.117C190.154 252.583 190.186 253.152 190.213 253.754C190.249 254.355 190.277 254.975 190.295 255.613C190.322 256.251 190.345 256.898 190.363 257.555V268H187.383V248.012H191.389L201.164 263.857H201.26C201.242 263.393 201.219 262.859 201.191 262.258C201.164 261.656 201.137 261.036 201.109 260.398C201.091 259.751 201.077 259.127 201.068 258.525V248.012H204.062V268ZM225.541 257.814C225.541 260.066 225.122 261.948 224.283 263.461C223.445 264.965 222.228 266.1 220.633 266.865C219.038 267.622 217.115 268 214.863 268H209.312V248.012H215.465C217.534 248.012 219.32 248.385 220.824 249.133C222.328 249.871 223.49 250.969 224.311 252.428C225.131 253.877 225.541 255.673 225.541 257.814ZM222.123 257.91C222.123 256.27 221.863 254.921 221.344 253.863C220.833 252.806 220.077 252.022 219.074 251.512C218.081 250.992 216.855 250.732 215.396 250.732H212.594V265.252H214.918C217.333 265.252 219.138 264.637 220.332 263.406C221.526 262.176 222.123 260.344 222.123 257.91ZM229.848 268V248.012H233.129V268H229.848ZM249.945 262.559C249.945 263.743 249.654 264.764 249.07 265.621C248.496 266.478 247.667 267.134 246.582 267.59C245.507 268.046 244.221 268.273 242.727 268.273C241.997 268.273 241.3 268.232 240.635 268.15C239.969 268.068 239.34 267.95 238.748 267.795C238.165 267.631 237.632 267.435 237.148 267.207V264.117C237.96 264.473 238.867 264.796 239.869 265.088C240.872 265.37 241.893 265.512 242.932 265.512C243.779 265.512 244.481 265.402 245.037 265.184C245.602 264.956 246.021 264.637 246.295 264.227C246.568 263.807 246.705 263.32 246.705 262.764C246.705 262.171 246.546 261.67 246.227 261.26C245.908 260.85 245.424 260.476 244.777 260.139C244.139 259.792 243.337 259.423 242.371 259.031C241.715 258.767 241.086 258.466 240.484 258.129C239.892 257.792 239.363 257.395 238.898 256.939C238.434 256.484 238.064 255.946 237.791 255.326C237.527 254.697 237.395 253.959 237.395 253.111C237.395 251.981 237.663 251.015 238.201 250.213C238.748 249.411 239.514 248.796 240.498 248.367C241.492 247.939 242.649 247.725 243.971 247.725C245.019 247.725 246.003 247.834 246.924 248.053C247.854 248.271 248.765 248.581 249.658 248.982L248.619 251.621C247.799 251.284 247.001 251.015 246.227 250.814C245.461 250.614 244.677 250.514 243.875 250.514C243.182 250.514 242.594 250.618 242.111 250.828C241.628 251.038 241.259 251.334 241.004 251.717C240.758 252.09 240.635 252.537 240.635 253.057C240.635 253.64 240.776 254.132 241.059 254.533C241.35 254.925 241.797 255.285 242.398 255.613C243.009 255.941 243.793 256.306 244.75 256.707C245.853 257.163 246.787 257.641 247.553 258.143C248.327 258.644 248.92 259.245 249.33 259.947C249.74 260.64 249.945 261.51 249.945 262.559ZM265.121 268H253.801V248.012H265.121V250.773H257.082V256.201H264.615V258.949H257.082V265.225H265.121V268Z" fill="white"/>
<path d="M278.945 62.8059C281.451 62.8059 283.482 60.7744 283.482 58.2684C283.482 55.7624 281.451 53.731 278.945 53.731C276.439 53.731 274.408 55.7624 274.408 58.2684C274.408 60.7744 276.439 62.8059 278.945 62.8059Z" fill="#F2F2F2"/>
<path d="M69.0109 63.9182C67.6149 64.8955 65.692 64.557 64.7113 63.1643C64.6067 63.0142 64.5159 62.8572 64.4391 62.6931L53.5298 63.7996L56.1716 58.749L66.1282 58.4733C67.7266 57.8555 69.5239 58.6513 70.1416 60.2499C70.6581 61.5867 70.1905 63.1015 69.0109 63.9182Z" fill="#FFB6B6"/>
<path d="M37.5282 68.8875L13.4864 58.9225C9.52194 57.2751 7.63741 52.7272 9.27765 48.7551C10.9214 44.7866 15.4757 42.9018 19.4437 44.5458C19.8834 44.7273 20.3057 44.9507 20.707 45.2089L40.0758 57.8021L60.2333 56.7794L61.741 63.0586L37.5282 68.8875Z" fill="#FFB548"/>
<path d="M33.1006 175.997H36.9499L38.7821 161.149H33.1006V175.997Z" fill="#FFB6B6"/>
<path d="M31.801 174.096L37.8873 173.733V176.34L43.6735 180.337C44.4134 180.846 44.5984 181.862 44.0888 182.602C43.7852 183.042 43.2827 183.307 42.7487 183.303H35.5037L34.2544 180.724L33.7658 183.303H31.0332L31.801 174.096Z" fill="#2F2E41"/>
<path d="M8.3374 175.997H12.1867L14.0189 161.149H8.3374V175.997Z" fill="#FFB6B6"/>
<path d="M7.0334 174.096L13.1197 173.733V176.34L18.906 180.337C19.6458 180.846 19.8308 181.862 19.3213 182.602C19.0176 183.042 18.5151 183.307 17.9811 183.303H10.7362L9.48678 180.724L8.9982 183.303H6.26562L7.0334 174.096Z" fill="#2F2E41"/>
<path d="M27.797 93.8802L42.8035 123.656C43.6271 125.283 43.8818 127.14 43.5259 128.927C43.2222 130.456 42.7546 131.946 42.1299 133.374L40.1162 157.268L38.312 164.766L31.8208 165.321C31.8208 165.321 32.3234 159.038 30.5645 150.228C28.8056 141.419 31.8208 128.588 31.8208 128.588C31.8208 128.588 26.2894 119.534 20.0006 115.004C13.7118 110.473 27.797 93.8802 27.797 93.8802Z" fill="#2F2E41"/>
<path d="M11.7026 80.4214C11.7026 80.4214 8.5896 85.9396 6.28977 88.9099C4.16444 91.601 3.13493 94.9936 3.41063 98.4106C3.63398 100.854 4.49249 103.489 6.67366 105.576C6.67366 105.576 8.18129 109.349 7.42747 111.363V129.23C7.42747 129.23 3.38969 150.326 6.91097 156.616L8.43256 170.734C8.43256 170.734 13.7686 172.231 14.0198 169.718C14.0198 169.718 14.7178 164.197 14.9865 162.434L15.189 144.379C15.2308 142.033 15.9567 139.75 17.2829 137.813C18.3298 136.274 19.3768 133.883 19.5164 130.483L27.7979 93.8802L29.6405 81.095L11.7026 80.4214Z" fill="#2F2E41"/>
<path d="M7.06333 60.7583L10.281 76.8558L3.23145 93.2988L29.5765 83.1419L29.9325 82.1716L30.805 78.8662L29.772 68.5732C30.1349 67.8158 35.2964 63.048 29.8976 54.6572L24.066 40.9645L13.1392 40.797L13.0938 40.8424C7.87647 46.0535 5.61154 53.5298 7.06333 60.7583Z" fill="#FFB548"/>
<path d="M23.0873 108.069C21.7262 107.042 21.4575 105.105 22.487 103.744C22.5952 103.597 22.7173 103.465 22.8534 103.339L18.4492 93.2939L24.0679 94.2608L27.3868 103.653C28.4652 104.983 28.2593 106.938 26.9296 108.016C25.8163 108.92 24.2285 108.941 23.0873 108.069Z" fill="#FFB6B6"/>
<path d="M8.68555 79.6289L10.783 53.6886C11.132 49.406 14.8836 46.2193 19.1656 46.5579C23.4477 46.9034 26.641 50.659 26.292 54.9417C26.2536 55.4164 26.1733 55.8876 26.0477 56.3483L20.0137 78.6516L27.1784 97.5239L21.6679 100.889L8.68555 79.6289Z" fill="#FFB548"/>
<path d="M0.441895 41.6253L27.1115 36.1734C27.8444 33.7231 29.2543 31.4754 25.3701 27.6465C24.1207 21.5279 18.2507 17.4965 12.0911 18.5297C5.96637 17.9852 2.52884 22.3376 2.54629 28.177L0.441895 41.6253Z" fill="#2F2E41"/>
<path d="M15.9954 37.9393C21.0028 37.9393 25.0621 33.8795 25.0621 28.8714C25.0621 23.8633 21.0028 19.8035 15.9954 19.8035C10.988 19.8035 6.92871 23.8633 6.92871 28.8714C6.92871 33.8795 10.988 37.9393 15.9954 37.9393Z" fill="#FFB8B8"/>
<path d="M9.16237 21.2891C10.3873 19.4566 12.2823 18.1827 14.4426 17.7429L16.1526 17.3938C20.6859 16.4654 25.1111 19.3903 26.0359 23.9243C24.8075 25.5229 17.5241 26.7375 13.1827 27.2645C14.3972 31.6519 19.0736 35.2505 18.5676 37.9206L1.47068 41.4144L1.12169 39.7041C-1.8796 32.4931 2.30476 25.1075 9.16237 21.2891Z" fill="#2F2E41"/>
<path d="M0.369629 42.111L27.0393 36.6591C27.7721 34.2089 29.182 31.9611 25.2978 28.1322C24.0484 22.0136 18.1785 17.9822 12.0188 19.0154C5.89759 18.4709 2.46006 22.8234 2.47751 28.6627L0.369629 42.111Z" fill="#2F2E41"/>
<path d="M15.9207 38.4293C20.9281 38.4293 24.9874 34.3695 24.9874 29.3614C24.9874 24.3533 20.9281 20.2935 15.9207 20.2935C10.9133 20.2935 6.854 24.3533 6.854 29.3614C6.854 34.3695 10.9133 38.4293 15.9207 38.4293Z" fill="#FFB8B8"/>
<path d="M9.08571 21.7791C10.3107 19.9466 12.2057 18.6727 14.3659 18.2329L16.0759 17.8838C20.6093 16.9554 25.0344 19.8803 25.9593 24.4143C24.7308 26.0129 17.4475 27.2275 13.106 27.7545C14.3205 32.1419 18.997 35.7404 18.4909 38.4106L1.39402 41.9044L1.04503 40.1941C-1.95626 32.9796 2.2281 25.5975 9.08571 21.7791Z" fill="#2F2E41"/>
<path d="M140.854 107.454H71.709C67.72 107.45 64.4884 104.215 64.4814 100.225V9.97191C64.4849 5.98245 67.72 2.75039 71.709 2.74341H140.854C144.843 2.7469 148.074 5.98245 148.081 9.97191V100.229C148.078 104.215 144.843 107.45 140.854 107.454Z" fill="#F0F0F0"/>
<path d="M140.855 107.806H71.7103C67.5294 107.803 64.1408 104.414 64.1338 100.229V9.97525C64.1373 5.79381 67.5259 2.40469 71.7103 2.39771H140.855C145.036 2.4012 148.425 5.79032 148.432 9.97525V100.232C148.425 104.414 145.036 107.803 140.855 107.806ZM71.7103 3.09577C67.9133 3.09926 64.8387 6.17775 64.8318 9.97525V100.232C64.8353 104.03 67.9133 107.105 71.7103 107.112H140.855C144.652 107.108 147.727 104.03 147.734 100.232V9.97525C147.73 6.17775 144.652 3.10276 140.855 3.09577H71.7103Z" fill="#FFB548"/>
<path d="M253.188 107.454H184.043C180.054 107.45 176.822 104.215 176.815 100.225V9.97191C176.819 5.98245 180.054 2.75039 184.043 2.74341H253.188C257.177 2.7469 260.408 5.98245 260.415 9.97191V100.229C260.412 104.215 257.177 107.45 253.188 107.454Z" fill="#F0F0F0"/>
<path d="M257.131 1.10353L257.124 1.11051C255.686 -0.351946 253.334 -0.37289 251.872 1.06513C250.507 2.40543 250.385 4.56246 251.586 6.04935L251.579 6.05633L256.531 11.6095L262.083 6.65667C263.615 5.28845 263.748 2.93596 262.38 1.4037C261.015 -0.128565 258.667 -0.261198 257.131 1.10353Z" fill="#FFB548"/>
<path d="M83.123 59.222C82.8892 58.7019 82.8927 58.1086 83.1335 57.592L87.2794 48.6777C88.1344 45.7981 91.1602 44.1542 94.0393 45.0093C96.908 45.861 98.5482 48.8662 97.7176 51.7387L96.3322 61.5012C96.1786 62.5727 95.1875 63.3162 94.1196 63.1661C94.0254 63.1521 93.9311 63.1312 93.8369 63.1033L84.3549 60.2935C83.807 60.133 83.3568 59.7421 83.123 59.222Z" fill="#3F3D56"/>
<path d="M128.215 54.772L118.733 57.5818C117.696 57.8889 116.608 57.299 116.301 56.2589C116.273 56.1682 116.252 56.0739 116.238 55.9762L114.852 46.2137C114.015 43.3272 115.676 40.3115 118.558 39.4738C121.431 38.6396 124.439 40.2836 125.287 43.1527L129.433 52.067C129.89 53.0478 129.464 54.2136 128.484 54.6673C128.396 54.7127 128.306 54.7476 128.215 54.772Z" fill="#3F3D56"/>
<path d="M90.9081 46.8151L98.3451 41.4051L110.514 38.0229L120.656 40.0508L121.253 45.6563C121.979 52.473 121.664 59.3594 120.317 66.0818L120.07 71.2615L93.9513 72.1655L91.2467 67.4326C91.2467 67.4326 85.1638 61.3489 89.8961 54.5846L90.9081 46.8151Z" fill="#3F3D56"/>
<path d="M234.718 36.1642V42.1746L234.132 49.5183C234.132 49.5183 233.947 55.9301 233.724 60.9876C233.588 64.0626 233.434 66.635 233.301 66.9665C233.137 67.3749 233.176 68.4848 233.27 69.6506C233.382 70.9979 233.563 72.422 233.595 72.9001C233.654 73.7902 233.183 77.6086 233.183 77.6086C233.183 77.6086 232.656 87.1861 231.891 87.9505C231.127 88.7149 231.891 90.8894 231.891 90.8894C228.307 93.5316 223.781 90.303 223.781 90.303C224.783 88.7114 223.195 77.839 223.195 77.839C223.195 77.839 222.961 74.1287 222.49 73.1305C222.019 72.1323 221.9 65.902 221.9 65.902V56.6735C221.9 56.6735 220.665 54.7852 220.49 53.9022C220.316 53.0191 220.49 49.9092 220.49 49.9092L219.199 45.5602L218.316 48.9668C218.316 48.9668 216.027 58.4885 215.615 59.6612C215.391 60.4466 215.475 61.2878 215.849 62.0137C215.849 62.0137 216.438 63.8252 215.849 64.6559C215.482 65.176 215.203 65.7519 215.018 66.3627C215.018 66.3627 214.714 69.8321 214.187 71.0712C213.657 72.3137 213.189 73.8425 213.189 73.8425C213.189 73.8425 213.315 76.1845 212.784 76.7151C212.254 77.2456 212.079 79.8878 212.079 79.8878C212.079 79.8878 212.195 82.8825 211.49 83.9401C210.785 84.9977 210.785 90.9941 210.785 90.9941C208.289 92.5962 205.131 92.7288 202.51 91.3466C202.51 91.3466 203.208 90.6939 202.678 87.6469C202.147 84.5998 203.058 76.3032 203.058 76.3032C203.058 76.3032 202.943 74.1985 203.529 73.2561C204.116 72.3138 203.233 70.4953 203.47 69.6716C203.704 68.8478 204.412 64.3802 204.412 64.3802C204.412 64.3802 204.119 53.3926 204.119 52.8027C204.049 51.7591 203.767 50.7364 203.288 49.8045C202.758 48.8656 203.288 42.049 203.288 42.049C203.288 42.049 204.534 38.5272 204.119 37.7593C203.704 36.9914 204.395 35.6442 204.395 35.6442C204.395 35.6442 203.749 34.0561 204.395 33.7629C205.04 33.4697 205.159 32.2934 205.159 32.2934L205.609 26.5937C205.609 26.5937 205.777 24.0073 206.314 23.8887C206.852 23.7735 206.614 22.7753 207.145 22.0702C207.403 21.592 207.581 21.0755 207.672 20.5414C207.745 20.2133 207.815 19.8748 207.874 19.5467C208.042 18.6601 208.143 17.8958 208.143 17.8958C211.612 20.7753 229.843 18.7579 229.864 18.7579C231.023 19.0092 232.398 23.0301 233.392 26.5344C234.275 29.6722 234.722 32.9112 234.718 36.1642Z" fill="#3F3D56"/>
<path d="M47.6162 184H57.7438C57.8939 183.728 58.0335 183.448 58.1626 183.166C59.3282 180.67 59.8203 177.885 60.2914 175.155L61.0557 170.723C58.6128 172.499 56.1699 174.276 53.7305 176.049C52.9348 176.628 52.1216 177.232 51.3574 177.885C49.7485 179.249 48.3596 180.827 47.8151 182.831C47.7872 182.942 47.7593 183.054 47.7384 183.166C47.679 183.441 47.6406 183.721 47.6162 184Z" fill="#F0F0F0"/>
<path d="M46.1943 183.161C46.1943 183.179 46.1943 183.196 46.1978 183.214C46.2327 183.479 46.2955 183.744 46.3863 183.995H50.9336C51.0767 183.727 51.1988 183.447 51.2965 183.161C51.4361 182.777 51.5338 182.383 51.5932 181.978C51.7432 180.61 51.663 179.224 51.3559 177.88C51.2686 177.444 51.1744 177.004 51.0802 176.572L50.5427 174.1L47.852 178.425C46.9516 179.873 46.0163 181.468 46.1943 183.161Z" fill="#F0F0F0"/>
<path d="M0 183.581C0 183.811 0.184963 184 0.415295 184H64.3847C64.6151 184 64.8035 183.811 64.8035 183.581C64.8035 183.35 64.6151 183.162 64.3847 183.162H0.415295C0.184963 183.165 0 183.354 0 183.581Z" fill="#CACACA"/>
<path d="M105.058 118.624C111.96 118.624 117.556 113.028 117.556 106.125C117.556 99.2224 111.96 93.6265 105.058 93.6265C98.1562 93.6265 92.561 99.2224 92.561 106.125C92.561 113.028 98.1562 118.624 105.058 118.624Z" fill="#FFB548"/>
<path d="M103.353 112.629C102.917 112.629 102.505 112.423 102.24 112.074L98.8305 107.526C98.3698 106.912 98.492 106.043 99.1027 105.579C99.7169 105.118 100.586 105.24 101.05 105.851L101.054 105.854L103.284 108.828L109.014 100.235C109.44 99.5963 110.302 99.4183 110.94 99.8441C111.579 100.27 111.757 101.132 111.331 101.771C111.331 101.774 111.328 101.774 111.328 101.778L104.508 112.008C104.257 112.385 103.842 112.615 103.392 112.626C103.381 112.629 103.367 112.629 103.353 112.629Z" fill="white"/>
<path d="M148.781 143.901C151.287 143.901 153.318 141.869 153.318 139.363C153.318 136.858 151.287 134.826 148.781 134.826C146.275 134.826 144.244 136.858 144.244 139.363C144.244 141.869 146.275 143.901 148.781 143.901Z" fill="#F2F2F2"/>
<path d="M184.689 143.901C187.194 143.901 189.226 141.869 189.226 139.363C189.226 136.858 187.194 134.826 184.689 134.826C182.183 134.826 180.152 136.858 180.152 139.363C180.152 141.869 182.183 143.901 184.689 143.901Z" fill="#F2F2F2"/>
<path d="M165.53 143.901C168.036 143.901 170.067 141.869 170.067 139.363C170.067 136.858 168.036 134.826 165.53 134.826C163.025 134.826 160.994 136.858 160.994 139.363C160.994 141.869 163.025 143.901 165.53 143.901Z" fill="#F2F2F2"/>
</svg>
