<svg width="222" height="182" viewBox="0 0 222 182" fill="none" xmlns="http://www.w3.org/2000/svg">
    <defs>
        <linearGradient id="paint0_linear_1391_20646" x1="128" y1="0" x2="128" y2="152.5" gradientUnits="userSpaceOnUse">
            <stop stop-color="#EAEAE4"/>
            <stop offset="1" stop-color="#EAEAE4" stop-opacity="0"/>
        </linearGradient>
    </defs>
    <path d="M52.0312 0H204.656C214.23 0 222 7.78022 222 17.3666V116.356C222 125.942 214.23 133.723 204.656 133.723H52.0312C42.4575 133.723 34.6875 125.942 34.6875 116.356V17.3666C34.6875 7.78022 42.4575 0 52.0312 0Z" fill="url(#paint0_linear_1391_20646)"/>
<path d="M222 16.4983H34.6875V32.9965H222V16.4983Z" fill="#040407"/>
<path d="M17.3438 39.9431H169.969C179.542 39.9431 187.312 47.7233 187.312 57.3097V156.299C187.312 165.885 179.542 173.666 169.969 173.666H17.3438C7.77 173.666 0 165.885 0 156.299V57.3097C0 47.7233 7.77 39.9431 17.3438 39.9431Z" fill="#0053C0"/>
<path d="M48.5799 149.578H29.7619C27.1604 149.578 25.0618 147.477 25.0618 144.872C25.0618 142.267 27.1604 140.165 29.7619 140.165H48.5799C51.1815 140.165 53.2801 142.267 53.2801 144.872C53.2801 147.477 51.1815 149.578 48.5799 149.578ZM86.2332 149.578H67.4152C64.8137 149.578 62.7151 147.477 62.7151 144.872C62.7151 142.267 64.8137 140.165 67.4152 140.165H86.2332C88.8348 140.165 90.9333 142.267 90.9333 144.872C90.9333 147.477 88.8348 149.578 86.2332 149.578ZM123.869 130.735H29.7446C27.143 130.735 25.0444 128.634 25.0444 126.029C25.0444 123.424 27.143 121.323 29.7446 121.323H123.869C126.471 121.323 128.569 123.424 128.569 126.029C128.569 128.634 126.471 130.735 123.869 130.735Z" fill="#A6D1FF"/>
<path d="M34.6009 69.4663H62.5417C65.2299 69.4663 67.3979 71.6371 67.3979 74.3289V83.4464C67.3979 86.1382 65.2299 88.309 62.5417 88.309H34.6009C31.9126 88.309 29.7446 86.1382 29.7446 83.4464V74.3289C29.7446 71.6371 31.9126 69.4663 34.6009 69.4663Z" fill="#A6D1FF"/>
<path d="M121.753 83.7067C123.86 83.7067 125.569 81.9962 125.569 79.8861C125.569 77.776 123.86 76.0654 121.753 76.0654C119.646 76.0654 117.938 77.776 117.938 79.8861C117.938 81.9962 119.646 83.7067 121.753 83.7067Z" fill="#A6D1FF"/>
<path d="M135.593 88.1353C132.506 88.1353 130.668 84.6099 132.506 82.0744C133.425 80.8066 133.425 78.9658 132.506 77.698C131.257 75.9961 131.639 73.5995 133.339 72.3665C135.038 71.1161 137.432 71.4981 138.663 73.2001C141.525 77.1423 141.525 82.6127 138.663 86.5549C137.917 87.5796 136.755 88.1353 135.593 88.1353ZM147.994 96.9922C144.907 96.9922 143.069 93.4668 144.907 90.9313C149.607 84.4362 149.677 75.423 144.907 68.8237C143.676 67.1218 144.057 64.7252 145.757 63.4922C147.474 62.2591 149.85 62.6412 151.081 64.3431C157.689 73.4779 157.811 86.1034 151.081 95.4119C150.336 96.4365 149.174 96.9922 147.994 96.9922Z" fill="#A6D1FF"/>
<path d="M193.5 127.781C178.743 127.781 166.781 139.743 166.781 154.5C166.781 169.257 178.743 181.219 193.5 181.219C208.257 181.219 220.219 169.257 220.219 154.5C220.219 139.743 208.257 127.781 193.5 127.781Z" fill="#CF273E"/>
<path d="M203 163L185 145L203 163ZM203 145L185 163L203 145Z" fill="#CF273E"/>
<path d="M203 163L185 145M203 145L185 163" stroke="black" stroke-width="3" stroke-linecap="round"/>

</svg>
