<svg width="58" height="34" viewBox="0 0 58 34" fill="none" xmlns="http://www.w3.org/2000/svg">
<g filter="url(#filter0_d_1742_22939)">
<path d="M14.0776 0H4.69175C2.10057 0 0 2.10057 0 4.69176V26.5898C0 29.181 2.10057 31.2815 4.69175 31.2815H14.0776C16.6688 31.2815 18.7694 29.181 18.7694 26.5898V4.69176C18.7694 2.10057 16.6688 0 14.0776 0Z" fill="#F9C882"/>
<path d="M18.7695 4.69176C18.7695 2.10057 16.6689 0 14.0777 0H9.38477V31.2815H14.0777C16.6689 31.2815 18.7695 29.181 18.7695 26.5898V4.69176Z" fill="#D1A64F"/>
<path d="M9.38463 26.5898C10.2486 26.5898 10.9489 25.8894 10.9489 25.0255C10.9489 24.1615 10.2486 23.4612 9.38463 23.4612C8.52068 23.4612 7.82031 24.1615 7.82031 25.0255C7.82031 25.8894 8.52068 26.5898 9.38463 26.5898Z" fill="#141F38"/>
<path d="M10.9487 7.03758H7.82122C7.61378 7.03758 7.41483 6.95518 7.26815 6.80849C7.12147 6.66181 7.03906 6.46287 7.03906 6.25542C7.03906 6.04798 7.12147 5.84904 7.26815 5.70235C7.41483 5.55567 7.61378 5.47327 7.82122 5.47327H10.9487C11.1561 5.47327 11.355 5.55567 11.5017 5.70235C11.6484 5.84904 11.7308 6.04798 11.7308 6.25542C11.7308 6.46287 11.6484 6.66181 11.5017 6.80849C11.355 6.95518 11.1561 7.03758 10.9487 7.03758Z" fill="#141F38"/>
</g>
<g filter="url(#filter1_d_1742_22939)">
<path d="M50.7456 0H41.3597C38.7685 0 36.668 2.10057 36.668 4.69176V26.5898C36.668 29.181 38.7685 31.2815 41.3597 31.2815H50.7456C53.3368 31.2815 55.4374 29.181 55.4374 26.5898V4.69176C55.4374 2.10057 53.3368 0 50.7456 0Z" fill="#FF5F6E"/>
<path d="M55.4374 4.69176C55.4374 2.10057 53.3369 0 50.7457 0H46.0527V31.2815H50.7457C53.3369 31.2815 55.4374 29.181 55.4374 26.5898V4.69176Z" fill="#E14251"/>
<path d="M46.0526 26.5898C46.9165 26.5898 47.6169 25.8894 47.6169 25.0255C47.6169 24.1615 46.9165 23.4612 46.0526 23.4612C45.1886 23.4612 44.4883 24.1615 44.4883 25.0255C44.4883 25.8894 45.1886 26.5898 46.0526 26.5898Z" fill="#141F38"/>
<path d="M47.6147 7.03758H44.4872C44.2798 7.03758 44.0809 6.95518 43.9342 6.80849C43.7875 6.66181 43.7051 6.46287 43.7051 6.25542C43.7051 6.04798 43.7875 5.84904 43.9342 5.70235C44.0809 5.55567 44.2798 5.47327 44.4872 5.47327H47.6159C47.8233 5.47327 48.0223 5.55567 48.1689 5.70235C48.3156 5.84904 48.398 6.04798 48.398 6.25542C48.398 6.46287 48.3156 6.66181 48.1689 6.80849C48.0223 6.95518 47.8233 7.03758 47.6159 7.03758H47.6147Z" fill="#141F38"/>
</g>
<path d="M32.4098 13.2949H23.0263C22.8189 13.2949 22.6199 13.2125 22.4732 13.0658C22.3265 12.9191 22.2441 12.7202 22.2441 12.5127C22.2441 12.3053 22.3265 12.1063 22.4732 11.9597C22.6199 11.813 22.8189 11.7306 23.0263 11.7306H30.5226L28.7296 9.93751C28.657 9.86492 28.5994 9.77873 28.5601 9.68388C28.5208 9.58903 28.5006 9.48737 28.5006 9.3847C28.5006 9.28203 28.5208 9.18037 28.5601 9.08552C28.5994 8.99067 28.657 8.90448 28.7296 8.83189C28.8022 8.75929 28.8883 8.7017 28.9832 8.66242C29.078 8.62313 29.1797 8.60291 29.2824 8.60291C29.385 8.60291 29.4867 8.62313 29.5815 8.66242C29.6764 8.7017 29.7626 8.75929 29.8352 8.83189L32.9602 11.9593C33.07 12.0686 33.1449 12.208 33.1753 12.3598C33.2057 12.5117 33.1903 12.6691 33.1311 12.8122C33.0719 12.9553 32.9715 13.0776 32.8426 13.1635C32.7138 13.2495 32.5623 13.2952 32.4074 13.2949H32.4098Z" fill="#141F38"/>
<path d="M26.1542 21.1153C26.0516 21.1154 25.9499 21.0953 25.855 21.056C25.7601 21.0168 25.674 20.9592 25.6014 20.8865L22.4764 17.7579C22.3666 17.6486 22.2917 17.5092 22.2613 17.3574C22.2309 17.2055 22.2463 17.0481 22.3055 16.905C22.3647 16.7619 22.4652 16.6396 22.594 16.5536C22.7228 16.4677 22.8743 16.422 23.0292 16.4223H32.4139C32.6213 16.4223 32.8203 16.5047 32.967 16.6514C33.1136 16.7981 33.196 16.997 33.196 17.2045C33.196 17.4119 33.1136 17.6108 32.967 17.7575C32.8203 17.9042 32.6213 17.9866 32.4139 17.9866H24.914L26.707 19.7797C26.8168 19.8889 26.8917 20.0283 26.9221 20.1802C26.9525 20.332 26.9371 20.4895 26.8779 20.6326C26.8187 20.7757 26.7183 20.898 26.5894 20.9839C26.4606 21.0698 26.3091 21.1156 26.1542 21.1153Z" fill="#141F38"/>
<defs>
<filter id="filter0_d_1742_22939" x="0" y="0" width="20.7695" height="33.2816" filterUnits="userSpaceOnUse" color-interpolation-filters="sRGB">
<feFlood flood-opacity="0" result="BackgroundImageFix"/>
<feColorMatrix in="SourceAlpha" type="matrix" values="0 0 0 0 0 0 0 0 0 0 0 0 0 0 0 0 0 0 127 0" result="hardAlpha"/>
<feOffset dx="1" dy="1"/>
<feGaussianBlur stdDeviation="0.5"/>
<feComposite in2="hardAlpha" operator="out"/>
<feColorMatrix type="matrix" values="0 0 0 0 0 0 0 0 0 0 0 0 0 0 0 0 0 0 0.2 0"/>
<feBlend mode="normal" in2="BackgroundImageFix" result="effect1_dropShadow_1742_22939"/>
<feBlend mode="normal" in="SourceGraphic" in2="effect1_dropShadow_1742_22939" result="shape"/>
</filter>
<filter id="filter1_d_1742_22939" x="36.668" y="0" width="20.7695" height="33.2816" filterUnits="userSpaceOnUse" color-interpolation-filters="sRGB">
<feFlood flood-opacity="0" result="BackgroundImageFix"/>
<feColorMatrix in="SourceAlpha" type="matrix" values="0 0 0 0 0 0 0 0 0 0 0 0 0 0 0 0 0 0 127 0" result="hardAlpha"/>
<feOffset dx="1" dy="1"/>
<feGaussianBlur stdDeviation="0.5"/>
<feComposite in2="hardAlpha" operator="out"/>
<feColorMatrix type="matrix" values="0 0 0 0 0 0 0 0 0 0 0 0 0 0 0 0 0 0 0.2 0"/>
<feBlend mode="normal" in2="BackgroundImageFix" result="effect1_dropShadow_1742_22939"/>
<feBlend mode="normal" in="SourceGraphic" in2="effect1_dropShadow_1742_22939" result="shape"/>
</filter>
</defs>
</svg>
