<svg fill="none" height="338" viewBox="0 0 321 338" width="321" xmlns="http://www.w3.org/2000/svg">
    <path
        d="M38.6406 331H36.918L29.9131 320.207H29.8428C29.8604 320.494 29.8809 320.822 29.9043 321.191C29.9277 321.555 29.9453 321.944 29.957 322.36C29.9746 322.771 29.9834 323.189 29.9834 323.617V331H28.5947V318.15H30.3086L37.2871 328.908H37.3486C37.3369 328.703 37.3223 328.413 37.3047 328.038C37.2871 327.657 37.2695 327.25 37.252 326.816C37.2402 326.377 37.2344 325.97 37.2344 325.595V318.15H38.6406V331ZM50.2334 326.166C50.2334 326.957 50.1309 327.663 49.9258 328.284C49.7207 328.905 49.4248 329.43 49.0381 329.857C48.6514 330.285 48.1826 330.613 47.6318 330.842C47.0869 331.064 46.4688 331.176 45.7773 331.176C45.1328 331.176 44.541 331.064 44.002 330.842C43.4688 330.613 43.0059 330.285 42.6133 329.857C42.2266 329.43 41.9248 328.905 41.708 328.284C41.4971 327.663 41.3916 326.957 41.3916 326.166C41.3916 325.111 41.5703 324.215 41.9277 323.477C42.2852 322.732 42.7949 322.167 43.457 321.78C44.125 321.388 44.9189 321.191 45.8389 321.191C46.7178 321.191 47.4854 321.388 48.1416 321.78C48.8037 322.173 49.3164 322.741 49.6797 323.485C50.0488 324.224 50.2334 325.117 50.2334 326.166ZM42.9033 326.166C42.9033 326.939 43.0059 327.61 43.2109 328.179C43.416 328.747 43.7324 329.187 44.1602 329.497C44.5879 329.808 45.1387 329.963 45.8125 329.963C46.4805 329.963 47.0283 329.808 47.4561 329.497C47.8896 329.187 48.209 328.747 48.4141 328.179C48.6191 327.61 48.7217 326.939 48.7217 326.166C48.7217 325.398 48.6191 324.736 48.4141 324.18C48.209 323.617 47.8926 323.184 47.4648 322.879C47.0371 322.574 46.4834 322.422 45.8037 322.422C44.8018 322.422 44.0664 322.753 43.5977 323.415C43.1348 324.077 42.9033 324.994 42.9033 326.166ZM65.7373 326.166C65.7373 326.957 65.6348 327.663 65.4297 328.284C65.2246 328.905 64.9287 329.43 64.542 329.857C64.1553 330.285 63.6865 330.613 63.1357 330.842C62.5908 331.064 61.9727 331.176 61.2812 331.176C60.6367 331.176 60.0449 331.064 59.5059 330.842C58.9727 330.613 58.5098 330.285 58.1172 329.857C57.7305 329.43 57.4287 328.905 57.2119 328.284C57.001 327.663 56.8955 326.957 56.8955 326.166C56.8955 325.111 57.0742 324.215 57.4316 323.477C57.7891 322.732 58.2988 322.167 58.9609 321.78C59.6289 321.388 60.4229 321.191 61.3428 321.191C62.2217 321.191 62.9893 321.388 63.6455 321.78C64.3076 322.173 64.8203 322.741 65.1836 323.485C65.5527 324.224 65.7373 325.117 65.7373 326.166ZM58.4072 326.166C58.4072 326.939 58.5098 327.61 58.7148 328.179C58.9199 328.747 59.2363 329.187 59.6641 329.497C60.0918 329.808 60.6426 329.963 61.3164 329.963C61.9844 329.963 62.5322 329.808 62.96 329.497C63.3936 329.187 63.7129 328.747 63.918 328.179C64.123 327.61 64.2256 326.939 64.2256 326.166C64.2256 325.398 64.123 324.736 63.918 324.18C63.7129 323.617 63.3965 323.184 62.9688 322.879C62.541 322.574 61.9873 322.422 61.3076 322.422C60.3057 322.422 59.5703 322.753 59.1016 323.415C58.6387 324.077 58.4072 324.994 58.4072 326.166ZM72.6367 321.191C72.8301 321.191 73.0322 321.203 73.2432 321.227C73.4541 321.244 73.6416 321.271 73.8057 321.306L73.6211 322.659C73.4629 322.618 73.2871 322.586 73.0938 322.562C72.9004 322.539 72.7188 322.527 72.5488 322.527C72.1621 322.527 71.7959 322.606 71.4502 322.765C71.1104 322.917 70.8115 323.14 70.5537 323.433C70.2959 323.72 70.0938 324.068 69.9473 324.479C69.8008 324.883 69.7275 325.334 69.7275 325.832V331H68.2598V321.367H69.4727L69.6309 323.143H69.6924C69.8916 322.785 70.1318 322.46 70.4131 322.167C70.6943 321.868 71.0195 321.631 71.3887 321.455C71.7637 321.279 72.1797 321.191 72.6367 321.191ZM79.0527 331.176C77.834 331.176 76.8672 330.76 76.1523 329.928C75.4434 329.096 75.0889 327.859 75.0889 326.219C75.0889 324.561 75.4521 323.31 76.1787 322.466C76.9053 321.616 77.8721 321.191 79.0791 321.191C79.5889 321.191 80.0342 321.259 80.415 321.394C80.7959 321.528 81.124 321.71 81.3994 321.938C81.6748 322.161 81.9062 322.416 82.0938 322.703H82.1992C82.1758 322.521 82.1523 322.272 82.1289 321.956C82.1055 321.64 82.0938 321.382 82.0938 321.183V317.324H83.5527V331H82.375L82.1553 329.629H82.0938C81.9121 329.916 81.6807 330.177 81.3994 330.411C81.124 330.646 80.793 330.833 80.4062 330.974C80.0254 331.108 79.5742 331.176 79.0527 331.176ZM79.2812 329.963C80.3125 329.963 81.042 329.67 81.4697 329.084C81.8975 328.498 82.1113 327.628 82.1113 326.474V326.21C82.1113 324.985 81.9062 324.045 81.4961 323.389C81.0918 322.732 80.3535 322.404 79.2812 322.404C78.3848 322.404 77.7139 322.75 77.2686 323.441C76.8232 324.127 76.6006 325.064 76.6006 326.254C76.6006 327.438 76.8203 328.352 77.2598 328.996C77.7051 329.641 78.3789 329.963 79.2812 329.963ZM90.3555 321.191C91.1758 321.191 91.8789 321.373 92.4648 321.736C93.0508 322.1 93.499 322.609 93.8096 323.266C94.1201 323.916 94.2754 324.678 94.2754 325.551V326.456H87.6221C87.6396 327.587 87.9209 328.448 88.4658 329.04C89.0107 329.632 89.7783 329.928 90.7686 329.928C91.3779 329.928 91.917 329.872 92.3857 329.761C92.8545 329.649 93.3408 329.485 93.8447 329.269V330.552C93.3584 330.769 92.875 330.927 92.3945 331.026C91.9199 331.126 91.3574 331.176 90.707 331.176C89.7812 331.176 88.9727 330.988 88.2812 330.613C87.5957 330.232 87.0625 329.676 86.6816 328.943C86.3008 328.211 86.1104 327.314 86.1104 326.254C86.1104 325.217 86.2832 324.32 86.6289 323.564C86.9805 322.803 87.4727 322.217 88.1055 321.807C88.7441 321.396 89.4941 321.191 90.3555 321.191ZM90.3379 322.387C89.5586 322.387 88.9375 322.642 88.4746 323.151C88.0117 323.661 87.7363 324.373 87.6484 325.287H92.7461C92.7402 324.713 92.6494 324.209 92.4736 323.775C92.3037 323.336 92.043 322.996 91.6914 322.756C91.3398 322.51 90.8887 322.387 90.3379 322.387ZM101.131 321.191C101.324 321.191 101.526 321.203 101.737 321.227C101.948 321.244 102.136 321.271 102.3 321.306L102.115 322.659C101.957 322.618 101.781 322.586 101.588 322.562C101.395 322.539 101.213 322.527 101.043 322.527C100.656 322.527 100.29 322.606 99.9443 322.765C99.6045 322.917 99.3057 323.14 99.0479 323.433C98.79 323.72 98.5879 324.068 98.4414 324.479C98.2949 324.883 98.2217 325.334 98.2217 325.832V331H96.7539V321.367H97.9668L98.125 323.143H98.1865C98.3857 322.785 98.626 322.46 98.9072 322.167C99.1885 321.868 99.5137 321.631 99.8828 321.455C100.258 321.279 100.674 321.191 101.131 321.191ZM110.351 328.363C110.351 328.979 110.195 329.497 109.885 329.919C109.58 330.335 109.141 330.648 108.566 330.859C107.998 331.07 107.318 331.176 106.527 331.176C105.854 331.176 105.271 331.123 104.778 331.018C104.286 330.912 103.855 330.763 103.486 330.569V329.225C103.879 329.418 104.348 329.594 104.893 329.752C105.438 329.91 105.994 329.989 106.562 329.989C107.395 329.989 107.998 329.854 108.373 329.585C108.748 329.315 108.936 328.949 108.936 328.486C108.936 328.223 108.859 327.991 108.707 327.792C108.561 327.587 108.312 327.391 107.96 327.203C107.608 327.01 107.122 326.799 106.501 326.57C105.886 326.336 105.353 326.104 104.901 325.876C104.456 325.642 104.11 325.357 103.864 325.023C103.624 324.689 103.504 324.256 103.504 323.723C103.504 322.908 103.832 322.284 104.488 321.851C105.15 321.411 106.018 321.191 107.09 321.191C107.67 321.191 108.212 321.25 108.716 321.367C109.226 321.479 109.7 321.631 110.14 321.824L109.647 322.993C109.249 322.823 108.824 322.68 108.373 322.562C107.922 322.445 107.462 322.387 106.993 322.387C106.319 322.387 105.801 322.498 105.438 322.721C105.08 322.943 104.901 323.248 104.901 323.635C104.901 323.934 104.983 324.18 105.147 324.373C105.317 324.566 105.587 324.748 105.956 324.918C106.325 325.088 106.812 325.287 107.415 325.516C108.019 325.738 108.54 325.97 108.979 326.21C109.419 326.444 109.756 326.731 109.99 327.071C110.23 327.405 110.351 327.836 110.351 328.363ZM118.832 317.324V321.411C118.832 321.646 118.826 321.883 118.814 322.123C118.803 322.357 118.782 322.574 118.753 322.773H118.85C119.049 322.434 119.301 322.149 119.605 321.921C119.916 321.687 120.268 321.511 120.66 321.394C121.053 321.271 121.469 321.209 121.908 321.209C122.682 321.209 123.326 321.332 123.842 321.578C124.363 321.824 124.753 322.205 125.011 322.721C125.274 323.236 125.406 323.904 125.406 324.725V331H123.965V324.821C123.965 324.019 123.78 323.418 123.411 323.02C123.048 322.621 122.488 322.422 121.732 322.422C121.018 322.422 120.446 322.56 120.019 322.835C119.597 323.104 119.292 323.503 119.104 324.03C118.923 324.558 118.832 325.202 118.832 325.964V331H117.373V317.324H118.832ZM132.016 321.209C133.164 321.209 134.017 321.467 134.573 321.982C135.13 322.498 135.408 323.321 135.408 324.452V331H134.345L134.063 329.576H133.993C133.724 329.928 133.442 330.224 133.149 330.464C132.856 330.698 132.517 330.877 132.13 331C131.749 331.117 131.28 331.176 130.724 331.176C130.138 331.176 129.616 331.073 129.159 330.868C128.708 330.663 128.351 330.353 128.087 329.937C127.829 329.521 127.7 328.993 127.7 328.354C127.7 327.394 128.081 326.655 128.843 326.14C129.604 325.624 130.765 325.343 132.323 325.296L133.984 325.226V324.637C133.984 323.805 133.806 323.222 133.448 322.888C133.091 322.554 132.587 322.387 131.937 322.387C131.433 322.387 130.952 322.46 130.495 322.606C130.038 322.753 129.604 322.926 129.194 323.125L128.746 322.018C129.18 321.795 129.678 321.604 130.24 321.446C130.803 321.288 131.395 321.209 132.016 321.209ZM133.967 326.254L132.499 326.315C131.298 326.362 130.451 326.559 129.959 326.904C129.467 327.25 129.221 327.739 129.221 328.372C129.221 328.923 129.388 329.33 129.722 329.594C130.056 329.857 130.498 329.989 131.049 329.989C131.904 329.989 132.604 329.752 133.149 329.277C133.694 328.803 133.967 328.091 133.967 327.142V326.254ZM140.532 331L136.876 321.367H138.44L140.559 327.194C140.705 327.593 140.854 328.032 141.007 328.513C141.159 328.993 141.265 329.38 141.323 329.673H141.385C141.455 329.38 141.572 328.993 141.736 328.513C141.9 328.026 142.05 327.587 142.185 327.194L144.303 321.367H145.867L142.202 331H140.532ZM151.123 321.191C151.943 321.191 152.646 321.373 153.232 321.736C153.818 322.1 154.267 322.609 154.577 323.266C154.888 323.916 155.043 324.678 155.043 325.551V326.456H148.39C148.407 327.587 148.688 328.448 149.233 329.04C149.778 329.632 150.546 329.928 151.536 329.928C152.146 329.928 152.685 329.872 153.153 329.761C153.622 329.649 154.108 329.485 154.612 329.269V330.552C154.126 330.769 153.643 330.927 153.162 331.026C152.688 331.126 152.125 331.176 151.475 331.176C150.549 331.176 149.74 330.988 149.049 330.613C148.363 330.232 147.83 329.676 147.449 328.943C147.068 328.211 146.878 327.314 146.878 326.254C146.878 325.217 147.051 324.32 147.396 323.564C147.748 322.803 148.24 322.217 148.873 321.807C149.512 321.396 150.262 321.191 151.123 321.191ZM151.105 322.387C150.326 322.387 149.705 322.642 149.242 323.151C148.779 323.661 148.504 324.373 148.416 325.287H153.514C153.508 324.713 153.417 324.209 153.241 323.775C153.071 323.336 152.811 322.996 152.459 322.756C152.107 322.51 151.656 322.387 151.105 322.387ZM163.656 317.324V320.743C163.656 321.136 163.645 321.517 163.621 321.886C163.604 322.255 163.589 322.542 163.577 322.747H163.656C163.92 322.313 164.301 321.947 164.799 321.648C165.297 321.35 165.933 321.2 166.706 321.2C167.913 321.2 168.874 321.619 169.589 322.457C170.31 323.289 170.67 324.528 170.67 326.175C170.67 327.259 170.506 328.173 170.178 328.917C169.85 329.661 169.387 330.224 168.789 330.604C168.191 330.985 167.485 331.176 166.671 331.176C165.909 331.176 165.282 331.035 164.79 330.754C164.304 330.467 163.929 330.118 163.665 329.708H163.551L163.252 331H162.197V317.324H163.656ZM166.469 322.422C165.771 322.422 165.218 322.56 164.808 322.835C164.397 323.104 164.102 323.515 163.92 324.065C163.744 324.61 163.656 325.302 163.656 326.14V326.219C163.656 327.432 163.858 328.36 164.263 329.005C164.667 329.644 165.402 329.963 166.469 329.963C167.365 329.963 168.036 329.635 168.481 328.979C168.933 328.322 169.158 327.385 169.158 326.166C169.158 324.924 168.936 323.989 168.49 323.362C168.051 322.735 167.377 322.422 166.469 322.422ZM176.928 321.191C177.748 321.191 178.451 321.373 179.037 321.736C179.623 322.1 180.071 322.609 180.382 323.266C180.692 323.916 180.848 324.678 180.848 325.551V326.456H174.194C174.212 327.587 174.493 328.448 175.038 329.04C175.583 329.632 176.351 329.928 177.341 329.928C177.95 329.928 178.489 329.872 178.958 329.761C179.427 329.649 179.913 329.485 180.417 329.269V330.552C179.931 330.769 179.447 330.927 178.967 331.026C178.492 331.126 177.93 331.176 177.279 331.176C176.354 331.176 175.545 330.988 174.854 330.613C174.168 330.232 173.635 329.676 173.254 328.943C172.873 328.211 172.683 327.314 172.683 326.254C172.683 325.217 172.855 324.32 173.201 323.564C173.553 322.803 174.045 322.217 174.678 321.807C175.316 321.396 176.066 321.191 176.928 321.191ZM176.91 322.387C176.131 322.387 175.51 322.642 175.047 323.151C174.584 323.661 174.309 324.373 174.221 325.287H179.318C179.312 324.713 179.222 324.209 179.046 323.775C178.876 323.336 178.615 322.996 178.264 322.756C177.912 322.51 177.461 322.387 176.91 322.387ZM187.035 321.191C187.855 321.191 188.559 321.373 189.145 321.736C189.73 322.1 190.179 322.609 190.489 323.266C190.8 323.916 190.955 324.678 190.955 325.551V326.456H184.302C184.319 327.587 184.601 328.448 185.146 329.04C185.69 329.632 186.458 329.928 187.448 329.928C188.058 329.928 188.597 329.872 189.065 329.761C189.534 329.649 190.021 329.485 190.524 329.269V330.552C190.038 330.769 189.555 330.927 189.074 331.026C188.6 331.126 188.037 331.176 187.387 331.176C186.461 331.176 185.652 330.988 184.961 330.613C184.275 330.232 183.742 329.676 183.361 328.943C182.98 328.211 182.79 327.314 182.79 326.254C182.79 325.217 182.963 324.32 183.309 323.564C183.66 322.803 184.152 322.217 184.785 321.807C185.424 321.396 186.174 321.191 187.035 321.191ZM187.018 322.387C186.238 322.387 185.617 322.642 185.154 323.151C184.691 323.661 184.416 324.373 184.328 325.287H189.426C189.42 324.713 189.329 324.209 189.153 323.775C188.983 323.336 188.723 322.996 188.371 322.756C188.02 322.51 187.568 322.387 187.018 322.387ZM197.995 321.191C199.138 321.191 200.002 321.473 200.588 322.035C201.174 322.592 201.467 323.488 201.467 324.725V331H200.025V324.821C200.025 324.019 199.841 323.418 199.472 323.02C199.108 322.621 198.549 322.422 197.793 322.422C196.727 322.422 195.977 322.724 195.543 323.327C195.109 323.931 194.893 324.807 194.893 325.955V331H193.434V321.367H194.611L194.831 322.756H194.91C195.115 322.416 195.376 322.132 195.692 321.903C196.009 321.669 196.363 321.493 196.756 321.376C197.148 321.253 197.562 321.191 197.995 321.191ZM213.675 321.191C214.876 321.191 215.834 321.604 216.549 322.431C217.264 323.257 217.621 324.499 217.621 326.157C217.621 327.253 217.457 328.173 217.129 328.917C216.801 329.661 216.338 330.224 215.74 330.604C215.148 330.985 214.448 331.176 213.64 331.176C213.13 331.176 212.682 331.108 212.295 330.974C211.908 330.839 211.577 330.657 211.302 330.429C211.026 330.2 210.798 329.951 210.616 329.682H210.511C210.528 329.91 210.549 330.186 210.572 330.508C210.602 330.83 210.616 331.111 210.616 331.352V335.307H209.148V321.367H210.353L210.546 322.791H210.616C210.804 322.498 211.032 322.231 211.302 321.991C211.571 321.745 211.899 321.552 212.286 321.411C212.679 321.265 213.142 321.191 213.675 321.191ZM213.42 322.422C212.752 322.422 212.213 322.551 211.803 322.809C211.398 323.066 211.103 323.453 210.915 323.969C210.728 324.479 210.628 325.12 210.616 325.894V326.175C210.616 326.989 210.704 327.678 210.88 328.24C211.062 328.803 211.357 329.23 211.768 329.523C212.184 329.816 212.74 329.963 213.438 329.963C214.035 329.963 214.533 329.802 214.932 329.479C215.33 329.157 215.626 328.709 215.819 328.135C216.019 327.555 216.118 326.89 216.118 326.14C216.118 325.003 215.896 324.101 215.45 323.433C215.011 322.759 214.334 322.422 213.42 322.422ZM221.638 331H220.17V317.324H221.638V331ZM228.326 321.209C229.475 321.209 230.327 321.467 230.884 321.982C231.44 322.498 231.719 323.321 231.719 324.452V331H230.655L230.374 329.576H230.304C230.034 329.928 229.753 330.224 229.46 330.464C229.167 330.698 228.827 330.877 228.44 331C228.06 331.117 227.591 331.176 227.034 331.176C226.448 331.176 225.927 331.073 225.47 330.868C225.019 330.663 224.661 330.353 224.397 329.937C224.14 329.521 224.011 328.993 224.011 328.354C224.011 327.394 224.392 326.655 225.153 326.14C225.915 325.624 227.075 325.343 228.634 325.296L230.295 325.226V324.637C230.295 323.805 230.116 323.222 229.759 322.888C229.401 322.554 228.897 322.387 228.247 322.387C227.743 322.387 227.263 322.46 226.806 322.606C226.349 322.753 225.915 322.926 225.505 323.125L225.057 322.018C225.49 321.795 225.988 321.604 226.551 321.446C227.113 321.288 227.705 321.209 228.326 321.209ZM230.277 326.254L228.81 326.315C227.608 326.362 226.762 326.559 226.27 326.904C225.777 327.25 225.531 327.739 225.531 328.372C225.531 328.923 225.698 329.33 226.032 329.594C226.366 329.857 226.809 329.989 227.359 329.989C228.215 329.989 228.915 329.752 229.46 329.277C230.005 328.803 230.277 328.091 230.277 327.142V326.254ZM238.583 331.176C237.716 331.176 236.951 330.997 236.289 330.64C235.627 330.282 235.111 329.737 234.742 329.005C234.373 328.272 234.188 327.35 234.188 326.236C234.188 325.07 234.382 324.118 234.769 323.38C235.161 322.636 235.7 322.085 236.386 321.728C237.071 321.37 237.851 321.191 238.724 321.191C239.204 321.191 239.667 321.241 240.112 321.341C240.563 321.435 240.933 321.555 241.22 321.701L240.78 322.923C240.487 322.806 240.147 322.7 239.761 322.606C239.38 322.513 239.022 322.466 238.688 322.466C238.021 322.466 237.464 322.609 237.019 322.896C236.579 323.184 236.248 323.605 236.025 324.162C235.809 324.719 235.7 325.404 235.7 326.219C235.7 326.998 235.806 327.663 236.017 328.214C236.233 328.765 236.553 329.187 236.975 329.479C237.402 329.767 237.936 329.91 238.574 329.91C239.084 329.91 239.544 329.857 239.954 329.752C240.364 329.641 240.736 329.512 241.07 329.365V330.666C240.748 330.83 240.388 330.956 239.989 331.044C239.597 331.132 239.128 331.176 238.583 331.176ZM247.064 321.191C247.885 321.191 248.588 321.373 249.174 321.736C249.76 322.1 250.208 322.609 250.519 323.266C250.829 323.916 250.984 324.678 250.984 325.551V326.456H244.331C244.349 327.587 244.63 328.448 245.175 329.04C245.72 329.632 246.487 329.928 247.478 329.928C248.087 329.928 248.626 329.872 249.095 329.761C249.563 329.649 250.05 329.485 250.554 329.269V330.552C250.067 330.769 249.584 330.927 249.104 331.026C248.629 331.126 248.066 331.176 247.416 331.176C246.49 331.176 245.682 330.988 244.99 330.613C244.305 330.232 243.771 329.676 243.391 328.943C243.01 328.211 242.819 327.314 242.819 326.254C242.819 325.217 242.992 324.32 243.338 323.564C243.689 322.803 244.182 322.217 244.814 321.807C245.453 321.396 246.203 321.191 247.064 321.191ZM247.047 322.387C246.268 322.387 245.646 322.642 245.184 323.151C244.721 323.661 244.445 324.373 244.357 325.287H249.455C249.449 324.713 249.358 324.209 249.183 323.775C249.013 323.336 248.752 322.996 248.4 322.756C248.049 322.51 247.598 322.387 247.047 322.387ZM256.891 331.176C255.672 331.176 254.705 330.76 253.99 329.928C253.281 329.096 252.927 327.859 252.927 326.219C252.927 324.561 253.29 323.31 254.017 322.466C254.743 321.616 255.71 321.191 256.917 321.191C257.427 321.191 257.872 321.259 258.253 321.394C258.634 321.528 258.962 321.71 259.237 321.938C259.513 322.161 259.744 322.416 259.932 322.703H260.037C260.014 322.521 259.99 322.272 259.967 321.956C259.943 321.64 259.932 321.382 259.932 321.183V317.324H261.391V331H260.213L259.993 329.629H259.932C259.75 329.916 259.519 330.177 259.237 330.411C258.962 330.646 258.631 330.833 258.244 330.974C257.863 331.108 257.412 331.176 256.891 331.176ZM257.119 329.963C258.15 329.963 258.88 329.67 259.308 329.084C259.735 328.498 259.949 327.628 259.949 326.474V326.21C259.949 324.985 259.744 324.045 259.334 323.389C258.93 322.732 258.191 322.404 257.119 322.404C256.223 322.404 255.552 322.75 255.106 323.441C254.661 324.127 254.438 325.064 254.438 326.254C254.438 327.438 254.658 328.352 255.098 328.996C255.543 329.641 256.217 329.963 257.119 329.963ZM267.64 321.367H269.204L271.331 326.957C271.454 327.285 271.568 327.602 271.674 327.906C271.779 328.205 271.873 328.492 271.955 328.768C272.037 329.043 272.102 329.31 272.148 329.567H272.21C272.292 329.274 272.409 328.891 272.562 328.416C272.714 327.936 272.878 327.446 273.054 326.948L275.066 321.367H276.64L272.447 332.415C272.225 333.007 271.964 333.522 271.665 333.962C271.372 334.401 271.015 334.738 270.593 334.973C270.171 335.213 269.661 335.333 269.063 335.333C268.788 335.333 268.545 335.315 268.334 335.28C268.123 335.251 267.941 335.216 267.789 335.175V334.006C267.918 334.035 268.073 334.062 268.255 334.085C268.442 334.108 268.636 334.12 268.835 334.12C269.198 334.12 269.512 334.05 269.775 333.909C270.045 333.774 270.276 333.575 270.47 333.312C270.663 333.048 270.83 332.734 270.971 332.371L271.498 331.018L267.64 321.367ZM281.887 321.191C282.707 321.191 283.41 321.373 283.996 321.736C284.582 322.1 285.03 322.609 285.341 323.266C285.651 323.916 285.807 324.678 285.807 325.551V326.456H279.153C279.171 327.587 279.452 328.448 279.997 329.04C280.542 329.632 281.31 329.928 282.3 329.928C282.909 329.928 283.448 329.872 283.917 329.761C284.386 329.649 284.872 329.485 285.376 329.269V330.552C284.89 330.769 284.406 330.927 283.926 331.026C283.451 331.126 282.889 331.176 282.238 331.176C281.312 331.176 280.504 330.988 279.812 330.613C279.127 330.232 278.594 329.676 278.213 328.943C277.832 328.211 277.642 327.314 277.642 326.254C277.642 325.217 277.814 324.32 278.16 323.564C278.512 322.803 279.004 322.217 279.637 321.807C280.275 321.396 281.025 321.191 281.887 321.191ZM281.869 322.387C281.09 322.387 280.469 322.642 280.006 323.151C279.543 323.661 279.268 324.373 279.18 325.287H284.277C284.271 324.713 284.181 324.209 284.005 323.775C283.835 323.336 283.574 322.996 283.223 322.756C282.871 322.51 282.42 322.387 281.869 322.387ZM291.396 329.98C291.637 329.98 291.883 329.96 292.135 329.919C292.387 329.878 292.592 329.828 292.75 329.77V330.903C292.58 330.979 292.343 331.044 292.038 331.097C291.739 331.149 291.446 331.176 291.159 331.176C290.649 331.176 290.187 331.088 289.771 330.912C289.354 330.73 289.021 330.426 288.769 329.998C288.522 329.57 288.399 328.979 288.399 328.223V322.51H287.028V321.798L288.408 321.227L288.988 319.135H289.867V321.367H292.688V322.51H289.867V328.179C289.867 328.782 290.005 329.233 290.28 329.532C290.562 329.831 290.934 329.98 291.396 329.98Z"
        fill="white" fill-opacity="0.8" />
    <g clip-path="url(#clip0_1375_20892)">
        <path
            d="M14.9158 255.376C19.3684 263.634 28.8184 267.179 28.8184 267.179C28.8184 267.179 31.0493 257.335 26.5967 249.076C22.1441 240.818 12.6941 237.273 12.6941 237.273C12.6941 237.273 10.4632 247.117 14.9158 255.376Z"
            fill="#2F2E41" />
        <path
            d="M17.9762 252.659C26.0149 257.496 29.1109 267.103 29.1109 267.103C29.1109 267.103 19.1735 268.868 11.1347 264.032C3.09598 259.195 0 249.587 0 249.587C0 249.587 9.93742 247.822 17.9762 252.659Z"
            fill="#F8D848" />
        <path d="M209.671 40.8135H208.954V47.4421H209.671V40.8135Z" fill="#F2F2F2" />
        <path d="M254.453 56.937H253.736V63.5656H254.453V56.937Z" fill="#F2F2F2" />
        <path d="M249.437 223.189H248.721V229.818H249.437V223.189Z" fill="#F2F2F2" />
        <path d="M259.827 168.369H259.11V174.998H259.827V168.369Z" fill="#F2F2F2" />
        <path
            d="M129.711 251.594H44.8806V250.984H129.101V221.381H52.0121L48.2672 213.578L48.8175 213.314L52.3962 220.77H129.711V251.594Z"
            fill="#2F2E41" />
        <path
            d="M56.1708 266.548C59.7099 266.548 62.5789 263.679 62.5789 260.139C62.5789 256.6 59.7099 253.73 56.1708 253.73C52.6317 253.73 49.7627 256.6 49.7627 260.139C49.7627 263.679 52.6317 266.548 56.1708 266.548Z"
            fill="#3F3D56" />
        <path
            d="M119.336 266.548C122.875 266.548 125.744 263.679 125.744 260.139C125.744 256.6 122.875 253.73 119.336 253.73C115.797 253.73 112.928 256.6 112.928 260.139C112.928 263.679 115.797 266.548 119.336 266.548Z"
            fill="#3F3D56" />
        <path
            d="M138.784 211.31H43.4343L22.8027 143.865H160.032L159.907 144.261L138.784 211.31ZM43.8857 210.7H138.337L159.2 144.475H23.6276L43.8857 210.7Z"
            fill="#2F2E41" />
        <path d="M133.801 208H47.6427L29 148H153L152.887 148.353L133.801 208Z" fill="#F2F2F2" />
        <path
            d="M159.741 144.839L159.151 144.682L163.179 129.501H186.605V130.112H163.648L159.741 144.839Z"
            fill="#2F2E41" />
        <path d="M153.174 164.312H29.4697V164.922H153.174V164.312Z" fill="#2F2E41" />
        <path d="M146.09 186.799H36.3486V187.409H146.09V186.799Z" fill="#2F2E41" />
        <path d="M91.7204 144.17H91.1101V211.005H91.7204V144.17Z" fill="#2F2E41" />
        <path d="M119.044 144.15L114.664 210.984L115.273 211.024L119.654 144.19L119.044 144.15Z"
            fill="#2F2E41" />
        <path d="M63.799 144.15L63.1899 144.189L67.5454 211.025L68.1545 210.985L63.799 144.15Z"
            fill="#2F2E41" />
        <path
            d="M213.311 22.1702C213.311 22.1702 218.548 37.0778 215.326 39.3713C212.103 41.6648 226.203 60.3949 226.203 60.3949L243.123 55.8079L233.857 40.1358C233.857 40.1358 232.649 24.4637 232.649 22.1702C232.649 19.8767 213.311 22.1702 213.311 22.1702Z"
            fill="#A0616A" />
        <path
            d="M213.311 22.1702C213.311 22.1702 218.548 37.0778 215.326 39.3713C212.103 41.6648 226.203 60.3949 226.203 60.3949L243.123 55.8079L233.857 40.1358C233.857 40.1358 232.649 24.4637 232.649 22.1702C232.649 19.8767 213.311 22.1702 213.311 22.1702Z"
            fill="black" opacity="0.1" />
        <path
            d="M218.28 244.638V250.754C218.28 250.754 211.4 267.379 218.28 267.379C225.159 267.379 230.51 269.102 230.51 266.808V246.167L218.28 244.638Z"
            fill="#242331" />
        <path
            d="M263.379 244.627V250.743C263.379 250.743 270.259 267.368 263.379 267.368C256.5 267.368 251.149 269.091 251.149 266.798V246.156L263.379 244.627Z"
            fill="#242331" />
        <path
            d="M204.521 128.435C204.521 128.435 202.992 147.547 204.521 157.486C206.049 167.424 208.343 194.946 208.343 194.946C208.343 194.946 208.343 246.931 216.751 247.696C225.159 248.46 231.275 249.225 232.039 246.167C232.803 243.109 228.217 241.58 230.51 240.051C232.803 238.522 233.568 233.171 230.51 227.055C227.453 220.939 230.51 159.015 230.51 159.015L245.034 198.004C245.034 198.004 246.563 230.113 248.091 234.7C249.62 239.287 246.563 247.696 251.913 248.46C257.264 249.225 263.379 244.638 266.437 243.109C269.495 241.58 261.851 241.58 263.379 240.815C264.908 240.051 269.495 237.757 267.966 236.993C266.437 236.229 264.908 199.533 264.908 199.533C264.908 199.533 260.704 121.172 255.353 118.114C250.002 115.056 246.563 120.323 246.563 120.323L204.521 128.435Z"
            fill="#2F2E41" />
        <path
            d="M224.013 33.2554C231.612 33.2554 237.772 27.0945 237.772 19.4945C237.772 11.8946 231.612 5.73364 224.013 5.73364C216.414 5.73364 210.254 11.8946 210.254 19.4945C210.254 27.0945 216.414 33.2554 224.013 33.2554Z"
            fill="#A0616A" />
        <path
            d="M219.809 45.1052C219.809 45.1052 223.631 56.5726 229.746 54.2791L235.861 51.9857L246.563 125.377C246.563 125.377 238.154 137.609 225.924 129.964C213.693 122.319 219.809 45.1052 219.809 45.1052Z"
            fill="#F8D848" />
        <path
            d="M230.51 42.8118L233.95 35.5491C233.95 35.5491 254.207 45.1052 257.264 48.1632C260.322 51.2212 260.322 55.8082 260.322 55.8082L254.971 74.9205C254.971 74.9205 256.5 116.968 256.5 118.497C256.5 120.026 261.851 128.435 258.029 125.377C254.207 122.319 253.442 119.261 250.385 123.848C247.327 128.435 240.447 133.787 240.447 133.787L230.51 42.8118Z"
            fill="#3F3D56" />
        <path
            d="M257.264 97.8552L254.971 119.261C254.971 119.261 241.212 131.493 244.27 132.257C247.327 133.022 248.856 129.964 248.856 129.964C248.856 129.964 254.207 135.315 257.264 132.257C260.322 129.199 267.966 100.149 267.966 100.149L257.264 97.8552Z"
            fill="#A0616A" />
        <path
            d="M224.306 0.0465331C221.256 -0.0625234 217.991 -0.11647 215.42 1.52747C214.236 2.3525 213.199 3.36859 212.349 4.53418C209.844 7.70102 207.68 11.6856 208.61 15.6148L209.691 15.1933C209.691 16.2421 209.457 17.2778 209.008 18.2255C209.16 17.7829 209.67 18.4983 209.533 18.946L208.343 22.8517C210.3 22.1343 212.734 23.5869 213.032 25.6499C213.168 21.1134 213.639 15.9114 217.318 13.2551C219.174 11.9155 221.522 11.5066 223.782 11.1434C225.866 10.8084 228.051 10.4889 230.048 11.1753C232.045 11.8616 233.745 13.9037 233.292 15.9661C234.213 15.6489 235.242 16.2906 235.697 17.1516C236.152 18.0125 236.176 19.0282 236.19 20.0019C237.171 20.6955 238.288 19.3182 238.688 18.1849C239.627 15.5247 240.461 12.693 239.955 9.91777C239.45 7.1425 237.188 4.4903 234.368 4.48089C234.71 4.10479 234.893 3.61025 234.877 3.10188L232.552 2.90542C233.142 2.82184 233.685 2.53563 234.088 2.09582C233.154 3.12305 225.815 0.100497 224.306 0.0465331Z"
            fill="#2F2E41" />
        <path
            d="M223.631 40.5181C223.631 40.5181 217.408 34.4195 215.168 34.7931C212.929 35.1667 209.871 40.5181 209.871 40.5181C209.871 40.5181 191.526 46.6341 192.29 52.75C193.054 58.866 201.463 88.6812 201.463 88.6812C201.463 88.6812 208.342 124.612 202.227 128.435C196.112 132.257 231.275 142.196 232.039 137.609C232.803 133.022 234.332 87.1523 232.039 80.2718C229.746 73.3914 223.631 40.5181 223.631 40.5181Z"
            fill="#3F3D56" />
        <path
            d="M250.385 52.75H259.837C259.837 52.75 266.437 81.8008 267.202 84.8587C267.966 87.9167 269.495 102.442 268.73 102.442C267.966 102.442 252.678 99.3841 252.678 101.678L250.385 52.75Z"
            fill="#3F3D56" />
        <path
            d="M250.065 124.689H213.881C210.35 108.444 210.055 92.7479 213.881 77.7517H250.065C244.225 92.4782 243.861 108.067 250.065 124.689Z"
            fill="#F2F2F2" />
        <path
            d="M199.17 104.736L209.871 109.323C209.871 109.323 230.51 112.381 230.51 103.971C230.51 95.5618 209.871 100.149 209.871 100.149L202.991 97.9487L199.17 104.736Z"
            fill="#A0616A" />
        <path d="M321 268H0V268.717H321V268Z" fill="#3D3C54" />
        <path
            d="M201.463 48.1631L192.29 50.4566L185.411 90.9747C185.411 90.9747 183.117 101.678 186.939 102.442C190.761 103.207 201.463 109.323 201.463 109.323C201.463 109.323 202.992 97.8552 206.049 97.8552L198.405 91.7392L202.992 64.982L201.463 48.1631Z"
            fill="#3F3D56" />
        <path
            d="M189.967 133.935C192.158 133.935 193.934 132.159 193.934 129.967C193.934 127.776 192.158 126 189.967 126C187.776 126 186 127.776 186 129.967C186 132.159 187.776 133.935 189.967 133.935Z"
            fill="#3F3D56" />
    </g>
    <defs>
        <clipPath id="clip0_1375_20892">
            <rect fill="white" height="269" width="321" />
        </clipPath>
    </defs>
</svg>
