<svg fill="none" height="245" viewBox="0 0 388 245" width="388" xmlns="http://www.w3.org/2000/svg">
    <path
        d="M150.292 154.396L135.053 51.8059H66.416L82.8688 160.514C83.9839 167.88 89.9684 173.066 97.3545 173.066H212.765L213.614 163.106H160.313C155.195 163.106 151.051 159.504 150.292 154.396Z"
        fill="#475577" />
    <path
        d="M85.3331 154.396L70.6582 55.6038C70.3276 53.3764 68.5207 51.8059 66.289 51.8059H66.1545C63.0289 51.8059 60.4711 54.8095 60.9431 57.9279L76.4693 160.514C77.5844 167.88 83.5689 173.066 90.9542 173.066H165.288L166.137 163.106H95.3538C90.2359 163.106 86.0917 159.504 85.3331 154.396Z"
        fill="#717A91" />
    <path d="M131.796 173.066V229.064" stroke="#544943" stroke-miterlimit="10"
        stroke-width="1.10312" />
    <path
        d="M101.21 234.011C101.21 231.279 103.368 229.065 106.029 229.065H157.559C160.221 229.065 162.378 231.279 162.378 234.011"
        stroke="#544943" stroke-miterlimit="10" stroke-width="1.10312" />
    <path d="M126.52 234.011C126.52 231.279 128.678 229.065 131.339 229.065" stroke="#544943"
        stroke-miterlimit="10" stroke-width="1.10312" />
    <path
        d="M106.077 239.005C106.077 241.763 103.898 244 101.21 244C98.5232 244 96.3447 241.763 96.3447 239.005C96.3447 236.247 98.5232 234.011 101.21 234.011C103.898 234.011 106.077 236.247 106.077 239.005Z"
        fill="#717A91" />
    <g opacity="0.449997">
        <path
            d="M103.003 239.001C103.003 240.014 102.203 240.835 101.216 240.835C100.229 240.835 99.4282 240.014 99.4282 239.001C99.4282 237.987 100.229 237.167 101.216 237.167C102.203 237.167 103.003 237.987 103.003 239.001Z"
            fill="#8E9DB2" />
    </g>
    <path
        d="M131.388 239.005C131.388 241.763 129.21 244 126.522 244C123.835 244 121.656 241.763 121.656 239.005C121.656 236.247 123.835 234.011 126.522 234.011C129.21 234.011 131.388 236.247 131.388 239.005Z"
        fill="#717A91" />
    <g opacity="0.449997">
        <path
            d="M128.3 239.001C128.3 240.014 127.5 240.835 126.513 240.835C125.526 240.835 124.726 240.014 124.726 239.001C124.726 237.988 125.526 237.167 126.513 237.167C127.5 237.167 128.3 237.988 128.3 239.001Z"
            fill="#8E9DB2" />
    </g>
    <path
        d="M167.246 239.005C167.246 241.763 165.068 244 162.38 244C159.693 244 157.515 241.763 157.515 239.005C157.515 236.247 159.693 234.011 162.38 234.011C165.068 234.011 167.246 236.247 167.246 239.005Z"
        fill="#717A91" />
    <g opacity="0.449997">
        <path
            d="M164.16 239.001C164.16 240.014 163.36 240.835 162.373 240.835C161.386 240.835 160.585 240.014 160.585 239.001C160.585 237.987 161.386 237.167 162.373 237.167C163.36 237.167 164.16 237.987 164.16 239.001Z"
            fill="#8E9DB2" />
    </g>
    <path
        d="M185.439 62.817L202.836 36.1395L208.226 37.2919C204.108 51.5309 201.387 57.1646 201.387 57.1646"
        fill="#FFCBBB" />
    <path
        d="M205.453 41.708L208.226 37.2914C208.226 37.2914 213.388 36.072 215.263 35.0897C217.138 34.1067 218.389 32.3638 218.912 30.8939C219.312 29.7658 219.138 26.4531 218.668 26.4001C217.559 26.2753 215.345 30.5187 214.309 30.7714C213.273 31.0234 209.912 30.7621 208.064 31.0102C204.952 31.4276 203.64 34.4196 203.64 34.4196L200.796 39.7139"
        fill="#FFCBBB" />
    <path d="M196.809 43.9499L199.864 39.4038L207.764 43.0441L205.255 49.9487" fill="#E6E8EF" />
    <path
        d="M133.338 34.4421C133.338 34.4421 146.218 28.3598 157.564 38.7191C168.911 49.0775 176.587 58.7026 180.753 61.8171L197.845 41.6369L207.393 46.2377C204.876 60.8528 197.81 84.1622 180.521 86.5621C161.814 89.1577 134.384 65.4925 134.384 65.4925"
        fill="#B9B5B2" />
    <path d="M175.206 68.5214L180.752 61.8157" stroke="#846A6A" stroke-miterlimit="10"
        stroke-width="0.735416" />
    <path
        d="M202.535 235.564L201.09 241.263C200.739 242.648 201.758 244 203.152 244H219.981C220.993 244 221.813 243.158 221.813 242.119C221.813 241.301 221.297 240.576 220.538 240.328L209.035 235.564"
        fill="#173789" />
    <path
        d="M192.835 146.513C190.148 175.497 202.536 235.563 202.536 235.563C202.536 235.563 205.479 239.214 209.036 235.563C209.036 235.563 212.021 178.293 215.164 152.545"
        fill="#FFCBBB" />
    <path
        d="M152.687 112.562L171.999 122.957V123.16C171.999 123.16 211.414 120.445 217.375 134.887C226.709 157.502 228.297 231.06 228.297 231.06H199.449C199.449 231.06 188.713 169.275 185.043 165.508C181.372 161.74 166.236 162.017 138.404 162.017C107.14 162.017 122.401 120.645 134.041 117.094"
        fill="#FCA32D" />
    <path
        d="M201.453 231.06C201.453 231.06 192.88 167.307 186.579 162.631C178.885 156.923 142.556 160.651 142.556 160.651"
        stroke="#CE680D" stroke-miterlimit="10" stroke-width="0.735416" />
    <path
        d="M142.042 235.564L140.598 241.263C140.246 242.648 141.265 244 142.659 244H159.488C160.501 244 161.321 243.158 161.321 242.119C161.321 241.301 160.805 240.576 160.045 240.328L148.542 235.564"
        fill="#173789" />
    <path
        d="M144.845 146.513C142.158 175.497 142.042 235.563 142.042 235.563C142.042 235.563 144.986 239.214 148.543 235.563C148.543 235.563 158.669 178.293 161.812 152.545"
        fill="#FFCBBB" />
    <path
        d="M118.625 121.663C118.625 121.663 169.288 122.501 175.916 138.257C184.066 157.633 170.631 231.06 170.631 231.06H140.094V165.37C140.094 164.096 139.124 162.953 137.883 162.987C133.654 163.103 124.218 163.103 112.236 163.103C80.9734 163.103 96.2343 113.164 107.874 109.613"
        fill="#FFB548" />
    <path
        d="M118.621 121.665C118.621 121.665 169.284 122.502 175.911 138.258C178.12 143.51 179.267 152.45 178.677 163.105"
        stroke="#CE680D" stroke-miterlimit="10" stroke-width="0.735416" />
    <path
        d="M144.347 231.06C144.347 231.06 144.657 165.116 143.183 161.594C141.133 156.7 134.13 159.102 117.89 159.102C86.6266 159.102 99.3632 113.164 111.002 109.613"
        stroke="#ED841B" stroke-miterlimit="10" stroke-width="0.735416" />
    <path
        d="M99.1553 129.692C99.1553 129.692 115.205 130.091 117.637 127.595C120.069 125.099 117.637 113.785 117.637 113.785"
        stroke="#ED841B" stroke-miterlimit="10" stroke-width="0.735416" />
    <path
        d="M98.7617 131.903C98.7617 131.903 117.086 132.302 119.862 129.803C122.638 127.303 119.862 115.972 119.862 115.972"
        stroke="#ED841B" stroke-dasharray="2.21 1.47" stroke-miterlimit="10"
        stroke-width="0.735416" />
    <path
        d="M95.6679 53.0255C95.6679 53.0255 91.8217 123.161 97.6442 123.161C103.468 123.161 168.204 122.959 171.999 122.959C175.794 122.959 166.915 62.9798 154.127 50.3105C154.127 50.3105 135.162 29.1895 126.806 31.2125C118.449 33.2355 95.6679 53.0255 95.6679 53.0255Z"
        fill="#B9B5B2" />
    <path d="M167.892 84.9287L159.853 51.1071" stroke="#846A6A" stroke-miterlimit="10"
        stroke-width="0.735416" />
    <path
        d="M62.9212 65.726L45.5243 39.0485L40.1343 40.2008C44.2526 54.4399 46.9738 60.0735 46.9738 60.0735"
        fill="#FFCBBB" />
    <path
        d="M42.9088 44.6182L40.1359 40.2016C40.1359 40.2016 34.9739 38.9821 33.0987 37.9999C31.2235 37.0169 29.9723 35.2747 29.4501 33.8041C29.0495 32.6759 29.2236 29.3633 29.6934 29.3102C30.8031 29.1854 33.0166 33.4296 34.0526 33.6816C35.0887 33.9344 38.45 33.6722 40.2978 33.9203C43.409 34.3377 44.7217 37.3297 44.7217 37.3297L47.5653 42.624"
        fill="#FFCBBB" />
    <path d="M51.5518 46.8603L48.4969 42.3142L40.5962 45.9545L43.1054 52.8599" fill="#E6E8EF" />
    <path
        d="M119.589 34.8446C119.589 34.8446 106.86 25.5527 93.7118 36.9644C81.4594 47.599 73.2972 69.0625 70.557 69.0625C68.6552 69.0625 56.8664 53.6313 49.83 44.1873L41.458 48.7794C46.7333 65.3138 58.2354 93.4385 75.4461 93.4385C88.9497 93.4385 116.675 60.9744 116.675 60.9744"
        fill="#B9B5B2" />
    <path d="M94.561 83.0532L115.079 65.4914" stroke="#846A6A" stroke-miterlimit="10"
        stroke-width="0.735416" />
    <path d="M120.818 36.4961L133.053 49.9487L134.653 34.3966" fill="#E6E8EF" />
    <path d="M120.818 36.4961L133.053 49.9487L134.653 34.3966" stroke="#846A6A"
        stroke-linejoin="round" stroke-miterlimit="10" stroke-width="0.735416" />
    <path
        d="M130.643 22.9185L134.084 30.6587C134.084 30.6587 135.47 35.0932 129.734 37.103C123.447 39.3054 119.592 34.842 119.592 34.842L118.685 22.6954"
        fill="#FFCBBB" />
    <path
        d="M119.26 30.4187C119.26 30.4187 123.787 36.242 129.732 37.1041L125.414 43.6794C121.914 41.6557 117.638 33.8063 117.638 33.8063L119.26 30.4187Z"
        fill="white" />
    <path
        d="M133.72 29.5984C133.72 29.5984 132.995 33.7552 129.731 37.1045L134.65 40.9204C135.78 38.0642 135.65 33.6179 135.65 33.6179L133.72 29.5984Z"
        fill="white" />
    <path
        d="M135.741 10.421C135.741 10.421 138.989 23.1871 134.113 26.4139C129.236 29.6407 120.752 24.7311 120.263 23.1294C119.774 21.5269 117.558 7.89712 120.74 6.87508C126.395 5.05804 134.081 4.97846 135.741 10.421Z"
        fill="#FFCBBB" />
    <path
        d="M135.64 14.5607C135.72 14.911 135.508 15.2613 135.167 15.3432C134.826 15.4251 134.484 15.2082 134.404 14.8579C134.324 14.5084 134.536 14.1581 134.877 14.0754C135.218 13.9935 135.56 14.2104 135.64 14.5607Z"
        fill="#173789" />
    <path
        d="M134.548 10.7574C134.763 10.7894 135.718 10.8908 135.515 11.3753C135.426 11.5899 135.091 11.5844 134.907 11.5735C134.712 11.5618 134.51 11.5321 134.33 11.5992C134.38 11.6562 134.422 11.7248 134.451 11.7982C134.508 11.9425 134.038 11.9581 133.986 11.9581C133.518 11.9589 132.951 11.8692 132.381 12.2616C132.749 10.8791 134.199 10.7051 134.548 10.7574Z"
        fill="#173789" />
    <path
        d="M127.82 16.3284C127.839 16.6873 128.139 16.9619 128.489 16.9424C128.84 16.9221 129.107 16.6155 129.088 16.2566C129.068 15.8969 128.769 15.6223 128.419 15.6426C128.069 15.6621 127.801 15.9695 127.82 16.3284Z"
        fill="#173789" />
    <path
        d="M125.939 13.7499C125.481 14.0027 125.099 14.3452 125.201 14.7361C125.283 15.0489 125.584 14.967 125.77 14.8157C126.079 14.5637 126.432 14.3702 126.808 14.2461C126.64 14.3866 126.544 14.6105 126.555 14.832C127.74 14.7119 128.772 13.6626 128.901 12.4486C128.892 12.536 128.125 13.0212 128.013 13.0743C127.344 13.3911 126.605 13.3825 125.939 13.7499Z"
        fill="#173789" />
    <path
        d="M132.476 15.3231C132.476 15.3231 134.207 19.8021 133.589 20.1929C132.972 20.583 130.797 20.5269 130.797 20.5269"
        stroke="#EF977F" stroke-miterlimit="10" stroke-width="0.735416" />
    <path d="M132.539 27.1536C132.539 27.1536 127.595 29.1158 123.26 25.5519" stroke="#EF977F"
        stroke-miterlimit="10" stroke-width="0.735416" />
    <path d="M129.731 24.1558C129.731 24.1558 130.17 22.1811 133.335 22.1811" stroke="#EF977F"
        stroke-miterlimit="10" stroke-width="0.735416" />
    <path
        d="M138.491 3.56642C138.441 2.96099 138.345 2.31423 137.939 1.87108C137.472 1.36241 136.726 1.26254 136.045 1.25708C133.66 1.23914 131.276 2.0201 129.343 3.45173C129.872 2.97894 130.402 2.50615 130.934 2.0318C131.354 1.65653 132.293 1.06516 131.84 0.365335C131.443 -0.250227 130.309 0.100073 129.733 0.0922718C127.012 0.0579433 124.386 1.05502 121.881 2.04038C120.646 2.52644 119.402 3.02107 118.286 3.74898C117.169 4.47688 116.173 5.46225 115.636 6.70352C115.166 7.79031 115.07 9.00895 115.078 10.1995C115.093 12.3388 115.42 14.4609 115.746 16.5744C116.102 18.8782 116.641 23.4204 119.657 23.6958C120.241 23.7489 120.882 23.7871 121.356 23.4329C121.824 23.0834 121.99 22.4499 122.06 21.8601C122.174 20.8989 122.108 19.9182 121.883 18.9773C122.448 19.2917 122.983 19.8168 123.616 19.7224C123.826 19.6912 124.038 19.5726 124.113 19.3697C124.161 19.2402 124.146 19.0967 124.132 18.9602C123.896 16.753 123.768 14.5592 123.629 12.3434C126.716 11.6733 129.821 11.0967 132.939 10.6146C134.322 10.4 135.788 10.1699 136.861 9.24847C138.396 7.93074 138.659 5.61361 138.491 3.56642Z"
        fill="#173789" />
    <path
        d="M122.546 19.8318C122.033 18.5336 121.139 16.9694 119.737 17.8502C119.241 18.1615 118.965 18.827 118.772 19.4714C118.129 21.6153 119.627 24.921 121.678 24.6159C122.678 24.4661 123.232 23.249 123.639 22.2449"
        fill="#FFCBBB" />
    <path
        d="M308.893 159.206C308.885 152.258 311.783 145.355 316.709 140.588C319.138 138.239 322.045 136.425 325.174 135.241C326.94 134.573 335.397 133.918 335.397 133.918C335.397 133.918 334.412 140.543 332.727 143.882C328.8 151.665 321.033 158.208 308.893 159.206Z"
        fill="#8EBCA2" />
    <path
        d="M333.771 178.98C336.829 175.131 341.248 172.447 346.006 171.551C350.766 170.654 355.825 171.55 360.015 174.033C360.152 174.114 360.299 174.212 360.335 174.369C360.38 174.555 360.248 174.733 360.124 174.876C356.193 179.394 350.1 181.829 344.227 181.228C341.648 180.965 336.237 179.802 333.771 178.98Z"
        fill="#A2CCB6" />
    <path
        d="M340.565 168.413C340.572 162.354 342.534 156.915 346 153.356C349.464 149.797 354.403 148.146 359.674 148.784C359.846 148.805 360.039 148.84 360.177 149.002C360.341 149.194 360.349 149.469 360.34 149.699C360.04 156.993 356.476 163.033 351.041 165.457C348.654 166.521 343.233 168.053 340.565 168.413Z"
        fill="#8EBCA2" />
    <path
        d="M349.733 157.577C352.071 153.711 354.915 150.168 358.167 147.074C359.474 145.83 360.859 144.65 362.429 143.784C367.513 140.981 373.785 141.849 379.252 143.747C377.078 147.986 374.243 152.134 370.071 154.283C368.226 155.233 366.201 155.748 364.186 156.208C360.186 157.122 353.797 157.033 349.733 157.577Z"
        fill="#A2CCB6" />
    <path
        d="M346.826 147.458C336.653 141.989 335.151 130.583 334.894 126.365C334.734 123.721 334.901 120.781 337.047 118.878C349.652 123.432 352.869 132.19 346.826 147.458Z"
        fill="#8EBCA2" />
    <path
        d="M302.991 145.816C303.78 140.26 304.508 134.292 302.046 129.278C301.164 127.481 299.907 125.903 298.541 124.459C295.233 120.964 290.905 118.075 286.157 118.067C285.304 123.272 286.334 128.779 289.004 133.289C291.675 137.8 295.963 141.275 300.858 142.895"
        fill="#8EBCA2" />
    <path
        d="M332.57 182.147C326.899 180.202 322.081 175.772 319.577 170.198C317.073 164.624 316.919 157.987 319.161 152.297C319.26 152.045 319.392 151.767 319.644 151.684C319.884 151.605 320.137 151.734 320.356 151.863C329.13 157.039 335.133 172.098 332.57 182.147Z"
        fill="#A2CCB6" />
    <path
        d="M308.731 151.464C307.093 146.605 307.179 141.155 308.972 136.354C310.763 131.553 314.247 127.438 318.628 124.946C320.414 123.931 322.356 123.166 323.939 121.844C324.477 124.286 324.837 126.768 325.019 129.264C325.197 131.732 325.196 134.251 324.557 136.637C322.907 142.808 317.367 147.003 311.8 149.884"
        fill="#A2CCB6" />
    <path
        d="M301.381 150.527C292.246 151.663 280.998 147.88 276.116 139.048C291.735 130.9 301.381 143.366 301.381 150.527Z"
        fill="#A2CCB6" />
    <path
        d="M306.711 171.448C304.663 164.248 299.273 158.343 292.779 156.185C286.284 154.027 278.873 155.678 273.622 160.453C273.404 160.651 273.169 160.904 273.19 161.218C273.202 161.404 273.305 161.565 273.405 161.714C276.896 166.895 282.465 169.954 288.162 171.244C293.858 172.534 299.739 172.225 305.538 171.78"
        fill="#A2CCB6" />
    <path
        d="M294.966 133.058C299.705 137.917 302.659 144.082 304.867 150.498C307.152 157.14 308.819 164.019 310.148 170.924C312.951 185.49 313.694 200.233 315.327 214.947C315.35 215.156 315.662 215.168 315.653 214.947C315.028 199.964 313.46 184.756 310.551 170.053C309.131 162.876 307.345 155.702 304.793 148.854C302.589 142.939 299.631 137.299 295.121 132.899C295.019 132.799 294.866 132.955 294.966 133.058Z"
        fill="#597F6E" />
    <path
        d="M311.767 177.489C308.261 171.66 302.444 168.215 296.407 165.696C289.656 162.879 282.001 161.113 274.68 161.62C274.502 161.631 274.499 161.897 274.68 161.906C288.001 162.516 303.246 165.826 311.444 177.683C311.58 177.881 311.895 177.703 311.767 177.489Z"
        fill="#597F6E" />
    <path
        d="M309.006 163.801C308.949 158.307 308.388 152.803 309.443 147.364C310.423 142.309 312.388 137.73 315.333 133.565C315.418 133.445 315.229 133.295 315.132 133.406C307.983 141.657 307.9 153.455 308.833 163.801C308.844 163.913 309.007 163.917 309.006 163.801Z"
        fill="#597F6E" />
    <path
        d="M287.802 142.063C291.711 142.561 295.165 145.257 298.119 147.747C301.063 150.228 303.691 153.079 306.624 155.565C306.742 155.665 306.909 155.505 306.796 155.388C303.837 152.352 300.664 149.411 297.355 146.784C294.574 144.577 291.399 142.324 287.802 141.983C287.752 141.979 287.753 142.057 287.802 142.063Z"
        fill="#597F6E" />
    <path
        d="M329.013 195.883C331.153 184.473 335.626 174.031 343.046 165.168C346.623 160.896 350.74 157.097 355.282 153.933C360.047 150.613 365.133 148.352 370.497 146.276C370.715 146.191 370.634 145.849 370.399 145.911C359.611 148.796 349.671 156.447 342.551 165.059C335.447 173.652 330.056 184.562 328.733 195.844C328.714 196.007 328.983 196.045 329.013 195.883Z"
        fill="#597F6E" />
    <path
        d="M341.367 127.71C346.713 139.258 348.692 152.353 343.28 164.235C343.173 164.47 343.49 164.67 343.623 164.441C350.119 153.344 346.97 138.407 341.639 127.547C341.548 127.36 341.282 127.524 341.367 127.71Z"
        fill="#597F6E" />
    <path
        d="M348.332 188.306V197.446C348.332 233.689 339.035 243.999 339.035 243.999H310.245C310.245 243.999 300.948 233.689 300.948 197.446V188.306H348.332Z"
        fill="#F2F5F9" />
    <path d="M39.2036 244L63.6157 123.861" stroke="#544943" stroke-miterlimit="10"
        stroke-width="1.10312" />
    <path d="M88.0297 244L63.6177 123.861" stroke="#544943" stroke-miterlimit="10"
        stroke-width="1.10312" />
    <path d="M285.765 244L310.177 123.861" stroke="#544943" stroke-miterlimit="10"
        stroke-width="1.10312" />
    <path d="M334.591 244L310.179 123.861" stroke="#544943" stroke-miterlimit="10"
        stroke-width="1.10312" />
    <path d="M331.592 123.859H39.9912V116.671H331.592V123.859Z" fill="#E7EAF2" />
    <path
        d="M317.54 102.969H214.493C212.655 102.969 211.263 101.264 211.585 99.406L223.425 31.0521C223.8 28.8863 225.634 27.3096 227.776 27.3096H330.823C332.662 27.3096 334.054 29.0143 333.732 30.8719L321.892 99.2266C321.517 101.392 319.683 102.969 317.54 102.969Z"
        fill="#475577" />
    <path
        d="M319.933 102.969H216.886C215.048 102.969 213.656 101.264 213.978 99.406L225.818 31.0521C226.193 28.8863 228.027 27.3096 230.17 27.3096H333.216C335.055 27.3096 336.447 29.0143 336.125 30.8719L324.285 99.2266C323.91 101.392 322.076 102.969 319.933 102.969Z"
        fill="#C0CCD8" />
    <g opacity="0.449997">
        <path
            d="M300.98 102.968H241.463C240.401 102.968 239.598 101.983 239.783 100.909L246.622 61.43C246.839 60.1793 247.897 59.2689 249.135 59.2689H308.652C309.713 59.2689 310.518 60.2534 310.331 61.3262L303.493 100.806C303.277 102.056 302.217 102.968 300.98 102.968Z"
            fill="#8E9DB2" />
    </g>
    <path
        d="M302.4 102.969H242.883C241.821 102.969 241.018 101.985 241.203 100.911L248.042 61.4317C248.258 60.181 249.317 59.2706 250.555 59.2706H310.072C311.133 59.2706 311.938 60.2551 311.751 61.3279L304.913 100.807C304.697 102.058 303.637 102.969 302.4 102.969Z"
        fill="#C6D2E0" />
    <path d="M265.052 79.7513H289.207V102.97H265.052V79.7513Z" fill="#8E9DB2" />
    <path
        d="M281.977 105.838C279.271 105.838 276.409 102.598 275.585 98.6004C274.762 94.6035 276.289 91.3626 278.995 91.3626C281.702 91.3626 284.564 94.6035 285.388 98.6004C286.211 102.598 284.684 105.838 281.977 105.838ZM287.823 79.7536H265.052V86.4233L271.269 112.902H295.438L287.823 79.7536Z"
        fill="#475577" />
    <path
        d="M251.731 112.901H305.84V116.672H248.057C248.057 114.589 249.702 112.901 251.731 112.901Z"
        fill="#475577" />
    <path d="M262.585 112.901H305.843V116.672H262.585V112.901Z" fill="#C0CCD8" />
    <path
        d="M283.288 105.838C280.581 105.838 277.719 102.598 276.895 98.6004C276.072 94.6035 277.599 91.3626 280.306 91.3626C283.013 91.3626 285.875 94.6035 286.698 98.6004C287.522 102.598 285.995 105.838 283.288 105.838ZM289.221 79.7536H265.052L272.666 112.902H296.835L289.221 79.7536Z"
        fill="#C0CCD8" />
    <g opacity="0.649994">
        <path d="M232.787 34.0459L231.356 42.308H232.787L234.219 34.0459H232.787Z" fill="#8E9DB2" />
        <path d="M236.926 34.0455L235.495 42.3076H236.926L238.358 34.0455H236.926Z"
            fill="#8E9DB2" />
        <path d="M241.072 34.0455L239.641 42.3076H241.072L242.503 34.0455H241.072Z"
            fill="#8E9DB2" />
        <path d="M245.212 34.0455L243.781 42.3076H245.212L246.643 34.0455H245.212Z"
            fill="#8E9DB2" />
        <path d="M249.356 34.0455L247.924 42.3076H249.356L250.787 34.0455H249.356Z"
            fill="#8E9DB2" />
    </g>
    <g opacity="0.649994">
        <path d="M287.152 34.0459L285.72 42.308H287.152L288.583 34.0459H287.152Z" fill="#8E9DB2" />
        <path d="M291.509 34.0455L290.078 42.3076H291.509L292.941 34.0455H291.509Z"
            fill="#8E9DB2" />
        <path d="M295.856 34.0455L294.424 42.3076H295.856L297.287 34.0455H295.856Z"
            fill="#8E9DB2" />
        <path d="M300.209 34.0455L298.777 42.3076H300.209L301.64 34.0455H300.209Z" fill="#8E9DB2" />
        <path d="M304.566 34.0455L303.134 42.3076H304.566L305.997 34.0455H304.566Z"
            fill="#8E9DB2" />
        <path d="M308.921 34.0455L307.489 42.3076H308.921L310.352 34.0455H308.921Z"
            fill="#8E9DB2" />
        <path d="M313.271 34.0455L311.84 42.3076H313.271L314.702 34.0455H313.271Z" fill="#8E9DB2" />
        <path d="M317.626 34.0456L316.195 42.3077H317.626L319.057 34.0456H317.626Z"
            fill="#8E9DB2" />
        <path d="M321.977 34.0455L320.545 42.3076H321.977L323.408 34.0455H321.977Z"
            fill="#8E9DB2" />
        <path d="M326.332 34.0455L324.9 42.3076H326.332L327.763 34.0455H326.332Z" fill="#8E9DB2" />
    </g>
    <path d="M242.669 116.673H158.082V115.13H242.669V116.673Z" fill="#475577" />
    <path d="M167.038 115.128H160.976V113.884H167.038V115.128Z" fill="#475577" />
    <path d="M176.213 115.128H170.151V113.884H176.213V115.128Z" fill="#475577" />
    <path d="M185.39 115.128H179.328V113.884H185.39V115.128Z" fill="#475577" />
    <path d="M194.565 115.128H188.503V113.884H194.565V115.128Z" fill="#475577" />
    <path d="M203.74 115.128H197.678V113.884H203.74V115.128Z" fill="#475577" />
    <path d="M212.914 115.128H206.852V113.884H212.914V115.128Z" fill="#475577" />
    <path d="M222.091 115.128H216.029V113.884H222.091V115.128Z" fill="#475577" />
    <path d="M231.269 115.128H225.207V113.884H231.269V115.128Z" fill="#475577" />
    <path d="M240.443 115.128H234.381V113.884H240.443V115.128Z" fill="#475577" />
    <path d="M243.777 116.673H159.19V115.13H243.777V116.673Z" fill="#C0CCD8" />
    <path d="M168.144 115.128H162.082V113.884H168.144V115.128Z" fill="#C0CCD8" />
    <path d="M177.321 115.128H171.259V113.884H177.321V115.128Z" fill="#C0CCD8" />
    <path d="M186.496 115.128H180.434V113.884H186.496V115.128Z" fill="#C0CCD8" />
    <path d="M195.67 115.128H189.608V113.884H195.67V115.128Z" fill="#C0CCD8" />
    <path d="M204.848 115.128H198.786V113.884H204.848V115.128Z" fill="#C0CCD8" />
    <path d="M214.024 115.128H207.962V113.884H214.024V115.128Z" fill="#C0CCD8" />
    <path d="M223.199 115.128H217.137V113.884H223.199V115.128Z" fill="#C0CCD8" />
    <path d="M232.372 115.128H226.31V113.884H232.372V115.128Z" fill="#C0CCD8" />
    <path d="M241.551 115.128H235.489V113.884H241.551V115.128Z" fill="#C0CCD8" />
    <path
        d="M38.8274 174.913C39.8786 170.63 39.4111 165.973 37.5321 162.001C35.6523 158.028 32.3747 154.772 28.4456 152.972C26.8448 152.238 25.1269 151.731 23.6766 150.721C23.3931 152.851 23.2631 155.002 23.2882 157.151C23.3133 159.278 23.4957 161.433 24.2148 163.427C26.0718 168.582 31.1159 171.751 36.0871 173.794"
        fill="#8EBCA2" />
    <path
        d="M39.4362 188.736C39.5905 178.761 39.7174 167.368 32.0714 159.94C31.9505 159.822 31.784 159.997 31.8905 160.124C35.3194 164.216 37.7768 169.158 38.5066 174.541C39.1451 179.248 38.8889 184.011 39.2636 188.736C39.2728 188.848 39.4347 188.851 39.4362 188.736Z"
        fill="#597F6E" />
    <path
        d="M27.0084 201.82C26.2779 195.898 23.0755 190.341 18.3719 186.832C16.0535 185.102 13.384 183.881 10.5921 183.222C9.01709 182.851 1.74121 183.239 1.74121 183.239C1.74121 183.239 3.28426 188.773 5.07358 191.429C9.24665 197.622 16.559 202.328 27.0084 201.82Z"
        fill="#8EBCA2" />
    <path
        d="M20.6485 182.749C20.4592 179.165 19.8177 175.608 18.7444 172.205C18.3134 170.837 17.8079 169.483 17.0668 168.275C14.6663 164.362 10.1694 162.531 5.84512 161.725C5.79191 165.503 6.21301 169.475 8.23646 172.581C9.13112 173.954 10.3009 175.096 11.4829 176.197C13.8294 178.38 18.1279 180.796 20.6485 182.749Z"
        fill="#A2CCB6" />
    <path
        d="M45.2015 169.699C44.5242 164.927 43.8971 159.801 46.0125 155.494C46.7704 153.95 47.8497 152.595 49.0241 151.354C51.8655 148.353 55.5832 145.871 59.6605 145.864C60.3933 150.335 59.5085 155.066 57.2152 158.94C54.9211 162.814 49.4049 168.308 45.2015 169.699Z"
        fill="#A2CCB6" />
    <path
        d="M37.7314 197.429C42.0558 198.349 46.7343 197.355 50.3487 194.751C53.9631 192.148 56.4631 187.969 57.0902 183.482C57.1183 183.283 57.1343 183.056 57.0036 182.907C56.8789 182.765 56.6699 182.751 56.4844 182.75C49.0101 182.711 39.7298 190.037 37.7314 197.429Z"
        fill="#A2CCB6" />
    <path
        d="M22.3575 180.172C28.5152 176.614 32.4717 169.487 32.5887 161.741C28.1435 161.489 24.7967 164.296 22.8607 166.716C20.1645 170.085 19.9372 176.005 22.3575 180.172Z"
        fill="#A2CCB6" />
    <path
        d="M26.8288 192.672C25.1839 188.468 25.7008 183.442 28.1651 179.682C30.6286 175.924 34.9689 173.538 39.3837 173.517C39.5669 173.516 39.779 173.533 39.8854 173.687C39.9485 173.778 39.9568 173.897 39.9614 174.008C40.1309 177.891 38.4662 181.675 36.081 184.694C33.6957 187.712 30.6233 190.069 27.5418 192.328"
        fill="#A2CCB6" />
    <path
        d="M51.9546 158.594C43.7506 166.593 40.8788 179.417 38.6995 190.377C36.1828 203.037 34.772 216.171 34.3068 229.081C34.2984 229.301 34.6093 229.29 34.6337 229.081C36.1075 216.442 36.6875 203.769 39.1017 191.249C41.2551 180.078 44.0196 167.11 52.1096 158.753C52.21 158.65 52.0572 158.494 51.9546 158.594Z"
        fill="#597F6E" />
    <path
        d="M26.8233 199.358C26.6918 195.568 27.3204 192.148 28.1535 188.48C28.1884 188.328 27.9741 188.219 27.8981 188.369C26.352 191.43 25.905 196.037 26.4561 199.409C26.4911 199.623 26.8309 199.572 26.8233 199.358Z"
        fill="#597F6E" />
    <path
        d="M27.3337 167.095C22.4119 171.674 21.1554 181.271 23.1652 187.489C23.2138 187.642 23.435 187.58 23.3993 187.423C21.9437 180.929 22.4226 172.109 27.3884 167.151C27.4241 167.115 27.3702 167.061 27.3337 167.095Z"
        fill="#597F6E" />
    <path
        d="M29.1295 221.348C29.3985 212.545 27.9847 203.312 25.623 194.87C23.294 186.544 19.5671 177.514 13.3744 171.405C13.2004 171.233 12.9685 171.487 13.1145 171.672C15.8752 175.178 18.4414 178.642 20.4694 182.663C22.54 186.769 24.1301 191.117 25.3509 195.564C27.6784 204.045 28.3344 212.603 28.8444 221.348C28.8551 221.535 29.1234 221.537 29.1295 221.348Z"
        fill="#597F6E" />
    <path
        d="M54.2793 206.009V212.244C54.2793 236.968 46.2935 244 46.2935 244H21.5644C21.5644 244 13.5786 236.968 13.5786 212.244V206.009H54.2793Z"
        fill="#F2F5F9" />
    <path d="M0 244H388" stroke="#475577" stroke-miterlimit="10" stroke-width="1.47083" />
</svg>
