<svg fill="none" height="379" viewBox="0 0 324 379" width="324" xmlns="http://www.w3.org/2000/svg">
    <path
        d="M109.898 373H108.176L101.171 362.207H101.101C101.118 362.494 101.139 362.822 101.162 363.191C101.186 363.555 101.203 363.944 101.215 364.36C101.232 364.771 101.241 365.189 101.241 365.617V373H99.8525V360.15H101.566L108.545 370.908H108.606C108.595 370.703 108.58 370.413 108.562 370.038C108.545 369.657 108.527 369.25 108.51 368.816C108.498 368.377 108.492 367.97 108.492 367.595V360.15H109.898V373ZM121.491 368.166C121.491 368.957 121.389 369.663 121.184 370.284C120.979 370.905 120.683 371.43 120.296 371.857C119.909 372.285 119.44 372.613 118.89 372.842C118.345 373.064 117.727 373.176 117.035 373.176C116.391 373.176 115.799 373.064 115.26 372.842C114.727 372.613 114.264 372.285 113.871 371.857C113.484 371.43 113.183 370.905 112.966 370.284C112.755 369.663 112.649 368.957 112.649 368.166C112.649 367.111 112.828 366.215 113.186 365.477C113.543 364.732 114.053 364.167 114.715 363.78C115.383 363.388 116.177 363.191 117.097 363.191C117.976 363.191 118.743 363.388 119.399 363.78C120.062 364.173 120.574 364.741 120.938 365.485C121.307 366.224 121.491 367.117 121.491 368.166ZM114.161 368.166C114.161 368.939 114.264 369.61 114.469 370.179C114.674 370.747 114.99 371.187 115.418 371.497C115.846 371.808 116.396 371.963 117.07 371.963C117.738 371.963 118.286 371.808 118.714 371.497C119.147 371.187 119.467 370.747 119.672 370.179C119.877 369.61 119.979 368.939 119.979 368.166C119.979 367.398 119.877 366.736 119.672 366.18C119.467 365.617 119.15 365.184 118.723 364.879C118.295 364.574 117.741 364.422 117.062 364.422C116.06 364.422 115.324 364.753 114.855 365.415C114.393 366.077 114.161 366.994 114.161 368.166ZM136.16 369.581C136.16 370.343 135.97 370.993 135.589 371.532C135.214 372.065 134.687 372.473 134.007 372.754C133.327 373.035 132.527 373.176 131.607 373.176C131.121 373.176 130.661 373.152 130.228 373.105C129.794 373.059 129.396 372.991 129.032 372.903C128.669 372.815 128.35 372.707 128.074 372.578V371.146C128.514 371.327 129.05 371.497 129.683 371.655C130.315 371.808 130.978 371.884 131.669 371.884C132.313 371.884 132.858 371.799 133.304 371.629C133.749 371.453 134.086 371.204 134.314 370.882C134.549 370.554 134.666 370.161 134.666 369.704C134.666 369.265 134.569 368.898 134.376 368.605C134.183 368.307 133.86 368.037 133.409 367.797C132.964 367.551 132.354 367.29 131.581 367.015C131.036 366.821 130.556 366.61 130.14 366.382C129.724 366.147 129.375 365.884 129.094 365.591C128.812 365.298 128.599 364.958 128.452 364.571C128.312 364.185 128.241 363.742 128.241 363.244C128.241 362.559 128.414 361.973 128.76 361.486C129.111 360.994 129.595 360.619 130.21 360.361C130.831 360.098 131.543 359.966 132.346 359.966C133.031 359.966 133.664 360.03 134.244 360.159C134.83 360.288 135.366 360.461 135.853 360.678L135.387 361.961C134.924 361.768 134.432 361.606 133.91 361.478C133.395 361.349 132.861 361.284 132.311 361.284C131.76 361.284 131.294 361.366 130.913 361.53C130.538 361.688 130.251 361.914 130.052 362.207C129.853 362.5 129.753 362.849 129.753 363.253C129.753 363.704 129.847 364.079 130.034 364.378C130.228 364.677 130.532 364.943 130.948 365.178C131.37 365.406 131.927 365.646 132.618 365.898C133.374 366.174 134.016 366.467 134.543 366.777C135.07 367.082 135.472 367.457 135.747 367.902C136.022 368.342 136.16 368.901 136.16 369.581ZM141.68 371.98C141.92 371.98 142.166 371.96 142.418 371.919C142.67 371.878 142.875 371.828 143.033 371.77V372.903C142.863 372.979 142.626 373.044 142.321 373.097C142.022 373.149 141.729 373.176 141.442 373.176C140.933 373.176 140.47 373.088 140.054 372.912C139.638 372.73 139.304 372.426 139.052 371.998C138.806 371.57 138.683 370.979 138.683 370.223V364.51H137.312V363.798L138.691 363.227L139.271 361.135H140.15V363.367H142.972V364.51H140.15V370.179C140.15 370.782 140.288 371.233 140.563 371.532C140.845 371.831 141.217 371.98 141.68 371.98ZM148.588 363.209C149.736 363.209 150.589 363.467 151.146 363.982C151.702 364.498 151.98 365.321 151.98 366.452V373H150.917L150.636 371.576H150.565C150.296 371.928 150.015 372.224 149.722 372.464C149.429 372.698 149.089 372.877 148.702 373C148.321 373.117 147.853 373.176 147.296 373.176C146.71 373.176 146.188 373.073 145.731 372.868C145.28 372.663 144.923 372.353 144.659 371.937C144.401 371.521 144.272 370.993 144.272 370.354C144.272 369.394 144.653 368.655 145.415 368.14C146.177 367.624 147.337 367.343 148.896 367.296L150.557 367.226V366.637C150.557 365.805 150.378 365.222 150.021 364.888C149.663 364.554 149.159 364.387 148.509 364.387C148.005 364.387 147.524 364.46 147.067 364.606C146.61 364.753 146.177 364.926 145.767 365.125L145.318 364.018C145.752 363.795 146.25 363.604 146.812 363.446C147.375 363.288 147.967 363.209 148.588 363.209ZM150.539 368.254L149.071 368.315C147.87 368.362 147.023 368.559 146.531 368.904C146.039 369.25 145.793 369.739 145.793 370.372C145.793 370.923 145.96 371.33 146.294 371.594C146.628 371.857 147.07 371.989 147.621 371.989C148.477 371.989 149.177 371.752 149.722 371.277C150.267 370.803 150.539 370.091 150.539 369.142V368.254ZM156.454 373H154.986V359.324H156.454V373ZM161.007 373H159.539V359.324H161.007V373ZM170.323 370.363C170.323 370.979 170.168 371.497 169.857 371.919C169.553 372.335 169.113 372.648 168.539 372.859C167.971 373.07 167.291 373.176 166.5 373.176C165.826 373.176 165.243 373.123 164.751 373.018C164.259 372.912 163.828 372.763 163.459 372.569V371.225C163.852 371.418 164.32 371.594 164.865 371.752C165.41 371.91 165.967 371.989 166.535 371.989C167.367 371.989 167.971 371.854 168.346 371.585C168.721 371.315 168.908 370.949 168.908 370.486C168.908 370.223 168.832 369.991 168.68 369.792C168.533 369.587 168.284 369.391 167.933 369.203C167.581 369.01 167.095 368.799 166.474 368.57C165.858 368.336 165.325 368.104 164.874 367.876C164.429 367.642 164.083 367.357 163.837 367.023C163.597 366.689 163.477 366.256 163.477 365.723C163.477 364.908 163.805 364.284 164.461 363.851C165.123 363.411 165.99 363.191 167.062 363.191C167.643 363.191 168.185 363.25 168.688 363.367C169.198 363.479 169.673 363.631 170.112 363.824L169.62 364.993C169.222 364.823 168.797 364.68 168.346 364.562C167.895 364.445 167.435 364.387 166.966 364.387C166.292 364.387 165.773 364.498 165.41 364.721C165.053 364.943 164.874 365.248 164.874 365.635C164.874 365.934 164.956 366.18 165.12 366.373C165.29 366.566 165.56 366.748 165.929 366.918C166.298 367.088 166.784 367.287 167.388 367.516C167.991 367.738 168.513 367.97 168.952 368.21C169.392 368.444 169.729 368.731 169.963 369.071C170.203 369.405 170.323 369.836 170.323 370.363ZM185.625 373L184.043 368.922H178.893L177.319 373H175.808L180.835 360.098H182.18L187.172 373H185.625ZM183.595 367.595L182.092 363.543C182.057 363.438 181.998 363.265 181.916 363.024C181.84 362.784 181.761 362.535 181.679 362.277C181.597 362.02 181.529 361.812 181.477 361.653C181.418 361.894 181.354 362.134 181.283 362.374C181.219 362.608 181.154 362.828 181.09 363.033C181.025 363.232 180.97 363.402 180.923 363.543L179.394 367.595H183.595ZM192.595 373.176C191.728 373.176 190.963 372.997 190.301 372.64C189.639 372.282 189.123 371.737 188.754 371.005C188.385 370.272 188.2 369.35 188.2 368.236C188.2 367.07 188.394 366.118 188.78 365.38C189.173 364.636 189.712 364.085 190.397 363.728C191.083 363.37 191.862 363.191 192.735 363.191C193.216 363.191 193.679 363.241 194.124 363.341C194.575 363.435 194.944 363.555 195.231 363.701L194.792 364.923C194.499 364.806 194.159 364.7 193.772 364.606C193.392 364.513 193.034 364.466 192.7 364.466C192.032 364.466 191.476 364.609 191.03 364.896C190.591 365.184 190.26 365.605 190.037 366.162C189.82 366.719 189.712 367.404 189.712 368.219C189.712 368.998 189.817 369.663 190.028 370.214C190.245 370.765 190.564 371.187 190.986 371.479C191.414 371.767 191.947 371.91 192.586 371.91C193.096 371.91 193.556 371.857 193.966 371.752C194.376 371.641 194.748 371.512 195.082 371.365V372.666C194.76 372.83 194.399 372.956 194.001 373.044C193.608 373.132 193.14 373.176 192.595 373.176ZM200.479 371.98C200.719 371.98 200.965 371.96 201.217 371.919C201.469 371.878 201.674 371.828 201.832 371.77V372.903C201.662 372.979 201.425 373.044 201.12 373.097C200.821 373.149 200.528 373.176 200.241 373.176C199.731 373.176 199.269 373.088 198.853 372.912C198.437 372.73 198.103 372.426 197.851 371.998C197.604 371.57 197.481 370.979 197.481 370.223V364.51H196.11V363.798L197.49 363.227L198.07 361.135H198.949V363.367H201.771V364.51H198.949V370.179C198.949 370.782 199.087 371.233 199.362 371.532C199.644 371.831 200.016 371.98 200.479 371.98ZM205.242 363.367V373H203.783V363.367H205.242ZM204.53 359.764C204.771 359.764 204.976 359.843 205.146 360.001C205.321 360.153 205.409 360.394 205.409 360.722C205.409 361.044 205.321 361.284 205.146 361.442C204.976 361.601 204.771 361.68 204.53 361.68C204.278 361.68 204.067 361.601 203.897 361.442C203.733 361.284 203.651 361.044 203.651 360.722C203.651 360.394 203.733 360.153 203.897 360.001C204.067 359.843 204.278 359.764 204.53 359.764ZM210.454 373L206.798 363.367H208.362L210.48 369.194C210.627 369.593 210.776 370.032 210.929 370.513C211.081 370.993 211.187 371.38 211.245 371.673H211.307C211.377 371.38 211.494 370.993 211.658 370.513C211.822 370.026 211.972 369.587 212.106 369.194L214.225 363.367H215.789L212.124 373H210.454ZM221.045 363.191C221.865 363.191 222.568 363.373 223.154 363.736C223.74 364.1 224.188 364.609 224.499 365.266C224.81 365.916 224.965 366.678 224.965 367.551V368.456H218.312C218.329 369.587 218.61 370.448 219.155 371.04C219.7 371.632 220.468 371.928 221.458 371.928C222.067 371.928 222.606 371.872 223.075 371.761C223.544 371.649 224.03 371.485 224.534 371.269V372.552C224.048 372.769 223.564 372.927 223.084 373.026C222.609 373.126 222.047 373.176 221.396 373.176C220.471 373.176 219.662 372.988 218.971 372.613C218.285 372.232 217.752 371.676 217.371 370.943C216.99 370.211 216.8 369.314 216.8 368.254C216.8 367.217 216.973 366.32 217.318 365.564C217.67 364.803 218.162 364.217 218.795 363.807C219.434 363.396 220.184 363.191 221.045 363.191ZM221.027 364.387C220.248 364.387 219.627 364.642 219.164 365.151C218.701 365.661 218.426 366.373 218.338 367.287H223.436C223.43 366.713 223.339 366.209 223.163 365.775C222.993 365.336 222.732 364.996 222.381 364.756C222.029 364.51 221.578 364.387 221.027 364.387Z"
        fill="white" fill-opacity="0.8" />
    <path d="M253.057 117.204L167.249 166.75V89.4562L253.057 39.9102V117.204Z" fill="white"
        opacity="0.95" />
    <path d="M253.057 120.534L254.029 121.092V39.3528L253.057 39.9101V120.534Z" fill="#F8D848" />
    <g opacity="0.25">
        <path d="M253.057 120.534L254.029 121.092V39.3528L253.057 39.9101V120.534Z" fill="white" />
    </g>
    <path d="M257.884 32.672L163.393 87.2336L161.43 86.106L255.928 31.5444L257.884 32.672Z"
        fill="#F8D848" />
    <path d="M254.029 116.64L167.249 166.75V165.628L253.057 116.076L254.029 116.64Z"
        fill="#F8D848" />
    <path d="M163.393 173.424V87.2335L161.43 86.106V172.296L163.393 173.424Z" fill="#F8D848" />
    <g opacity="0.25">
        <path d="M163.393 173.424V87.2335L161.43 86.106V172.296L163.393 173.424Z" fill="white" />
    </g>
    <path
        d="M163.393 87.2334V173.417L167.281 171.195L254.016 121.091L257.904 118.869V32.6848L163.393 87.2334ZM167.281 166.75V89.4561L254.016 39.3527V116.64L167.281 166.75Z"
        fill="#F8D848" />
    <path
        d="M163.393 87.2334V173.417L167.281 171.195L254.016 121.091L257.904 118.869V32.6848L163.393 87.2334ZM167.281 166.75V89.4561L254.016 39.3527V116.64L167.281 166.75Z"
        fill="white" opacity="0.45" />
    <path d="M167.236 105.721L254.029 55.6177V57.9505L167.249 108.054L167.236 105.721Z"
        fill="#F8D848" />
    <path d="M167.236 105.721L254.029 55.6177V57.9505L167.249 108.054L167.236 105.721Z" fill="white"
        opacity="0.45" />
    <path d="M167.249 104.632L253.057 55.0928L254.029 55.6177L167.242 105.721L167.249 104.632Z"
        fill="#E0E0E0" />
    <path d="M167.249 104.632L253.057 55.0928L254.029 55.6177L167.242 105.721L167.249 104.632Z"
        fill="#F8D848" />
    <path d="M225.362 133.164V55.877L223.34 57.0434V134.324L225.362 133.164Z" fill="#F8D848" />
    <path d="M225.374 133.177V55.8899L223.353 57.0563V134.337L225.374 133.177Z" fill="white"
        opacity="0.45" />
    <path d="M222.406 72.7831L223.352 73.3274V57.082L222.406 57.6328V72.7831Z" fill="#F8D848" />
    <g opacity="0.25">
        <path d="M222.406 72.7831L223.352 73.3274V57.082L222.406 57.6328V72.7831Z" fill="white" />
    </g>
    <path d="M222.406 133.792L223.352 134.337V75.6472L222.406 76.198V133.792Z" fill="#F8D848" />
    <g opacity="0.25">
        <path d="M222.406 133.792L223.352 134.337V75.6472L222.406 76.198V133.792Z" fill="white" />
    </g>
    <path d="M196.817 149.688V72.3943L194.789 73.5672V150.841L196.817 149.688Z" fill="#F8D848" />
    <path d="M196.817 149.688V72.3943L194.789 73.5672V150.841L196.817 149.688Z" fill="white"
        opacity="0.45" />
    <path d="M193.849 89.2877L194.789 89.832V73.5867L193.849 74.1375V89.2877Z" fill="#F8D848" />
    <g opacity="0.25">
        <path d="M193.849 89.2877L194.789 89.832V73.5867L193.849 74.1375V89.2877Z" fill="white" />
    </g>
    <path d="M193.849 150.303L194.789 150.841V92.1584L193.849 92.7093V150.303Z" fill="#F8D848" />
    <g opacity="0.25">
        <path d="M193.849 150.303L194.789 150.841V92.1584L193.849 92.7093V150.303Z" fill="white" />
    </g>
    <path d="M253.057 39.9102V63.6464L167.249 113.192V89.4562L253.057 39.9102Z" fill="black"
        opacity="0.1" />
    <path
        d="M257.619 131.628C257.538 131.58 257.447 131.555 257.353 131.555C257.26 131.555 257.168 131.58 257.087 131.628C256.84 131.805 256.552 131.914 256.25 131.946C255.947 131.978 255.642 131.931 255.364 131.81C254.781 131.473 254.444 130.624 254.444 129.49C254.443 129.396 254.419 129.303 254.372 129.221C254.326 129.14 254.259 129.071 254.178 129.023C254.095 128.978 254.003 128.955 253.909 128.955C253.815 128.955 253.723 128.978 253.64 129.023L167.1 178.984C167.019 179.03 166.953 179.098 166.907 179.178C166.861 179.259 166.838 179.351 166.84 179.444C166.84 181.803 165.408 184.55 163.659 185.561C163.578 185.607 163.51 185.674 163.463 185.755C163.417 185.836 163.392 185.928 163.393 186.021V218.188C163.395 218.281 163.42 218.372 163.467 218.452C163.513 218.533 163.579 218.6 163.659 218.648C163.739 218.696 163.831 218.721 163.924 218.721C164.018 218.721 164.11 218.696 164.19 218.648C164.436 218.47 164.725 218.358 165.027 218.325C165.329 218.293 165.635 218.339 165.914 218.46C166.497 218.797 166.84 219.646 166.84 220.78C166.839 220.874 166.863 220.967 166.908 221.05C166.954 221.133 167.019 221.203 167.1 221.253C167.182 221.296 167.273 221.318 167.365 221.318C167.46 221.319 167.554 221.297 167.637 221.253L254.178 171.292C254.258 171.245 254.324 171.177 254.371 171.097C254.417 171.016 254.442 170.925 254.444 170.832C254.444 168.512 255.895 165.706 257.619 164.715C257.699 164.667 257.765 164.6 257.812 164.52C257.858 164.439 257.883 164.348 257.884 164.255V132.088C257.884 131.995 257.86 131.903 257.813 131.823C257.767 131.742 257.7 131.675 257.619 131.628ZM256.815 163.944C254.943 165.194 253.491 167.961 253.381 170.502L167.832 219.899C167.793 219.426 167.647 218.968 167.406 218.559C167.165 218.151 166.834 217.802 166.439 217.54C166.088 217.338 165.69 217.233 165.285 217.235C165.004 217.235 164.724 217.279 164.456 217.365V186.319C166.329 185.062 167.78 182.295 167.89 179.755L253.426 130.377C253.466 130.849 253.612 131.306 253.853 131.713C254.094 132.121 254.425 132.468 254.819 132.73C255.119 132.897 255.45 132.999 255.792 133.029C256.134 133.059 256.478 133.017 256.802 132.905L256.815 163.944Z"
        fill="#E0E0E0" />
    <path
        d="M256.816 132.905V163.944C254.943 165.194 253.491 167.961 253.381 170.502L167.832 219.899C167.793 219.426 167.647 218.968 167.406 218.559C167.165 218.151 166.834 217.802 166.439 217.54C166.088 217.338 165.69 217.233 165.286 217.235C165.004 217.235 164.724 217.279 164.456 217.365V186.319C166.329 185.062 167.78 182.295 167.89 179.755L253.426 130.377C253.466 130.849 253.612 131.306 253.853 131.713C254.095 132.121 254.425 132.468 254.82 132.73C255.121 132.899 255.455 133.002 255.799 133.032C256.143 133.062 256.489 133.019 256.816 132.905Z"
        fill="white" />
    <path d="M136.229 80.0085V243.894L56.5058 289.922L56.4863 126.055L136.229 80.0085Z"
        fill="#F8D848" />
    <path d="M136.236 80.2808L136.229 243.894L56.5058 289.928L56.4863 126.055L136.236 80.2808Z"
        fill="black" opacity="0.25" />
    <path d="M136.236 80.2808L129.918 83.929V240.246L136.236 243.901V80.2808Z" fill="black"
        opacity="0.15" />
    <path d="M129.918 240.246L139.145 245.572L56.4863 293.298L56.5058 282.327L129.918 240.246Z"
        fill="#F8D848" />
    <path d="M129.918 240.246L139.145 245.572L56.4863 293.298L56.5058 282.327L129.918 240.246Z"
        fill="white" opacity="0.8" />
    <path d="M129.918 240.246L56.5058 282.632L56.4863 126.632L129.918 84.2334V240.246Z"
        fill="#F8D848" />
    <path d="M129.918 240.246L56.5058 282.632L56.4863 126.328L129.918 83.9548V240.246Z" fill="white"
        opacity="0.95" />
    <path d="M129.918 83.929V96.2086L56.4863 138.607V126.328L129.918 83.929Z" fill="black"
        opacity="0.1" />
    <path d="M95.4828 99.4614L92.7158 101.062V264.922L95.4828 263.347V99.4614Z" fill="#F8D848" />
    <path d="M95.4828 99.4614L92.7158 101.062V264.922L95.4828 263.347V99.4614Z" fill="white"
        opacity="0.45" />
    <path d="M92.716 101.062V264.922L89.936 263.334V102.65L92.716 101.062Z" fill="#F8D848" />
    <path d="M92.716 101.062V264.922L89.936 263.334V102.65L92.716 101.062Z" fill="white"
        opacity="0.25" />
    <path d="M136.236 244.16L138.919 245.702V78.7319L136.236 80.2807V244.16Z" fill="#F8D848" />
    <path d="M136.236 244.16L138.919 245.702V78.7319L136.236 80.2807V244.16Z" fill="white"
        opacity="0.25" />
    <path
        d="M138.918 245.702L149.552 239.565V60.3157L45.8525 120.184V299.434L56.4862 293.298V126.327L138.918 78.7318V245.702Z"
        fill="#F8D848" />
    <g opacity="0.45">
        <path
            d="M138.918 245.702L149.552 239.565V60.3157L45.8525 120.184V299.434L56.4862 293.298V126.327L138.918 78.7318V245.702Z"
            fill="white" />
    </g>
    <path d="M149.552 60.3158L45.8526 120.185L43.2087 118.655L146.915 58.78L149.552 60.3158Z"
        fill="#F8D848" />
    <path d="M149.552 60.3158L45.8526 120.185L43.2087 118.655L146.915 58.78L149.552 60.3158Z"
        fill="white" opacity="0.6" />
    <path d="M45.8526 299.434V120.185L43.2087 118.655V297.912L45.8526 299.434Z" fill="#F8D848" />
    <path d="M43.2087 118.655V297.912L45.8526 299.434V120.185L43.2087 118.655Z" fill="white"
        opacity="0.25" />
    <path d="M153.913 75.2068V64.9749L174.597 87.1494L153.913 75.2068Z" fill="#E0E0E0" />
    <path
        d="M272.076 36.0091C271.995 37.5387 271.553 39.0275 270.788 40.354C270.022 41.6806 268.954 42.8074 267.67 43.6426H267.624C265.188 45.0487 263.218 43.9083 263.218 41.0959V35.9832L272.076 30.864V36.0091Z"
        fill="#F5F5F5" />
    <path
        d="M254.353 46.2411C254.272 47.7706 253.831 49.2594 253.065 50.586C252.299 51.9125 251.231 53.0393 249.947 53.8745H249.902C247.465 55.2807 245.495 54.1402 245.495 51.3279V46.2151L254.353 41.0959V46.2411Z"
        fill="#F5F5F5" />
    <path
        d="M236.63 56.473C236.549 58.0026 236.108 59.4913 235.342 60.8179C234.576 62.1444 233.508 63.2713 232.224 64.1064H232.179C229.742 65.5126 227.766 64.3721 227.766 61.5663V56.4471L236.63 51.3279V56.473Z"
        fill="#F5F5F5" />
    <path
        d="M218.908 66.7049C218.827 68.2345 218.385 69.7233 217.619 71.0498C216.854 72.3764 215.785 73.5032 214.501 74.3384H214.456C212.019 75.7445 210.043 74.6105 210.043 71.7982V66.679L218.908 61.5598V66.7049Z"
        fill="#F5F5F5" />
    <path
        d="M201.184 76.937C201.104 78.4683 200.662 79.9587 199.895 81.2865C199.128 82.6143 198.058 83.7418 196.772 84.5769H196.726C194.296 85.9831 192.32 84.8426 192.32 82.0303V76.8852L201.184 71.7725V76.937Z"
        fill="#F5F5F5" />
    <path
        d="M183.455 87.169C183.375 88.6996 182.934 90.1897 182.169 91.5174C181.403 92.8452 180.334 93.973 179.049 94.8089H179.004C176.567 96.215 174.597 95.0746 174.597 92.2622V87.1171L183.455 82.0044V87.169Z"
        fill="#F5F5F5" />
    <path d="M174.597 87.1494L272.076 30.8641L251.398 8.69604L153.913 64.9748L174.597 87.1494Z"
        fill="#FAFAFA" />
    <path
        d="M251.269 9.56437L270.981 30.7021L174.727 86.2746L155.008 65.1433L251.269 9.56437ZM251.398 8.69604L153.913 64.9748L174.597 87.1429L272.076 30.8641L251.424 8.69604H251.398Z"
        fill="#E0E0E0" />
    <path d="M183.456 82.0302L162.778 59.8621L171.636 54.7429L192.32 76.911L183.456 82.0302Z"
        fill="#F8D848" />
    <path d="M201.178 71.7983L180.5 49.6302L189.365 44.511L210.043 66.6791L201.178 71.7983Z"
        fill="#F8D848" />
    <path d="M218.901 61.5663L198.223 39.3983L207.081 34.2791L227.765 56.4471L218.901 61.5663Z"
        fill="#F8D848" />
    <path d="M236.624 51.3344L215.946 29.1598L224.811 24.0471L245.489 46.2152L236.624 51.3344Z"
        fill="#F8D848" />
    <path d="M254.347 41.096L233.669 18.9279L242.527 13.8152L263.211 35.9833L254.347 41.096Z"
        fill="#F8D848" />
    <path
        d="M263.218 41.122C263.137 42.6533 262.695 44.1437 261.928 45.4715C261.161 46.7993 260.091 47.9269 258.805 48.762H258.759C256.329 50.1616 254.353 49.0276 254.353 46.2153V41.0961L263.218 35.9834V41.122Z"
        fill="#F8D848" />
    <path
        d="M245.495 51.354C245.407 52.8831 244.96 54.3698 244.188 55.693C243.417 57.0162 242.344 58.1383 241.056 58.968H241.011C238.581 60.3741 236.604 59.2337 236.604 56.4213V51.3281L245.469 46.2153L245.495 51.354Z"
        fill="#F8D848" />
    <path
        d="M227.772 61.5923C227.691 63.1224 227.248 64.6115 226.481 65.9382C225.714 67.2648 224.645 68.3912 223.359 69.2257H223.314C220.878 70.6319 218.908 69.4914 218.908 66.6791V61.5599L227.772 56.4407V61.5923Z"
        fill="#F8D848" />
    <path
        d="M210.043 71.8243C209.962 73.3539 209.52 74.8426 208.754 76.1692C207.989 77.4958 206.92 78.6226 205.636 79.4578H205.591C203.154 80.8639 201.185 79.7234 201.185 76.9111V71.7984L210.043 66.6792V71.8243Z"
        fill="#F8D848" />
    <path
        d="M192.32 82.056C192.239 83.5856 191.798 85.0744 191.032 86.4009C190.266 87.7275 189.198 88.8543 187.914 89.6895H187.868C185.432 91.0957 183.462 89.9552 183.462 87.1428V82.0042L192.32 76.885V82.056Z"
        fill="#F8D848" />
    <g opacity="0.2">
        <path
            d="M263.218 41.122C263.137 42.6533 262.695 44.1437 261.928 45.4715C261.161 46.7993 260.091 47.9269 258.805 48.762H258.759C256.329 50.1616 254.353 49.0276 254.353 46.2153V41.0961L263.218 35.9834V41.122Z"
            fill="black" />
        <path
            d="M245.495 51.354C245.407 52.8831 244.96 54.3698 244.188 55.693C243.417 57.0162 242.344 58.1383 241.056 58.968H241.011C238.581 60.3741 236.604 59.2337 236.604 56.4213V51.3281L245.469 46.2153L245.495 51.354Z"
            fill="black" />
        <path
            d="M227.772 61.5923C227.691 63.1224 227.248 64.6115 226.481 65.9382C225.714 67.2648 224.645 68.3912 223.359 69.2257H223.314C220.878 70.6319 218.908 69.4914 218.908 66.6791V61.5599L227.772 56.4407V61.5923Z"
            fill="black" />
        <path
            d="M210.043 71.8243C209.962 73.3539 209.52 74.8426 208.754 76.1692C207.989 77.4958 206.92 78.6226 205.636 79.4578H205.591C203.154 80.8639 201.185 79.7234 201.185 76.9111V71.7984L210.043 66.6792V71.8243Z"
            fill="black" />
        <path
            d="M192.32 82.0563C192.239 83.5859 191.798 85.0746 191.032 86.4012C190.266 87.7277 189.198 88.8545 187.914 89.6897H187.868C185.432 91.0959 183.462 89.9554 183.462 87.1431V82.0045L192.32 76.8853V82.0563Z"
            fill="black" />
    </g>
    <path
        d="M137.007 320.378C161.045 320.378 180.533 309.127 180.533 295.248C180.533 281.37 161.045 270.119 137.007 270.119C112.968 270.119 93.4805 281.37 93.4805 295.248C93.4805 309.127 112.968 320.378 137.007 320.378Z"
        fill="#F0F0F0" />
    <path
        d="M178.414 301.858L295.106 234.466C295.286 234.406 295.442 234.292 295.553 234.138C295.664 233.985 295.724 233.8 295.724 233.61C295.724 233.421 295.664 233.236 295.553 233.083C295.442 232.929 295.286 232.814 295.106 232.755L292.514 231.252C292.054 231.018 291.545 230.897 291.03 230.897C290.514 230.897 290.006 231.018 289.546 231.252L172.854 298.644C172.031 299.117 172.031 299.888 172.854 300.361L175.446 301.858C175.906 302.091 176.414 302.213 176.93 302.213C177.446 302.213 177.954 302.091 178.414 301.858Z"
        fill="#F0F0F0" />
    <path
        d="M40.286 302.616L45.9106 299.376C45.9106 299.376 49.2478 285.47 47.9518 272.951C46.0791 255.351 34.4929 248.728 30.0865 250.271C25.6801 251.813 24.41 256.913 31.6935 267.391C35.9638 273.553 41.245 286.416 40.286 302.616Z"
        fill="#F8D848" />
    <g opacity="0.65">
        <path
            d="M40.286 302.616L45.9106 299.376C45.9106 299.376 49.2478 285.47 47.9518 272.951C46.0791 255.351 34.4929 248.728 30.0865 250.271C25.6801 251.813 24.41 256.913 31.6935 267.391C35.9638 273.553 41.245 286.416 40.286 302.616Z"
            fill="white" />
    </g>
    <path
        d="M42.6124 295.799H42.5605C42.4586 295.779 42.3688 295.719 42.3106 295.633C42.2524 295.547 42.2304 295.441 42.2495 295.339C45.334 279.107 39.6575 260.866 32.6396 253.277C32.584 253.199 32.5588 253.103 32.5688 253.007C32.5788 252.912 32.6234 252.823 32.6941 252.758C32.7648 252.693 32.8569 252.656 32.953 252.653C33.0491 252.651 33.1428 252.684 33.2164 252.746C40.3444 260.477 46.1439 279.016 43.0141 295.514C42.9904 295.601 42.9374 295.676 42.8642 295.728C42.7909 295.78 42.7019 295.805 42.6124 295.799Z"
        fill="white" />
    <path
        d="M26.1273 310.807C25.2849 311.234 23.0493 309.323 22.4272 308.863C21.3614 308.054 20.5203 306.985 19.9842 305.759C19.3882 304.365 19.2387 302.821 19.5566 301.339C19.7204 300.557 19.9368 299.786 20.2046 299.033L20.9951 296.784C21.2961 296.068 21.4482 295.299 21.4422 294.523C21.3191 292.961 20.0037 291.807 18.7984 290.809C17.47 289.701 16.0962 288.263 16.2064 286.403C16.3806 284.96 17.0278 283.616 18.0467 282.58C18.9928 281.498 20.1009 280.552 20.9692 279.405C21.6454 278.606 22.0274 277.6 22.0514 276.553C22 275.91 21.8169 275.283 21.5135 274.713C20.9174 273.463 20.1074 272.309 19.7186 270.981C19.3298 269.652 19.4723 268.032 20.5415 267.151C21.4163 266.432 22.6605 266.386 23.7815 266.503C24.8326 266.687 25.8317 267.096 26.7105 267.702C29.5876 269.497 31.1039 273.093 34.1755 274.512C35.4033 274.965 36.6586 275.339 37.9338 275.633C39.178 276.035 40.4351 276.741 40.96 277.94C41.9968 280.299 39.7158 283.033 40.4027 285.515C41.0054 287.719 43.066 288.652 44.1482 290.66C44.5864 291.545 44.7317 292.546 44.5629 293.518C44.3755 295.167 43.8879 296.768 43.1243 298.242C42.269 299.757 41.3212 301.218 40.2861 302.616C40.2861 302.616 26.2569 310.742 26.1273 310.807Z"
        fill="#F8D848" />
    <g opacity="0.3">
        <path
            d="M26.1273 310.807C25.2849 311.234 23.0493 309.323 22.4272 308.863C21.3614 308.054 20.5203 306.985 19.9842 305.759C19.3882 304.365 19.2387 302.821 19.5566 301.339C19.7204 300.557 19.9368 299.786 20.2046 299.033L20.9951 296.784C21.2961 296.068 21.4482 295.299 21.4422 294.523C21.3191 292.961 20.0037 291.807 18.7984 290.809C17.47 289.701 16.0962 288.263 16.2064 286.403C16.3806 284.96 17.0278 283.616 18.0467 282.58C18.9928 281.498 20.1009 280.552 20.9692 279.405C21.6454 278.606 22.0274 277.6 22.0514 276.553C22 275.91 21.8169 275.283 21.5135 274.713C20.9174 273.463 20.1074 272.309 19.7186 270.981C19.3298 269.652 19.4723 268.032 20.5415 267.151C21.4163 266.432 22.6605 266.386 23.7815 266.503C24.8326 266.687 25.8317 267.096 26.7105 267.702C29.5876 269.497 31.1039 273.093 34.1755 274.512C35.4033 274.965 36.6586 275.339 37.9338 275.633C39.178 276.035 40.4351 276.741 40.96 277.94C41.9968 280.299 39.7158 283.033 40.4027 285.515C41.0054 287.719 43.066 288.652 44.1482 290.66C44.5864 291.545 44.7317 292.546 44.5629 293.518C44.3755 295.167 43.8879 296.768 43.1243 298.242C42.269 299.757 41.3212 301.218 40.2861 302.616C40.2861 302.616 26.2569 310.742 26.1273 310.807Z"
            fill="white" />
    </g>
    <path
        d="M34.2661 306.562C34.1681 306.553 34.0777 306.505 34.0138 306.43C33.9498 306.356 33.9171 306.259 33.9226 306.161C35.2705 291.561 29.1922 275.057 24.4165 270.112C24.3801 270.078 24.351 270.037 24.331 269.991C24.311 269.945 24.3006 269.896 24.3003 269.846C24.3 269.796 24.3099 269.746 24.3293 269.7C24.3488 269.654 24.3774 269.612 24.4134 269.577C24.4494 269.543 24.4921 269.516 24.5389 269.498C24.5857 269.48 24.6356 269.472 24.6856 269.474C24.7355 269.477 24.7846 269.489 24.8296 269.511C24.8747 269.532 24.9149 269.563 24.9478 269.601C29.8208 274.642 36.0286 291.419 34.6678 306.225C34.6638 306.274 34.6501 306.321 34.6277 306.365C34.6053 306.408 34.5745 306.446 34.5371 306.478C34.4998 306.509 34.4566 306.533 34.4101 306.547C34.3636 306.562 34.3146 306.567 34.2661 306.562Z"
        fill="white" />
    <path
        d="M32.8147 288.561H32.711C29.294 287.429 25.7627 286.677 22.181 286.319C22.1325 286.315 22.0852 286.301 22.0419 286.279C21.9986 286.256 21.9602 286.225 21.9289 286.188C21.8976 286.151 21.8739 286.108 21.8594 286.061C21.8448 286.015 21.8396 285.966 21.8441 285.917C21.8463 285.868 21.8588 285.82 21.8807 285.775C21.9025 285.731 21.9333 285.692 21.9711 285.66C22.0088 285.629 22.0527 285.605 22.1 285.591C22.1473 285.578 22.197 285.574 22.2458 285.58C25.891 285.951 29.4849 286.718 32.9637 287.868C33.0546 287.903 33.1283 287.971 33.1694 288.06C33.2105 288.148 33.2157 288.249 33.1841 288.341C33.1524 288.411 33.1001 288.469 33.034 288.509C32.968 288.548 32.8914 288.566 32.8147 288.561Z"
        fill="white" />
    <path
        d="M180.086 188.238L285.004 127.688C285.308 127.466 285.667 127.328 286.043 127.289C286.419 127.25 286.798 127.312 287.142 127.468C287.667 127.766 289.54 128.842 290.058 129.153C290.361 129.373 290.6 129.668 290.754 130.009C290.907 130.35 290.969 130.725 290.933 131.097V224.474C290.874 225.535 290.566 226.568 290.035 227.489C289.504 228.409 288.764 229.192 287.874 229.774L182.956 290.336C182.648 290.56 182.286 290.698 181.906 290.735C181.527 290.773 181.145 290.709 180.799 290.55C180.287 290.246 178.44 289.177 177.922 288.885C177.615 288.668 177.371 288.374 177.214 288.033C177.057 287.692 176.992 287.315 177.027 286.941V193.538C177.084 192.476 177.391 191.443 177.922 190.522C178.454 189.601 179.195 188.818 180.086 188.238Z"
        fill="#37474F" />
    <path
        d="M179.898 195.197V288.574C179.869 288.918 179.918 289.263 180.041 289.586C180.164 289.908 180.359 290.198 180.61 290.434L177.921 288.885C177.613 288.669 177.368 288.375 177.21 288.034C177.052 287.693 176.986 287.316 177.021 286.941V193.538C177.06 192.474 177.37 191.437 177.921 190.525L180.792 192.178C180.237 193.089 179.929 194.13 179.898 195.197Z"
        fill="#263238" />
    <path
        d="M287.874 129.341L182.956 189.897C182.064 190.476 181.321 191.258 180.788 192.179C180.256 193.101 179.948 194.135 179.891 195.197V288.574C179.891 290.518 181.265 291.315 182.956 290.337L287.874 229.787C288.763 229.205 289.503 228.422 290.035 227.502C290.566 226.581 290.873 225.548 290.932 224.487V131.11C290.952 129.159 289.559 128.369 287.874 129.341Z"
        fill="#455A64" />
    <path
        d="M199.759 186.955C198.855 187.543 198.103 188.335 197.564 189.269C197.024 190.202 196.713 191.25 196.655 192.326C196.655 194.309 198.041 195.106 199.759 194.121C200.661 193.531 201.412 192.737 201.95 191.802C202.488 190.868 202.799 189.82 202.856 188.743C202.856 186.767 201.469 185.976 199.759 186.955Z"
        fill="#263238" />
    <path
        d="M196.655 192.327C196.651 192.631 196.69 192.934 196.772 193.227C197.065 193.148 197.346 193.03 197.608 192.877C198.511 192.289 199.263 191.496 199.803 190.563C200.342 189.63 200.653 188.582 200.712 187.505C200.713 187.201 200.673 186.899 200.595 186.605C200.302 186.684 200.021 186.802 199.759 186.955C198.855 187.543 198.103 188.336 197.564 189.269C197.025 190.202 196.713 191.25 196.655 192.327Z"
        fill="#FAFAFA" />
    <path
        d="M269.71 146.565C268.808 147.154 268.057 147.947 267.517 148.88C266.978 149.814 266.666 150.861 266.606 151.937C266.606 153.92 268 154.723 269.71 153.732C270.609 153.146 271.357 152.358 271.895 151.431C272.433 150.503 272.745 149.462 272.808 148.392C272.808 146.377 271.428 145.573 269.71 146.565Z"
        fill="#263238" />
    <path
        d="M266.606 151.937C266.605 152.241 266.645 152.544 266.723 152.837C267.018 152.759 267.302 152.642 267.566 152.487C268.471 151.897 269.224 151.101 269.764 150.164C270.303 149.227 270.613 148.176 270.669 147.096C270.672 146.791 270.63 146.488 270.546 146.195C270.253 146.275 269.972 146.392 269.71 146.545C268.805 147.136 268.052 147.933 267.513 148.869C266.974 149.806 266.663 150.857 266.606 151.937Z"
        fill="#FAFAFA" />
    <path
        d="M194.517 229.34C194.517 217.391 198.405 214.047 200.757 212.693C204.839 210.334 206.135 213.393 206.135 217.994C206.136 219.41 206.054 220.825 205.889 222.232C205.851 222.44 205.771 222.639 205.654 222.816C205.538 222.994 205.386 223.145 205.209 223.262L203.265 224.402C202.934 224.59 202.668 224.435 202.668 224.052V222.724C202.668 218.382 202.02 216.575 200.828 217.268C199.396 218.091 198.644 220.106 198.644 225.186V243.292C198.644 248.21 199.215 249.389 200.796 248.476C201.807 247.892 202.74 245.955 202.74 242.773V239.585C202.75 239.378 202.809 239.177 202.913 238.997C203.016 238.818 203.161 238.666 203.336 238.555L205.714 237.181C206.045 236.993 206.31 237.142 206.31 237.524V240.505C206.31 246.862 204.366 250.957 200.822 253.025C198.379 254.437 194.568 255.286 194.568 243.382L194.517 229.34Z"
        fill="#E6E6E6" />
    <path
        d="M209.952 207.749L212.661 206.181C212.991 205.993 213.257 206.142 213.257 206.524V240.052C213.257 240.434 213.523 240.589 213.853 240.395L217.981 238.017C218.311 237.822 218.577 237.978 218.577 238.36V241.704C218.567 241.911 218.508 242.112 218.404 242.292C218.3 242.471 218.155 242.623 217.981 242.734L209.952 247.387C209.622 247.575 209.356 247.426 209.356 247.043V208.779C209.366 208.572 209.425 208.371 209.529 208.191C209.632 208.012 209.778 207.86 209.952 207.749Z"
        fill="#E6E6E6" />
    <path
        d="M220.32 228.478V214.443C220.32 202.487 224.312 199.092 226.729 197.698C229.146 196.305 233.072 194.938 233.072 207.075V221.117C233.072 232.885 228.971 236.74 226.729 238.036C224.208 239.481 220.32 240.408 220.32 228.478ZM229.003 225.815V207.781C229.003 202.694 228.264 201.541 226.729 202.435C225.193 203.33 224.402 205.351 224.402 210.432V228.465C224.402 233.384 225.141 234.421 226.729 233.507C228.316 232.593 229.01 230.733 229.01 225.815H229.003Z"
        fill="#E6E6E6" />
    <path
        d="M236.766 219.173L238.606 218.11C238.937 217.923 239.203 218.11 239.203 218.46V219.672C239.203 223.942 239.851 225.919 241.736 224.824C243.214 223.968 244.024 222.199 244.024 219.808C244.163 217.745 243.517 215.706 242.216 214.099L238.146 209C236.578 206.783 235.779 204.113 235.872 201.398C235.872 196.124 238.043 191.16 241.795 188.996C246.331 186.365 247.691 189.974 247.691 193.992C247.665 195.43 247.55 196.864 247.348 198.288C247.314 198.493 247.239 198.69 247.128 198.866C247.016 199.042 246.871 199.193 246.7 199.312L244.873 200.368C244.549 200.556 244.276 200.401 244.276 200.025V198.832C244.276 194.653 243.538 192.735 241.775 193.752C240.317 194.601 239.591 196.383 239.591 198.476C239.591 200.725 240.058 201.638 240.81 202.733L245.346 208.565C247.079 210.914 247.98 213.773 247.905 216.691C247.905 222.309 245.54 227.202 241.769 229.379C237.11 232.068 235.788 228.66 235.788 224.435C235.79 223.019 235.89 221.606 236.086 220.203C236.123 219.995 236.203 219.795 236.32 219.618C236.437 219.441 236.589 219.29 236.766 219.173Z"
        fill="#E6E6E6" />
    <path
        d="M251.787 183.585L260.133 178.764C260.464 178.569 260.729 178.725 260.729 179.107V182.464C260.719 182.671 260.66 182.872 260.556 183.052C260.453 183.231 260.308 183.383 260.133 183.494L255.092 186.41V198.288L258.85 196.117C259.181 195.923 259.446 196.078 259.446 196.461V199.817C259.436 200.024 259.377 200.226 259.273 200.405C259.17 200.584 259.025 200.736 258.85 200.848L255.092 203.025V216.633L260.276 213.633C260.606 213.445 260.872 213.6 260.872 213.976V217.333C260.863 217.541 260.804 217.744 260.7 217.924C260.597 218.104 260.451 218.257 260.276 218.37L251.78 223.275C251.45 223.463 251.178 223.314 251.178 222.931V184.615C251.189 184.407 251.25 184.205 251.356 184.026C251.462 183.846 251.61 183.695 251.787 183.585Z"
        fill="#E6E6E6" />
    <path
        d="M264.3 176.36L267.754 174.364C271.467 172.219 276.21 169.782 276.21 183.546V195.048C276.21 208.831 271.467 211.857 267.754 213.996L264.3 215.991C263.969 216.179 263.697 216.03 263.697 215.648V177.39C263.708 177.183 263.768 176.981 263.873 176.801C263.978 176.622 264.124 176.471 264.3 176.36ZM272.16 197.899V185.587C272.16 178.135 271.467 176.612 268.635 178.245L268.136 178.537C267.982 178.646 267.855 178.789 267.766 178.955C267.677 179.122 267.628 179.307 267.624 179.496V209.174C267.624 209.557 267.844 209.732 268.123 209.576L268.622 209.291C271.434 207.678 272.16 205.351 272.16 197.899Z"
        fill="#E6E6E6" />
    <path
        d="M213.341 188.633C213.593 188.468 213.883 188.372 214.184 188.354C214.398 188.348 214.608 188.414 214.78 188.542C214.943 188.672 215.066 188.845 215.136 189.041C215.215 189.248 215.259 189.467 215.266 189.689C215.265 189.756 215.252 189.822 215.227 189.883C215.201 189.947 215.155 190.002 215.097 190.039L214.929 190.13C214.914 190.138 214.897 190.142 214.88 190.142C214.863 190.142 214.847 190.138 214.832 190.13C214.784 190.13 214.758 190.078 214.754 189.974C214.76 189.817 214.723 189.661 214.648 189.523C214.572 189.385 214.461 189.27 214.326 189.19C214.162 189.131 213.986 189.114 213.814 189.141C213.641 189.168 213.479 189.238 213.341 189.346C213.143 189.461 212.958 189.598 212.79 189.754C212.622 189.907 212.475 190.084 212.356 190.279C212.235 190.481 212.141 190.699 212.078 190.927C212.006 191.164 211.971 191.411 211.974 191.659C211.967 191.857 211.997 192.055 212.065 192.242C212.127 192.374 212.232 192.482 212.363 192.547C212.527 192.617 212.703 192.652 212.881 192.65C213.129 192.668 213.378 192.668 213.626 192.65C213.892 192.635 214.158 192.635 214.423 192.65C214.623 192.661 214.817 192.721 214.987 192.825C215.144 192.933 215.261 193.091 215.318 193.272C215.399 193.537 215.436 193.813 215.428 194.089C215.435 194.818 215.247 195.537 214.883 196.169C214.525 196.794 214.006 197.311 213.38 197.666C213.114 197.832 212.816 197.938 212.505 197.977C212.28 198.004 212.053 197.956 211.857 197.841C211.67 197.73 211.526 197.559 211.449 197.355C211.347 197.12 211.296 196.866 211.3 196.61C211.3 196.54 211.315 196.471 211.345 196.409C211.368 196.347 211.412 196.294 211.468 196.26L211.63 196.163C211.682 196.163 211.728 196.163 211.754 196.163C211.782 196.206 211.802 196.254 211.812 196.305C211.825 196.467 211.867 196.625 211.935 196.772C211.994 196.905 212.094 197.017 212.22 197.089C212.37 197.159 212.536 197.183 212.7 197.16C212.941 197.122 213.172 197.036 213.38 196.908C213.866 196.65 214.27 196.262 214.546 195.787C214.791 195.356 214.918 194.869 214.916 194.374C214.925 194.179 214.889 193.984 214.812 193.804C214.737 193.676 214.62 193.578 214.482 193.525C214.304 193.468 214.117 193.444 213.931 193.454C213.704 193.454 213.445 193.454 213.14 193.493C212.888 193.519 212.634 193.519 212.382 193.493C212.195 193.473 212.016 193.404 211.864 193.292C211.716 193.167 211.609 193 211.559 192.812C211.487 192.542 211.454 192.263 211.462 191.983C211.462 191.659 211.503 191.337 211.585 191.024C211.669 190.702 211.791 190.391 211.948 190.097C212.109 189.801 212.307 189.527 212.538 189.281C212.771 189.025 213.042 188.806 213.341 188.633Z"
        fill="#F8D848" />
    <path
        d="M218.531 185.633C218.794 185.47 219.092 185.372 219.4 185.348C219.519 185.345 219.638 185.367 219.75 185.412C219.861 185.456 219.962 185.523 220.048 185.607C220.26 185.842 220.409 186.128 220.482 186.436C220.604 186.899 220.663 187.377 220.657 187.855C220.657 188.225 220.657 188.575 220.657 188.899C220.657 189.223 220.657 189.585 220.657 189.968C220.674 190.985 220.476 191.995 220.074 192.929C219.743 193.658 219.195 194.266 218.505 194.672C217.857 195.061 217.307 195.087 216.937 194.737C216.568 194.387 216.38 193.623 216.354 192.45C216.354 192.08 216.354 191.73 216.354 191.406C216.354 191.082 216.354 190.726 216.354 190.344C216.362 189.797 216.42 189.253 216.529 188.717C216.626 188.257 216.774 187.809 216.97 187.382C217.138 187.011 217.356 186.665 217.618 186.352C217.882 186.065 218.19 185.822 218.531 185.633ZM218.531 186.391C218.288 186.529 218.069 186.706 217.883 186.916C217.675 187.153 217.503 187.419 217.371 187.706C217.215 188.045 217.099 188.402 217.028 188.769C216.937 189.21 216.889 189.66 216.885 190.11C216.885 190.305 216.885 190.48 216.885 190.642C216.885 190.804 216.885 190.959 216.885 191.108C216.885 191.257 216.885 191.413 216.885 191.575C216.885 191.737 216.885 191.912 216.885 192.087C216.883 192.486 216.93 192.885 217.028 193.273C217.085 193.513 217.201 193.736 217.365 193.921C217.43 193.99 217.51 194.043 217.598 194.078C217.687 194.113 217.782 194.128 217.877 194.121C218.107 194.1 218.329 194.024 218.525 193.901C218.769 193.764 218.988 193.587 219.173 193.376C219.379 193.139 219.55 192.873 219.678 192.586C219.834 192.248 219.949 191.894 220.022 191.529C220.113 191.088 220.161 190.639 220.164 190.188C220.164 190 220.164 189.825 220.164 189.663V188.724C220.164 188.568 220.164 188.393 220.164 188.205C220.167 187.81 220.119 187.416 220.022 187.032C219.963 186.791 219.845 186.569 219.678 186.384C219.613 186.315 219.533 186.262 219.445 186.227C219.356 186.192 219.261 186.177 219.166 186.183C218.941 186.202 218.724 186.273 218.531 186.391Z"
        fill="#F8D848" />
    <path
        d="M224.079 182.561C224.649 182.23 225.102 182.179 225.439 182.399C225.776 182.619 225.951 183.157 225.951 184.012C225.962 184.628 225.852 185.24 225.627 185.814C225.423 186.318 225.114 186.773 224.72 187.149L226.016 189.825C226.022 189.866 226.022 189.907 226.016 189.948C226.017 190.02 226.001 190.091 225.971 190.156C225.948 190.214 225.907 190.264 225.854 190.298L225.757 190.35C225.666 190.408 225.601 190.408 225.556 190.35C225.511 190.297 225.474 190.238 225.446 190.175L224.15 187.544L222.472 188.516V191.95C222.48 192.026 222.468 192.103 222.434 192.172C222.401 192.241 222.349 192.299 222.284 192.339L222.141 192.424C222.018 192.488 221.96 192.424 221.96 192.249V184.032C221.95 183.956 221.962 183.878 221.994 183.809C222.026 183.739 222.077 183.679 222.141 183.637L224.079 182.561ZM222.51 187.784L224.033 186.903C224.488 186.647 224.862 186.268 225.11 185.809C225.359 185.351 225.473 184.831 225.439 184.311C225.439 183.127 224.971 182.803 224.033 183.339L222.51 184.22V187.784Z"
        fill="#F8D848" />
    <path
        d="M229.295 179.548C229.865 179.224 230.318 179.166 230.655 179.392C230.992 179.619 231.167 180.151 231.167 181.006C231.178 181.62 231.068 182.23 230.843 182.801C230.639 183.305 230.33 183.76 229.936 184.136L231.232 186.818C231.242 186.859 231.242 186.901 231.232 186.942C231.232 187.011 231.216 187.08 231.187 187.142C231.164 187.201 231.123 187.251 231.07 187.285L230.973 187.343C230.882 187.395 230.811 187.402 230.772 187.343C230.727 187.291 230.69 187.232 230.662 187.168L229.366 184.544L227.688 185.51V188.95C227.694 189.025 227.681 189.101 227.647 189.168C227.614 189.235 227.563 189.292 227.5 189.333L227.357 189.417C227.234 189.488 227.176 189.417 227.176 189.242V181.038C227.165 180.963 227.177 180.886 227.209 180.817C227.241 180.748 227.293 180.69 227.357 180.65L229.295 179.548ZM227.726 184.771L229.249 183.89C229.704 183.634 230.078 183.255 230.326 182.796C230.575 182.338 230.689 181.818 230.655 181.298C230.655 180.112 230.182 179.788 229.249 180.326L227.726 181.207V184.771Z"
        fill="#F8D848" />
    <path
        d="M234.051 181.44L235.82 175.99C235.845 175.872 235.912 175.766 236.008 175.692L236.17 175.595C236.187 175.583 236.207 175.576 236.228 175.576C236.249 175.576 236.27 175.583 236.287 175.595C236.304 175.615 236.317 175.639 236.325 175.665C236.333 175.691 236.335 175.718 236.332 175.744C236.341 175.804 236.341 175.865 236.332 175.926L234.31 182.088V185.16C234.319 185.235 234.305 185.31 234.272 185.378C234.239 185.446 234.187 185.503 234.122 185.542L233.973 185.633C233.85 185.704 233.792 185.633 233.792 185.458V182.386L231.802 178.498C231.784 178.451 231.773 178.4 231.77 178.349C231.772 178.279 231.79 178.21 231.822 178.148C231.845 178.091 231.883 178.042 231.932 178.006L232.094 177.915C232.172 177.87 232.237 177.915 232.282 177.993L234.051 181.44Z"
        fill="#F8D848" />
    <path
        d="M242.89 179.042L243.842 171.338C243.846 171.278 243.863 171.221 243.894 171.17C243.924 171.119 243.967 171.077 244.017 171.046L244.192 170.949C244.2 170.942 244.208 170.936 244.218 170.932C244.227 170.928 244.237 170.926 244.247 170.926C244.258 170.926 244.268 170.928 244.277 170.932C244.287 170.936 244.295 170.942 244.303 170.949C244.339 170.99 244.357 171.043 244.354 171.098C244.354 171.098 244.354 171.169 244.354 171.26L243.24 179.982C243.237 180.067 243.215 180.15 243.176 180.225C243.137 180.3 243.081 180.366 243.013 180.416L242.89 180.487C242.76 180.565 242.676 180.513 242.637 180.332L241.555 175.666L240.466 181.583C240.461 181.671 240.435 181.756 240.393 181.833C240.35 181.911 240.291 181.978 240.22 182.03L240.097 182.101C239.974 182.172 239.896 182.101 239.864 181.932L238.749 174.493C238.745 174.448 238.745 174.403 238.749 174.357C238.749 174.286 238.764 174.215 238.795 174.15C238.819 174.092 238.86 174.043 238.911 174.007L239.08 173.91C239.183 173.852 239.242 173.878 239.261 173.994L240.214 180.598L241.225 174.908C241.24 174.822 241.268 174.739 241.309 174.662C241.341 174.581 241.401 174.515 241.477 174.474L241.659 174.37C241.73 174.325 241.788 174.325 241.827 174.37C241.868 174.414 241.897 174.468 241.911 174.526L242.89 179.042Z"
        fill="#F8D848" />
    <path
        d="M248.936 176.256C249.059 176.185 249.124 176.256 249.124 176.431V176.625C249.131 176.7 249.117 176.776 249.083 176.843C249.05 176.91 248.999 176.967 248.936 177.008L245.696 178.88C245.579 178.954 245.521 178.896 245.521 178.705V170.476C245.511 170.4 245.523 170.324 245.554 170.254C245.584 170.184 245.634 170.125 245.696 170.081L248.877 168.247C249 168.175 249.065 168.247 249.065 168.428V168.616C249.072 168.691 249.058 168.766 249.025 168.834C248.992 168.901 248.941 168.958 248.877 168.998L246.033 170.644V173.845L248.696 172.303C248.819 172.232 248.884 172.303 248.884 172.485V172.673C248.891 172.747 248.877 172.823 248.844 172.89C248.811 172.958 248.759 173.015 248.696 173.055L246.033 174.597V177.921L248.936 176.256Z"
        fill="#F8D848" />
    <path
        d="M253.556 165.545C254.126 165.214 254.58 165.162 254.917 165.383C255.254 165.603 255.429 166.141 255.429 166.996C255.439 167.61 255.329 168.22 255.105 168.791C254.906 169.298 254.596 169.754 254.197 170.126L255.493 172.809C255.5 172.849 255.5 172.891 255.493 172.932C255.495 173.001 255.479 173.07 255.448 173.133C255.425 173.191 255.384 173.241 255.331 173.275L255.234 173.334C255.143 173.385 255.079 173.392 255.033 173.334C254.986 173.283 254.948 173.223 254.923 173.159L253.627 170.534L251.949 171.506V174.96C251.957 175.035 251.944 175.111 251.911 175.179C251.877 175.246 251.825 175.303 251.761 175.342L251.618 175.427C251.495 175.498 251.437 175.427 251.437 175.258V167.029C251.428 166.953 251.44 166.877 251.472 166.808C251.504 166.74 251.555 166.681 251.618 166.64L253.556 165.545ZM251.988 170.729L253.51 169.854C253.965 169.598 254.338 169.219 254.587 168.76C254.835 168.302 254.95 167.782 254.917 167.262C254.917 166.069 254.448 165.745 253.51 166.29L251.988 167.184V170.729ZM250.407 168.201C250.41 168.245 250.404 168.289 250.387 168.33C250.37 168.371 250.343 168.407 250.309 168.435L250.199 168.499C250.139 168.53 250.106 168.491 250.102 168.383L250.011 166.97C250.007 166.923 250.015 166.876 250.035 166.833C250.054 166.79 250.084 166.752 250.121 166.724L250.387 166.575C250.399 166.565 250.414 166.559 250.429 166.559C250.445 166.559 250.46 166.565 250.471 166.575C250.48 166.593 250.484 166.613 250.484 166.633C250.484 166.653 250.48 166.673 250.471 166.692L250.407 168.201Z"
        fill="#F8D848" />
    <path
        d="M260.113 169.776C260.237 169.705 260.301 169.776 260.301 169.957V170.145C260.309 170.221 260.295 170.298 260.262 170.366C260.229 170.435 260.177 170.493 260.113 170.534L256.873 172.407C256.75 172.472 256.692 172.407 256.692 172.232V164.022C256.683 163.946 256.695 163.868 256.727 163.798C256.759 163.729 256.81 163.669 256.873 163.626L260.049 161.793C260.172 161.721 260.237 161.793 260.237 161.974V162.162C260.244 162.237 260.23 162.312 260.196 162.38C260.163 162.447 260.112 162.504 260.049 162.544L257.204 164.19V167.391L259.867 165.849C259.997 165.778 260.055 165.849 260.055 166.031V166.218C260.064 166.294 260.05 166.369 260.017 166.437C259.984 166.505 259.932 166.562 259.867 166.601L257.204 168.143V171.467L260.113 169.776Z"
        fill="#F8D848" />
    <g opacity="0.4">
        <path
            d="M213.341 188.633C213.593 188.468 213.883 188.372 214.184 188.354C214.398 188.348 214.608 188.414 214.78 188.542C214.943 188.672 215.066 188.845 215.136 189.041C215.215 189.248 215.259 189.467 215.266 189.689C215.265 189.756 215.252 189.822 215.227 189.883C215.201 189.947 215.155 190.002 215.097 190.039L214.929 190.13C214.914 190.138 214.897 190.142 214.88 190.142C214.863 190.142 214.847 190.138 214.832 190.13C214.784 190.13 214.758 190.078 214.754 189.974C214.76 189.817 214.723 189.661 214.648 189.523C214.572 189.385 214.461 189.27 214.326 189.19C214.162 189.131 213.986 189.114 213.814 189.141C213.641 189.168 213.479 189.238 213.341 189.346C213.143 189.461 212.958 189.598 212.79 189.754C212.622 189.907 212.475 190.084 212.356 190.279C212.235 190.481 212.141 190.699 212.078 190.927C212.006 191.164 211.971 191.411 211.974 191.659C211.967 191.857 211.997 192.055 212.065 192.242C212.127 192.374 212.232 192.482 212.363 192.547C212.527 192.617 212.703 192.652 212.881 192.65C213.129 192.668 213.378 192.668 213.626 192.65C213.892 192.635 214.158 192.635 214.423 192.65C214.623 192.661 214.817 192.721 214.987 192.825C215.144 192.933 215.261 193.091 215.318 193.272C215.399 193.537 215.436 193.813 215.428 194.089C215.435 194.818 215.247 195.537 214.883 196.169C214.525 196.794 214.006 197.311 213.38 197.666C213.114 197.832 212.816 197.938 212.505 197.977C212.28 198.004 212.053 197.956 211.857 197.841C211.67 197.73 211.526 197.559 211.449 197.355C211.347 197.12 211.296 196.866 211.3 196.61C211.3 196.54 211.315 196.471 211.345 196.409C211.368 196.347 211.412 196.294 211.468 196.26L211.63 196.163C211.682 196.163 211.728 196.163 211.754 196.163C211.782 196.206 211.802 196.254 211.812 196.305C211.825 196.467 211.867 196.625 211.935 196.772C211.994 196.905 212.094 197.017 212.22 197.089C212.37 197.159 212.536 197.183 212.7 197.16C212.941 197.122 213.172 197.036 213.38 196.908C213.866 196.65 214.27 196.262 214.546 195.787C214.791 195.356 214.918 194.869 214.916 194.374C214.925 194.179 214.889 193.984 214.812 193.804C214.737 193.676 214.62 193.578 214.482 193.525C214.304 193.468 214.117 193.444 213.931 193.454C213.704 193.454 213.445 193.454 213.14 193.493C212.888 193.519 212.634 193.519 212.382 193.493C212.195 193.473 212.016 193.404 211.864 193.292C211.716 193.167 211.609 193 211.559 192.812C211.487 192.542 211.454 192.263 211.462 191.983C211.462 191.659 211.503 191.337 211.585 191.024C211.669 190.702 211.791 190.391 211.948 190.097C212.109 189.801 212.307 189.527 212.538 189.281C212.771 189.025 213.042 188.806 213.341 188.633Z"
            fill="white" />
        <path
            d="M218.532 185.633C218.794 185.47 219.092 185.372 219.4 185.348C219.52 185.345 219.639 185.367 219.75 185.412C219.861 185.456 219.963 185.523 220.048 185.607C220.26 185.842 220.41 186.128 220.482 186.436C220.605 186.899 220.663 187.377 220.657 187.855C220.657 188.225 220.657 188.575 220.657 188.899C220.657 189.223 220.657 189.585 220.657 189.968C220.675 190.985 220.476 191.995 220.074 192.929C219.743 193.658 219.195 194.266 218.506 194.672C217.858 195.061 217.307 195.087 216.938 194.737C216.568 194.387 216.38 193.623 216.354 192.45C216.354 192.08 216.354 191.73 216.354 191.406C216.354 191.082 216.354 190.726 216.354 190.344C216.362 189.797 216.421 189.253 216.529 188.717C216.626 188.257 216.774 187.809 216.97 187.382C217.139 187.011 217.357 186.665 217.618 186.352C217.882 186.065 218.191 185.822 218.532 185.633ZM218.532 186.391C218.288 186.529 218.069 186.706 217.884 186.916C217.676 187.153 217.503 187.419 217.372 187.706C217.215 188.045 217.1 188.402 217.028 188.769C216.938 189.21 216.89 189.66 216.886 190.11C216.886 190.305 216.886 190.48 216.886 190.642C216.886 190.804 216.886 190.959 216.886 191.108C216.886 191.257 216.886 191.413 216.886 191.575C216.886 191.737 216.886 191.912 216.886 192.087C216.883 192.486 216.931 192.885 217.028 193.273C217.086 193.513 217.201 193.736 217.365 193.921C217.431 193.99 217.51 194.043 217.599 194.078C217.687 194.113 217.782 194.128 217.877 194.121C218.108 194.1 218.329 194.024 218.525 193.901C218.77 193.764 218.989 193.587 219.173 193.376C219.38 193.139 219.55 192.873 219.679 192.586C219.835 192.248 219.95 191.894 220.022 191.529C220.114 191.088 220.161 190.639 220.165 190.188C220.165 190 220.165 189.825 220.165 189.663V188.724C220.165 188.568 220.165 188.393 220.165 188.205C220.167 187.81 220.119 187.416 220.022 187.032C219.963 186.791 219.845 186.569 219.679 186.384C219.613 186.315 219.534 186.262 219.445 186.227C219.357 186.192 219.262 186.177 219.167 186.183C218.942 186.202 218.724 186.273 218.532 186.391Z"
            fill="white" />
        <path
            d="M224.079 182.561C224.649 182.23 225.102 182.179 225.439 182.399C225.776 182.619 225.951 183.157 225.951 184.012C225.962 184.628 225.852 185.24 225.627 185.814C225.423 186.318 225.114 186.773 224.72 187.149L226.016 189.825C226.022 189.866 226.022 189.907 226.016 189.948C226.017 190.02 226.001 190.091 225.971 190.156C225.948 190.214 225.907 190.264 225.854 190.298L225.757 190.35C225.666 190.408 225.601 190.408 225.556 190.35C225.511 190.297 225.474 190.238 225.446 190.175L224.15 187.544L222.472 188.516V191.95C222.48 192.026 222.468 192.103 222.434 192.172C222.401 192.241 222.349 192.299 222.284 192.339L222.141 192.424C222.018 192.488 221.96 192.424 221.96 192.249V184.032C221.95 183.956 221.962 183.878 221.994 183.809C222.026 183.739 222.077 183.679 222.141 183.637L224.079 182.561ZM222.51 187.784L224.033 186.903C224.488 186.647 224.862 186.268 225.11 185.809C225.359 185.351 225.473 184.831 225.439 184.311C225.439 183.127 224.971 182.803 224.033 183.339L222.51 184.22V187.784Z"
            fill="white" />
        <path
            d="M229.295 179.548C229.865 179.224 230.319 179.166 230.656 179.392C230.993 179.619 231.168 180.151 231.168 181.006C231.178 181.62 231.068 182.23 230.844 182.801C230.639 183.305 230.33 183.76 229.937 184.136L231.233 186.818C231.242 186.859 231.242 186.901 231.233 186.942C231.232 187.011 231.217 187.08 231.187 187.142C231.164 187.201 231.124 187.251 231.071 187.285L230.973 187.343C230.883 187.395 230.811 187.402 230.772 187.343C230.728 187.291 230.691 187.232 230.662 187.168L229.366 184.544L227.688 185.51V188.95C227.695 189.025 227.681 189.101 227.648 189.168C227.615 189.235 227.564 189.292 227.5 189.333L227.358 189.417C227.234 189.488 227.176 189.417 227.176 189.242V181.038C227.166 180.963 227.177 180.886 227.209 180.817C227.242 180.748 227.293 180.69 227.358 180.65L229.295 179.548ZM227.727 184.771L229.25 183.89C229.705 183.634 230.078 183.255 230.327 182.796C230.576 182.338 230.69 181.818 230.656 181.298C230.656 180.112 230.183 179.788 229.25 180.326L227.727 181.207V184.771Z"
            fill="white" />
        <path
            d="M234.051 181.44L235.821 175.99C235.846 175.872 235.912 175.766 236.008 175.692L236.17 175.595C236.187 175.583 236.208 175.576 236.229 175.576C236.25 175.576 236.27 175.583 236.287 175.595C236.304 175.615 236.318 175.639 236.325 175.665C236.333 175.691 236.336 175.718 236.332 175.744C236.342 175.804 236.342 175.865 236.332 175.926L234.311 182.088V185.16C234.319 185.235 234.306 185.31 234.273 185.378C234.239 185.446 234.187 185.503 234.123 185.542L233.974 185.633C233.851 185.704 233.792 185.633 233.792 185.458V182.386L231.803 178.498C231.784 178.451 231.773 178.4 231.771 178.349C231.772 178.279 231.79 178.21 231.822 178.148C231.845 178.091 231.883 178.042 231.933 178.006L232.095 177.915C232.172 177.87 232.237 177.915 232.282 177.993L234.051 181.44Z"
            fill="white" />
        <path
            d="M242.89 179.042L243.842 171.338C243.846 171.278 243.863 171.221 243.894 171.17C243.924 171.119 243.967 171.077 244.017 171.046L244.192 170.949C244.2 170.942 244.208 170.936 244.218 170.932C244.227 170.928 244.237 170.926 244.247 170.926C244.258 170.926 244.268 170.928 244.277 170.932C244.287 170.936 244.295 170.942 244.303 170.949C244.339 170.99 244.357 171.043 244.354 171.098C244.354 171.098 244.354 171.169 244.354 171.26L243.24 179.982C243.237 180.067 243.215 180.15 243.176 180.225C243.137 180.3 243.081 180.366 243.013 180.416L242.89 180.487C242.76 180.565 242.676 180.513 242.637 180.332L241.555 175.666L240.466 181.583C240.461 181.671 240.435 181.756 240.393 181.833C240.35 181.911 240.291 181.978 240.22 182.03L240.097 182.101C239.974 182.172 239.896 182.101 239.864 181.932L238.749 174.493C238.745 174.448 238.745 174.403 238.749 174.357C238.749 174.286 238.764 174.215 238.795 174.15C238.819 174.092 238.86 174.043 238.911 174.007L239.08 173.91C239.183 173.852 239.242 173.878 239.261 173.994L240.214 180.598L241.225 174.908C241.24 174.822 241.268 174.739 241.309 174.662C241.341 174.581 241.401 174.515 241.477 174.474L241.659 174.37C241.73 174.325 241.788 174.325 241.827 174.37C241.868 174.414 241.897 174.468 241.911 174.526L242.89 179.042Z"
            fill="white" />
        <path
            d="M248.936 176.256C249.059 176.185 249.124 176.256 249.124 176.431V176.625C249.131 176.7 249.117 176.776 249.083 176.843C249.05 176.91 248.999 176.967 248.936 177.008L245.696 178.88C245.579 178.954 245.521 178.896 245.521 178.705V170.476C245.511 170.4 245.523 170.324 245.554 170.254C245.584 170.184 245.634 170.125 245.696 170.081L248.877 168.247C249 168.175 249.065 168.247 249.065 168.428V168.616C249.072 168.691 249.058 168.766 249.025 168.834C248.992 168.901 248.941 168.958 248.877 168.998L246.033 170.644V173.845L248.696 172.303C248.819 172.232 248.884 172.303 248.884 172.485V172.673C248.891 172.747 248.877 172.823 248.844 172.89C248.811 172.958 248.759 173.015 248.696 173.055L246.033 174.597V177.921L248.936 176.256Z"
            fill="white" />
        <path
            d="M253.556 165.545C254.127 165.214 254.58 165.162 254.917 165.383C255.254 165.603 255.429 166.141 255.429 166.996C255.44 167.61 255.33 168.22 255.105 168.791C254.906 169.298 254.596 169.754 254.198 170.126L255.494 172.809C255.5 172.849 255.5 172.891 255.494 172.932C255.495 173.001 255.479 173.07 255.448 173.133C255.426 173.191 255.385 173.241 255.332 173.275L255.235 173.334C255.144 173.385 255.079 173.392 255.034 173.334C254.986 173.283 254.949 173.223 254.924 173.159L253.628 170.534L251.949 171.506V174.96C251.958 175.035 251.945 175.111 251.911 175.179C251.878 175.246 251.826 175.303 251.761 175.342L251.619 175.427C251.496 175.498 251.437 175.427 251.437 175.258V167.029C251.429 166.953 251.441 166.877 251.473 166.808C251.505 166.74 251.555 166.681 251.619 166.64L253.556 165.545ZM251.988 170.729L253.511 169.854C253.965 169.598 254.338 169.219 254.587 168.76C254.836 168.302 254.95 167.782 254.917 167.262C254.917 166.069 254.448 165.745 253.511 166.29L251.988 167.184V170.729ZM250.407 168.201C250.411 168.245 250.404 168.289 250.387 168.33C250.37 168.371 250.344 168.407 250.31 168.435L250.2 168.499C250.139 168.53 250.107 168.491 250.102 168.383L250.012 166.97C250.008 166.923 250.016 166.876 250.035 166.833C250.054 166.79 250.084 166.752 250.122 166.724L250.388 166.575C250.399 166.565 250.414 166.559 250.43 166.559C250.445 166.559 250.46 166.565 250.472 166.575C250.48 166.593 250.484 166.613 250.484 166.633C250.484 166.653 250.48 166.673 250.472 166.692L250.407 168.201Z"
            fill="white" />
        <path
            d="M260.114 169.776C260.237 169.705 260.302 169.776 260.302 169.957V170.145C260.309 170.221 260.296 170.298 260.263 170.366C260.229 170.435 260.178 170.493 260.114 170.534L256.874 172.407C256.751 172.472 256.693 172.407 256.693 172.232V164.022C256.683 163.946 256.695 163.868 256.727 163.798C256.759 163.729 256.81 163.669 256.874 163.626L260.049 161.793C260.172 161.721 260.237 161.793 260.237 161.974V162.162C260.244 162.237 260.23 162.312 260.197 162.38C260.164 162.447 260.113 162.504 260.049 162.544L257.204 164.19V167.391L259.868 165.849C259.997 165.778 260.056 165.849 260.056 166.031V166.218C260.064 166.294 260.051 166.369 260.018 166.437C259.984 166.505 259.932 166.562 259.868 166.601L257.204 168.143V171.467L260.114 169.776Z"
            fill="white" />
    </g>
    <path
        d="M111.961 281.685C112.545 273.67 111.644 267.52 112.311 255.007C112.37 251.767 112.486 248.359 112.7 245.287C113.426 235.01 115.007 231.498 115.156 229.515C115.156 229.515 115.428 213.529 116.096 191.05C116.413 180.474 119.478 177.273 121.928 171.655H151.036C154.276 185.509 155.209 215.719 155.112 229.975C155.066 237.252 154.516 274.687 154.464 277.214C154.392 280.402 154.554 283.344 155.799 284.679C158.391 287.479 162.577 291.159 166.588 293.395C166.115 294.645 160.108 294.794 158.164 293.848C155.053 292.326 150.077 288.451 148.975 287.718C143.668 284.187 145.087 279.502 145.087 279.502V279.158C145.035 277.396 139.028 251.417 138.685 245.378C138.393 240.194 139.028 231.362 139.028 231.362L135.672 209.33C135.672 209.33 133.605 222.342 131.512 231.226C129.814 238.451 126.976 250.795 125.09 259.692C123.25 269.944 120.554 277.24 120.081 282.372C119.938 283.597 118.552 295.624 117.981 298.384C117.411 301.145 111.404 301.21 111.015 296.473C110.75 293.375 111.851 283.176 111.961 281.685Z"
        fill="#FFBDA7" />
    <path
        d="M135.659 209.388L138.108 193.506C138.108 193.506 147.588 192.385 151.068 189.073C151.068 189.073 146.72 195.203 140.292 196.201L137.59 209.369L139.015 231.213L135.659 209.388Z"
        fill="#B16668" />
    <path
        d="M170.696 297.037C170.865 297.037 171.027 299.026 170.048 299.804C168.901 300.704 165.597 302.104 161.378 301.3C157.16 300.497 154.931 299.039 153.311 297.49C151.691 295.941 149.423 293.771 147.517 293.233C145.755 292.734 143.863 291.801 143.325 291.205C142.787 290.608 142.994 288.12 142.994 288.12L170.696 297.037Z"
        fill="#263238" />
    <path
        d="M145.074 279.197C144.92 279.203 144.772 279.26 144.655 279.36C144.537 279.46 144.457 279.597 144.426 279.748C144.258 280.428 144.128 281.828 143.778 282.942C143.221 284.915 142.963 286.959 143.013 289.008C143.175 290.304 146.04 291.354 147.86 292.183C150.007 293.28 151.973 294.698 153.692 296.388C155.598 298.177 159.706 300.095 162.473 300.276C166.698 300.575 169.497 299.564 170.43 298.067C171.577 296.214 170.819 295.054 166.089 292.494C165.194 292.008 162.065 289.902 161.002 289.111C159.874 288.303 158.815 287.403 157.833 286.422C157.338 285.921 156.871 285.393 156.433 284.841C155.972 284.346 155.587 283.785 155.293 283.176C155.241 283.04 155.215 282.891 155.17 282.748C155.057 282.364 154.972 281.972 154.917 281.575C154.859 281.16 154.846 280.558 154.477 280.279C153.939 280.02 153.34 279.915 152.746 279.975C152.115 279.983 151.485 280.037 150.861 280.137C150.135 280.26 149.305 280.279 148.845 280.94C148.531 281.478 148.359 282.087 148.346 282.709C148.346 282.994 148.308 283.286 148.288 283.578C148.288 283.701 148.321 283.921 148.152 283.863C147.984 283.804 147.841 283.364 147.783 283.215C147.666 282.884 147.601 282.534 147.472 282.204C147.331 281.823 147.146 281.459 146.921 281.122C146.713 280.817 146.472 280.536 146.202 280.286C145.949 280.059 145.554 279.871 145.087 279.54L145.074 279.197Z"
        fill="#37474F" />
    <path
        d="M166.834 292.896C160.684 292.98 158.546 296.712 158.157 299.084C159.52 299.695 160.969 300.091 162.453 300.257C166.678 300.555 169.653 299.557 170.586 298.054C171.668 296.324 171.072 294.84 166.834 292.896Z"
        fill="#FAFAFA" />
    <path
        d="M157.652 292.455C157.582 292.449 157.515 292.42 157.464 292.371C157.408 292.314 157.376 292.237 157.376 292.157C157.376 292.077 157.408 292 157.464 291.943C158.214 291.236 159.108 290.7 160.084 290.37C161.06 290.04 162.096 289.925 163.121 290.032C163.2 290.046 163.27 290.091 163.316 290.156C163.362 290.222 163.381 290.303 163.367 290.382C163.362 290.421 163.349 290.459 163.328 290.493C163.308 290.527 163.281 290.557 163.249 290.58C163.217 290.604 163.181 290.621 163.142 290.63C163.103 290.639 163.063 290.641 163.024 290.634C162.099 290.546 161.166 290.653 160.285 290.948C159.404 291.244 158.595 291.722 157.911 292.352C157.879 292.387 157.838 292.415 157.793 292.433C157.749 292.451 157.7 292.458 157.652 292.455Z"
        fill="#F0F0F0" />
    <path
        d="M155.099 290.745C155.03 290.739 154.966 290.709 154.917 290.66C154.861 290.603 154.83 290.526 154.83 290.446C154.83 290.366 154.861 290.29 154.917 290.233C155.666 289.524 156.559 288.986 157.536 288.656C158.513 288.326 159.549 288.212 160.574 288.321C160.652 288.337 160.721 288.382 160.767 288.447C160.813 288.512 160.832 288.592 160.821 288.671C160.815 288.71 160.802 288.748 160.781 288.782C160.761 288.816 160.734 288.846 160.702 288.87C160.67 288.893 160.634 288.91 160.595 288.919C160.556 288.929 160.516 288.93 160.477 288.924C159.551 288.833 158.616 288.939 157.734 289.235C156.852 289.531 156.042 290.01 155.358 290.641C155.325 290.677 155.285 290.705 155.24 290.723C155.195 290.741 155.147 290.748 155.099 290.745Z"
        fill="#F0F0F0" />
    <path
        d="M152.753 288.82C152.686 288.814 152.623 288.786 152.572 288.742C152.515 288.684 152.483 288.606 152.483 288.525C152.483 288.444 152.515 288.366 152.572 288.308C153.321 287.6 154.215 287.064 155.191 286.735C156.168 286.406 157.204 286.293 158.229 286.403C158.308 286.417 158.378 286.462 158.424 286.527C158.47 286.593 158.488 286.674 158.475 286.753C158.469 286.792 158.455 286.829 158.434 286.862C158.413 286.896 158.386 286.925 158.354 286.947C158.323 286.97 158.286 286.987 158.248 286.996C158.21 287.004 158.17 287.006 158.132 286.999C157.205 286.911 156.271 287.02 155.389 287.316C154.507 287.613 153.697 288.093 153.012 288.723C152.981 288.76 152.941 288.788 152.895 288.805C152.85 288.822 152.801 288.827 152.753 288.82Z"
        fill="#F0F0F0" />
    <path
        d="M150.459 286.902C150.392 286.896 150.329 286.868 150.278 286.824C150.221 286.766 150.189 286.688 150.189 286.607C150.189 286.526 150.221 286.448 150.278 286.39C151.535 284.951 154.237 284.109 156.447 284.485C156.525 284.499 156.596 284.544 156.642 284.609C156.688 284.675 156.706 284.756 156.693 284.835C156.687 284.874 156.673 284.911 156.652 284.944C156.631 284.977 156.604 285.006 156.572 285.029C156.54 285.052 156.504 285.069 156.466 285.077C156.428 285.086 156.388 285.088 156.349 285.081C154.36 284.751 151.813 285.522 150.725 286.798C150.692 286.836 150.651 286.865 150.605 286.883C150.559 286.901 150.509 286.908 150.459 286.902Z"
        fill="#F0F0F0" />
    <path
        d="M119.88 300.588C119.718 303.329 119.29 305.124 118.318 306.763C117.346 308.402 115.506 308.876 113.646 308.409C111.786 307.942 109.395 306.672 108.864 304.307C108.333 301.942 108.022 300.315 108.443 297.769L119.88 300.588Z"
        fill="#263238" />
    <path
        d="M112.026 280.707C111.262 280.765 111.035 284.452 110.594 288.14C110.115 292.099 108.935 293.738 108.514 296.978C108.028 300.685 108.644 302.344 109.94 304.579C111.236 306.815 115.836 309.018 118.104 305.811C119.951 303.219 120.048 300.296 119.854 296.596C119.76 293.466 119.844 290.333 120.107 287.213C120.256 284.44 120.865 281.64 120.204 281.336C120.152 281.744 120.1 282.256 120.048 282.632C120.02 283.132 119.935 283.628 119.796 284.109C119.718 284.316 119.549 284.537 119.478 284.2C119.443 283.97 119.443 283.736 119.478 283.506C119.595 282.489 119.076 282.405 118.83 282.327C117.654 282.094 116.467 281.925 115.273 281.822C114.689 281.783 112.681 281.692 112.402 282.022C112.233 282.356 112.144 282.724 112.143 283.098C112.078 283.655 111.948 284.064 111.935 283.889C111.924 283.324 111.942 282.76 111.987 282.197C111.987 281.958 112.033 281.634 112.039 281.387C112.046 281.141 112.013 280.94 112.026 280.707Z"
        fill="#37474F" />
    <path
        d="M108.3 299.13C108.161 301.112 108.663 303.086 109.732 304.761C111.028 306.996 115.999 309.206 118.267 305.998C119.394 304.398 119.699 302.512 119.848 300.588C118.493 298.112 110.445 297.024 108.3 299.13Z"
        fill="#FAFAFA" />
    <path
        d="M118.176 296.557H118.085C118.085 296.557 114.502 295.073 111.048 295.87C111.012 295.879 110.974 295.88 110.937 295.874C110.901 295.868 110.866 295.854 110.834 295.834C110.803 295.814 110.776 295.788 110.755 295.758C110.733 295.727 110.719 295.693 110.711 295.656C110.702 295.62 110.701 295.583 110.707 295.546C110.713 295.509 110.727 295.474 110.747 295.443C110.767 295.411 110.793 295.384 110.823 295.363C110.854 295.342 110.888 295.327 110.925 295.319C113.412 294.859 115.979 295.108 118.331 296.039C118.398 296.073 118.449 296.133 118.473 296.204C118.497 296.275 118.493 296.353 118.461 296.421C118.432 296.469 118.389 296.507 118.338 296.531C118.288 296.555 118.231 296.564 118.176 296.557Z"
        fill="#F0F0F0" />
    <path
        d="M111.223 293.084C111.159 293.076 111.1 293.048 111.054 293.002C111.009 292.957 110.98 292.898 110.973 292.834C110.965 292.77 110.98 292.706 111.013 292.651C111.047 292.597 111.098 292.555 111.158 292.533C114.599 291.367 118.409 293.116 118.558 293.181C118.624 293.218 118.673 293.279 118.695 293.352C118.717 293.424 118.709 293.503 118.675 293.57C118.639 293.635 118.579 293.685 118.507 293.706C118.436 293.728 118.359 293.721 118.292 293.686C118.26 293.686 114.54 291.976 111.339 293.038C111.305 293.064 111.265 293.079 111.223 293.084Z"
        fill="#F0F0F0" />
    <path
        d="M111.339 290.479C111.286 290.474 111.236 290.453 111.195 290.42C111.153 290.386 111.122 290.342 111.106 290.291C111.093 290.256 111.087 290.219 111.088 290.182C111.089 290.144 111.098 290.108 111.114 290.074C111.129 290.04 111.152 290.01 111.179 289.985C111.207 289.96 111.239 289.94 111.275 289.928C115.059 288.574 118.675 290.485 118.811 290.576C118.847 290.593 118.88 290.617 118.906 290.647C118.933 290.677 118.952 290.713 118.964 290.751C118.976 290.789 118.98 290.83 118.975 290.869C118.97 290.909 118.957 290.947 118.936 290.982C118.916 291.016 118.888 291.046 118.855 291.069C118.822 291.092 118.785 291.108 118.746 291.115C118.706 291.123 118.666 291.122 118.627 291.113C118.588 291.104 118.551 291.086 118.519 291.062C118.487 291.062 114.988 289.215 111.469 290.479C111.426 290.488 111.382 290.488 111.339 290.479Z"
        fill="#F0F0F0" />
    <path
        d="M111.527 287.913C111.475 287.908 111.425 287.889 111.384 287.856C111.342 287.824 111.311 287.781 111.294 287.731C111.28 287.697 111.274 287.66 111.275 287.623C111.276 287.586 111.284 287.55 111.299 287.516C111.314 287.482 111.336 287.452 111.363 287.426C111.39 287.401 111.421 287.381 111.456 287.368C115 286.04 118.901 288.016 119.044 288.081C119.077 288.099 119.106 288.124 119.129 288.153C119.152 288.183 119.17 288.217 119.18 288.253C119.19 288.289 119.193 288.327 119.189 288.364C119.184 288.401 119.173 288.437 119.154 288.47C119.136 288.503 119.111 288.532 119.082 288.555C119.052 288.578 119.018 288.595 118.982 288.605C118.946 288.614 118.908 288.617 118.87 288.611C118.833 288.606 118.797 288.593 118.765 288.574C118.726 288.574 114.949 286.662 111.637 287.926C111.6 287.929 111.563 287.924 111.527 287.913Z"
        fill="#EBEBEB" />
    <path
        d="M121.176 171.772C117.729 178.057 115.169 183.196 114.819 201.897C114.469 220.599 114.527 225.828 114.45 228.083C114.372 230.338 113.069 234.369 111.916 245.475C110.763 256.582 112.123 269.814 112.123 269.814C112.123 269.814 112.92 271.596 117.165 271.978C121.053 272.328 122.997 270.857 122.997 270.857C122.997 270.857 128.369 249.234 129.859 242.546C131.35 235.859 135.659 213.84 135.659 213.84L137.486 231.854C137.486 231.854 137.026 237.809 138.218 247.549C139.411 257.288 143.253 270.676 143.253 270.676C145.122 271.195 147.056 271.435 148.995 271.389C150.969 271.371 152.911 270.889 154.665 269.983C154.665 269.983 155.274 237.848 155.274 226.806C155.274 215.764 154.107 188.736 153.096 171.927L121.176 171.772Z"
        fill="#37474F" />
    <path
        d="M135.659 213.84L139.158 192.611C139.158 192.611 146.539 192.086 150.64 187.797C148.975 192.333 142.923 195.573 140.272 196.182L137.149 213.6L137.499 231.854L135.659 213.84Z"
        fill="#263238" />
    <path
        d="M128.239 174.882C127.264 176.482 126.46 178.181 125.842 179.949C125.207 181.708 124.675 183.502 124.248 185.321C123.826 187.142 123.476 188.976 123.237 190.823C122.971 192.673 122.847 194.54 122.867 196.409C123.314 194.594 123.729 192.793 124.163 190.985C124.597 189.177 124.98 187.382 125.42 185.594C125.861 183.805 126.282 182.01 126.716 180.228C127.151 178.446 127.656 176.671 128.239 174.882Z"
        fill="#263238" />
    <path
        d="M125.803 175.556C124.873 176.418 124.027 177.366 123.276 178.388C122.517 179.403 121.83 180.471 121.221 181.582C120.611 182.695 120.091 183.854 119.666 185.049C119.22 186.242 118.932 187.488 118.811 188.756L120.509 185.412C121.085 184.317 121.656 183.222 122.252 182.172C122.848 181.122 123.45 180.008 124.04 178.932C124.63 177.856 125.245 176.709 125.803 175.556Z"
        fill="#263238" />
    <path
        d="M129.859 197.893C129.049 203.679 128.33 209.479 127.598 215.265C126.865 221.052 126.094 226.832 125.006 232.554C123.917 238.276 122.822 244.017 121.811 249.765C120.8 255.513 119.815 261.28 118.927 267.054C120.262 261.356 121.524 255.651 122.712 249.94C123.911 244.225 125.045 238.516 126.166 232.761C127.287 227.007 127.928 221.182 128.485 215.369C129.043 209.557 129.503 203.725 129.859 197.893Z"
        fill="#263238" />
    <path
        d="M149.254 198.372L150.206 213.6C150.349 216.134 150.511 218.667 150.628 221.208C150.744 223.748 150.893 226.281 150.848 228.789C150.803 231.297 151.036 249.888 151.444 260.36C151.807 251.936 151.852 233.928 152.027 228.809C152.027 223.625 151.574 218.603 151.12 213.529C150.667 208.455 150.038 203.401 149.254 198.372Z"
        fill="#263238" />
    <path
        d="M178.679 174.552C175.018 174.429 168.221 174.649 162.421 174.28C157.341 173.962 156.019 173.599 154.042 169.99C152.066 166.38 146.351 157.678 146.351 157.678C146.351 157.678 143.7 144.485 145.288 139.741C148.917 140.305 150.083 140.784 151.703 142.528C154.295 145.314 155.889 149.163 159.816 157.082L163.101 163.944C163.101 163.944 175.504 167.067 178.835 167.067C181.048 167.198 183.222 166.446 184.881 164.974C186.352 163.873 187.881 163.536 189.955 161.514C190.946 160.548 191.6 161.909 191.315 162.862C190.745 164.806 188.315 166.445 188.898 166.99C189.352 167.236 189.864 167.294 191.309 167.197C193.979 167.016 194.834 166.309 197.452 165.843C198.456 165.661 199.629 165.545 200.297 166.491C200.347 166.546 200.376 166.617 200.381 166.692C200.377 166.753 200.36 166.813 200.329 166.867C200.299 166.921 200.257 166.967 200.206 167.003C199.975 167.213 199.723 167.4 199.454 167.56C199.26 167.67 198.677 167.968 198.677 167.968C198.677 167.968 199.37 168.616 199.111 169.037C198.687 169.625 198.085 170.059 197.394 170.275C197.394 170.806 197.199 171.817 195.45 172.251C195.553 172.666 195.715 173.489 193.506 174.273C191.66 174.942 189.738 175.378 187.784 175.569C184.609 175.822 182.341 174.675 178.679 174.552Z"
        fill="#FFBDA7" />
    <path
        d="M188.218 167.91C187.706 169.711 185.276 171.461 182.127 171.014C184.622 172.42 188.38 170.813 188.218 167.91Z"
        fill="#F0997A" />
    <path
        d="M116.582 182.088C117.839 176.34 119.426 169.893 119.595 168.629C120.58 161.307 119.277 157.613 118.798 154.373C117.754 147.4 119.757 141.556 121.39 140.182C121.39 140.182 123.081 139.793 125.096 139.313C126.242 139.029 127.404 138.812 128.576 138.665C131.663 138.235 134.788 138.151 137.894 138.413C138.646 138.49 142.229 139.106 142.229 139.106C143.318 139.359 145.301 139.754 145.301 139.754C147.243 141.519 148.865 143.606 150.096 145.923C151.872 149.085 152.876 151.755 153.187 158.501C153.589 167.126 153.744 177.507 153.744 183.526C146.59 187.881 125.55 189.721 116.582 182.088Z"
        fill="#263238" />
    <path
        d="M128.848 132.354C129.049 132.911 129.58 132.302 130.092 132.652C130.312 132.744 130.548 132.791 130.786 132.791C131.024 132.791 131.259 132.744 131.479 132.652C131.731 132.596 131.98 132.527 132.224 132.445C133.524 131.975 134.73 131.28 135.788 130.39C137.408 129.094 138.847 127.591 140.324 126.153C141.811 124.796 143.228 123.364 144.569 121.863C145.217 121.111 147.705 118.824 148.58 117.184C149.344 115.772 149.033 114.45 148.366 113.944C150.18 114.404 151.308 113.296 151.353 112.298C151.341 111.801 151.174 111.321 150.876 110.923C150.577 110.526 150.162 110.232 149.688 110.082C149.733 110.181 149.758 110.287 149.762 110.396C149.765 110.504 149.747 110.612 149.709 110.713C149.67 110.815 149.612 110.907 149.537 110.986C149.462 111.064 149.372 111.127 149.273 111.171C149.067 111.247 148.844 111.262 148.63 111.213C148.416 111.165 148.221 111.056 148.068 110.899C147.762 110.578 147.584 110.156 147.569 109.713C147.536 109.166 147.655 108.621 147.912 108.138C148.086 107.726 148.126 107.27 148.027 106.835C147.929 106.399 147.696 106.005 147.361 105.708C146.901 105.371 146.143 104.872 142.903 105.261C142.706 105.289 142.504 105.265 142.319 105.191C142.134 105.118 141.971 104.996 141.847 104.84C141.728 104.612 141.639 104.371 141.581 104.121C141.415 103.73 141.147 103.391 140.805 103.139C140.463 102.887 140.06 102.731 139.637 102.688C138.797 102.607 137.949 102.741 137.175 103.077C136.609 103.357 135.996 103.529 135.367 103.583C134.499 103.583 133.702 103.025 132.833 103.032C131.226 103.032 130.85 104.73 129.321 105.209C128.569 105.449 127.643 104.892 126.528 106.175C126.055 106.719 126.263 107.6 125.919 108.242C125.645 108.675 125.286 109.047 124.863 109.337C124.619 109.57 124.429 109.853 124.306 110.167C124.183 110.481 124.129 110.817 124.149 111.154C124.169 111.49 124.261 111.819 124.42 112.116C124.579 112.413 124.801 112.672 125.07 112.875C123.684 113.335 122.303 114.949 122.167 117.722C122.17 119.618 122.542 121.496 123.262 123.25C124.008 124.824 128.304 130.896 128.848 132.354Z"
        fill="#263238" />
    <path
        d="M128.952 136.54C128.952 135.393 128.809 129.658 128.809 129.658C128.757 130.086 126.677 131.252 124.824 129.01C122.971 126.768 122.841 124.474 123.962 122.958C125.2 121.306 128.427 121.344 128.732 124.137C130.332 124.079 131.11 123.386 130.475 120.748C130.643 118.908 132.736 118.364 132.678 114.346C137.946 110.866 143.286 111.106 146.487 113.88C147.458 117.164 147.881 120.586 147.737 124.008C147.511 130.092 145.878 133.021 143.927 134.045C142.631 134.693 141.439 134.888 139.158 134.693L139.262 136.605C139.3 137.564 139.216 138.277 140.143 138.588C140.791 138.795 142.249 139.08 142.249 139.08C142.249 139.08 144.413 142.826 138.445 143.156C128.926 143.694 125.116 139.268 125.116 139.268L127.222 138.62C128.745 138.16 128.907 137.681 128.952 136.54Z"
        fill="#FFBDA7" />
    <path
        d="M137.246 127.513L140.843 128.667C140.779 128.908 140.667 129.134 140.513 129.331C140.36 129.528 140.168 129.692 139.949 129.814C139.731 129.935 139.49 130.01 139.242 130.036C138.993 130.062 138.742 130.037 138.503 129.963C138.017 129.797 137.615 129.449 137.38 128.992C137.146 128.535 137.098 128.005 137.246 127.513Z"
        fill="#B16668" />
    <path
        d="M137.473 128.343C137.954 128.334 138.423 128.49 138.802 128.787C139.181 129.083 139.446 129.5 139.553 129.969C139.211 130.073 138.846 130.073 138.504 129.969C138.163 129.852 137.861 129.643 137.632 129.365C137.404 129.087 137.257 128.751 137.208 128.395L137.473 128.343Z"
        fill="#F28F8F" />
    <path
        d="M143.325 116.789L145.606 117.994C145.534 118.146 145.432 118.282 145.307 118.393C145.181 118.505 145.034 118.589 144.874 118.642C144.715 118.695 144.547 118.714 144.379 118.7C144.212 118.686 144.049 118.637 143.901 118.558C143.597 118.392 143.368 118.117 143.261 117.788C143.154 117.459 143.177 117.102 143.325 116.789Z"
        fill="#263238" />
    <path
        d="M137.376 116.97L135.037 118.13C135.102 118.289 135.199 118.433 135.321 118.553C135.444 118.672 135.591 118.766 135.751 118.826C135.912 118.887 136.083 118.914 136.254 118.906C136.426 118.898 136.593 118.854 136.747 118.778C137.068 118.619 137.313 118.341 137.431 118.003C137.548 117.665 137.529 117.294 137.376 116.97Z"
        fill="#263238" />
    <path
        d="M143.325 120.949C143.308 121.235 143.402 121.515 143.586 121.734C143.771 121.952 144.032 122.091 144.316 122.122C144.454 122.138 144.594 122.126 144.728 122.087C144.862 122.048 144.986 121.982 145.094 121.894C145.201 121.806 145.29 121.697 145.355 121.573C145.419 121.45 145.458 121.315 145.47 121.176C145.49 120.891 145.398 120.609 145.214 120.39C145.03 120.172 144.769 120.033 144.485 120.003C144.346 119.986 144.205 119.997 144.071 120.036C143.936 120.075 143.811 120.14 143.703 120.229C143.594 120.317 143.505 120.426 143.44 120.55C143.375 120.674 143.336 120.81 143.325 120.949Z"
        fill="#263238" />
    <path
        d="M135.536 121.124C135.517 121.409 135.609 121.689 135.793 121.908C135.976 122.126 136.237 122.266 136.52 122.297C136.659 122.313 136.8 122.301 136.934 122.262C137.068 122.223 137.192 122.157 137.3 122.069C137.409 121.981 137.498 121.872 137.563 121.748C137.628 121.625 137.668 121.49 137.68 121.351C137.7 121.065 137.608 120.782 137.423 120.563C137.238 120.344 136.974 120.206 136.689 120.178C136.551 120.161 136.41 120.172 136.276 120.211C136.142 120.25 136.017 120.315 135.91 120.404C135.802 120.492 135.713 120.602 135.649 120.726C135.584 120.849 135.546 120.985 135.536 121.124Z"
        fill="#263238" />
    <path
        d="M144.186 124.364L140.784 125.978L140.136 119.426C141.458 119.465 142.825 121.714 144.186 124.364Z"
        fill="#F0997A" />
    <path
        d="M139.125 134.719C135.036 134.298 131.129 132.95 130.215 131.084C130.379 132.252 130.958 133.322 131.848 134.097C134.576 136.384 139.203 136.164 139.203 136.164L139.125 134.719Z"
        fill="#F0997A" />
    <path
        d="M128.673 123.172C131.375 125.116 137.246 124.805 141.484 122.524C141.925 122.284 142.433 122.196 142.929 122.274C143.425 122.353 143.88 122.593 144.225 122.958C144.225 122.958 146.383 124.254 147.731 122.77C147.796 123.042 147.776 123.379 147.822 123.69C148.301 127.086 147.465 132.334 144.705 134.136C141.692 136.08 136.132 135.238 133.462 134.078C130.585 132.827 129.969 130.993 129.969 130.993L129.73 124.662L128.699 124.183L128.673 123.172Z"
        fill="#455A64" />
    <path
        d="M147.744 122.75C146.396 124.254 144.238 122.938 144.238 122.938C143.97 122.685 143.649 122.495 143.298 122.381C144.471 124.856 144.484 132.159 142.002 135.14C142.48 135.047 142.951 134.917 143.409 134.751C143.597 134.683 143.781 134.603 143.959 134.512L144.063 134.473C144.245 134.382 144.419 134.278 144.588 134.175C144.611 134.158 144.635 134.143 144.659 134.129C145.444 133.581 146.077 132.843 146.5 131.984C146.623 131.757 146.736 131.523 146.837 131.285C147.783 128.87 148.106 126.256 147.776 123.684C147.776 123.36 147.796 123.029 147.744 122.75Z"
        fill="#37474F" />
    <path
        d="M138.024 124.811C140.499 124.105 142.56 122.472 144.342 123.515C145.456 124.163 146.934 124.345 147.796 123.638C147.801 123.329 147.771 123.02 147.705 122.718C146.409 123.852 144.199 122.906 144.199 122.906C143.833 122.531 143.356 122.281 142.839 122.193C141.968 122.091 141.089 122.3 140.357 122.783C136.469 124.772 130.974 124.52 128.271 122.913C128.463 123.297 128.598 123.708 128.673 124.131C129.12 124.438 129.609 124.678 130.125 124.844C132.703 125.617 135.452 125.606 138.024 124.811Z"
        fill="#FAFAFA" />
    <path d="M129.969 130.974L128.803 130.727L128.777 129.658L129.93 129.937L129.969 130.974Z"
        fill="#FAFAFA" />
    <path
        d="M115.065 196.765C113.167 197.303 110.743 194.951 110.076 194.128C109.408 193.305 110.27 191.361 110.672 189.715C111.074 188.069 110.672 185.289 112.7 186.073C114.728 186.857 119.012 192.339 115.065 196.765Z"
        fill="#F0997A" />
    <path
        d="M121.377 140.162C116.109 140.94 114.249 141.245 111.359 147.077C107.983 153.874 102.87 164.268 102.021 167.216C101.237 169.964 99.6688 171.921 102.669 176.094C105.423 179.917 114.061 189.922 115.324 191.393C116.452 192.689 115.83 196.409 111.968 195.858C111.968 195.858 114.903 198.45 116.504 198.171C117.891 197.919 120.087 196.7 122.096 192.475C123.392 189.812 122.303 187.719 120.372 184.751C118.066 181.207 113.089 171.331 113.089 171.331L122.161 153.835C122.161 153.835 125.867 144.847 121.377 140.162Z"
        fill="#FFBDA7" />
</svg>
