<svg width="192" height="278" viewBox="0 0 192 278" fill="none" xmlns="http://www.w3.org/2000/svg">
<path d="M13.625 248.012H19.5723C22.1517 248.012 24.0977 248.385 25.4102 249.133C26.7227 249.88 27.3789 251.17 27.3789 253.002C27.3789 253.768 27.2422 254.46 26.9688 255.08C26.7044 255.691 26.3171 256.197 25.8066 256.598C25.2962 256.99 24.6673 257.254 23.9199 257.391V257.527C24.6947 257.664 25.3828 257.906 25.9844 258.252C26.5951 258.598 27.0736 259.095 27.4199 259.742C27.7754 260.389 27.9531 261.228 27.9531 262.258C27.9531 263.479 27.6615 264.518 27.0781 265.375C26.5039 266.232 25.679 266.883 24.6035 267.33C23.5371 267.777 22.2702 268 20.8027 268H13.625V248.012ZM16.9062 256.256H20.0508C21.5365 256.256 22.5664 256.014 23.1406 255.531C23.7148 255.048 24.002 254.342 24.002 253.412C24.002 252.464 23.6602 251.781 22.9766 251.361C22.3021 250.942 21.2266 250.732 19.75 250.732H16.9062V256.256ZM16.9062 258.908V265.252H20.3652C21.8965 265.252 22.972 264.956 23.5918 264.363C24.2116 263.771 24.5215 262.969 24.5215 261.957C24.5215 261.337 24.3802 260.799 24.0977 260.344C23.8242 259.888 23.373 259.537 22.7441 259.291C22.1152 259.036 21.2676 258.908 20.2012 258.908H16.9062ZM47.7773 248.012V260.945C47.7773 262.34 47.4811 263.589 46.8887 264.691C46.3053 265.794 45.4212 266.669 44.2363 267.316C43.0514 267.954 41.5612 268.273 39.7656 268.273C37.2044 268.273 35.2539 267.604 33.9141 266.264C32.5833 264.915 31.918 263.124 31.918 260.891V248.012H35.1992V260.604C35.1992 262.271 35.5911 263.502 36.375 264.295C37.1589 265.088 38.3301 265.484 39.8887 265.484C40.9642 265.484 41.8392 265.298 42.5137 264.924C43.1973 264.541 43.6986 263.985 44.0176 263.256C44.3457 262.518 44.5098 261.629 44.5098 260.59V248.012H47.7773ZM58.5508 257.131L63.2949 248.012H66.8359L60.1914 260.234V268H56.9238V260.357L50.2656 248.012H53.834L58.5508 257.131ZM83.666 268H80.3711V250.801H74.5195V248.012H89.5039V250.801H83.666V268ZM92.5664 268V248.012H95.8477V268H92.5664ZM109.643 250.514C108.686 250.514 107.829 250.687 107.072 251.033C106.325 251.38 105.691 251.881 105.172 252.537C104.652 253.184 104.256 253.973 103.982 254.902C103.709 255.823 103.572 256.862 103.572 258.02C103.572 259.569 103.791 260.904 104.229 262.025C104.666 263.137 105.331 263.994 106.225 264.596C107.118 265.188 108.248 265.484 109.615 265.484C110.463 265.484 111.288 265.402 112.09 265.238C112.892 265.074 113.721 264.851 114.578 264.568V267.357C113.767 267.676 112.947 267.909 112.117 268.055C111.288 268.201 110.331 268.273 109.246 268.273C107.204 268.273 105.509 267.85 104.16 267.002C102.82 266.154 101.818 264.96 101.152 263.42C100.496 261.88 100.168 260.075 100.168 258.006C100.168 256.493 100.378 255.107 100.797 253.85C101.216 252.592 101.827 251.507 102.629 250.596C103.431 249.675 104.42 248.969 105.596 248.477C106.781 247.975 108.134 247.725 109.656 247.725C110.659 247.725 111.643 247.839 112.609 248.066C113.585 248.285 114.487 248.6 115.316 249.01L114.168 251.717C113.475 251.389 112.751 251.106 111.994 250.869C111.238 250.632 110.454 250.514 109.643 250.514ZM134.115 268H130.342L124.121 258.922L122.152 260.521V268H118.871V248.012H122.152V257.568C122.553 257.076 122.959 256.584 123.369 256.092C123.779 255.6 124.189 255.107 124.6 254.615L130.232 248.012H133.938L126.473 256.762L134.115 268ZM148.074 268H136.754V248.012H148.074V250.773H140.035V256.201H147.568V258.949H140.035V265.225H148.074V268ZM159.326 268H156.031V250.801H150.18V248.012H165.164V250.801H159.326V268ZM179.766 262.559C179.766 263.743 179.474 264.764 178.891 265.621C178.316 266.478 177.487 267.134 176.402 267.59C175.327 268.046 174.042 268.273 172.547 268.273C171.818 268.273 171.12 268.232 170.455 268.15C169.79 268.068 169.161 267.95 168.568 267.795C167.985 267.631 167.452 267.435 166.969 267.207V264.117C167.78 264.473 168.687 264.796 169.689 265.088C170.692 265.37 171.713 265.512 172.752 265.512C173.6 265.512 174.301 265.402 174.857 265.184C175.423 264.956 175.842 264.637 176.115 264.227C176.389 263.807 176.525 263.32 176.525 262.764C176.525 262.171 176.366 261.67 176.047 261.26C175.728 260.85 175.245 260.476 174.598 260.139C173.96 259.792 173.158 259.423 172.191 259.031C171.535 258.767 170.906 258.466 170.305 258.129C169.712 257.792 169.184 257.395 168.719 256.939C168.254 256.484 167.885 255.946 167.611 255.326C167.347 254.697 167.215 253.959 167.215 253.111C167.215 251.981 167.484 251.015 168.021 250.213C168.568 249.411 169.334 248.796 170.318 248.367C171.312 247.939 172.469 247.725 173.791 247.725C174.839 247.725 175.824 247.834 176.744 248.053C177.674 248.271 178.585 248.581 179.479 248.982L178.439 251.621C177.619 251.284 176.822 251.015 176.047 250.814C175.281 250.614 174.497 250.514 173.695 250.514C173.003 250.514 172.415 250.618 171.932 250.828C171.449 251.038 171.079 251.334 170.824 251.717C170.578 252.09 170.455 252.537 170.455 253.057C170.455 253.64 170.596 254.132 170.879 254.533C171.171 254.925 171.617 255.285 172.219 255.613C172.829 255.941 173.613 256.306 174.57 256.707C175.673 257.163 176.607 257.641 177.373 258.143C178.148 258.644 178.74 259.245 179.15 259.947C179.561 260.64 179.766 261.51 179.766 262.559Z" fill="white"/>
<path d="M83.1679 193.324H78.6542L76.5107 175.949H83.1679V193.324Z" fill="#A0616A"/>
<path d="M67.7109 193.221C67.5709 193.457 67.4985 194.219 67.4985 194.494C67.4985 195.337 68.184 196.021 69.0289 196.021H82.9997C83.5742 196.021 84.0424 195.554 84.0424 194.98V194.402C84.0424 194.402 84.7328 192.657 83.3087 190.508C83.3087 190.508 81.5418 192.19 78.8963 189.554L78.1191 188.146L72.4805 192.267L69.3523 192.653C68.6716 192.725 68.0633 192.628 67.7109 193.221Z" fill="#2F2E41"/>
<path d="M62.956 193.324H58.4471L56.2988 175.949H62.956V193.324Z" fill="#A0616A"/>
<path d="M47.5025 193.221C47.3625 193.457 47.29 194.219 47.29 194.494C47.29 195.337 47.9755 196.021 48.8204 196.021H62.7912C63.3657 196.021 63.8339 195.554 63.8339 194.98V194.402C63.8339 194.402 64.5243 192.657 63.1002 190.508C63.1002 190.508 61.3333 192.19 58.6878 189.554L57.9106 188.146L52.272 192.267L49.1438 192.653C48.4583 192.725 47.85 192.628 47.5025 193.221Z" fill="#2F2E41"/>
<path d="M83.2244 84.7324L87.4367 95.4332L84.1443 180.924H74.9305L66.6414 103.786L64.6659 181.183L55.7135 180.924L45.9719 95.0443L52.4211 87.344L83.2244 84.7324Z" fill="#2F2E41"/>
<path d="M63.485 23.3254L74.471 22.5352L77.8716 28.0718L88.0736 30.971L84.2833 57.7282L88.3381 97.6677C88.3381 97.6677 73.6918 95.5587 72.648 99.7767C71.6042 103.995 45.9719 95.5587 45.9719 95.5587L54.7357 68.2731L53.9517 46.9216L51.5996 34.5296L62.321 29.5214L63.485 23.3254Z" fill="#E6E6E6"/>
<path d="M58.449 31.5499C58.449 31.5499 49.7709 31.4212 48.6027 35.0471C47.4345 38.6729 43.5436 63.806 43.5436 63.806L40.5635 74.8169L53.9145 68.2085L51.0631 63.8108L60.3945 45.9293L58.449 31.5499Z" fill="#E6E6E6"/>
<path d="M64.0269 72.0465C65.4798 72.0465 66.8315 71.2053 67.3962 69.8584C67.821 68.8374 67.7824 67.86 67.4638 67.0237C67.5652 66.98 67.6666 66.9362 67.7728 66.8973C67.6183 66.8341 67.4687 66.7612 67.319 66.6931C66.7977 65.6428 65.7936 64.8795 64.5965 64.6947C63.1145 63.0999 62.207 60.9605 62.1973 58.6023C62.178 53.7497 66.0881 49.6946 70.9056 49.5779C70.9442 49.5779 70.9829 49.5779 71.0215 49.5779C73.1793 49.5536 75.1343 50.7691 76.23 52.6411C76.8672 53.7351 78.0451 54.4693 79.3967 54.4693C80.4297 54.4693 81.3614 54.0366 82.0275 53.3461C83.4805 51.8388 85.2956 50.7156 87.3568 50.3704C88.7084 50.1419 90.1083 50.0592 91.5371 50.1322C101.332 50.6233 109.76 59.3656 109.967 69.2458C110.199 80.2443 101.418 89.2395 90.5476 89.2395C84.8901 89.2395 79.8022 86.8035 76.2542 82.9185C74.6805 81.1924 72.4696 80.2248 70.1429 80.2491C70.1188 80.2491 70.0947 80.2491 70.0705 80.2491C66.3005 80.2491 63.2448 77.1713 63.2448 73.3739C63.2448 73.1648 63.2545 72.9557 63.2738 72.7515C63.3124 72.3576 63.6455 72.0416 64.0269 72.0465Z" fill="#FFB548"/>
<path d="M191.084 144.583C190.606 143.778 188.545 144.64 188.164 143.913C187.787 143.185 189.704 142.081 190.8 139.556C190.997 139.098 192.243 136.23 191.321 135.343C189.573 133.666 181.584 140.592 178.789 138.327C178.176 137.83 177.746 136.837 175.887 135.223C175.149 134.582 174.7 134.293 174.27 134.399C173.657 134.553 173.609 135.372 172.952 136.982C171.967 139.401 171.383 139.252 170.809 141.18C170.384 142.611 170.481 143.445 169.978 143.604C169.269 143.835 168.612 142.317 167.714 142.452C166.797 142.592 166.242 144.361 166.063 145.681C165.735 148.163 166.647 149.807 167.154 151.528C167.705 153.402 168.033 156.251 166.758 160.28L154.178 195.67C156.954 188.407 164.996 168.502 168.376 161.104C169.351 158.969 170.427 156.805 172.638 155.947C174.767 155.123 177.693 155.615 181.42 154.718C181.854 154.612 183.061 154.308 183.215 153.595C183.341 153.007 182.631 152.679 182.738 152.13C182.882 151.393 184.282 151.383 186.001 150.535C187.213 149.937 187.966 149.224 188.617 148.607C188.811 148.433 191.717 145.652 191.084 144.583Z" fill="#F2F2F2"/>
<path d="M141.587 163.216C141.056 163.216 140.882 164.478 140.414 164.454C139.951 164.43 139.955 163.172 139.033 161.905C138.864 161.678 137.812 160.237 137.112 160.435C135.784 160.806 136.885 166.719 134.964 167.438C134.544 167.597 133.931 167.519 132.603 167.963C132.072 168.141 131.802 168.276 131.729 168.517C131.628 168.864 132.014 169.124 132.618 169.91C133.52 171.091 133.279 171.337 134.061 172.175C134.64 172.797 135.08 172.99 135.012 173.284C134.92 173.698 133.984 173.583 133.791 174.06C133.593 174.551 134.302 175.332 134.901 175.8C136.026 176.677 137.097 176.701 138.092 176.951C139.173 177.221 140.665 177.886 142.282 179.67L156.05 196.047C153.284 192.591 145.816 182.908 143.156 179.115C142.388 178.021 141.635 176.869 141.853 175.539C142.06 174.257 143.146 172.966 143.784 170.884C143.856 170.638 144.054 169.958 143.75 169.679C143.499 169.447 143.132 169.703 142.895 169.491C142.577 169.206 142.973 168.517 143.05 167.433C143.103 166.666 142.973 166.093 142.857 165.596C142.823 165.437 142.292 163.211 141.587 163.216Z" fill="#F2F2F2"/>
<path d="M152.202 165.592L151.884 162.734L152.029 162.517C152.704 161.515 153.052 160.537 153.057 159.611C153.057 159.462 153.052 159.317 153.042 159.168C153.013 158.57 152.98 157.833 153.366 156.965C153.583 156.483 154.191 155.37 155.109 155.505C155.355 155.539 155.543 155.654 155.683 155.784C155.702 155.751 155.726 155.717 155.746 155.683C156.031 155.25 156.258 155.062 156.475 154.883C156.644 154.743 156.813 154.604 157.088 154.266C157.209 154.117 157.3 153.987 157.378 153.881C157.614 153.553 157.923 153.158 158.469 153.163C159.053 153.192 159.357 153.674 159.56 153.992C159.922 154.56 160.086 154.97 160.192 155.24C160.231 155.341 160.274 155.452 160.298 155.486C160.486 155.76 162.012 155.505 162.591 155.409C163.885 155.192 165.005 155.009 165.464 155.823C165.792 156.406 165.55 157.177 164.711 158.175C164.45 158.483 164.175 158.72 163.928 158.908C164.131 159.028 164.315 159.216 164.387 159.51C164.561 160.204 163.967 160.898 162.615 161.578C162.282 161.746 161.828 161.973 161.196 162.084C160.897 162.137 160.631 162.146 160.4 162.156C160.395 162.286 160.366 162.431 160.284 162.58C160.047 163.014 159.555 163.221 158.811 163.173C157.995 163.13 157.32 162.975 156.726 162.836C156.204 162.715 155.76 162.614 155.408 162.638C154.756 162.691 154.254 163.211 153.665 163.886L152.202 165.592Z" fill="#F2F2F2"/>
<path d="M153.689 148.579L151 149.616L150.754 149.529C149.61 149.129 148.576 149.042 147.674 149.273C147.529 149.312 147.389 149.355 147.244 149.399C146.674 149.577 145.965 149.799 145.028 149.645C144.507 149.558 143.271 149.249 143.174 148.334C143.146 148.088 143.208 147.876 143.3 147.707C143.261 147.697 143.223 147.683 143.184 147.669C142.692 147.505 142.455 147.331 142.223 147.167C142.05 147.042 141.866 146.912 141.47 146.734C141.297 146.656 141.147 146.599 141.021 146.55C140.64 146.406 140.181 146.208 140.051 145.678C139.93 145.109 140.317 144.69 140.577 144.415C141.036 143.924 141.393 143.659 141.63 143.485C141.717 143.422 141.813 143.35 141.842 143.321C142.064 143.071 141.422 141.658 141.186 141.128C140.65 139.933 140.186 138.902 140.857 138.251C141.34 137.784 142.146 137.827 143.324 138.381C143.691 138.555 143.99 138.762 144.232 138.955C144.299 138.728 144.43 138.502 144.695 138.357C145.323 138.015 146.143 138.415 147.148 139.543C147.399 139.822 147.732 140.203 147.997 140.786C148.123 141.061 148.2 141.316 148.268 141.538C148.398 141.509 148.543 141.504 148.707 141.543C149.19 141.663 149.513 142.087 149.653 142.815C149.817 143.615 149.841 144.304 149.856 144.917C149.87 145.447 149.89 145.905 150.001 146.237C150.218 146.854 150.845 147.206 151.652 147.601L153.689 148.579Z" fill="#F2F2F2"/>
<path d="M152.202 140.163L151.884 137.305L152.029 137.088C152.704 136.085 153.052 135.107 153.057 134.182C153.057 134.032 153.052 133.888 153.042 133.738C153.013 133.141 152.98 132.403 153.366 131.536C153.583 131.054 154.191 129.94 155.109 130.075C155.355 130.109 155.543 130.225 155.683 130.355C155.702 130.321 155.726 130.287 155.746 130.254C156.031 129.82 156.258 129.632 156.475 129.454C156.644 129.314 156.813 129.174 157.088 128.837C157.209 128.687 157.3 128.557 157.378 128.451C157.614 128.123 157.923 127.728 158.469 127.733C159.053 127.762 159.357 128.244 159.56 128.562C159.922 129.131 160.086 129.54 160.192 129.81C160.231 129.912 160.274 130.022 160.298 130.056C160.486 130.331 162.012 130.075 162.591 129.979C163.885 129.762 165.005 129.579 165.464 130.393C165.792 130.977 165.55 131.748 164.711 132.745C164.45 133.054 164.175 133.29 163.928 133.478C164.131 133.599 164.315 133.786 164.387 134.08C164.561 134.774 163.967 135.469 162.615 136.148C162.282 136.317 161.828 136.543 161.196 136.654C160.897 136.707 160.631 136.717 160.4 136.726C160.395 136.857 160.366 137.001 160.284 137.151C160.047 137.584 159.555 137.792 158.811 137.743C157.995 137.7 157.32 137.546 156.726 137.406C156.204 137.285 155.76 137.184 155.408 137.208C154.756 137.261 154.254 137.782 153.665 138.457L152.202 140.163Z" fill="#F2F2F2"/>
<path d="M155.128 195.629L154.53 195.253L154.385 194.564L154.53 195.253L153.83 195.335C153.82 195.273 153.781 195.123 153.723 194.887C153.41 193.61 152.454 189.721 151.662 183.6C151.107 179.325 150.793 174.929 150.725 170.534C150.663 166.134 150.87 162.798 151.034 160.124C151.16 158.104 151.314 156.181 151.464 154.306C151.865 149.299 152.241 144.571 151.961 139.337C151.899 138.17 151.768 135.736 150.344 133.148C149.519 131.649 148.379 130.314 146.965 129.187L147.848 128.078C149.412 129.322 150.672 130.801 151.59 132.464C153.168 135.332 153.308 137.982 153.381 139.26C153.665 144.585 153.284 149.361 152.879 154.417C152.729 156.282 152.574 158.201 152.449 160.21C152.285 162.866 152.077 166.167 152.14 170.51C152.203 174.852 152.516 179.195 153.062 183.412C153.849 189.456 154.79 193.287 155.099 194.545C155.263 195.225 155.297 195.364 155.128 195.629Z" fill="#F2F2F2"/>
<path d="M144.371 131.431C144.313 131.431 144.255 131.431 144.192 131.426C142.986 131.363 141.87 130.64 140.876 129.286C140.408 128.65 140.171 127.922 139.693 126.471C139.621 126.25 139.259 125.112 139.042 123.556C138.897 122.534 138.916 122.11 139.119 121.734C139.346 121.314 139.708 121.02 140.118 120.823C140.099 120.688 140.113 120.548 140.171 120.408C140.413 119.82 141.055 119.897 141.402 119.936C141.576 119.96 141.798 119.989 142.035 119.975C142.406 119.955 142.604 119.844 142.908 119.681C143.198 119.522 143.56 119.324 144.091 119.218C145.144 118.996 146.027 119.295 146.317 119.396C147.847 119.907 148.6 121.093 149.474 122.471C149.648 122.746 150.246 123.753 150.642 125.127C150.927 126.12 150.888 126.563 150.801 126.891C150.628 127.565 150.217 127.951 149.17 128.804C148.079 129.696 147.533 130.144 147.06 130.414C145.969 131.036 145.283 131.431 144.371 131.431Z" fill="#F2F2F2"/>
<path d="M96.4508 66.1858L30.9093 54.0845L30.6479 58.7166L95.6569 73.9155L96.4508 66.1858Z" fill="#FFB548"/>
<path d="M31.5494 54.5528L30.7677 53.7733C30.7677 53.7733 27.3768 52.2143 27.3768 51.9512C27.3768 51.7886 22.3697 50.0957 18.624 48.8571C16.5329 48.1636 14.3219 49.5362 14.0246 51.7121L13.5546 55.1458C13.2716 57.1974 14.8255 59.0434 16.9022 59.1295L26.0723 59.4929L30.5039 58.4552C30.5087 58.4504 31.5494 54.5528 31.5494 54.5528Z" fill="#FFB548"/>
<path d="M96.2908 67.6057L96.4508 66.9805L30.7643 54.986L30.6479 55.7732L96.2908 67.6057Z" fill="#3F3D56"/>
<path d="M96.3001 68.507L96.4508 67.8145L30.6917 55.8873L30.6479 56.6961L96.3001 68.507Z" fill="#3F3D56"/>
<path d="M96.4117 70.3098L96.4508 69.1671L30.6479 56.7887L30.6577 57.4676L96.4117 70.3098Z" fill="#3F3D56"/>
<path d="M95.5494 72.1127L95.5012 71.0663L30.7058 57.6902L30.6479 57.9457L95.5494 72.1127Z" fill="#3F3D56"/>
<path d="M95.5494 73.0141L95.5011 72.2647L30.7058 58.5916L30.6479 58.8367L95.5494 73.0141Z" fill="#3F3D56"/>
<path d="M58.009 29.7499L61.5602 27.9436L63.0987 56.8398L62.5613 60.3943C62.5613 60.3895 53.599 37.6822 58.009 29.7499Z" fill="#3F3D56"/>
<path d="M69.4086 20.7324C73.8891 20.7324 77.5212 17.1003 77.5212 12.6198C77.5212 8.13925 73.8891 4.50708 69.4086 4.50708C64.9281 4.50708 61.2959 8.13925 61.2959 12.6198C61.2959 17.1003 64.9281 20.7324 69.4086 20.7324Z" fill="#A0616A"/>
<path d="M62.2714 17.3536L64.2819 18.9296L62.002 10.4381C62.002 10.4381 68.3777 10.3059 68.9215 6.84569C68.9215 6.84569 73.9403 6.71355 75.2973 6.71355C76.6542 6.71355 77.2679 15.5183 77.2679 15.5183C77.2679 15.5183 79.9119 8.30907 77.198 4.58455C74.4841 0.860032 75.4369 3.12117 74.8932 1.78994C74.3494 0.458705 68.7918 -0.764856 65.2647 0.590849C61.7376 1.94655 61.6029 3.87978 60.5153 3.89936C59.4277 3.91893 55.6312 9.23898 59.1583 13.497C62.6854 17.755 62.2714 17.3536 62.2714 17.3536Z" fill="#2F2E41"/>
<path d="M87.5567 70.5883C88.5116 69.8238 89.2136 68.9007 89.6099 67.9919L99.1549 61.27L95.8459 56.7887L86.5205 64.0924C85.5512 64.2799 84.5055 64.7656 83.5505 65.5301C81.3732 67.2803 80.4994 69.8335 81.6072 71.2278C82.7149 72.6222 85.3745 72.3385 87.5567 70.5883Z" fill="#A0616A"/>
<path d="M50.1709 60.3343C49.4563 61.3231 49.0265 62.3928 48.8913 63.3626L41.4648 72.3668L45.9217 75.7184L52.9715 66.2198C53.86 65.7776 54.7437 65.0265 55.4631 64.0377C57.1 61.7747 57.2401 59.1125 55.777 58.0904C54.3187 57.0682 51.8078 58.0713 50.1709 60.3343Z" fill="#A0616A"/>
<path d="M84.2083 32.9839C84.2083 32.9839 86.5922 29.0347 88.981 31.4061C90.8677 33.2791 101.222 45.204 105.459 50.1018C106.629 51.4521 107.268 53.1702 107.268 54.9512C107.268 57.7049 105.737 60.2361 103.285 61.5234L90.0341 68.5071L86.3241 62.9802L97.7221 54.8205L80.2253 45.3492L84.2083 32.9839Z" fill="#E6E6E6"/>
<path d="M42.6544 68.9541L40.5635 75.2022L46.6045 78.4226L51.1969 75.2022L54.0846 68.3515L45.5518 65.8029" fill="#E6E6E6"/>
<path d="M140.492 10.8169L120.706 16.1758L123.587 28.9777C122.657 28.3535 121.535 27.9933 120.331 27.9933C117.099 27.9933 114.479 30.6056 114.479 33.8276C114.479 37.0497 117.099 39.662 120.331 39.662C123.563 39.662 126.183 37.0497 126.183 33.8276C126.183 32.7088 125.86 31.6668 125.311 30.7784L123.028 20.632L140.098 15.2827L141.658 22.8409C140.719 22.207 139.592 21.8325 138.373 21.8325C135.141 21.8325 132.521 24.4447 132.521 27.6668C132.521 30.8889 135.141 33.5011 138.373 33.5011C141.605 33.5011 144.225 30.8889 144.225 27.6668C144.225 26.5335 143.898 25.4819 143.339 24.5888L140.492 10.8169Z" fill="#FFB548"/>
<path d="M160 22.5352C156.763 22.5352 154.141 25.0904 154.141 28.244C154.141 29.1369 154.355 29.9776 154.731 30.728L158.075 44.169L159.971 43.7225L157.392 33.3544C158.177 33.7344 159.059 33.9576 160 33.9576C163.237 33.9576 165.859 31.4024 165.859 28.2488C165.859 25.0951 163.237 22.5352 160 22.5352Z" fill="#FFB548"/>
<path d="M183.084 52.5093L179.957 39.662L178.056 40.1195L180.503 50.17C179.75 49.821 178.914 49.6182 178.028 49.6182C174.791 49.6182 172.169 52.231 172.169 55.457C172.169 58.6829 174.791 61.2958 178.028 61.2958C181.265 61.2958 183.887 58.6829 183.887 55.457C183.892 54.3769 183.593 53.3724 183.084 52.5093Z" fill="#FFB548"/>
<path d="M192 196.056C192 196.303 191.817 196.507 191.594 196.507H0V195.606H191.594C191.821 195.606 192 195.804 192 196.056Z" fill="#E6E6E6"/>
</svg>
