<svg width="31" height="31" viewBox="0 0 31 31" fill="none" xmlns="http://www.w3.org/2000/svg">
<path d="M20.6667 31H17.2222V27.5556H20.6667V31ZM17.2222 18.9444H13.7778V27.5556H17.2222V18.9444ZM31 15.5H27.5556V22.3889H31V15.5ZM27.5556 12.0556H24.1111V15.5H27.5556V12.0556ZM6.88889 15.5H3.44444V18.9444H6.88889V15.5ZM3.44444 12.0556H0V15.5H3.44444V12.0556ZM15.5 3.44444H18.9444V0H15.5V3.44444ZM2.58333 2.58333V7.75H7.75V2.58333H2.58333ZM10.3333 10.3333H0V0H10.3333V10.3333ZM2.58333 23.25V28.4167H7.75V23.25H2.58333ZM10.3333 31H0V20.6667H10.3333V31ZM23.25 2.58333V7.75H28.4167V2.58333H23.25ZM31 10.3333H20.6667V0H31V10.3333ZM27.5556 27.5556V22.3889H20.6667V25.8333H24.1111V31H31V27.5556H27.5556ZM24.1111 15.5H17.2222V18.9444H24.1111V15.5ZM17.2222 12.0556H6.88889V15.5H10.3333V18.9444H13.7778V15.5H17.2222V12.0556ZM18.9444 10.3333V6.88889H15.5V3.44444H12.0556V10.3333H18.9444ZM6.45833 3.875H3.875V6.45833H6.45833V3.875ZM6.45833 24.5417H3.875V27.125H6.45833V24.5417ZM27.125 3.875H24.5417V6.45833H27.125V3.875Z" fill="#FAFAFA"/>
</svg>
