<svg width="105" height="110" viewBox="0 0 105 110" fill="none" xmlns="http://www.w3.org/2000/svg">
<path d="M12.4503 2.43473V9.73894L6.22517 25.5647L0 94.9546L2.49007 97.3894H62.2517L57.2716 49.912H54.7815V45.0426H58.5166L59.7617 38.9557H82.1723L80.9272 25.5647L74.7021 9.73894V2.43473L73.457 0H13.6954L12.4503 2.43473Z" fill="#D1A190"/>
<path d="M6.08594 24.3483L12.1799 9.1312H74.259L79.128 24.3483H6.08594Z" fill="#BD7C63"/>
<path d="M51.7407 44.1285L53.2624 36.5199H100.435L101.957 44.1285H105V50.2153H48.6973V44.1285H51.7407Z" fill="#7CA1B1"/>
<path d="M101.955 51.7383H51.7383L57.8251 109.563H95.8678L101.955 51.7383Z" fill="#FF5D4E"/>
<path d="M101.951 51.7383H97.3856L91.2988 104.998L88.2554 109.563H95.8639L98.9073 80.6508L101.951 51.7383Z" fill="#E32929"/>
<path d="M56.301 95.8676L54.7793 79.1289L100.431 62.3901L98.9089 79.1289L56.301 95.8676Z" fill="#F9EFEF"/>
<path d="M105 45.6511H48.6973V51.738H105V45.6511Z" fill="#537983"/>
<path d="M98.9131 51.738V45.6511H105V51.738H98.9131Z" fill="#3E5959"/>
<path d="M100.432 36.5199H94.3452V45.6502H101.954L100.432 36.5199Z" fill="#678D98"/>
<path d="M100.432 62.3901L95.8669 63.9118L94.3452 80.6506L98.9103 79.1289L100.432 62.3901Z" fill="#EFE2DD"/>
</svg>
