<svg width="23" height="27" viewBox="0 0 23 27" fill="none" xmlns="http://www.w3.org/2000/svg">
<path d="M8.61018 0.361166C8.83154 0.1299 9.13159 0 9.44444 0C9.75729 0 10.0573 0.1299 10.2787 0.361166L14.2139 4.47767C14.4224 4.71177 14.5359 5.02141 14.5305 5.34135C14.5252 5.66129 14.4013 5.96654 14.185 6.19281C13.9687 6.41907 13.6768 6.54868 13.371 6.55432C13.0652 6.55997 12.7692 6.44121 12.5454 6.22307L10.625 4.21421V15.23C10.625 15.5575 10.5006 15.8716 10.2792 16.1032C10.0578 16.3348 9.75754 16.4649 9.44444 16.4649C9.13134 16.4649 8.83106 16.3348 8.60966 16.1032C8.38826 15.8716 8.26388 15.5575 8.26388 15.23V4.21421L6.34352 6.22307C6.11972 6.44121 5.82372 6.55997 5.51788 6.55432C5.21203 6.54868 4.92022 6.41907 4.70393 6.19281C4.48763 5.96654 4.36373 5.66129 4.35833 5.34135C4.35294 5.02141 4.46646 4.71177 4.675 4.47767L8.61018 0.361166ZM4.04222 23.8746C4.21674 24.5817 4.61095 25.208 5.16288 25.6551C5.7148 26.1022 6.39313 26.3447 7.0912 26.3445H15.7486C17.6272 26.3445 19.4289 25.5639 20.7573 24.1743C22.0857 22.7847 22.8319 20.9 22.8319 18.9348V15.23C22.8319 14.9024 22.7076 14.5883 22.4862 14.3567C22.2648 14.1251 21.9645 13.995 21.6514 13.995C21.3383 13.995 21.038 14.1251 20.8166 14.3567C20.5952 14.5883 20.4708 14.9024 20.4708 15.23V18.9348C20.4708 20.2449 19.9733 21.5014 19.0877 22.4278C18.2021 23.3542 17.001 23.8746 15.7486 23.8746H4.04222ZM2.36111 11.1135C2.36111 10.7859 2.23673 10.4718 2.01533 10.2402C1.79394 10.0086 1.49366 9.87852 1.18055 9.87852C0.867452 9.87852 0.567173 10.0086 0.345776 10.2402C0.124379 10.4718 0 10.7859 0 11.1135V18.9348C0 19.8082 0.331679 20.6459 0.922071 21.2635C1.51246 21.8811 2.31321 22.228 3.14815 22.228H15.7407C16.5757 22.228 17.3764 21.8811 17.9668 21.2635C18.5572 20.6459 18.8889 19.8082 18.8889 18.9348V11.1135C18.8889 10.7859 18.7645 10.4718 18.5431 10.2402C18.3217 10.0086 18.0214 9.87852 17.7083 9.87852C17.3952 9.87852 17.0949 10.0086 16.8735 10.2402C16.6521 10.4718 16.5278 10.7859 16.5278 11.1135V18.9348C16.5278 19.1532 16.4449 19.3626 16.2973 19.517C16.1497 19.6714 15.9495 19.7581 15.7407 19.7581H3.14815C2.93941 19.7581 2.73923 19.6714 2.59163 19.517C2.44403 19.3626 2.36111 19.1532 2.36111 18.9348V11.1135Z" fill="#1F1F1F"/>
</svg>
