<svg width="53" height="33" viewBox="0 0 53 33" fill="none" xmlns="http://www.w3.org/2000/svg">
<g filter="url(#filter0_d_1729_482)">
<path d="M42.6242 0.92309L47.5673 17.1729C47.755 17.8604 47.3796 18.6104 46.6913 18.7979L9.14917 30.1727C8.4609 30.3602 7.71006 29.9852 7.52235 29.2978L5.64524 23.3603C6.83408 22.9853 7.45978 21.7353 7.08436 20.5479C6.70894 19.3604 5.45753 18.6729 4.2687 18.9854L2.45416 13.0479C2.26645 12.3605 2.64187 11.6105 3.33014 11.423L40.8723 0.0481015C41.6857 -0.139396 42.374 0.235598 42.6242 0.92309Z" fill="#DFE1E2"/>
<path d="M35.3043 3.4231V26.8603H1.5789C0.702921 26.8603 0.0146484 26.1728 0.0146484 25.2978V17.8604C1.51633 17.7979 2.6426 16.6104 2.6426 15.1105C2.6426 13.6105 1.45376 12.423 0.0146484 12.3605V4.98558C0.0146484 4.11059 0.702921 3.4231 1.5789 3.4231H35.3043Z" fill="#F3F3F3"/>
<path d="M35.3048 22.2354C34.5539 22.2354 33.9282 22.8603 33.9282 23.6103C33.9282 24.3603 34.5539 24.9853 35.3048 24.9853C36.0556 24.9853 36.6813 24.3603 36.6813 23.6103C36.6813 22.8603 36.0556 22.2354 35.3048 22.2354Z" fill="#E45647"/>
<path d="M35.3047 22.2354V24.9853C36.0555 24.9853 36.6812 24.3603 36.6812 23.6103C36.6812 22.8603 36.0555 22.2354 35.3047 22.2354Z" fill="#F3F3F3"/>
<path d="M30.2987 14.7979H6.27173V15.9853H30.2987V14.7979Z" fill="#939393"/>
<path d="M18.2852 18.5479H6.27173V19.7353H18.2852V18.5479Z" fill="#939393"/>
<path d="M18.2852 22.2979H6.27173V23.4853H18.2852V22.2979Z" fill="#939393"/>
<path d="M6.58472 7.61059H7.96126V11.548H8.89982V7.61059H10.2764V6.8606H6.58472V7.61059Z" fill="#072C49"/>
<path d="M11.8416 6.8606H10.9031V11.548H11.8416V6.8606Z" fill="#072C49"/>
<path d="M15.3446 10.5481C15.1569 10.7356 14.9692 10.798 14.7189 10.798C14.406 10.798 14.0932 10.6731 13.9055 10.4231C13.7177 10.1731 13.5926 9.73556 13.5926 9.17307C13.5926 8.61057 13.7177 8.23558 13.9055 7.98558C14.0932 7.73558 14.406 7.61059 14.7814 7.61059C15.0317 7.61059 15.2194 7.67309 15.4071 7.79808C15.5949 7.92308 15.72 8.11058 15.7826 8.36058L16.7211 8.11058C16.596 7.73558 16.4708 7.42309 16.2206 7.23559C15.8451 6.9231 15.4071 6.7356 14.844 6.7356C14.1557 6.7356 13.6552 6.92309 13.2798 7.36059C12.9043 7.79808 12.6541 8.42308 12.6541 9.17307C12.6541 9.92306 12.8418 10.4856 13.2798 10.923C13.6552 11.3605 14.2183 11.548 14.844 11.548C15.3446 11.548 15.7826 11.423 16.0954 11.173C16.4083 10.923 16.6585 10.5481 16.7837 10.0481L15.8451 9.73556C15.6574 10.1731 15.5323 10.4231 15.3446 10.5481Z" fill="#072C49"/>
<path d="M21.6641 6.8606H20.3502L18.473 8.92307V6.8606H17.4719V11.548H18.473V10.1106L19.2239 9.36057L20.5379 11.548H21.7267L19.8496 8.67308L21.6641 6.8606Z" fill="#072C49"/>
<path d="M23.1658 9.48556H25.5435V8.67308H23.1658V7.61059H25.7312V6.8606H22.2273V11.548H25.7938V10.7355H23.1658V9.48556Z" fill="#072C49"/>
<path d="M26.2935 6.8606V7.61059H27.67V11.548H28.6086V7.61059H30.0477V6.8606H26.2935Z" fill="#072C49"/>
<path d="M35.3043 3.6731V27.1103H1.5789C0.702921 27.1103 0.0146484 26.4228 0.0146484 25.5478V18.1104C1.51633 18.0479 2.6426 16.8604 2.6426 15.3605C2.6426 13.8605 1.45376 12.673 0.0146484 12.6105V5.23558C0.0146484 4.36059 0.702921 3.6731 1.5789 3.6731H35.3043Z" fill="#F7F8F9"/>
<path d="M35.3048 22.2354C34.5539 22.2354 33.9282 22.8603 33.9282 23.6103C33.9282 24.3603 34.5539 24.9853 35.3048 24.9853C36.0556 24.9853 36.6813 24.3603 36.6813 23.6103C36.6813 22.8603 36.0556 22.2354 35.3048 22.2354Z" fill="#E45647"/>
<path d="M30.2987 14.7979H6.27173V15.9853H30.2987V14.7979Z" fill="#939393"/>
<path d="M18.2852 18.5479H6.27173V19.7353H18.2852V18.5479Z" fill="#939393"/>
<path d="M18.2852 22.2979H6.27173V23.4853H18.2852V22.2979Z" fill="#939393"/>
<path d="M6.58472 7.61059H7.96126V11.548H8.89982V7.61059H10.2764V6.8606H6.58472V7.61059Z" fill="#072C49"/>
<path d="M11.8416 6.8606H10.9031V11.548H11.8416V6.8606Z" fill="#072C49"/>
<path d="M15.3446 10.5481C15.1569 10.7356 14.9692 10.798 14.7189 10.798C14.406 10.798 14.0932 10.6731 13.9055 10.4231C13.7177 10.1731 13.5926 9.73556 13.5926 9.17307C13.5926 8.61057 13.7177 8.23558 13.9055 7.98558C14.0932 7.73558 14.406 7.61059 14.7814 7.61059C15.0317 7.61059 15.2194 7.67309 15.4071 7.79808C15.5949 7.92308 15.72 8.11058 15.7826 8.36058L16.7211 8.11058C16.596 7.73558 16.4708 7.42309 16.2206 7.23559C15.8451 6.9231 15.4071 6.7356 14.844 6.7356C14.1557 6.7356 13.6552 6.92309 13.2798 7.36059C12.9043 7.79808 12.6541 8.42308 12.6541 9.17307C12.6541 9.92306 12.8418 10.4856 13.2798 10.923C13.6552 11.3605 14.2183 11.548 14.844 11.548C15.3446 11.548 15.7826 11.423 16.0954 11.173C16.4083 10.923 16.6585 10.5481 16.7837 10.0481L15.8451 9.73556C15.6574 10.1731 15.5323 10.4231 15.3446 10.5481Z" fill="#072C49"/>
<path d="M21.6641 6.8606H20.3502L18.473 8.92307V6.8606H17.4719V11.548H18.473V10.1106L19.2239 9.36057L20.5379 11.548H21.7267L19.8496 8.67308L21.6641 6.8606Z" fill="#072C49"/>
<path d="M23.1658 9.48556H25.5435V8.67308H23.1658V7.61059H25.7312V6.8606H22.2273V11.548H25.7938V10.7355H23.1658V9.48556Z" fill="#072C49"/>
<path d="M26.2935 6.8606V7.61059H27.67V11.548H28.6086V7.61059H30.0477V6.8606H26.2935Z" fill="#072C49"/>
<path d="M35.3047 3.4231V26.8603H48.507C49.383 26.8603 50.0713 26.1728 50.0713 25.2978V4.98558C50.0713 4.11059 49.383 3.4231 48.507 3.4231H35.3047Z" fill="#E45647"/>
<path d="M47.9428 7.0481H38.8701V8.61058H47.9428V7.0481Z" fill="#072C49"/>
<path d="M47.9428 10.3606H38.8701V11.1731H47.9428V10.3606Z" fill="#072C49"/>
<path d="M47.9428 12.8604H38.8701V14.4228H47.9428V12.8604Z" fill="#072C49"/>
<path d="M47.9428 15.7979H38.8701V17.3603H47.9428V15.7979Z" fill="#072C49"/>
<path d="M47.9428 19.1104H38.8701V19.9228H47.9428V19.1104Z" fill="#072C49"/>
<path d="M47.9428 21.6104H38.8701V23.1728H47.9428V21.6104Z" fill="#072C49"/>
<path d="M47.9428 7.0481H38.8701V8.61058H47.9428V7.0481Z" fill="#072C49"/>
<path d="M47.9428 10.3606H38.8701V11.1731H47.9428V10.3606Z" fill="#072C49"/>
<path d="M47.9428 12.8604H38.8701V14.4228H47.9428V12.8604Z" fill="#072C49"/>
<path d="M47.9428 15.7979H38.8701V17.3603H47.9428V15.7979Z" fill="#072C49"/>
<path d="M47.9428 19.1104H38.8701V19.9228H47.9428V19.1104Z" fill="#072C49"/>
<path d="M47.9428 21.6104H38.8701V23.1728H47.9428V21.6104Z" fill="#072C49"/>
<path d="M35.3048 17.9854C34.5539 17.9854 33.9282 18.6103 33.9282 19.3603C33.9282 20.1103 34.5539 20.7353 35.3048 20.7353C36.0556 20.7353 36.6813 20.1103 36.6813 19.3603C36.6813 18.6103 36.0556 17.9854 35.3048 17.9854Z" fill="#E45647"/>
<path d="M35.3047 17.9854V20.7353C36.0555 20.7353 36.6812 20.1103 36.6812 19.3603C36.6812 18.6103 36.0555 17.9854 35.3047 17.9854Z" fill="#F3F3F3"/>
<path d="M35.3048 13.7354C34.5539 13.7354 33.9282 14.3603 33.9282 15.1103C33.9282 15.8603 34.5539 16.4853 35.3048 16.4853C36.0556 16.4853 36.6813 15.8603 36.6813 15.1103C36.6813 14.3603 36.0556 13.7354 35.3048 13.7354Z" fill="#E45647"/>
<path d="M35.3047 13.7354V16.4853C36.0555 16.4853 36.6812 15.8603 36.6812 15.1103C36.6812 14.3603 36.0555 13.7354 35.3047 13.7354Z" fill="#F3F3F3"/>
<path d="M35.3048 9.4856C34.5539 9.4856 33.9282 10.1106 33.9282 10.8606C33.9282 11.6106 34.5539 12.2356 35.3048 12.2356C36.0556 12.2356 36.6813 11.6106 36.6813 10.8606C36.6813 10.1106 36.0556 9.4856 35.3048 9.4856Z" fill="#E45647"/>
<path d="M35.3047 9.4856V12.2356C36.0555 12.2356 36.6812 11.6106 36.6812 10.8606C36.6812 10.1106 36.0555 9.4856 35.3047 9.4856Z" fill="#F3F3F3"/>
<path d="M35.3048 5.2356C34.5539 5.2356 33.9282 5.86059 33.9282 6.61058C33.9282 7.36057 34.5539 7.98556 35.3048 7.98556C36.0556 7.98556 36.6813 7.36057 36.6813 6.61058C36.6813 5.86059 36.0556 5.2356 35.3048 5.2356Z" fill="#E45647"/>
<path d="M35.3047 5.2356V7.98556C36.0555 7.98556 36.6812 7.36057 36.6812 6.61058C36.6812 5.86059 36.0555 5.2356 35.3047 5.2356ZM35.3047 22.2354V24.9854C36.0555 24.9854 36.6812 24.3604 36.6812 23.6104C36.6812 22.8604 36.0555 22.2354 35.3047 22.2354Z" fill="#F3F3F3"/>
<path d="M35.3048 17.9854C34.5539 17.9854 33.9282 18.6103 33.9282 19.3603C33.9282 20.1103 34.5539 20.7353 35.3048 20.7353C36.0556 20.7353 36.6813 20.1103 36.6813 19.3603C36.6813 18.6103 36.0556 17.9854 35.3048 17.9854Z" fill="#E45647"/>
<path d="M35.3047 17.9854V20.7353C36.0555 20.7353 36.6812 20.1103 36.6812 19.3603C36.6812 18.6103 36.0555 17.9854 35.3047 17.9854Z" fill="#F3F3F3"/>
<path d="M35.3048 13.7354C34.5539 13.7354 33.9282 14.3603 33.9282 15.1103C33.9282 15.8603 34.5539 16.4853 35.3048 16.4853C36.0556 16.4853 36.6813 15.8603 36.6813 15.1103C36.6813 14.3603 36.0556 13.7354 35.3048 13.7354Z" fill="#E45647"/>
<path d="M35.3047 13.7354V16.4853C36.0555 16.4853 36.6812 15.8603 36.6812 15.1103C36.6812 14.3603 36.0555 13.7354 35.3047 13.7354Z" fill="#F3F3F3"/>
<path d="M35.3048 9.4856C34.5539 9.4856 33.9282 10.1106 33.9282 10.8606C33.9282 11.6106 34.5539 12.2356 35.3048 12.2356C36.0556 12.2356 36.6813 11.6106 36.6813 10.8606C36.6813 10.1106 36.0556 9.4856 35.3048 9.4856Z" fill="#E45647"/>
<path d="M35.3047 9.4856V12.2356C36.0555 12.2356 36.6812 11.6106 36.6812 10.8606C36.6812 10.1106 36.0555 9.4856 35.3047 9.4856Z" fill="#F3F3F3"/>
<path d="M35.3048 5.2356C34.5539 5.2356 33.9282 5.86059 33.9282 6.61058C33.9282 7.36057 34.5539 7.98556 35.3048 7.98556C36.0556 7.98556 36.6813 7.36057 36.6813 6.61058C36.6813 5.86059 36.0556 5.2356 35.3048 5.2356Z" fill="#E45647"/>
<path d="M35.3047 5.2356V7.98556C36.0555 7.98556 36.6812 7.36057 36.6812 6.61058C36.6812 5.86059 36.0555 5.2356 35.3047 5.2356Z" fill="#F3F3F3"/>
</g>
<defs>
<filter id="filter0_d_1729_482" x="0.0146484" y="0" width="52.0566" height="32.2209" filterUnits="userSpaceOnUse" color-interpolation-filters="sRGB">
<feFlood flood-opacity="0" result="BackgroundImageFix"/>
<feColorMatrix in="SourceAlpha" type="matrix" values="0 0 0 0 0 0 0 0 0 0 0 0 0 0 0 0 0 0 127 0" result="hardAlpha"/>
<feOffset dx="1" dy="1"/>
<feGaussianBlur stdDeviation="0.5"/>
<feComposite in2="hardAlpha" operator="out"/>
<feColorMatrix type="matrix" values="0 0 0 0 0 0 0 0 0 0 0 0 0 0 0 0 0 0 0.2 0"/>
<feBlend mode="normal" in2="BackgroundImageFix" result="effect1_dropShadow_1729_482"/>
<feBlend mode="normal" in="SourceGraphic" in2="effect1_dropShadow_1729_482" result="shape"/>
</filter>
</defs>
</svg>
