<svg width="248" height="151" viewBox="0 0 248 151" fill="none" xmlns="http://www.w3.org/2000/svg">
<g filter="url(#filter0_d_1095_17710)">
<path d="M208.746 4.52738L232.962 84.226C233.881 87.5979 232.042 91.2763 228.67 92.1959L44.7503 147.985C41.3784 148.905 37.7 147.065 36.7804 143.693L27.5844 114.573C33.4086 112.734 36.4739 106.603 34.6347 100.779C32.7955 94.9547 26.6648 91.5828 20.8407 93.1155L11.9513 63.9948C11.0317 60.623 12.8708 56.9446 16.2427 56.025L200.163 0.235918C204.148 -0.683682 207.519 1.15551 208.746 4.52738Z" fill="#DFE1E2"/>
<path d="M172.885 16.7925V131.742H7.66333C3.37187 131.742 0 128.371 0 124.079V87.6017C7.3568 87.2951 12.8744 81.471 12.8744 74.1142C12.8744 66.7574 7.05026 60.9333 0 60.6267V24.4558C0 20.1643 3.37187 16.7925 7.66333 16.7925H172.885Z" fill="#F3F3F3"/>
<path d="M172.886 109.051C169.208 109.051 166.143 112.116 166.143 115.794C166.143 119.473 169.208 122.538 172.886 122.538C176.565 122.538 179.63 119.473 179.63 115.794C179.63 112.116 176.565 109.051 172.886 109.051Z" fill="#E45647"/>
<path d="M172.887 109.051V122.538C176.565 122.538 179.63 119.473 179.63 115.794C179.63 112.116 176.565 109.051 172.887 109.051Z" fill="#F3F3F3"/>
<path d="M148.363 72.5822H30.6538V78.4063H148.363V72.5822Z" fill="#939393"/>
<path d="M89.5082 90.9744H30.6538V96.7985H89.5082V90.9744Z" fill="#939393"/>
<path d="M89.5082 109.357H30.6538V115.181H89.5082V109.357Z" fill="#939393"/>
<path d="M32.1865 37.3304H38.9303V56.642H43.5283V37.3304H50.272V33.652H32.1865V37.3304Z" fill="#072C49"/>
<path d="M57.9403 33.652H53.3423V56.642H57.9403V33.652Z" fill="#072C49"/>
<path d="M75.1013 51.7375C74.1817 52.6571 73.2621 52.9636 72.036 52.9636C70.5033 52.9636 68.9707 52.3505 68.0511 51.1244C67.1315 49.8983 66.5184 47.7525 66.5184 44.9937C66.5184 42.2349 67.1315 40.3957 68.0511 39.1696C68.9707 37.9435 70.5033 37.3304 72.3425 37.3304C73.5687 37.3304 74.4883 37.6369 75.4079 38.25C76.3275 38.8631 76.9405 39.7827 77.2471 41.0088L81.8451 39.7827C81.232 37.9435 80.6189 36.4108 79.3928 35.4912C77.5536 33.9585 75.4079 33.0389 72.6491 33.0389C69.2772 33.0389 66.8249 33.9585 64.9857 36.1043C63.1465 38.25 61.9204 41.3153 61.9204 44.9937C61.9204 48.6721 62.84 51.4309 64.9857 53.5767C66.8249 55.7224 69.5837 56.642 72.6491 56.642C75.1013 56.642 77.2471 56.0289 78.7797 54.8028C80.3124 53.5767 81.5385 51.7375 82.1516 49.2852L77.5536 47.7525C76.634 49.8983 76.0209 51.1244 75.1013 51.7375Z" fill="#072C49"/>
<path d="M106.061 33.652H99.624L90.428 43.7676V33.652H85.5234V56.642H90.428V49.5917L94.1064 45.9133L100.544 56.642H106.368L97.1717 42.5414L106.061 33.652Z" fill="#072C49"/>
<path d="M113.418 46.5264H125.067V42.5414H113.418V37.3304H125.986V33.652H108.82V56.642H126.293V52.657H113.418V46.5264Z" fill="#072C49"/>
<path d="M128.74 33.652V37.3304H135.484V56.642H140.082V37.3304H147.132V33.652H128.74Z" fill="#072C49"/>
<path d="M172.885 18.0187V132.969H7.66333C3.37187 132.969 0 129.597 0 125.305V88.8279C7.3568 88.5213 12.8744 82.6972 12.8744 75.3404C12.8744 67.9836 7.05026 62.1595 0 61.8529V25.682C0 21.3905 3.37187 18.0187 7.66333 18.0187H172.885Z" fill="#F7F8F9"/>
<path d="M172.886 109.051C169.208 109.051 166.143 112.116 166.143 115.794C166.143 119.473 169.208 122.538 172.886 122.538C176.565 122.538 179.63 119.473 179.63 115.794C179.63 112.116 176.565 109.051 172.886 109.051Z" fill="#E45647"/>
<path d="M148.363 72.5822H30.6538V78.4063H148.363V72.5822Z" fill="#939393"/>
<path d="M89.5082 90.9744H30.6538V96.7985H89.5082V90.9744Z" fill="#939393"/>
<path d="M89.5082 109.357H30.6538V115.181H89.5082V109.357Z" fill="#939393"/>
<path d="M32.1865 37.3304H38.9303V56.642H43.5283V37.3304H50.272V33.652H32.1865V37.3304Z" fill="#072C49"/>
<path d="M57.9403 33.652H53.3423V56.642H57.9403V33.652Z" fill="#072C49"/>
<path d="M75.1013 51.7375C74.1817 52.6571 73.2621 52.9636 72.036 52.9636C70.5033 52.9636 68.9707 52.3505 68.0511 51.1244C67.1315 49.8983 66.5184 47.7525 66.5184 44.9937C66.5184 42.2349 67.1315 40.3957 68.0511 39.1696C68.9707 37.9435 70.5033 37.3304 72.3425 37.3304C73.5687 37.3304 74.4883 37.6369 75.4079 38.25C76.3275 38.8631 76.9405 39.7827 77.2471 41.0088L81.8451 39.7827C81.232 37.9435 80.6189 36.4108 79.3928 35.4912C77.5536 33.9585 75.4079 33.0389 72.6491 33.0389C69.2772 33.0389 66.8249 33.9585 64.9857 36.1043C63.1465 38.25 61.9204 41.3153 61.9204 44.9937C61.9204 48.6721 62.84 51.4309 64.9857 53.5767C66.8249 55.7224 69.5837 56.642 72.6491 56.642C75.1013 56.642 77.2471 56.0289 78.7797 54.8028C80.3124 53.5767 81.5385 51.7375 82.1516 49.2852L77.5536 47.7525C76.634 49.8983 76.0209 51.1244 75.1013 51.7375Z" fill="#072C49"/>
<path d="M106.061 33.652H99.624L90.428 43.7676V33.652H85.5234V56.642H90.428V49.5917L94.1064 45.9133L100.544 56.642H106.368L97.1717 42.5414L106.061 33.652Z" fill="#072C49"/>
<path d="M113.418 46.5264H125.067V42.5414H113.418V37.3304H125.986V33.652H108.82V56.642H126.293V52.657H113.418V46.5264Z" fill="#072C49"/>
<path d="M128.74 33.652V37.3304H135.484V56.642H140.082V37.3304H147.132V33.652H128.74Z" fill="#072C49"/>
<path d="M172.887 16.7925V131.742H237.565C241.857 131.742 245.229 128.371 245.229 124.079V24.4558C245.229 20.1643 241.857 16.7925 237.565 16.7925H172.887Z" fill="#E45647"/>
<path d="M234.802 34.5717H190.354V42.235H234.802V34.5717Z" fill="#072C49"/>
<path d="M234.802 50.8181H190.354V54.803H234.802V50.8181Z" fill="#072C49"/>
<path d="M234.802 63.0796H190.354V70.7429H234.802V63.0796Z" fill="#072C49"/>
<path d="M234.802 77.4868H190.354V85.1501H234.802V77.4868Z" fill="#072C49"/>
<path d="M234.802 93.7332H190.354V97.7181H234.802V93.7332Z" fill="#072C49"/>
<path d="M234.802 105.985H190.354V113.648H234.802V105.985Z" fill="#072C49"/>
<path d="M234.802 34.5717H190.354V42.235H234.802V34.5717Z" fill="#072C49"/>
<path d="M234.802 50.8181H190.354V54.803H234.802V50.8181Z" fill="#072C49"/>
<path d="M234.802 63.0796H190.354V70.7429H234.802V63.0796Z" fill="#072C49"/>
<path d="M234.802 77.4868H190.354V85.1501H234.802V77.4868Z" fill="#072C49"/>
<path d="M234.802 93.7332H190.354V97.7181H234.802V93.7332Z" fill="#072C49"/>
<path d="M234.802 105.985H190.354V113.648H234.802V105.985Z" fill="#072C49"/>
<path d="M172.886 88.2156C169.208 88.2156 166.143 91.2809 166.143 94.9593C166.143 98.6377 169.208 101.703 172.886 101.703C176.565 101.703 179.63 98.6377 179.63 94.9593C179.63 91.2809 176.565 88.2156 172.886 88.2156Z" fill="#E45647"/>
<path d="M172.887 88.2156V101.703C176.565 101.703 179.63 98.6377 179.63 94.9593C179.63 91.2809 176.565 88.2156 172.887 88.2156Z" fill="#F3F3F3"/>
<path d="M172.886 67.3711C169.208 67.3711 166.143 70.4364 166.143 74.1148C166.143 77.7932 169.208 80.8585 172.886 80.8585C176.565 80.8585 179.63 77.7932 179.63 74.1148C179.63 70.4364 176.565 67.3711 172.886 67.3711Z" fill="#E45647"/>
<path d="M172.887 67.3711V80.8585C176.565 80.8585 179.63 77.7932 179.63 74.1148C179.63 70.4364 176.565 67.3711 172.887 67.3711Z" fill="#F3F3F3"/>
<path d="M172.886 46.5265C169.208 46.5265 166.143 49.5918 166.143 53.2702C166.143 56.9486 169.208 60.014 172.886 60.014C176.565 60.014 179.63 56.9486 179.63 53.2702C179.63 49.5918 176.565 46.5265 172.886 46.5265Z" fill="#E45647"/>
<path d="M172.887 46.5265V60.014C176.565 60.014 179.63 56.9486 179.63 53.2702C179.63 49.5918 176.565 46.5265 172.887 46.5265Z" fill="#F3F3F3"/>
<path d="M172.886 25.682C169.208 25.682 166.143 28.7473 166.143 32.4257C166.143 36.1041 169.208 39.1695 172.886 39.1695C176.565 39.1695 179.63 36.1041 179.63 32.4257C179.63 28.7473 176.565 25.682 172.886 25.682Z" fill="#E45647"/>
<path d="M172.887 25.682V39.1695C176.565 39.1695 179.63 36.1041 179.63 32.4257C179.63 28.7473 176.565 25.682 172.887 25.682ZM172.887 109.059V122.547C176.565 122.547 179.63 119.481 179.63 115.803C179.63 112.124 176.565 109.059 172.887 109.059Z" fill="#F3F3F3"/>
<path d="M172.886 88.2156C169.208 88.2156 166.143 91.2809 166.143 94.9593C166.143 98.6377 169.208 101.703 172.886 101.703C176.565 101.703 179.63 98.6377 179.63 94.9593C179.63 91.2809 176.565 88.2156 172.886 88.2156Z" fill="#E45647"/>
<path d="M172.887 88.2156V101.703C176.565 101.703 179.63 98.6377 179.63 94.9593C179.63 91.2809 176.565 88.2156 172.887 88.2156Z" fill="#F3F3F3"/>
<path d="M172.886 67.3711C169.208 67.3711 166.143 70.4364 166.143 74.1148C166.143 77.7932 169.208 80.8585 172.886 80.8585C176.565 80.8585 179.63 77.7932 179.63 74.1148C179.63 70.4364 176.565 67.3711 172.886 67.3711Z" fill="#E45647"/>
<path d="M172.887 67.3711V80.8585C176.565 80.8585 179.63 77.7932 179.63 74.1148C179.63 70.4364 176.565 67.3711 172.887 67.3711Z" fill="#F3F3F3"/>
<path d="M172.886 46.5265C169.208 46.5265 166.143 49.5918 166.143 53.2702C166.143 56.9486 169.208 60.014 172.886 60.014C176.565 60.014 179.63 56.9486 179.63 53.2702C179.63 49.5918 176.565 46.5265 172.886 46.5265Z" fill="#E45647"/>
<path d="M172.887 46.5265V60.014C176.565 60.014 179.63 56.9486 179.63 53.2702C179.63 49.5918 176.565 46.5265 172.887 46.5265Z" fill="#F3F3F3"/>
<path d="M172.886 25.682C169.208 25.682 166.143 28.7473 166.143 32.4257C166.143 36.1041 169.208 39.1695 172.886 39.1695C176.565 39.1695 179.63 36.1041 179.63 32.4257C179.63 28.7473 176.565 25.682 172.886 25.682Z" fill="#E45647"/>
<path d="M172.887 25.682V39.1695C176.565 39.1695 179.63 36.1041 179.63 32.4257C179.63 28.7473 176.565 25.682 172.887 25.682Z" fill="#F3F3F3"/>
</g>
<defs>
<filter id="filter0_d_1095_17710" x="0" y="0" width="247.229" height="150.221" filterUnits="userSpaceOnUse" color-interpolation-filters="sRGB">
<feFlood flood-opacity="0" result="BackgroundImageFix"/>
<feColorMatrix in="SourceAlpha" type="matrix" values="0 0 0 0 0 0 0 0 0 0 0 0 0 0 0 0 0 0 127 0" result="hardAlpha"/>
<feOffset dx="1" dy="1"/>
<feGaussianBlur stdDeviation="0.5"/>
<feComposite in2="hardAlpha" operator="out"/>
<feColorMatrix type="matrix" values="0 0 0 0 0 0 0 0 0 0 0 0 0 0 0 0 0 0 0.2 0"/>
<feBlend mode="normal" in2="BackgroundImageFix" result="effect1_dropShadow_1095_17710"/>
<feBlend mode="normal" in="SourceGraphic" in2="effect1_dropShadow_1095_17710" result="shape"/>
</filter>
</defs>
</svg>
