<svg width="25" height="25" viewBox="0 0 25 25" fill="none" xmlns="http://www.w3.org/2000/svg">
<g clip-path="url(#clip0_595_11947)">
<circle cx="14" cy="8.16663" r="3.5" stroke="#B6B6B6" stroke-width="1.75" stroke-linecap="round"/>
<path d="M20.9998 19.8335C20.9998 23.0551 17.2214 23.3335 13.9998 23.3335C10.7781 23.3335 6.99976 23.0551 6.99976 19.8335C6.99976 16.6118 10.7781 14.0001 13.9998 14.0001C17.2214 14.0001 20.9998 16.6118 20.9998 19.8335Z" stroke="#B6B6B6" stroke-width="1.75" stroke-linecap="round"/>
<path d="M20.3057 12.0886C22.0329 12.0886 23.4332 10.6884 23.4332 8.96112C23.4332 7.23385 22.0329 5.83362 20.3057 5.83362" stroke="#B6B6B6" stroke-width="1.75" stroke-linecap="round"/>
<path d="M24.9969 18.6668C24.9969 15.9062 22.9271 13.4798 20.3057 12.0885" stroke="#B6B6B6" stroke-width="1.75" stroke-linecap="round"/>
<path d="M7.02466 12.0886C5.29739 12.0886 3.89716 10.6884 3.89716 8.96112C3.89716 7.23385 5.29739 5.83362 7.02466 5.83362" stroke="#B6B6B6" stroke-width="1.75" stroke-linecap="round"/>
<path d="M2.33341 18.6668C2.33341 15.9062 4.40322 13.4798 7.02466 12.0885" stroke="#B6B6B6" stroke-width="1.75" stroke-linecap="round"/>
</g>
<defs>
<clipPath id="clip0_595_11947">
<rect width="25" height="25" fill="white"/>
</clipPath>
</defs>
</svg>
