<svg width="23" height="18" viewBox="0 0 23 18" fill="none" xmlns="http://www.w3.org/2000/svg">
<path d="M14.1736 6.39823C13.6059 6.39823 13.1429 6.861 13.1429 7.43036C13.1429 7.99966 13.606 8.46264 14.1736 8.46264C14.7451 8.46264 15.208 7.99961 15.208 7.43036C15.208 6.86095 14.7451 6.39823 14.1736 6.39823V6.39823ZM16.428 8.65454C15.8603 8.65454 15.3985 9.11398 15.3985 9.68677C15.3985 10.2548 15.8603 10.7144 16.428 10.7144C17.0003 10.7144 17.4624 10.2548 17.4624 9.68677C17.4625 9.11398 17.0003 8.65454 16.428 8.65454ZM5.30001 5.39393C4.18903 5.39393 3.28577 6.30792 3.28577 7.42918C3.28577 8.55171 4.18903 9.4634 5.30001 9.4634C6.41177 9.4634 7.31503 8.55171 7.31503 7.42918C7.31503 6.30792 6.41182 5.39393 5.30001 5.39393ZM5.29432 8.42757C4.7456 8.42757 4.30126 7.97984 4.30126 7.42918C4.30126 6.87856 4.7456 6.43109 5.29432 6.43109C5.84062 6.43109 6.28501 6.87861 6.28501 7.42918C6.28501 7.97984 5.84062 8.42757 5.29432 8.42757ZM16.428 4.14294C15.8603 4.14294 15.3985 4.60572 15.3985 5.17522C15.3985 5.74458 15.8603 6.20627 16.428 6.20627C17.0003 6.20627 17.4624 5.74458 17.4624 5.17522C17.4625 4.60572 17.0003 4.14294 16.428 4.14294ZM18.6849 6.39823C18.1147 6.39823 17.6529 6.861 17.6529 7.43036C17.6529 7.99966 18.1147 8.46264 18.6849 8.46264C19.2526 8.46264 19.7144 7.99961 19.7144 7.43036C19.7144 6.86095 19.2526 6.39823 18.6849 6.39823V6.39823Z" fill="#B6B6B6"/>
<path d="M22.2956 8.70522C21.2094 4.16318 20.0556 1.7493 17.7544 1.06438C17.2531 0.915448 16.8264 0.857178 16.4325 0.857178C15.0156 0.857178 14.0227 1.61099 11.4998 1.61099C8.97524 1.61099 7.98296 0.85728 6.56804 0.857178C6.17453 0.857178 5.74851 0.915448 5.24755 1.06438C2.944 1.7493 1.79025 4.16318 0.706015 8.70522C-0.381403 13.2474 -0.183901 16.5274 1.10025 17.1397C1.30925 17.2396 1.52282 17.2858 1.73963 17.2858C2.85339 17.2858 4.05704 16.0619 5.2132 14.6137C6.53026 12.9655 6.86191 12.9219 10.8748 12.9219H12.1246C16.1366 12.9219 16.4693 12.9654 17.7864 14.6137C18.9428 16.0618 20.1464 17.2836 21.2602 17.2836C21.4772 17.2836 21.6907 17.2384 21.8998 17.1386C23.1835 16.5264 23.381 13.2474 22.2956 8.70522ZM21.5459 16.3984C21.4517 16.4434 21.3609 16.4643 21.2603 16.4643C20.9511 16.4643 20.5376 16.2565 20.0643 15.8633C19.593 15.4715 19.0731 14.913 18.4282 14.1055C17.7628 13.2727 17.2131 12.6562 16.1935 12.3625C15.3388 12.1165 14.2105 12.1005 12.1246 12.1005H10.8749C8.78878 12.1005 7.66044 12.1165 6.80575 12.3626C5.78651 12.6562 5.23682 13.2705 4.5713 14.1034C3.92669 14.9108 3.40693 15.4704 2.93553 15.8622C2.46239 16.2553 2.0489 16.4638 1.73968 16.4638C1.64049 16.4638 1.54711 16.4425 1.45382 16.398C0.963226 16.164 0.294993 13.9505 1.50506 8.89579C2.60306 4.29625 3.68087 2.38714 5.48175 1.85167C5.87363 1.73513 6.22895 1.67856 6.56804 1.67856C7.06819 1.67856 7.52291 1.79751 8.09857 1.94804C8.9236 2.16382 9.95049 2.43242 11.4999 2.43242C13.0477 2.43242 14.0744 2.16402 14.8993 1.94834C15.4758 1.79761 15.9313 1.67861 16.4326 1.67861C16.7724 1.67861 17.1283 1.73529 17.5202 1.85167C19.319 2.38704 20.3968 4.2963 21.4968 8.89615C22.7045 13.9508 22.0364 16.1645 21.5459 16.3984Z" fill="#B6B6B6"/>
</svg>
