<svg width="15" height="19" viewBox="0 0 15 19" fill="none" xmlns="http://www.w3.org/2000/svg">
<path d="M0.803506 17.5794L0.801674 17.5784C0.739502 17.5439 0.688724 17.4943 0.65376 17.4354C0.618902 17.3767 0.600767 17.3106 0.60058 17.2436V2.76419H0.600736L0.600423 2.75049C0.590567 2.3189 0.753302 1.8994 1.05578 1.58319C1.35635 1.26899 1.77105 1.08197 2.21167 1.06436H11.7895C12.2301 1.08197 12.6448 1.26899 12.9454 1.58319C13.2479 1.8994 13.4106 2.3189 13.4007 2.75049L13.4006 2.75049V2.76419V17.2421C13.3999 17.3076 13.3821 17.3723 13.3481 17.4299C13.3139 17.488 13.2643 17.5372 13.2035 17.5719L13.5006 18.0932L13.2035 17.5719C13.1423 17.6067 13.0723 17.6254 13.0006 17.6254C12.9289 17.6254 12.8589 17.6067 12.7977 17.5718L12.7933 17.5694L7.12327 14.4009L6.82179 14.2325L6.52469 14.4085L1.19469 17.5671L1.19466 17.5671L1.18712 17.5717C1.12917 17.6072 1.06247 17.6278 0.99336 17.6312C0.926344 17.6296 0.861106 17.6116 0.803506 17.5794Z" stroke="url(#paint0_linear_781_13199)" stroke-width="1.2"/>
<defs>
<linearGradient id="paint0_linear_781_13199" x1="-0.000175437" y1="1.14573" x2="0.0498176" y2="1.14574" gradientUnits="userSpaceOnUse">
<stop stop-color="#D19A08"/>
<stop offset="1" stop-color="#FEDB7E"/>
</linearGradient>
</defs>
</svg>
