<svg width="14" height="13" viewBox="0 0 14 13" fill="none" xmlns="http://www.w3.org/2000/svg">
<path d="M12.6656 11.0683C13.1148 11.5176 13.1148 12.2163 12.6656 12.6656C12.4409 12.8902 12.1664 12.99 11.8669 12.99C11.5675 12.99 11.2929 12.8902 11.0683 12.6656L6.50124 8.09847L1.93415 12.6656C1.70954 12.8902 1.43501 12.99 1.13553 12.99C0.836052 12.99 0.561527 12.8902 0.336916 12.6656C-0.112305 12.2163 -0.112305 11.5176 0.336916 11.0683L4.90401 6.50124L0.336916 1.93415C-0.112305 1.48493 -0.112305 0.786138 0.336916 0.336916C0.786138 -0.112305 1.48493 -0.112305 1.93415 0.336916L6.50124 4.90401L11.0683 0.336916C11.5176 -0.112305 12.2163 -0.112305 12.6656 0.336916C13.1148 0.786138 13.1148 1.48493 12.6656 1.93415L8.09847 6.50124L12.6656 11.0683Z" fill="#C0C0C0"/>
</svg>
