<svg width="15" height="14" viewBox="0 0 15 14" fill="none" xmlns="http://www.w3.org/2000/svg">
<path fill-rule="evenodd" clip-rule="evenodd" d="M6.63242 13.002C7.05445 13.4262 7.74898 13.4527 8.18343 13.016L8.99474 12.2006C9.17726 12.0171 9.28201 11.7851 9.30896 11.5459C9.67672 11.6474 10.0868 11.5529 10.3758 11.2625C10.6062 11.031 10.7187 10.7179 10.7026 10.4102C11.0045 10.4281 11.3124 10.3212 11.5431 10.0893C11.7735 9.85773 11.886 9.5446 11.87 9.23691C12.1719 9.25484 12.4798 9.14789 12.7105 8.91598C12.9228 8.70258 13.035 8.41985 13.0387 8.13596C14.5402 6.59931 14.5316 4.13034 13.0132 2.60423C11.6239 1.20801 9.32205 1.25822 7.77575 2.38364L7.76801 2.37583C6.241 0.841113 3.76497 0.840797 2.23796 2.37555C0.69269 3.9286 0.928096 6.61662 2.43585 8.13199L2.76385 8.46163C2.78281 8.48069 2.80383 8.49644 2.82618 8.50886C2.76552 8.85153 2.86688 9.21751 3.13035 9.48231C3.36074 9.71388 3.6723 9.82689 3.97844 9.81077C3.96059 10.1142 4.06698 10.4236 4.29767 10.6555C4.52805 10.887 4.83963 11.0001 5.14577 10.984C5.12794 11.2875 5.23434 11.5969 5.46508 11.8288C5.69545 12.0603 6.00704 12.1734 6.31316 12.1573C6.29531 12.4607 6.40169 12.7701 6.63242 13.002ZM6.62145 11.4462C6.41717 11.6515 6.07625 11.6499 5.85973 11.4322C5.64935 11.2208 5.64934 10.878 5.85971 10.6666L6.67099 9.8512C6.87531 9.64592 7.21631 9.64753 7.4328 9.86513C7.64314 10.0765 7.64314 10.4193 7.43282 10.6308M7.43282 10.6308L6.62145 11.4462L7.43282 10.6308ZM5.45412 10.273C5.24988 10.4782 4.90894 10.4766 4.69231 10.2589C4.48202 10.0475 4.48202 9.7048 4.69232 9.49338L5.50369 8.67795C5.70791 8.47266 6.04888 8.47424 6.2654 8.69191C6.47577 8.9033 6.47579 9.24611 6.26542 9.45754L5.45412 10.273ZM4.28671 9.09969C4.08246 9.30495 3.74152 9.30338 3.52497 9.08572C3.31463 8.87431 3.31464 8.53152 3.52499 8.3201L4.33628 7.50467C4.54058 7.29941 4.88149 7.30099 5.0981 7.5187C5.30843 7.73006 5.30841 8.07287 5.09808 8.28427L4.28671 9.09969ZM5.81199 7.96683C6.11814 7.95072 6.42972 8.06379 6.66007 8.29536C6.89079 8.52724 6.9972 8.83667 6.97936 9.1401C7.2855 9.12399 7.59706 9.23701 7.82742 9.46854C8.05813 9.70042 8.16454 10.0099 8.14671 10.3133C8.45283 10.2972 8.76438 10.4103 8.99473 10.6418C9.04543 10.6928 9.09013 10.7475 9.12883 10.805C9.16176 10.8187 9.19261 10.839 9.21938 10.8659C9.42974 11.0773 9.77084 11.0773 9.98119 10.8659C10.1977 10.6483 10.1994 10.3056 9.99512 10.1003C9.98143 10.0866 9.96946 10.0718 9.95921 10.0561L7.37975 7.46359L8.94703 5.90723L11.5102 8.48335C11.5257 8.49364 11.5404 8.50565 11.5541 8.51937C11.7645 8.73082 12.1055 8.73081 12.3158 8.51943C12.5324 8.3018 12.5341 7.95911 12.3298 7.75389L8.92451 4.33139L7.72023 5.54277L7.7195 5.54352C6.93465 6.34427 5.69458 6.35069 4.92485 5.5827C4.8137 5.4718 4.8115 5.28971 4.92409 5.17654L7.28526 2.80344L7.28557 2.80313L7.28669 2.802L7.29211 2.79655C7.29291 2.79576 7.2937 2.79496 7.2945 2.79418C7.31127 2.77744 7.32817 2.76085 7.34522 2.74443C6.03406 1.45653 3.93239 1.46575 2.63258 2.77215C1.34186 4.06937 1.50214 6.40036 2.83047 7.73539L3.07603 7.98218C3.0933 7.96213 3.11142 7.94256 3.13037 7.92351L3.94169 7.10805C4.37619 6.67148 5.07065 6.6979 5.49272 7.12209C5.72343 7.35395 5.82982 7.6634 5.81199 7.96683ZM7.68018 3.19973C9.00852 1.8647 11.3278 1.70358 12.6186 3.00084C13.8454 4.23388 13.9225 6.18489 12.8498 7.5081C12.8133 7.45518 12.7716 7.40466 12.7244 7.35723L9.14046 3.75522C9.1215 3.73617 9.10049 3.72043 9.07815 3.708C8.9694 3.63267 8.81932 3.64365 8.72263 3.74091L7.32321 5.1486L7.32247 5.14936C6.82006 5.66246 6.07539 5.72211 5.5313 5.35948L7.68018 3.19973ZM11.1624 8.92705C11.3667 9.13238 11.3651 9.475 11.1485 9.69266C10.9382 9.9041 10.5971 9.90408 10.3868 9.69266L7.80914 7.03719L8.58246 6.26927L11.1624 8.92705ZM7.02709 11.8398L7.8384 11.0244C8.04263 10.8191 8.38359 10.8207 8.6001 11.0384C8.81047 11.2498 8.81049 11.5926 8.60013 11.804L7.78882 12.6194C7.5846 12.8247 7.24362 12.8231 7.02704 12.6054C6.81673 12.394 6.81675 12.0513 7.02709 11.8398Z" fill="#FAFAFA"/>
<path d="M13.0132 2.60423C14.5316 4.13034 14.5402 6.59931 13.0387 8.13596C13.035 8.41985 12.9228 8.70258 12.7105 8.91598C12.4798 9.14789 12.1719 9.25484 11.87 9.23691C11.886 9.5446 11.7735 9.85773 11.5431 10.0893C11.3124 10.3212 11.0045 10.4281 10.7026 10.4102C10.7187 10.7179 10.6062 11.031 10.3758 11.2625C10.0868 11.5529 9.67672 11.6474 9.30897 11.5459C9.28201 11.7851 9.17726 12.0171 8.99474 12.2006L8.18343 13.016C7.74898 13.4527 7.05445 13.4262 6.63242 13.002C6.40169 12.7701 6.29531 12.4607 6.31316 12.1573C6.00704 12.1734 5.69545 12.0603 5.46508 11.8288C5.23434 11.5969 5.12794 11.2875 5.14577 10.984C4.83963 11.0001 4.52805 10.887 4.29767 10.6555C4.06698 10.4236 3.96059 10.1142 3.97844 9.81077C3.6723 9.82689 3.36074 9.71388 3.13035 9.48231C2.86688 9.21751 2.76552 8.85153 2.82618 8.50886C2.80383 8.49644 2.78281 8.48069 2.76385 8.46163L2.43585 8.13199M13.0132 2.60423L12.8159 2.80253M13.0132 2.60423C11.6239 1.20801 9.32205 1.25822 7.77575 2.38364L7.76801 2.37583C6.241 0.841113 3.76497 0.840798 2.23796 2.37555C0.69269 3.9286 0.928096 6.61662 2.43585 8.13199M2.43585 8.13199L2.63316 7.93369M2.63258 2.77215C3.93239 1.46575 6.03406 1.45653 7.34522 2.74443C7.32817 2.76085 7.31127 2.77744 7.2945 2.79418C7.2937 2.79496 7.29291 2.79576 7.29211 2.79655L7.28669 2.802L7.28557 2.80313L7.28526 2.80343L4.92409 5.17654C4.8115 5.28971 4.8137 5.4718 4.92485 5.5827C5.69458 6.35069 6.93465 6.34427 7.7195 5.54352L7.72023 5.54277L8.92451 4.33139L12.3298 7.75389C12.5341 7.95911 12.5324 8.3018 12.3158 8.51943C12.1055 8.73081 11.7645 8.73082 11.5541 8.51937C11.5404 8.50565 11.5257 8.49364 11.5102 8.48335L8.94703 5.90723L7.37975 7.46359L9.95921 10.0561C9.96946 10.0718 9.98143 10.0866 9.99512 10.1003C10.1994 10.3056 10.1977 10.6483 9.98119 10.8659C9.77084 11.0773 9.42974 11.0773 9.21938 10.8659C9.19261 10.839 9.16176 10.8187 9.12883 10.805C9.09013 10.7475 9.04543 10.6928 8.99473 10.6418C8.76438 10.4103 8.45283 10.2972 8.14671 10.3133C8.16454 10.0099 8.05813 9.70042 7.82742 9.46854C7.59706 9.23701 7.2855 9.12399 6.97936 9.1401C6.9972 8.83667 6.89079 8.52724 6.66007 8.29536C6.42972 8.06379 6.11814 7.95072 5.81199 7.96683C5.82983 7.6634 5.72343 7.35395 5.49272 7.12209C5.07065 6.6979 4.37619 6.67148 3.94169 7.10805L3.13037 7.92351C3.11142 7.94256 3.0933 7.96213 3.07603 7.98218L2.83047 7.73539C1.50214 6.40036 1.34186 4.06937 2.63258 2.77215ZM2.63258 2.77215L2.43527 2.57385M5.85973 11.4322C6.07625 11.6499 6.41717 11.6515 6.62145 11.4462L7.43282 10.6308C7.64314 10.4193 7.64314 10.0765 7.4328 9.86513C7.21631 9.64753 6.87531 9.64592 6.67099 9.8512L5.85971 10.6666C5.64934 10.878 5.64935 11.2208 5.85973 11.4322ZM4.69231 10.2589C4.90894 10.4766 5.24988 10.4782 5.45412 10.273L6.26542 9.45754C6.47579 9.24611 6.47577 8.9033 6.2654 8.69191C6.04888 8.47424 5.70791 8.47266 5.50369 8.67795L4.69232 9.49338C4.48202 9.7048 4.48202 10.0475 4.69231 10.2589ZM3.52497 9.08572C3.74152 9.30338 4.08246 9.30495 4.28671 9.09969L5.09808 8.28427C5.30841 8.07287 5.30843 7.73006 5.0981 7.5187C4.88149 7.30099 4.54058 7.29941 4.33628 7.50467L3.52499 8.3201C3.31464 8.53152 3.31463 8.87431 3.52497 9.08572ZM12.6186 3.00084C11.3278 1.70358 9.00852 1.8647 7.68018 3.19973L5.5313 5.35948C6.07539 5.72211 6.82006 5.66246 7.32247 5.14936L7.32321 5.1486L8.72263 3.74091C8.81932 3.64365 8.9694 3.63267 9.07815 3.708C9.10049 3.72043 9.1215 3.73617 9.14046 3.75522L12.7244 7.35723C12.7716 7.40466 12.8133 7.45518 12.8498 7.5081C13.9225 6.18489 13.8454 4.23388 12.6186 3.00084ZM11.1485 9.69266C11.3651 9.475 11.3667 9.13238 11.1624 8.92705L8.58246 6.26927L7.80914 7.03719L10.3868 9.69266C10.5971 9.90408 10.9382 9.9041 11.1485 9.69266ZM7.83839 11.0244L7.02709 11.8398C6.81675 12.0513 6.81673 12.394 7.02704 12.6054C7.24362 12.8231 7.5846 12.8247 7.78882 12.6194L8.60013 11.804C8.81049 11.5926 8.81047 11.2498 8.6001 11.0384C8.38359 10.8207 8.04263 10.8191 7.83839 11.0244Z" stroke="#FAFAFA" stroke-width="0.484295" stroke-linecap="round"/>
</svg>
