<svg width="12" height="15" viewBox="0 0 12 15" fill="none" xmlns="http://www.w3.org/2000/svg">
<path opacity="0.9" d="M6 0.000550039C4.40925 0.00233667 2.88416 0.635068 1.75933 1.75993C0.634501 2.88479 0.00178658 4.40991 0 6.00071C0 8.44202 1.77225 10.4693 3.6495 12.6151C4.2435 13.2946 4.8585 13.9974 5.406 14.7084C5.47606 14.7993 5.56605 14.8729 5.66903 14.9236C5.77201 14.9742 5.88524 15.0005 6 15.0005C6.11476 15.0005 6.22799 14.9742 6.33097 14.9236C6.43395 14.8729 6.52394 14.7993 6.594 14.7084C7.1415 13.9974 7.7565 13.2946 8.3505 12.6151C10.2277 10.4693 12 8.44202 12 6.00071C11.9982 4.40991 11.3655 2.88479 10.2407 1.75993C9.11584 0.635068 7.59075 0.00233667 6 0.000550039ZM6 8.25076C5.55499 8.25076 5.11998 8.1188 4.74997 7.87156C4.37996 7.62432 4.09157 7.27291 3.92127 6.86177C3.75097 6.45062 3.70642 5.99821 3.79323 5.56174C3.88005 5.12527 4.09434 4.72435 4.40901 4.40967C4.72368 4.095 5.12459 3.8807 5.56105 3.79388C5.9975 3.70706 6.4499 3.75162 6.86104 3.92192C7.27217 4.09222 7.62357 4.38062 7.87081 4.75064C8.11804 5.12066 8.25 5.55569 8.25 6.00071C8.25 6.59746 8.01295 7.16977 7.59099 7.59174C7.16903 8.01371 6.59674 8.25076 6 8.25076Z" fill="white"/>
</svg>
