<svg width="124" height="152" viewBox="0 0 124 152" fill="none" xmlns="http://www.w3.org/2000/svg">
<path fill-rule="evenodd" clip-rule="evenodd" d="M56.1659 92.1918C59.7073 100.056 65.085 106.96 71.8491 112.327C68.9133 106.485 67.2124 100.103 66.8521 93.5779C66.5924 88.5616 66.0517 77.9412 72.5413 69.5538C74.1776 67.4504 75.2686 66.7612 79.2597 64.2402L79.2598 64.2401C81.2048 63.0116 83.8384 61.3481 87.5594 58.8739C97.7805 52.0831 102.891 48.6849 105.238 46.2037C106.314 45.0656 120.364 29.8118 115.454 15.9064C113.631 10.7499 109.635 6.99582 108.618 6.0573C105.61 3.29395 102.028 1.22581 98.1266 0C100.771 2.66457 105.411 8.2472 105.098 15.216C104.546 27.4547 89.0357 35.2434 86.283 36.6243C82.1601 38.7 78.8934 39.4937 75.8704 40.2282C71.8233 41.2115 68.2129 42.0888 63.5694 45.7937C60.0786 48.5614 57.1632 51.9822 54.9868 55.8641C46.837 70.9237 54.392 88.1841 56.1659 92.1918ZM2.66975 84.2355C-2.87346 93.1515 1.8207 104.349 2.53456 105.994C2.59946 104.543 3.14567 95.8592 10.241 90.4222L10.2608 90.4072C11.5882 89.4031 16.4807 85.7022 22.6794 86.7004C27.7846 87.5257 30.8725 91.0748 33.0358 93.5884C39.1198 100.719 45.777 115.288 38.9846 125.261C36.3239 129.172 30.6995 133.719 24.2099 133.249C22.2738 133.099 20.3918 132.54 18.6883 131.61C20.2404 133.622 23.5231 137.246 28.7689 138.767C30.3967 139.242 33.3819 139.852 40.9206 138.492C45.868 137.602 48.291 136.671 50.334 135.886C51.9692 135.257 53.361 134.722 55.6089 134.377C65.9922 132.775 75.2537 138.172 82.8099 142.576L82.8924 142.624C87.0497 145.055 90.9381 147.917 94.4926 151.162C93.9498 146.072 92.3176 141.157 89.7064 136.75C86.357 131.227 82.5651 128.684 77.4853 125.277L77.4852 125.277C74.3303 123.161 70.6786 120.712 66.3276 117.009C58.5779 110.433 53.0347 105.552 49.4816 97.7309C44.1061 85.8807 47.2156 73.6581 48.9407 66.8835C50.2595 61.7462 52.7486 54.7604 55.1975 47.8872L55.1976 47.8872L55.1976 47.8871C57.7703 40.6667 60.2986 33.5707 61.3792 28.8729C61.8934 26.7997 61.9872 24.645 61.655 22.5352C61.179 19.8216 60.0364 17.268 58.329 15.1025C57.4367 22.7833 55.3547 34.3208 50.044 46.0847C49.3086 47.7084 44.8361 57.4551 38.4005 63.2373C36.7454 64.6917 35.0045 66.0462 33.1872 67.2934C30.8495 68.9121 28.3568 70.2961 25.7457 71.425C23.6404 72.3222 21.9181 72.7277 20.484 73.0653C19.5384 73.2878 18.7182 73.4809 17.9962 73.766C12.8477 75.8103 6.28232 78.421 2.66975 84.2355ZM24.7611 64.4024C29.7936 64.4024 33.8735 60.3332 33.8735 55.3138C33.8735 50.2943 29.7936 46.2251 24.7611 46.2251C19.7283 46.2251 15.6484 50.2943 15.6484 55.3138C15.6484 60.3332 19.7283 64.4024 24.7611 64.4024ZM71.8489 97.7313C69.6424 79.1818 85.5637 65.0392 87.7268 63.1621C86.2343 65.2442 77.7599 77.4558 81.6645 91.6686C82.7477 95.5786 84.6192 99.2274 87.1644 102.392C86.542 97.3617 87.8754 92.2851 90.8905 88.2057C93.5525 84.7525 97.2944 82.2846 101.523 81.1938C96.6298 91.0474 94.6204 102.077 95.7253 113.018C96.6075 121.239 99.2483 129.176 103.47 136.292C95.3833 132.259 88.269 126.527 82.6163 119.49C78.6792 114.555 73.0061 107.44 71.8489 97.7313ZM62.5956 12.0713C64.307 14.7326 65.3923 17.7457 65.7701 20.8848C65.8673 21.7533 66.0621 23.9917 64.5315 31.9046C63.8663 35.3243 63.2121 38.1183 62.7361 40.0276C64.3323 38.3234 66.1514 36.841 68.1441 35.6209C72.2663 33.0805 75.9752 32.4245 79.2368 31.8477C80.1302 31.6897 80.99 31.5376 81.8156 31.3544C86.0177 30.4212 91.8475 28.118 98.3858 21.9852C96.1341 22.7281 93.8241 23.282 91.4797 23.6411C88.5062 24.0774 85.5112 24.3528 82.5079 24.4664C82.2481 24.4737 81.9982 24.4793 81.7566 24.4848L81.7561 24.4848C79.8506 24.5279 78.4567 24.5593 76.7051 25.2917C75.5361 25.7937 74.4622 26.4925 73.5306 27.3574C73.9174 25.0414 73.6804 22.6642 72.8437 20.4695C70.3074 14.0454 63.4013 12.2655 62.5956 12.0713ZM90.6251 62.6389C89.4153 64.9629 88.8885 67.5806 89.1055 70.1902C91.4256 66.3229 93.989 64.4403 95.9034 63.4371C97.3521 62.6711 98.5304 62.3545 100.052 61.9455C101.167 61.6461 102.465 61.2973 104.188 60.6863C106.717 59.7933 109.165 58.6873 111.505 57.3798C110.234 60.7186 107.915 65.0445 103.502 67.2937C102.042 68.0386 101.12 68.1656 100.021 68.3169C99.2096 68.4286 98.3024 68.5535 97.012 68.9496C90.0193 71.091 82.3129 77.9575 82.5131 85.4765C82.6063 87.7379 83.325 89.9296 84.5897 91.8089C84.8025 89.672 85.3633 87.5843 86.25 85.6275C86.8394 84.3168 89.7922 77.8172 95.4922 76.3824C96.465 76.1359 97.0466 76.1597 97.7206 76.1872C98.433 76.2163 99.2485 76.2496 100.738 75.9725C103.194 75.4954 105.537 74.5602 107.644 73.2163C107.638 73.2863 107.631 73.3637 107.624 73.448C107.573 74.0188 107.496 74.9056 107.368 75.9725C106.827 80.4871 105.892 84.6566 102.604 97.1433C102.069 98.9241 101.706 100.752 101.522 102.602C101.432 105.118 101.579 107.637 101.96 110.126C102.89 115.596 107.655 125.003 114.523 125.413C118.054 125.623 122.354 123.465 123.225 120.315C123.673 118.692 123.078 117.252 122.392 115.634C120.288 110.596 116.01 107.958 114.112 106.82C111.433 105.228 108.478 104.153 105.4 103.654C111.568 77.2167 117.735 50.7831 123.901 24.3533L121.829 22.5625C116.502 43.6093 110.781 50.1791 106.227 51.8996C103.337 53.0045 100.562 54.3883 97.9421 56.0314C92.4476 59.4565 91.0362 61.8837 90.6251 62.6389Z" fill="url(#paint0_linear_266_9124)"/>
<defs>
<linearGradient id="paint0_linear_266_9124" x1="0" y1="0" x2="133.57" y2="9.09154" gradientUnits="userSpaceOnUse">
<stop stop-color="#D19A08"/>
<stop offset="0.276042" stop-color="#FED466"/>
<stop offset="0.5" stop-color="#E3BA4F"/>
<stop offset="0.739583" stop-color="#D19A08"/>
<stop offset="1" stop-color="#D19A08"/>
</linearGradient>
</defs>
</svg>
